<svg transform="scale(1)" version="1.1" id="Layer_1" xmlns="http://www.w3.org/2000/svg" xmlns:xlink="http://www.w3.org/1999/xlink" x="0px" y="0px" viewBox="0 0 500 500" xml:space="preserve" class="show_show__wrapper__graphic__5Waiy "><title>React</title><style type="text/css">
	.st0{fill:#FFFFFF;}
	.st1{fill:#000005;}
	.st2{fill:#CB997E;}
</style><g id="glass-5"><path class="st0" d="M116.1,107.5c0,0,47.1,13.2,34.3,49.1s-83,184,20,220s144.3-30.3,135.7-83.5s-46.6-144.6-6.4-176.3
		C299.7,116.8,190,72.7,116.1,107.5z"></path><path class="st1" d="M117.3,109.7c5.1,1.5,10.1,3.6,14.7,6.3c4.2,2.3,8.1,5.2,11.6,8.5c1.7,1.6,3.2,3.4,4.5,5.3
		c0.3,0.4,0.2,0.2,0.3,0.5l0,0c0.1,0.1,0.2,0.3,0.2,0.4l0.1,0.2c0,0,0.2,0.4,0.3,0.6c0.5,1.1,0.9,2.3,1.3,3.5
		c1.5,5.9,1.3,12.1-0.7,17.9c-0.9,3-2.1,5.9-3.3,8.8c-2.9,7.4-5.8,14.8-8.6,22.2c-3.6,9.6-7,19.2-10.1,29
		c-3.4,10.8-6.4,21.8-8.8,32.9c-2.5,11.3-4.1,22.8-4.8,34.3c-0.7,11.1-0.1,22.3,1.9,33.2c2.1,10.9,6.1,21.4,11.8,30.9
		c5.7,9.6,13.4,17.8,22.7,24c12.4,8.3,27,12.9,41.3,16.4c15,3.6,30.7,5.3,46.1,3.6c12.1-1.2,23.8-5.1,34.3-11.3
		c9.1-5.5,16.8-13,22.7-21.8c5.7-8.6,9.6-18.1,11.7-28.2c2.1-9.8,2.5-19.9,1.1-29.9c-1.8-13.5-5.3-26.7-8.6-39.9
		c-3.8-15.1-7.7-30.2-10.8-45.5c-3-14.6-5.4-29.4-5.4-44.3c-0.1-12.3,1.5-25.2,7.5-36.1c2.7-4.8,6.2-9,10.5-12.5
		c0.4-0.3-2-4.1-2.5-4.3c-3.8-1.5-7.6-2.8-11.5-4.2c-9.8-3.3-19.8-6.2-29.9-8.7c-13.9-3.5-28-6.1-42.3-7.8
		c-15.8-2-31.8-2.5-47.7-1.4c-16,1.2-32,4.3-46.8,10.4c-1.8,0.8-3.7,1.6-5.4,2.4C114.6,105.5,116.8,109.9,117.3,109.7
		c14.6-6.8,30.4-10.6,46.4-12.2c15.9-1.5,31.9-1.4,47.7,0.3c14.6,1.5,29,4,43.3,7.3c10.7,2.5,21.3,5.5,31.8,8.9
		c4.7,1.6,9.4,3.4,14.1,5l0.2,0.1l-2.5-4.3c-9.3,7.4-14.3,18.2-16.5,29.6c-2.5,13.4-1.7,27.3,0,40.7c2,15.5,5.4,30.7,9.1,45.9
		c3.5,14.6,7.4,29,10.7,43.7c2.5,11.1,4.7,22.2,4.2,33.6c-0.4,10.2-2.6,20.2-6.5,29.6c-8.3,20.2-25.1,35.7-45.9,42.3
		c-13,4.2-26.9,5.2-40.4,4.1c-8.3-0.7-16.6-2.1-24.8-4.1c-8.5-2-16.8-4.6-24.8-7.9c-10.8-4.5-20.9-11-28.7-19.8
		c-1.8-1.9-3.4-4-4.9-6.1c-0.6-0.9-1.4-2-1.8-2.7c-0.2-0.2-0.3-0.5-0.5-0.7s-0.2-0.3-0.2-0.4c0.2,0.4,0,0,0-0.1
		c-0.2-0.3-0.3-0.6-0.5-0.9c0-0.1-0.2-0.4,0-0.1l-0.2-0.4c-2.3-4.4-4.2-9.1-5.7-13.9c-3-10.5-4.5-21.4-4.4-32.4
		c0-11.5,1-23,3.1-34.4c2-11.4,4.7-22.6,7.9-33.7c3-10.2,6.3-20.3,9.9-30.3c3-8.2,6.1-16.4,9.3-24.6c2.8-7.1,6.4-14.5,7.1-22.2
		c1.1-11.4-5-22.6-13.2-30.1c-6.3-5.6-13.6-10-21.6-12.8c-1.3-0.5-2.7-1-4.1-1.4c0,0,0.9,2.1,1,2.3
		C116.1,108.2,116.7,109.5,117.3,109.7z"></path><path class="st2" d="M136.7,231.1c0,0,136.5-5.2,146.9,8.3s22.8,106.6-33.1,127.3S95.3,359.4,136.7,231.1z"></path><path class="st2" d="M137.8,233.1c2.6-0.1,5.1-0.2,7.7-0.2c6.7-0.2,13.3-0.4,19.9-0.5c9.2-0.2,18.4-0.2,27.6-0.3
		c10.1,0,20.3,0.1,30.4,0.4c9.5,0.3,19.1,0.7,28.6,1.4c7.3,0.4,14.6,1.4,21.7,2.9c1.3,0.3,2.6,0.6,3.9,1c0.6,0.2,1.1,0.4,1.7,0.6
		s-0.1,0,0,0l0.4,0.1l0.8,0.3c0.4,0.2,0.8,0.4,1.2,0.6s-0.5-0.3,0.1,0.1c0.1,0.1,0.3,0.2,0.5,0.3c0.4,0.3-0.5-0.5-0.1-0.1
		s-0.1-0.1,0-0.1s1,1.6,0.4,0.5c0.5,0.9,1,1.8,1.4,2.7l0.2,0.4c0.2,0.4-0.1-0.3,0,0s0.2,0.6,0.4,0.9c0.2,0.6,0.5,1.3,0.7,1.9
		c1,3.1,1.9,6.2,2.5,9.4c1.7,8.3,2.6,16.7,2.9,25.2c0.3,9.9-0.4,19.9-2.1,29.6c-1.7,9.9-4.9,19.5-9.7,28.3
		c-4.7,8.6-11.5,15.9-19.8,21.2c-7.2,4.5-15.6,7.1-23.8,8.8c-7.6,1.6-15.4,2.3-23.2,2.1c-8-0.1-16-1.1-23.8-3.1
		c-7.8-1.9-15.2-4.8-22.2-8.8l-0.7-0.4l-0.3-0.2c-0.3-0.2,0.3,0.2,0,0l-1.3-0.8c-0.9-0.5-1.7-1.1-2.6-1.7c-1.7-1.1-3.3-2.4-4.9-3.6
		c-0.2-0.1-0.4-0.3-0.6-0.5c-0.4-0.3,0.2,0.2-0.2-0.2l-1.3-1.1c-0.8-0.7-1.5-1.4-2.2-2s-1.5-1.5-2.2-2.2l-1-1.1l-0.6-0.6
		c0.4,0.4-0.1-0.2-0.3-0.3c-1.4-1.6-2.7-3.2-3.9-4.9c-0.6-0.9-1.3-1.8-1.9-2.7l-0.4-0.6c0.2,0.4-0.1-0.2-0.2-0.3
		c-0.3-0.5-0.6-0.9-0.9-1.4c-2.3-3.8-4.2-7.8-5.8-11.9c-3.5-9.6-5.5-19.7-5.8-29.9c-0.4-12.8,0.9-25.7,3.8-38.2
		c1.6-7.3,3.6-14.6,5.9-21.7c0.6-1.7-3.4-4.8-4-2.8c-4.7,14.1-7.8,28.6-9.2,43.3c-1.2,11.6-0.7,23.3,1.5,34.8
		c1.9,9.5,5.4,18.6,10.3,26.9c4.7,7.7,10.7,14.5,17.7,20.2c6.6,5.3,13.9,9.5,21.7,12.7c7.9,3.1,16.2,5.3,24.6,6.4
		c8.1,1.1,16.3,1.2,24.4,0.5c7.8-0.7,15.5-2.2,23-4.6c9.5-3,18.2-8.3,25-15.6c6.8-7.4,11.6-16.5,14.9-26c3.2-9.8,5.1-20,5.7-30.3
		c0.7-9.6,0.4-19.2-0.7-28.8c-0.7-7.5-2.3-14.8-4.6-21.9c-0.7-2.4-1.7-4.7-3-6.8c-1.2-2-3-3.6-5.1-4.6c-5.2-2.6-11.4-3.4-17.1-4.2
		c-8.6-1.2-17.2-1.8-25.9-2.3c-10.2-0.5-20.4-0.8-30.6-0.9c-10-0.1-20.1-0.1-30.1,0c-8.3,0.1-16.6,0.2-24.9,0.4
		c-4.9,0.1-9.8,0.2-14.7,0.4l-2,0.1c-1.1,0-1.1,1.2-0.7,2C135.5,232.2,136.6,232.9,137.8,233.1z"></path><path class="st1" d="M140,106.5c2.7,1.3,5.4,2.5,8.2,3.6c7.4,3,14.9,5.6,22.5,7.9c10.9,3.2,22,5.8,33.3,7.5
		c13.5,2.1,27.1,2.9,40.7,2.5c15.2-0.5,30.2-2.8,44.8-6.9c1.9-0.5,3.7-1.1,5.6-1.7c0.9-0.3,1.8-1.1,1.1-2.1
		c-0.9-0.9-2.2-1.2-3.4-0.8c-14.3,4.6-29.1,7.3-44.1,8.2c-13.4,0.7-26.8,0.2-40-1.7c-11.2-1.5-22.3-3.9-33.1-7
		c-4.4-1.2-8.7-2.6-13-4.1c-3-1-6.4-2.3-9.7-3.6s-6.6-2.8-9.8-4.3l-0.1-0.1c-1.1-0.6-2.5-0.5-3.5,0.3C138.5,105,139.2,106,140,106.5
		L140,106.5z"></path><path class="st1" d="M204.6,361.2c8.3,0.9,16.8,1.3,25.1-0.1c8.6-1.6,16.8-4.9,24.1-9.9c5.2-3.5,10-7.5,14.5-11.8
		c1.6-1.5-2.2-4.8-3.9-3.2c-7.2,6.9-15.1,13.1-24.3,17.1c-7.2,3.1-14.9,4.6-22.8,4.7c-4.7,0-9.3-0.3-13.9-0.8
		c-0.8-0.1-1.5,0.4-1.6,1.2c0,0.2,0,0.5,0.1,0.7C202.3,360.2,203.3,361,204.6,361.2L204.6,361.2z"></path><path class="st0" d="M150,217.6c-0.1-3.2,0.8-6.4,2.8-9"></path><path class="st1" d="M152.2,218.3c0-0.4,0-0.8,0-1.2c0-0.2,0-0.2,0,0v-0.3c0-0.1,0-0.3,0-0.4c0.1-0.8,0.3-1.6,0.5-2.3
		c0.1-0.4,0.2-0.7,0.4-1.1c0.1-0.2,0.1-0.4,0.2-0.6s0.1-0.2,0,0c0-0.1,0.1-0.1,0.1-0.2c0.4-0.7,0.8-1.4,1.2-2c0.7-0.9-0.3-2.2-1-2.8
		s-2.2-1.2-3-0.2c-2.1,2.8-3.2,6.3-3,9.9c0.2,1.2,1.2,2.2,2.4,2.5c1,0.2,2.1,0,2-1.2L152.2,218.3z"></path><path class="st0" d="M164.1,178.9c1.8-6.3,4.1-12.5,6.8-18.4"></path><path class="st1" d="M166.3,179.9c1.7-6.1,3.9-12.1,6.6-17.9c0.6-1.2,0.2-2.6-0.8-3.3c-0.8-0.6-2.6-0.9-3.2,0.3
		c-2.8,6.1-5.1,12.5-7,18.9C161.1,180.6,165.5,182.9,166.3,179.9L166.3,179.9z"></path><path class="st1" d="M292.5,128.6c10.5-1.8,21,3.5,27.7,11.4c7,8.3,10.8,19.6,11.9,30.2c0.6,5.6,0.1,11.4-2.4,16.4
		c-2.4,4.7-6.2,8.4-10,12s-7.7,7.4-10.6,12c-2.9,4.8-4.8,10.1-5.6,15.6c-0.8,5.7-0.6,12.8,4.4,16.6c3.7,2.8,10.1,2.4,11.5-2.6
		c0.6-2.1-3.4-4.8-4.1-2.1c-0.4,1.5-2.2,2.1-3.6,2.1c-1.5,0.1-2.9-0.8-3.4-2.3c-0.8-2.2-1.1-4.5-0.8-6.9c0.2-2.7,0.7-5.4,1.4-8
		c1.5-5.3,4.2-10.2,7.8-14.3c3.4-3.9,7.4-7.1,10.9-10.8c3.8-3.8,6.6-8.5,8.1-13.7c1.2-5.5,1.3-11.1,0.2-16.6
		c-1.9-10.9-6-21.9-13.3-30.4c-8-9.2-20.1-15-32.4-12.9c-1.2,0.2-0.8,2-0.4,2.7C290.1,128.1,291.3,128.7,292.5,128.6L292.5,128.6z"></path><path class="st0" d="M140,240c2.1,1.3,4.3,2.3,6.6,3.2c3.2,1.3,6.5,2.4,9.8,3.3c9.1,2.6,18.3,4.8,27.6,6.3c11,2,22.1,3.2,33.3,3.6
		c11.1,0.5,22.2-0.1,33.1-2c9.5-1.8,19.1-4.8,27-10.5c0.9-0.7,1.8-1.3,2.6-2c2.5-2-1.1-5.2-3.4-3.4c-3.3,2.7-7,5-10.9,6.6
		c-4.3,1.9-8.8,3.3-13.3,4.2c-10.3,2.1-20.9,3-31.4,2.6c-10.9-0.3-21.8-1.3-32.6-3c-9.3-1.5-18.5-3.5-27.6-6c-3.5-1-7-2.1-10.4-3.3
		c-1.3-0.5-2.6-1-4-1.6c-0.4-0.2,0.5,0.2,0,0L146,238l-0.8-0.4c-0.5-0.2-0.9-0.5-1.4-0.7s-0.8-0.4-1.1-0.7
		C140.2,234.6,137.2,238.2,140,240L140,240z"></path><path class="st0" d="M144,265.8c6.5-2.1,83.9-41,83.9-41s25.6,45.6-25.9,65.9C167.6,304.1,144,265.8,144,265.8z"></path><path class="st2" d="M145.3,267.5c3.7-1.4,7.3-3,10.8-4.9c6.8-3.2,13.6-6.6,20.4-9.9c7.8-3.8,15.6-7.7,23.4-11.6
		c6.6-3.3,13.2-6.5,19.7-9.8l6.4-3.2c1-0.5,2.1-1,3.1-1.5l0.1-0.1l-3.7-1.4c0.6,1.1,1.2,2.3,1.7,3.5c0.6,1.3,1.1,2.6,1.5,4
		c0.6,1.9,1.1,3.3,1.5,4.9c2.2,9.1,2.3,18.6-1.4,27.3c-5.3,12.6-18.1,21-30.7,25.1c-6.5,2.1-13.4,2.4-20,0.7
		c-5.7-1.6-11-4.3-15.7-7.9c-6.3-4.8-11.8-10.6-16.2-17.2c-0.2-0.2-0.4-0.7,0,0.1c-0.7-1.1-1.9-1.7-3.1-1.5c-0.9,0.1-2.2,1-1.5,2.1
		c4,6.1,8.8,11.6,14.5,16.3c10.4,8.9,23.8,14.6,37.7,12.5c8.3-1.2,16.5-5,23.5-9.7c5.6-3.6,10.4-8.5,13.9-14.2
		c5.4-9,6.6-19.6,4.7-29.7c-1-5.8-2.8-11.4-5.5-16.6l-0.1-0.2c-0.6-1.1-2.4-2-3.7-1.4l-7.8,3.9c-6.3,3.1-12.6,6.3-18.8,9.4
		c-7.7,3.9-15.5,7.7-23.3,11.5c-7,3.5-14.1,6.9-21.1,10.3c-4.1,2-8.1,4-12.3,5.7l-0.6,0.2c-0.8,0.2-1.2,1.1-1,1.8
		c0.1,0.2,0.2,0.4,0.3,0.6C142.8,267.5,144.1,267.8,145.3,267.5z"></path><path class="st2" d="M189.8,254.2l13.5,22.9c1.4,2.4,5.7,0.6,4.1-2.1l-13.5-22.9C192.5,249.7,188.2,251.5,189.8,254.2L189.8,254.2z
		"></path><path class="st2" d="M181.1,255.8v22c0.1,1.2,0.6,2.3,1.4,3.1c0.3,0.4,1.3,1.4,1.3,0.3v-22c-0.1-1.2-0.6-2.3-1.4-3.1
		C182.1,255.8,181.1,254.7,181.1,255.8L181.1,255.8z"></path><path class="st2" d="M201.3,250.2c6.8,3.3,13.5,6.8,20.1,10.5c0.6,0.4,1.3,0.3,1.7-0.3c0.2-0.2,0.2-0.5,0.2-0.8
		c0-1.3-0.6-2.4-1.7-3.1c-6.6-3.7-13.3-7.2-20.1-10.5c-0.6-0.4-1.3-0.3-1.7,0.3c-0.1,0.2-0.2,0.5-0.2,0.7
		C199.6,248.3,200.3,249.5,201.3,250.2L201.3,250.2z"></path><path class="st0" d="M223.2,289c-3.6,1.2-7.2,2.5-10.8,4c-2.4,0.9-4.7,2.1-6.8,3.5c-1.5,1-2.5,1.9-2.2,3.8
		c1.3,6.7,3.5,13.2,6.6,19.4c1.7,3.7,4.1,7,7.1,9.8c2.9,2.5,6.2,4.4,9.7,5.7c4.4,1.7,9.7,3.4,14.3,1.7c5.2-1.9,10.1-4.2,14.8-7.1
		c1.9-1.2,4.2-2.6,5.5-4.5c1.1-1.7,0.4-3.5-0.2-5.4c-2-6.3-4.7-12.4-8-18.2c-1.4-2.4-2.9-4.8-5.3-6.3c-2.3-1.4-4.9-2.4-7.5-3.1
		c-5.1-1.4-10.2-2.5-15.4-3.3l-1.3-0.2c-1.2-0.2-0.6,1.3-0.3,1.8c0.7,1,1.8,1.6,2.9,1.8c-1-0.1,0.4,0.1,0.6,0.1l2.5,0.4
		c2.6,0.5,5.1,1,7.7,1.5c2.6,0.6,5.2,1.3,7.7,2.1c0.5,0.2,1.1,0.4,1.6,0.6l0.7,0.4l-0.1-0.1c0.1,0.1,0.3,0.2,0.5,0.3l0.2,0.1
		c0.3,0.2-0.4-0.3-0.2-0.1c0.5,0.4-0.3-0.3,0,0c0.5,0.4-0.1-0.1,0.2,0.2l0.5,0.7c1.5,2.3,2.9,4.7,4,7.3c1.4,2.8,2.6,5.8,3.7,8.7
		c0.5,1.3,0.9,2.6,1.3,3.9c0.3,0.8,0.5,1.6,0.6,2.5c-0.1,0.6-0.4,1.1-0.8,1.6c-0.6,0.8-1.4,1.5-2.2,2c-4.2,3.2-9.3,5.5-14.2,7.5
		c-1.5,0.7-3.1,1.3-4.7,1.7c-0.3,0-0.6,0.1-0.8,0.1c-0.5,0-1,0-1.5-0.1c-1.2-0.1-2.4-0.3-3.6-0.6c-6-1.4-11.4-4.2-14.6-9.5
		c-3.5-6-6-12.6-7.5-19.4c-0.3-0.9-0.5-1.9-0.6-2.9c0-0.3-0.1,0.3,0,0v-0.1c0.2-0.3,0.4-0.5,0.6-0.8c1.6-1.3,3.3-2.4,5.2-3.1
		c4.1-1.9,8.2-3.5,12.4-4.8l0.8-0.3C228.1,292,224.7,288.5,223.2,289z"></path><path class="st0" d="M223.8,296.8c0.4,2.8,1,5.6,1.6,8.3c0.9,4.1,1.8,8.8,4.3,12.3c2,3,6.1,3.6,9.4,4.3c4.3,0.8,8.6,1.3,12.9,1.6
		c2.7,0.2,5.4,0.4,8.1,0.5c1,0,2.4-0.4,2.3-1.7s-1.5-2.1-2.6-2.1c-6.1-0.2-12.3-0.7-18.3-1.6c-1.7-0.2-3.4-0.5-5-1
		c-0.4-0.1-0.7-0.2-1.1-0.3l-0.5-0.2c-0.5-0.2,0.4,0.2,0.1,0c-0.2-0.1-0.5-0.3-0.7-0.4c-0.4-0.1,0.3,0.4,0.1,0.1
		c-0.1-0.1-0.5-0.5-0.1,0c-0.2-0.3-0.4-0.5-0.6-0.8c-0.1-0.2-0.2-0.4-0.3-0.6c-0.4-0.9-0.8-1.8-1.2-2.8c-0.7-2-1.3-4-1.7-6
		c-0.7-3-1.3-6.1-1.8-9.2c-0.3-1.2-1.3-2.1-2.6-2.1C225.2,295.1,223.6,295.6,223.8,296.8L223.8,296.8z"></path><path class="st0" d="M216.4,326.7c2.2-0.7,4.3-1.6,6.4-2.7l8.2-3.7l1.9-0.9c1-0.5,2.1-1.5,1.8-2.8s-1.8-1.4-2.7-0.9
		c-4.4,2-8.8,4.1-13.3,6l-1.6,0.7c-0.3,0.1-1.5,0.5-0.4,0.2c-1.3,0.2-2.2,1.2-2.5,2.5c0,0.9,0.7,1.7,1.6,1.7
		C216,326.7,216.2,326.7,216.4,326.7L216.4,326.7z"></path></g><g id="glass-4"><path class="st0" d="M168,301.7c0,0-8.1,72.2-35.8,91c0,0,2.9,8.4,1.4,10.3s-58.1,5.3-59.9,0.4c-1.1-2.7-0.7-5.8,1.1-8.2
		c0,0-41.7-29.1-24.3-96.1C50.5,299.1,105.5,267,168,301.7z"></path><path class="st1" d="M165.7,302.5c-1,8.5-2.5,17-4.4,25.4c-3.5,16-8,32.2-15.9,46.7c-3.8,7-8.6,14.1-15.3,18.7
		c-0.1,0-0.2,0.1-0.3,0.3c1,2.6,1.6,5.3,1.8,8c0,0.6,0,1.2-0.2,1.8c0,0-0.2,0.3-0.2,0.3c0.1,0.2-0.2-0.3,0.1,0
		c0.5-0.3,1.1-0.6,1.7-0.8c1.8-0.6-0.2,0.1,0.7-0.2c0.4-0.1,0.2-0.1,0.1,0c-0.4,0.1,0.5-0.1,0,0c-0.3,0-0.6,0.1-0.9,0.2l-0.3,0
		L132,403l-1.5,0.2c-1.1,0.1-2.2,0.3-3.4,0.4c-2.8,0.3-5.7,0.5-8.6,0.7c-6.8,0.5-13.5,0.7-20.3,0.8c-5.7,0.2-11.4,0-17.1-0.7
		c-1.4-0.2-3.5-0.3-4.7-1.3s-1.1-3.1-1-4.4c0.1-1.5,0.6-3,1.6-4.2v-0.1c-5.1-3.6-9.4-8.8-13.1-13.8c-9-12.8-14-28-15.1-43.6
		c-0.8-13,0.6-26.1,4-38.7l-0.3,0.3c-0.7,0.4-0.1,0.1,0.1,0l1.1-0.6l0.8-0.4l0.5-0.2c0.6-0.3-0.2,0.1,0.2-0.1
		c0.8-0.4,1.6-0.8,2.4-1.1l1.5-0.6c-0.6,0.3,0.3-0.1,0.4-0.2l1-0.4l1.7-0.7c0.2-0.1,1-0.4,0.4-0.2l1.2-0.4c2.8-1,5.5-1.9,8.5-2.7
		c17.7-4.9,36.4-5.7,54.5-2.5C140.4,291,153.6,295.8,165.7,302.5c0.6,0.3,1.9-0.3,2.5-0.5c0.2-0.1,2.3-1.1,2.2-1.2
		c-16.6-9.3-35-14.7-54-16c-14.2-0.8-28.5,0.8-42.2,4.7c-8.3,2.2-16.3,5.3-23.9,9.1c-0.5,0.2-1,0.5-1.4,0.8c-1,0.6-1,1.6-1.2,2.6
		c-0.6,2.3-1.1,4.6-1.5,7c-1.6,8-2.3,16.2-2.2,24.4c0.2,12.5,2.9,24.9,8.2,36.3c3.5,7.5,8.2,14.4,13.9,20.4c1.6,1.6,3.2,3.2,5,4.6
		c0.4,0.3,0.8,0.7,1.3,1c0.1,0,0.2,0.1,0.2,0.2s0-0.2,0,0s-0.5,0.8-0.7,1.1c-0.7,1.4-1,3-0.9,4.6c0,1,0.3,2,0.9,2.9
		c0.8,0.6,1.8,1,2.8,1.1c3.9,0.7,7.9,1,11.9,1c10.8,0.2,21.5-0.1,32.2-1c3.8-0.3,7.5-0.6,11.2-1.2c1.7-0.3,3.4-0.8,5-1.6
		c0.7-0.4,1.1-0.6,1.4-1.4c0.2-1.3,0.2-2.6-0.1-3.9c-0.4-2-0.9-3.9-1.5-5.8l-0.3,0.3c6-4.1,10.5-10,14.2-16.2
		c4.1-7.2,7.5-14.8,10.1-22.7c4.7-14.1,8.2-28.5,10.4-43.2c0.5-3,1-6.1,1.3-9.1c0-0.2-2.3,0.5-2.5,0.5
		C167.5,301.5,165.7,301.9,165.7,302.5z"></path><path class="st1" d="M51.2,303.4c2.2,2.6,5.3,4.6,8.2,6.2c8.5,4.8,18.2,7.3,27.7,8.8c7.8,1.2,15.6,1.7,23.5,1.7
		c8.3,0.1,16.7-0.4,24.9-1.5c9.2-1.3,19.1-3.4,27.1-8.4c2.7-1.7,5.8-4,7.2-6.9c0,0,0-0.1,0-0.1c0.5-1.2,0.1-2.6-0.8-3.4
		c-0.8-0.6-2.3-0.8-2.8,0.3c-0.1,0.1-0.1,0.3-0.2,0.4c-0.1,0.2-0.2,0.3-0.3,0.5c-0.1,0.1-0.1,0.2-0.2,0.3c-0.2,0.4,0.4-0.5,0,0
		c-1.2,1.4-2.5,2.6-3.9,3.7c-0.1,0-0.5,0.3-0.2,0.1s-0.1,0.1-0.2,0.1l-0.9,0.6c-0.6,0.4-1.3,0.8-1.9,1.1c-1.6,0.8-3.2,1.6-4.9,2.2
		c-4.6,1.8-9.4,3.1-14.3,3.9c-7.4,1.3-15,2-22.5,2.1c-8.2,0.3-16.4,0-24.6-0.9c-10.2-1.2-20.4-3.4-29.4-7.9
		c-1.3-0.7-2.7-1.4-3.9-2.2l-0.8-0.5c0.5,0.3-0.1-0.1-0.4-0.2c-0.4-0.3-0.9-0.6-1.3-0.9c-0.6-0.5-1.2-0.9-1.7-1.5l-0.5-0.5
		c-0.4-0.4,0.5,0.6,0.1,0.1c0,0-0.1-0.1-0.1-0.1c-0.7-0.8-2-1.4-2.9-0.5C50.2,301,50.3,302.5,51.2,303.4L51.2,303.4z"></path><path class="st1" d="M45.2,320.7c-5.8-1.7-10.8,2.3-14.9,6.1s-7.6,7.8-8.6,13.2c-1.6,9.8,4.4,19.1,13,23.5c4.6,2.4,9.8,3.3,15,2.6
		c1.2-0.1,2.3-0.9,2.8-2c0.3-1.1-0.8-1.7-1.8-1.6c-7.5,1-15-2.3-19.8-8c-2.6-3.1-4.2-6.9-4.6-11c-0.4-4.5,1.3-9,4.5-12.2
		c1.6-1.8,3.4-3.5,5.3-5c1.7-1.3,3.7-2.8,6-2.1c1.2,0.3,2.5-0.1,3.3-1C46,322.4,46.4,321,45.2,320.7L45.2,320.7z"></path><path class="st1" d="M63,313.3c-1.1,7.5-1.7,15.1-1.8,22.8c-0.2,14.2,0.9,29.1,6.4,42.4c2.9,7,7.3,13.5,13.7,17.9
		c0.6,0.4,1.9-0.3,2.5-0.5c0.2-0.1,2.4-1.3,2.1-1.5c-11.9-8-16.6-22.9-18.6-36.4c-1.8-12.8-2-25.7-0.7-38.5c0.2-2.7,0.5-5.4,1-8
		c0-0.4-2.3,0.5-2.5,0.5C64.6,312.1,63.1,312.6,63,313.3L63,313.3z"></path><path class="st1" d="M81.1,315c-1.1,7.6-1.8,15.2-2,22.9c-0.4,13,0.2,26.5,4.2,39c2.3,7,6.1,13.4,11.2,18.8c0.7,0.7-0.2-0.9-0.2-1
		c-0.6-1-1.3-1.9-2.1-2.7c-0.3-0.4-0.7-0.8-1-1.1c0,0-0.3-0.3-0.1-0.1c-0.1-0.1-0.2-0.2-0.3-0.4c0.1,0.1,0.3,0.4,0,0
		s0.1,0.1-0.1-0.2c-0.6-0.9-1.2-1.9-1.7-2.9c-1.3-2.6-2.3-5.2-3.2-8c-1.7-6-2.9-12.2-3.3-18.4c-0.9-11.2-0.7-22.4,0.5-33.5
		c0.3-2.8,0.6-5.5,1-8.2c0.1-0.6-0.9-1.7-1.2-2.2c-0.3-0.5-0.7-0.9-1.1-1.4C81.7,315.6,81.2,315,81.1,315L81.1,315z"></path><path class="st1" d="M125.2,392.1c3.3-2.9,5.9-6.8,8.1-10.5c6.4-10.6,10.2-22.6,12.4-34.7c1.8-10.5,2.6-21.2,2.4-31.9
		c0-0.5-4.7,0.4-4.7,1.7c0.3,17-1.5,34.2-7.2,50.2c-2.9,8.1-6.9,16.3-12.3,22.9c-0.9,1.1-1.9,2.2-2.9,3.1c-0.8,0.7,0.8,0.6,1.2,0.5
		C123.2,393.3,124.3,392.8,125.2,392.1L125.2,392.1z"></path><path class="st1" d="M99.5,318.9c-0.6,7.3-1,14.6-1.4,21.9c-0.6,13-1.2,26.1-0.5,39.1c0.2,4.8,0.4,10,2.3,14.6
		c0.4,1,2.3,0.2,2.9-0.2c0.9-0.6,1.7-1.6,1.2-2.6c-0.1-0.1,0.1,0.2-0.1-0.2c-0.1-0.2-0.1-0.4-0.2-0.5c-0.1-0.4-0.2-0.8-0.3-1.2
		c-0.2-0.9-0.4-1.9-0.5-2.8c-0.4-2.4-0.6-4.8-0.7-7.2c-0.4-6.2-0.4-12.4-0.3-18.5c0.2-11.9,0.7-23.8,1.5-35.6
		c0.2-2.6,0.3-5.2,0.6-7.8C104.1,315.2,99.6,317.1,99.5,318.9z"></path><path class="st1" d="M113.9,391.9c2.4-4.3,4.3-8.7,5.9-13.4c3.9-11.2,6.1-23,6.5-34.9c0.3-8.9-0.4-17.9-2.1-26.7
		c-0.1-0.5-4.7,1-4.5,2.2c2.8,14.6,2.9,29.5,0.2,44.1c-1.6,9-4.4,17.8-8.2,26.2c-0.7,1.5-1.4,2.9-2.2,4.3c-0.4,0.6,1.8-0.1,1.9-0.1
		C112.3,393.4,113.2,392.8,113.9,391.9L113.9,391.9z"></path><path class="st1" d="M60.1,307.8c0,0,20.3-9.5,55.5-9.1s47.2,9.8,47.2,9.8S107.1,332.6,60.1,307.8z"></path><path class="st1" d="M61.1,310c2.9-1.3,5.8-2.3,8.9-3.2c8.2-2.4,16.5-4,25-4.9c12.2-1.3,24.5-1.4,36.7-0.2
		c7.9,0.7,15.6,2.3,23.1,4.9c0.7,0.2,1.3,0.5,2,0.8l0.8,0.3c0.1,0,0.3,0.1,0.4,0.2c0.8,0.4,1.6,0.8,2.4,1.2c0.5,0.3,1,0.6,1.4,0.9
		c0.1,0.1,0.2,0.2,0.4,0.2c0.3,0.1-0.6-0.5-0.4-0.3v-3.8c-6.9,2.8-14,5.1-21.3,6.6c-15.9,3.7-32.6,5-48.8,2.8
		c-10.8-1.5-21.3-4.8-31-9.8c-0.9-0.5-2.2-0.4-2.5,0.8c-0.2,1.3,0.4,2.5,1.5,3.1c17.2,9,36.7,12.3,56,11.4
		c13.9-0.7,27.6-3.3,40.9-7.7c2.5-0.8,5-1.7,7.4-2.7c1.6-0.7,1.1-2.9,0-3.8c-2.2-1.6-4.5-2.8-7-3.8c-6.9-2.7-14.1-4.5-21.4-5.3
		c-12.2-1.6-24.5-1.9-36.8-0.8c-9.5,0.7-18.8,2.3-28,4.7c-4,1-7.9,2.3-11.7,3.9c-0.9,0.5-1.3,1.6-0.8,2.6c0,0.1,0.1,0.1,0.1,0.2
		C58.7,309.1,60,310.5,61.1,310z"></path></g><g id="glass-3"><path class="st0" d="M421.7,373.9c0,0-34.6,9.3-25.6,16.8s60.2,7.9,56.9-4.6S421.7,373.9,421.7,373.9z"></path><path class="st1" d="M422.1,373c-3.1,0.8-6.1,1.8-9.1,2.8c-5.5,1.7-10.7,4-15.6,6.9c-2.5,1.5-7,4.9-4.2,8.1
		c1.2,1.2,2.7,2.1,4.3,2.6c2.2,0.8,4.4,1.4,6.7,1.8c5.9,1.1,11.8,1.6,17.8,1.6c6,0.1,12.1-0.3,18-1.3c4.7-0.9,10.2-2.1,13.9-5.4
		c3.2-2.9,1.7-6.8-1-9.5c-4-4-10.1-5.6-15.5-6.7c-4.4-0.8-8.8-1.2-13.2-1.3h-0.8c-1.2,0-2.4,0.4-3.4,1.1c-0.7,0.5-0.6,1,0.3,1
		c2.9,0,5.7,0.2,8.5,0.5c5.3,0.6,10.9,1.7,15.6,4.3c2.2,1.1,4,2.8,5.4,4.8c0.8,1.3,1.4,3,0.9,4.5c-0.2,0.5-0.5,1-0.9,1.5l-0.4,0.4
		l-0.2,0.2c-0.2,0.2,0.3-0.2,0,0l-0.5,0.3l-0.2,0.2c-0.3,0.2,0.2-0.1,0,0l-0.5,0.3c-0.1,0-0.7,0.3-0.4,0.2l-0.5,0.2
		c-0.1,0-0.8,0.3-0.5,0.2s-0.4,0.1-0.5,0.1l-0.7,0.2l-0.5,0.1l-0.2,0.1l-0.5,0.1l-1.6,0.4l-0.7,0.1l-0.9,0.2
		c-1.3,0.2-2.5,0.4-3.8,0.5c-2.7,0.3-5.5,0.5-8.2,0.5c-5.7,0.1-11.4-0.2-17-1c-4.1-0.6-8.5-1.3-12.2-3.3c-1.2-0.7-2.5-1.6-2.6-3.1
		s1-2.5,1.9-3.4c1.6-1.3,3.3-2.4,5.1-3.2c0.6-0.3,1-0.5,1.3-0.6c0.6-0.3,1.2-0.6,1.9-0.8c1.2-0.5,2.4-1,3.6-1.4l0.6-0.2l0.6-0.2
		c0.6-0.2,1.2-0.4,1.8-0.6c1-0.4,2-0.7,3-1c1.4-0.5,2.9-0.9,4.3-1.3c0.8-0.2-0.6,0.2,0,0s2.6-0.6,2.8-1.4S422.4,372.9,422.1,373z"></path><path class="st0" d="M413.1,383.8c2.4-5.3,3.5,2.2,4.5-18.2s-3.9-32.8-10.6-34.1s-38-11.5-33.5-52.8s28.2-94,8.8-127.8
		c0,0,54-16.6,73.5-0.8c0,0-12.8,26.6-3.3,53.1s42.7,94.6,8.6,116c-22.5,14.1-28.3,14.9-29.5,26s-3.9,35.7,1.6,36.9"></path><path class="st1" d="M414.5,385.8c0.4-1,1.1-1.9,2-2.5c1.2-1.1,1.4-3,1.6-4.5c0.7-5.3,1-10.7,1-16.1c0.1-5.7-0.5-11.4-1.7-16.9
		c-1.5-6.4-4.7-15-11.9-16.6c-3.8-0.9-7.4-2.3-10.7-4.2c-2.5-1.4-4.8-3-7-4.8c-2.4-2-4.5-4.3-6.4-6.9c-2-2.8-3.5-5.8-4.6-9.1
		c-1.4-4.3-2.2-8.8-2.4-13.4c-0.1-5.5,0.2-11.1,1.2-16.5c0.8-5.6,1.9-11.2,3.1-16.8c2.5-11.6,5.3-23.1,7.7-34.7
		c4.4-21.1,8.2-44.6,0-65.3c-1-2.4-2.1-4.7-3.3-6.9l0.4,2.6c6.3-1.9,12.7-3.4,19.1-4.6c12-2.3,24.6-3.9,36.9-2.4
		c5.8,0.7,11.9,2.2,16.6,5.9l-1.6-3.9c-2.6,5.8-4.5,12-5.5,18.3c-2.4,12.6-1.4,25.5,2.9,37.6c5.8,15.9,12.6,31.4,17.4,47.8
		c2.7,9,4.5,18.2,5.4,27.6c0.6,8.1,0.2,16.7-3.1,24.3c-1.4,3.4-3.5,6.6-6.1,9.2c-3.7,3.8-8.5,6.3-13,9c-4.2,2.6-8.6,5-12.7,7.8
		c-2.6,1.5-4.8,3.5-6.7,5.9c-1.5,2.3-2.4,5-2.7,7.7c-0.5,4.3-0.9,8.6-1.2,12.8c-0.4,4.7-0.6,9.4-0.5,14.1c0.1,3.7,0.4,7.8,2.3,11.1
		c0.7,1.5,1.9,2.6,3.4,3.1c1,0.2,0.3-1.8,0.2-2.1c-0.4-0.9-1-2.1-2-2.4c-0.4-0.1,0.2,0.1-0.1,0s0,0,0,0c-0.2,0.1-0.3-0.6,0,0
		c-0.1-0.3,0.1,0.1,0.1,0.2c-0.4-0.5,0.1,0.5,0.1,0.1c0-0.2-0.1-0.3-0.2-0.5c0.1,0.4,0,0.1,0-0.1c-0.4-1.6-0.6-3.2-0.7-4.8
		c-0.2-4.5-0.1-9.1,0.2-13.6c0.3-4.4,0.7-8.7,1.2-13.1c0.3-2.7,0.7-5.4,2.1-7.8c1.6-2.3,3.6-4.3,6-5.8c3.7-2.6,7.7-4.9,11.6-7.2
		c4.6-2.8,9.6-5.3,13.6-8.9c2.8-2.5,5.2-5.5,6.9-8.8c3.7-7.1,4.7-15.3,4.5-23.1c-0.4-9.3-1.8-18.5-4.2-27.4
		c-4.4-17.1-11.1-33.4-17.5-49.9c-1.6-3.9-3-8-4-12.1c-1.4-6.4-1.9-12.9-1.4-19.4c0.7-8.5,2.7-16.8,6-24.6c0.2-0.4,0.3-0.8,0.5-1.2
		c0.5-1.1-0.8-3.2-1.6-3.9c-9.2-7.4-22.5-7.6-33.8-7c-11.4,0.8-22.6,2.6-33.6,5.5c-2.4,0.6-4.7,1.2-7,1.9c-0.8,0.2,0.2,2.4,0.4,2.6
		c4.9,8.6,6.7,18.6,6.9,28.5c0.2,11.2-1.4,22.3-3.5,33.3c-2.2,11.7-5.1,23.2-7.6,34.8c-2.4,10.8-4.9,21.9-5.5,33
		c-0.7,9.6,1.1,19.2,5.1,28c3.1,6.4,7.7,12,13.3,16.4c4.1,3.1,8.7,5.6,13.5,7.3c1.4,0.5,2.8,0.8,4.1,1.2c1.1,0.2,2,0.8,2.9,1.5
		c0,0,0.5,0.5,0.2,0.1c0.1,0.1,0.2,0.2,0.3,0.4c0.1,0.1,0.2,0.2,0.3,0.4c0.4,0.5-0.3-0.4,0.1,0.2c0.2,0.3,0.4,0.6,0.6,0.9
		c-0.3-0.5,0.1,0.2,0.1,0.2l0.3,0.6c0.4,0.7-0.2-0.5,0.1,0.3c0.1,0.2,0.2,0.5,0.3,0.7c0.2,0.4,0.3,0.8,0.5,1.2
		c0.3,0.7,0.6,1.9,0.8,2.8c0.6,2.4,1.1,4.9,1.3,7.4c0.6,6.3,0.6,12.7,0,19c-0.2,2.7-0.2,6.3-1.2,8.6c-0.1,0.2-0.2,0.5-0.4,0.7
		c-0.1,0.2,0.1-0.1,0,0L414,379c-0.4,0.2-0.7,0.5-1,0.8c-0.5,0.6-1,1.3-1.3,2c-0.4,0.9,0.4,2.3,0.9,3
		C412.8,385.1,414,386.6,414.5,385.8L414.5,385.8z"></path><path class="st2" d="M396.8,216.2c0,0,25-9.2,51.9,0.6c0,0,40.2,81.9-10.7,103.8s-54.7-33.9-50.4-58.6
		C392.5,233.3,396.8,216.2,396.8,216.2z"></path><path class="st2" d="M399,217.2c3.1-1.1,6.2-1.9,9.5-2.4c7.8-1.4,15.7-1.8,23.6-1c5.6,0.5,11.1,1.8,16.4,3.7l-2.1-1.3
		c1.4,2.9,2.6,5.8,3.8,8.8c2.9,7.1,5.2,14.4,7.2,21.8c2.5,9.1,3.9,18.5,4.1,28c0.1,9.1-1.3,18.5-5.5,26.7
		c-4.7,9.1-12.7,15.3-22.1,19.1c-5.4,2.2-11,3.6-16.8,4c-2.1,0.1-4.3,0-6.4-0.4l-0.9-0.2l-0.3-0.1l-0.7-0.2c-0.1,0-1-0.3-0.5-0.1
		l-0.6-0.2c-0.1,0-0.9-0.4-0.3-0.1l-0.6-0.2l-0.6-0.3c-0.5-0.3-1.5-0.8-2-1.2c-0.7-0.5-1.4-1-2.1-1.6c-1.4-1.2-2.7-2.6-3.8-4.1
		c-2.4-3.3-4.3-6.9-5.7-10.7c-2.9-8.1-3.9-16.8-4-25.4c-0.1-10.4,1.9-20.4,3.8-30.5s4-20.6,6.4-30.8c0.1-0.4,0.2-0.9,0.3-1.3
		c0.2-1-4.5-2.5-4.7-1.7c-2.3,9.5-4.2,19.2-6.1,28.8c-1.4,7.4-3,14.9-3.8,22.4c-0.5,4.7-0.7,9.4-0.5,14.1c0.3,9.9,1.9,20.2,6.6,29
		c2.1,4.1,5.1,7.8,8.8,10.6c4.5,3.3,9.7,5.3,15.2,6c6.2,0.7,12.4,0,18.2-2c6.4-1.8,12.5-4.9,17.8-8.9c8.5-6.9,13.2-17,14.8-27.7
		c1.6-11,0.4-22.2-1.8-33c-2-9.3-4.8-18.3-8.2-27.1c-1-2.6-2.1-5.2-3.3-7.8c-0.3-0.6-0.5-1.2-0.9-1.8c0-0.1-0.1-0.2-0.2-0.4
		c-0.3-0.3-0.6-0.6-1-0.8c-1.5-0.7-3-1.3-4.6-1.7c-15.7-4.9-32.4-5.1-48.2-0.7c-0.9,0.2-1.8,0.5-2.7,0.8s1.2,1.3,1.4,1.4
		C396.7,216.9,398,217.5,399,217.2z"></path><path class="st0" d="M387.6,153.4c0,0,36.6,12.1,64.9-2.3"></path><path class="st1" d="M386.5,155.3c4.7,1.5,9.6,2.6,14.5,3.3c10.7,1.8,21.6,2,32.3,0.4c7-1,13.7-3.1,20-6.2c0.9-0.5,2-1.5,1.5-2.7
		s-2.1-1.1-3-0.6c-17.8,9-39.5,8.1-58.4,3.4c-1.6-0.4-3.2-0.8-4.7-1.3C386.5,150.8,383.6,154.3,386.5,155.3z"></path><path class="st2" d="M377.8,170.1c1.2,0.1-0.1,0-0.5-0.1c-1-0.2-2-0.4-3-0.6c-1.5-0.3-2.9-0.7-4.3-1.2l-1.1-0.4l-0.6-0.2l-0.4-0.1
		c-0.9-0.3-1.7-0.7-2.5-1c-7.2-3.1-13.5-8.4-14.6-16.6c-0.5-5.3,0.6-10.6,3.2-15.3c1.1-2.1,2.5-3.9,4.2-5.5c0.2-0.2,0.5-0.4,0.7-0.6
		l0.4-0.3c0.4-0.3,0.9-0.7,1.4-1s1-0.6,1.4-0.9s0,0,0.3-0.2l0.8-0.4c0.5-0.2,1-0.4,1.6-0.6l0.7-0.2l0.4-0.1c0.5-0.1-0.2,0,0.1,0
		c1.1-0.3,2.2-0.5,3.3-0.6l0.8-0.1h0.5h-0.1c0.6,0,1.2-0.1,1.8-0.1c1.1,0,2.3,0.1,3.4,0.2h0.4h0.1l0.8,0.1c0.6,0.1,1.2,0.2,1.8,0.3
		c1.1,0.2,2.3,0.6,3.4,0.9c0.9,0.3,1.8,0.6,2.9,1.1s2.1,1,3.1,1.5c7.1,4,13.2,11.5,12.1,20.1c-0.1,1.1-0.4,2.3-0.7,3.4
		c-0.4,1.2,1.2,1.9,2.1,1.9c1.2,0.1,2.4-0.6,2.8-1.8c2.9-9.6-2.1-19-10-24.6c-8.2-5.8-19.4-8.6-29.3-6c-5.1,1.3-9.6,4.1-13,8.1
		c-3.8,4.7-6,10.5-6.5,16.5c-0.5,4.8,0.8,9.7,3.5,13.8c2.6,3.6,6,6.5,10,8.6c5.3,2.8,11,4.7,17,5.5l0.9,0.1c1.2,0.1,2.4-0.6,2.8-1.8
		C380.2,170.7,378.9,170.2,377.8,170.1L377.8,170.1z"></path><path class="st2" d="M365,137.9l6.5,5.7c0.4,0.4,0.9,0.6,1.4,0.6c0.5,0,0.9-0.4,1-0.8c0.3-1.2-0.2-2.5-1.1-3.3l-6.5-5.7
		c-0.4-0.4-0.9-0.6-1.4-0.6c-0.5,0-0.9,0.4-1,0.8C363.6,135.8,364,137.1,365,137.9L365,137.9z"></path><path class="st2" d="M362.6,153.4l11.5,1.2c0.7,0.1,2,0,1.5-1c-0.7-1-1.7-1.6-2.9-1.8l-11.6-1.2c-0.7-0.1-2,0-1.5,1
		C360.3,152.6,361.4,153.2,362.6,153.4L362.6,153.4z"></path><path class="st2" d="M378.2,133.2l-0.6,5.5c0,0.4,0.4,1,0.7,1.3c0.5,0.4,1.1,0.7,1.7,0.9c0.5,0.1,1.1,0.1,1.6-0.1l0.4-0.2
		c0.2-0.2,0.3-0.5,0.3-0.8l0.6-5.5c0-0.4-0.4-1-0.7-1.3c-0.5-0.4-1.1-0.7-1.7-0.9c-0.5-0.2-1.1-0.1-1.6,0.1l-0.4,0.2
		C378.3,132.6,378.2,132.9,378.2,133.2L378.2,133.2z"></path><path class="st0" d="M400.7,224.7c13.7,5.2,28.4,7.6,43,6.8c1.7-0.1-0.6-4.4-2.3-4.3c-14.4,0.7-28.8-1.5-42.3-6.7
		c-1.1-0.4-1,1.1-0.8,1.7C398.7,223.3,399.5,224.2,400.7,224.7L400.7,224.7z"></path><path class="st0" d="M390.1,257.5c0.1,3.3,0.4,6.5,0.8,9.8c0.3,2.3,0.7,4.7,1.4,6.9c0.4,1.2,0.8,2.3,1.5,3.4c0.4,0.9,1.1,1.7,2,2.2
		c0.7,0.2,1.4,0.3,2.2,0.2c1.3,0.1,2.6,0.1,3.8,0.1c3.4,0,6.8-0.2,10.2-0.7c3.4-0.4,6.6-1.4,9.6-3c2.7-1.7,5-3.8,6.8-6.4
		c2.4-3.2,4.6-6.9,4.3-11c-0.4-4.8-1.2-9.6-2.5-14.3c-0.6-2.6-1.7-5-3.2-7.2c-0.5-0.8-1.2-1.5-2-2c-0.7-0.2-1.4-0.3-2-0.3
		c-5.5,0.1-10.9,0.8-16.2,2c-1.9,0.4-4.2,0.8-5.9,2c-1.6,1.4-2.9,3-3.9,4.9c-2.4,3.9-4.5,7.9-6.4,12.1c-0.1,0.3-0.3,0.6-0.4,0.8
		c-0.4,0.8,0.6,2.3,1,3c0.1,0.2,1.2,1.9,1.5,1.2c1.3-2.9,2.7-5.8,4.2-8.5c1.1-2.1,2.3-4.2,3.7-6.1c0.9-1.4,2.1-2.6,3.5-3.4
		c2-0.8,4.1-1.4,6.3-1.8c2.7-0.6,5.5-1,8.3-1.3c2.2-0.3,4.4-0.4,6.6-0.4c0.5,0,1.1,0.1,1.5,0.3c0.1,0,0.1,0.1,0.2,0.2
		c-0.3-0.6,0.1,0.3,0,0s0.3,0.6,0,0c0.1,0.2,0.2,0.5,0.3,0.7s0,0,0,0s0.1,0.2,0.1,0.3c0.2,0.5,0.4,1.1,0.5,1.6
		c0.3,1.1,0.6,2.1,0.8,3.2c0.5,2.2,0.8,4.4,1.1,6.6c0.2,1.4,0.4,2.9,0.4,4.4c-0.2,1.6-0.8,3.2-1.6,4.6c-2.5,4.9-6.5,9.6-11.8,11.5
		c-5.9,2.2-12.5,2.6-18.7,2.4c-1,0-2-0.1-3-0.1c-0.3,0-0.6-0.1-0.9-0.1c-0.2,0,0,0,0,0s-0.1-0.2,0,0c0,0.1,0,0,0.2,0.2
		s0.5,0.8,0.3,0.5c0.2,0.3,0.1,0.4,0,0c0.2,0.7-0.2-0.8-0.1-0.5c-0.3-1-0.5-2-0.6-3c-0.6-3.6-0.9-7.3-1.1-11c0-0.2,0-0.5,0-0.7
		c-0.1-1.2-0.6-2.3-1.3-3.2C391.1,257.6,390.1,256.4,390.1,257.5z"></path><path class="st0" d="M395.2,260.4c2.4,0.3,4.8,0.5,7.3,0.6c4.1,0.2,8.3,0.3,12.3-0.8c1.5-0.3,2.8-1,3.8-2.1
		c0.9-1.1,1.6-2.3,2.2-3.5c1.7-3.4,3.1-6.8,4.4-10.4c0.9-2.3,1.7-4.6,2.4-7c0.2-0.7-1.5-0.5-1.9-0.5c-0.6,0.1-2.7,0.3-2.9,1
		c-1.6,5-3.4,9.8-5.5,14.6c-1,2.3-2.2,5.1-4,6.7c-0.2,0.2-0.3,0.1,0,0.1c-0.1,0-0.4,0,0.1,0c0,0-0.6,0.1-0.2,0.1s-0.3,0-0.3,0
		c0.5-0.1,0.1,0,0,0c-0.5,0.1-0.9,0.1-1.1,0.1c-1.7,0.1-3.5,0.1-5.2,0c-2.6-0.1-5.2-0.3-7.8-0.6c-1.2-0.1-2.4,0.1-3.5,0.6
		c-0.8,0.4-0.8,0.8,0.2,0.9L395.2,260.4z"></path><path class="st0" d="M419.7,273.1c-0.1-1.9-0.4-3.8-0.7-5.6c-0.4-2.5-0.8-5.1-1.2-7.6c-0.1-0.6-0.2-1.2-0.3-1.8
		c-0.1-0.8-4.8,0.7-4.5,2.1c0.7,4.1,1.3,8.2,1.9,12.3c0.1,0.5,0.1,1,0.2,1.5c0,0.2,0,0.4,0.1,0.5s0,0.1,0,0.2s0-0.2,0-0.1
		c0,0.9,1.6,0.3,2,0.2c0.6-0.2,1.2-0.5,1.7-0.9C419.1,273.9,419.7,273.5,419.7,273.1L419.7,273.1z"></path><path class="st0" d="M412,287.6c-1.6,3.6-3.4,7.1-4.4,10.9c-0.7,2.4-1,4.8-0.7,7.3c0.4,2.5,1.5,4.8,3.1,6.7c3.4,4.2,8.2,7,13.5,8
		c4.9,0.9,9.6-0.2,14-2.3c3.8-1.8,8.1-4.2,10.7-7.7c0.9-1.3,1.3-2.9,1-4.4c-0.3-2.4-0.9-4.8-1.6-7.1c-0.3-1.3-0.7-2.5-1.2-3.7
		c-0.4-0.7-0.9-1.4-1.4-2c-2.3-3.1-5-6-8-8.6c-1.5-1.4-3.3-2.4-5.3-2.9c-2.7-0.3-5.4,0-8,0.9c-3.8,1.1-7.5,2.7-11,4.5
		c-0.8,0.4-0.8,0.9,0.1,1.2c1.2,0.3,2.4,0.2,3.5-0.2c2.6-1.3,5.2-2.5,7.9-3.5c0.9-0.3,1.8-0.6,2.7-0.9c0.3-0.1,0.9-0.2,1.1-0.3
		l0.5-0.1c0,0,0.5,0.1,0.6-0.1c-0.1,0.1-0.5-0.2-0.3,0c0.2,0.1,0.4,0.2,0.6,0.2c0.7,0.3,1.4,0.7,2,1.2c2.9,2.3,5.5,5,7.7,7.9
		c0.7,0.9,1.4,1.8,2.1,2.7c0.1,0.2,0.3,0.5,0.1,0.1c0.2,0.4,0.3,0.7,0.4,1.1c0.6,1.9,1.2,3.7,1.6,5.6s1.1,4.1,0.9,6
		c-0.2,1.4-1.4,2.6-2.3,3.5c-1.4,1.4-3,2.5-4.7,3.5c-1.8,1.1-3.7,2-5.6,2.8c-0.8,0.3-1.6,0.6-2.5,0.8c-0.3,0.1-0.6,0.1-0.9,0.1
		c0.5-0.1-0.2,0-0.2,0c0.5,0-0.2,0-0.3,0c-4.3-0.2-8.7-2.9-11.7-6c-1.9-1.8-3.3-4.2-4-6.8c-0.4-2.4-0.3-4.9,0.3-7.2
		c1-4,2.9-7.6,4.5-11.4C417.3,286.6,412.5,286.4,412,287.6z"></path><path class="st0" d="M413.3,287.9c1.7,5,4.5,9.6,8.4,13.3c1.2,1.3,2.6,2.3,4.2,3c1.2,0.3,2.4,0.4,3.6,0.1c3.4-0.6,6.7-1.6,9.9-2.8
		c2.2-0.8,4.4-1.6,6.6-2.5c-0.5-0.7-1.1-1.3-1.7-1.9c-0.3-0.3-1.6-1.7-2-1.5c-4.2,1.8-8.6,3.3-13.1,4.5c-2.1,0.6-5.1,1.6-7.3,0.6
		c-0.2-0.1-0.4-0.2-0.5-0.3c0.2,0,1.1,1.2,1,0.9c-0.4-0.6-0.8-1.2-1.3-1.7c-0.7-1.1-1.4-2.3-2-3.5c-0.8-1.6-1.5-3.2-2.2-4.9
		c-0.3-0.8-1.5-1.6-2.1-2.2C414.7,288.7,413.3,287.8,413.3,287.9L413.3,287.9z"></path><path class="st0" d="M427.2,321.4c0-2.5,0-5,0-7.6c0-3.3,0-6.7,0.3-10.1c0-0.3-0.6-0.9-0.7-1c-0.5-0.4-1-0.8-1.6-1.1
		c-0.4-0.2-1.9-0.9-2-0.1c-0.4,3.3-0.3,6.7-0.3,10.1c0,2.5,0,5,0,7.6c0,0.9,1.7,1.8,2.3,2.1C425.5,321.5,427.2,322.3,427.2,321.4
		L427.2,321.4z"></path></g><g id="glass-2"><path class="st2" d="M70.4,308.3c0,0-13.2-43.7-12.8-50.6s7-22.4,12.1-26.8S90.2,240.1,95,243s22.4,48.4,21.7,50.6
		S78.9,315.7,70.4,308.3z"></path><path class="st2" d="M72.9,307.9c-3.8-12.8-7.6-25.6-10.7-38.5c-0.8-3.1-1.5-6.3-2-9.5s0.3-6.2,1.3-9.2c1.6-5.2,3.9-10.2,6.8-14.9
		c0.6-0.9,1.2-1.8,1.9-2.7c0.2-0.3,0.6-0.7,0.8-0.9s0.3-0.3,0.5-0.4s0.6-0.6,0.2-0.2c0.3-0.3-0.2,0.4,0,0l0.2-0.1
		c-0.4,0.1-0.4,0.1-0.2,0.1c0.6-0.1-0.6,0,0,0h0.6c-0.6,0,0.1,0,0.2,0s0.4,0.1,0.6,0.1c0.4,0.1,0.8,0.2,1.2,0.4
		c4.3,1.5,8.1,4.4,11.8,7c1.7,1.2,3.3,2.5,5,3.7c0.6,0.4,1.2,0.8,1.8,1.2l0.4,0.3c0.4,0.3-0.1-0.1,0.1,0.1c1.5,1.9,2.7,3.9,3.7,6
		c1.8,3.4,3.3,6.9,4.9,10.4c3.3,7.7,6.4,15.4,9.3,23.3c0.9,2.6,1.9,5.2,2.6,7.9c0.1,0.6,0.2,1.3,0.4,1.9c0-0.1,0.2-0.7,0-0.3
		c0.3-0.5,0.2-0.2,0,0l-0.5,0.4l-0.5,0.4l-0.3,0.2c-0.4,0.3,0.4-0.3,0,0s-1.1,0.7-1.7,1c-1.4,0.8-2.8,1.6-4.3,2.4
		c-3.5,1.9-7.5,3.8-10.9,5.2c-4,1.7-8.1,3.2-12.3,4.3c-0.7,0.2-1.3,0.3-2.4,0.5c-0.9,0.2-1.9,0.3-2.8,0.5l-0.6,0.1
		c-0.7,0.1,0.5,0-0.1,0c-0.4,0-0.8,0-1.2,0s-0.7,0-1.1,0c-0.6,0,0.5,0.1-0.1,0l-0.7-0.1c-0.2,0-1.1-0.3-0.6-0.1
		c-0.3-0.1-0.6-0.2-0.8-0.3c-0.1,0-0.3-0.1-0.4-0.2c0.4,0.2,0,0-0.1,0c-0.2-0.1-0.4-0.3-0.7-0.5c-1.4-1.2-6,0.5-4,2.1
		c2.6,2.2,6.5,2.2,9.7,1.9c4.2-0.5,8.4-1.4,12.4-2.9c8.1-2.7,16-6.3,23.4-10.7c1.2-0.7,2.3-1.4,3.5-2.2c0.6-0.5,1.5-1,1.8-1.9
		c0.4-1.4-0.6-3.6-1-4.9c-2.4-7.6-5.4-15.1-8.5-22.5c-3-7.2-5.9-14.6-10-21.3c-0.5-0.9-1.1-1.7-1.8-2.4c-0.9-0.8-1.9-1.6-3-2.2
		c-3.8-2.8-7.5-5.7-11.6-8.1c-3.8-2.2-8.5-4.8-13-3.5c-2,0.7-3.7,2.1-4.8,3.8c-1.6,2.1-3,4.3-4.1,6.7c-2.7,4.9-4.6,10.2-5.8,15.7
		c-0.4,2.7-0.3,5.4,0.3,8.1c1.6,8.3,3.9,16.5,6.2,24.7c1.8,6.6,3.7,13.1,5.7,19.7c0.1,0.4,0.2,0.7,0.3,1.1
		C68.6,310.7,73.5,309.8,72.9,307.9z"></path><path class="st1" d="M74.1,186.9c2.6,0,14.7,3.3,15-1.8s2.6-19.4,0.4-19.8s-14,0-14.3,1.5S74.1,186.9,74.1,186.9z"></path><path class="st1" d="M75.7,188.7c2.4,0,4.8,0.7,7.2,0.9c2.2,0.2,5.8,0.6,7.4-1.3c0.8-0.9,0.7-2.1,0.8-3.2c0.2-1.6,0.3-3.1,0.5-4.7
		c0.4-3.3,0.7-6.7,0.7-10.1c0-1.1-0.1-2.2-0.4-3.2c-0.6-1.5-2.3-3.5-3.9-3.8c-1-0.2-2-0.2-3-0.1c-1.5,0-3.1,0.1-4.6,0.2
		c-1.5,0.1-3,0.3-4.5,0.5c-0.6,0.1-1.9,0.2-2.3,0.9c-0.2,0.6-0.3,1.2-0.3,1.8c-0.1,1.1-0.2,2.2-0.2,3.3c-0.3,5.1-0.5,10.2-0.7,15.4
		c0,0.9,1.3,2,1.8,2.5c0.2,0.2,1.7,1.4,1.8,0.7c0.2-4.1,0.3-8.2,0.5-12.2c0.1-2.3,0.2-4.6,0.4-6.8c0-0.3,0-0.6,0.1-0.8
		s0-0.2,0.2-0.4c0.8-0.4,1.6-0.7,2.5-0.7c2.8-0.4,5.7-0.6,8.6-0.6c0.6,0,1.1,0,1.7,0h0.6c0.1,0,0.6,0,0.4,0c-1,0.1-2.5-1.4-2.7-2.6
		c0,0.1,0.1,0.1,0.1,0.2s0,0.2,0.1,0.4c0.1,0.5,0.1,1.1,0.1,1.7c0,3.1-0.2,6.3-0.6,9.4c-0.2,1.5-0.3,3.1-0.5,4.6
		c0,1.1-0.1,2.3-0.4,3.4c-0.9,2.5-5,2.1-7,2c-2.6-0.2-5.1-0.9-7.7-1c-0.8,0,0.6,1.6,0.7,1.8C73.7,187.4,74.8,188.7,75.7,188.7z"></path><path class="st0" d="M70.2,263.3c4.6-2.4,9.3-4.7,14.1-6.8c1.1-0.5,0.6-1.8-0.1-2.4c-1-0.8-2.3-1-3.4-0.6
		c-4.8,2.1-9.5,4.4-14.1,6.8c-1,0.5-0.6,1.8,0.1,2.4C67.7,263.5,69.1,263.7,70.2,263.3z"></path><path class="st0" d="M78.8,250.2c2.2,5.4,4.7,10.6,7.6,15.6c0.7,1.1,1.9,1.6,3.1,1.2c0.9-0.3,2.3-1.3,1.6-2.4
		c-2.9-5-5.4-10.2-7.6-15.6C82.7,246.8,77.8,247.8,78.8,250.2z"></path><path class="st0" d="M76.1,281.5c-0.8-1.7-1.3-3.5-1.3-5.3c0-0.8-0.2-1.7,0.7-2.1c0.9-0.3,1.9-0.6,2.8-0.8c1.9-0.5,3.8-0.9,5.7-1.2
		c1-0.2,2-0.3,3-0.5c0.9-0.1,2.2-0.5,3-0.2l-1.9-1.1l0.2,0.1l-1.3-1.3c0.5,0.8,0.9,1.6,1.2,2.5l1.3,2.9c0.6,1,1.5,1.8,2.5,2.3
		c0.4,0.2,1.7,0.8,1.3-0.1l-1.9-4.2c-0.7-1.7-1.9-3.1-3.5-4c-1.4-0.8-2.9-0.4-4.5-0.2s-3,0.5-4.5,0.7s-3,0.6-4.5,1
		c-0.7,0.2-1.4,0.4-2,0.5c-0.5,0.1-1.1,0.3-1.4,0.8c-0.2,0.5-0.2,1.1-0.2,1.6c0,0.8,0,1.5,0.1,2.3c0.2,1.4,0.7,2.7,1.3,4
		c0.6,1,1.5,1.8,2.5,2.3C75.2,281.9,76.6,282.5,76.1,281.5L76.1,281.5z"></path><path class="st0" d="M79,271c0.2,2.6,0.7,5.2,1.3,7.7c0.2,0.6,0.5,1.2,1,1.7c0.4,0.4,0.8,0.7,1.4,0.9c0.4,0.1,0.8,0,1-0.4
		c0.2-0.5,0.2-1,0-1.4c-0.2-0.6-0.3-1.1-0.4-1.7l-0.1-0.3v0.3c-0.1-0.2-0.1-0.3-0.1-0.5c-0.1-0.3-0.1-0.6-0.2-0.9
		c-0.2-1.2-0.3-2.4-0.4-3.6c-0.2-1.2-0.9-2.3-2-2.9c-0.3-0.1-0.9-0.3-1.2,0C79,270.2,78.9,270.6,79,271z"></path><path class="st0" d="M79.7,289l7.3-0.2l3.7-0.1l1.9,0H93c0.4,0,0.4,0,0,0c-0.1-0.1-1.8-1-1.4-1.2c0,0-0.3,0.6-0.1,0.3
		c-0.1,0.2-0.3,0.4-0.4,0.5c-0.4,0.4-0.8,0.8-1.2,1.1l-2.7,2.6l-5.2,5.1c-0.7,0.8-0.6,2,0.2,2.7c0.1,0.1,0.2,0.1,0.3,0.2
		c1.1,0.7,2.5,0.6,3.5-0.3l6.2-6.1c0.9-0.9,1.9-1.8,2.8-2.8c1.1-1,1.6-2.4,1.4-3.9c-0.5-2.2-2.8-2.5-4.6-2.4l-4.1,0.1l-8.8,0.2
		c-1.2,0-2.1,1-2.1,2.1c0,0.1,0,0.1,0,0.2C77.2,288.5,78.6,289,79.7,289L79.7,289z"></path><path class="st0" d="M81.8,288.6l2.3,5.7c0.3,0.6,0.7,1.1,1.3,1.4c0.5,0.3,1.1,0.5,1.6,0.4c0.5,0,0.9-0.4,1.1-0.8
		c0.1-0.5,0.1-1.1-0.2-1.5l-2.3-5.7c-0.3-0.6-0.7-1.1-1.3-1.4c-0.5-0.3-1.1-0.5-1.6-0.4c-0.5,0-0.9,0.4-1.1,0.8
		C81.5,287.6,81.6,288.1,81.8,288.6z"></path><path class="st0" d="M69.7,234.3c-0.4,0.9-0.5,1.9-0.3,2.9c0.3,1.3,1.5,2,2.6,2.5c0.8,0.4,1.6,0.8,2.5,1c0.3,0.1,0.5,0.1,0.8,0.2
		c0.4,0.1,0.9-0.1,1.2-0.3c0.3-0.3,0.6-0.7,0.7-1.1c0.2-0.4,0.3-0.7,0.4-1.1c0.3-0.8,0.3-1.6,0-2.4c-0.2-0.4-0.4-0.7-0.8-1
		c-0.3-0.3-0.6-0.5-1-0.7c-0.8-0.5-1.7-0.8-2.5-1.1c-0.9-0.4-1.9-0.5-2.8-0.2c-0.6,0.2-1.1,0.7-1.3,1.3c-0.1,0.9,0.3,1.8,1,2.4
		c0.4,0.3,0.9,0.6,1.3,0.9c0.7,0.4,1.5,0.8,2.3,1c0.7,0.3,1.4,0.4,2.2,0.3c0.3-0.1,0-0.3-0.1-0.4c-0.4-0.3-0.8-0.6-1.3-0.8
		c-0.6-0.3-1.2-0.5-1.8-0.8c-0.4-0.2-0.8-0.3-1.2-0.2h-0.3c-0.2,0,0.1,0,0,0h-0.2c0.2,0,0.4,0.1,0.6,0.2c0.6,0.2,1.1,0.4,1.7,0.7
		c0,0,0.7,0.4,0.5,0.3c0,0,0.3,0.3,0.1,0.1l-0.1-0.1c0,0,0.1,0.2,0,0c-0.1-0.1-0.1-0.2-0.2-0.3c-0.1-0.2-0.2-0.4-0.2-0.6v0.1
		c-0.2-0.8,0.2-1.6,1-2l-0.1,0.1c0.2-0.1,0.5-0.2,0.7-0.2c0.1,0,0.3,0,0.4,0c-0.2,0-0.2,0-0.1,0c0.3,0-0.3-0.1-0.1,0h0.1
		c-0.5-0.1-0.9-0.3-1.4-0.5l-1-0.5c-0.3-0.2-0.4-0.3-0.3-0.2c-0.2-0.2-0.3-0.2-0.2-0.1h0.1c-0.1-0.1-0.1-0.1,0,0l0.1,0.1
		c0.2,0.2,0.3,0.5,0.4,0.8v-0.1c0.1,0.7,0,1.5-0.2,2.2c-0.1,0.3-0.3,0.7-0.5,1c-0.2,0.4-0.4,0.7-0.8,1l0.1-0.1l-0.3,0.1
		c-0.1,0-0.2,0-0.3,0s0.2,0,0.1,0s0.3,0.1,0.2,0c-0.3-0.1,0,0,0.8,0.3l1,0.5c0.3,0.1,0.6,0.3,0.8,0.5c0.3,0.2-0.1-0.1-0.1-0.1
		s0.1,0.2,0,0c0,0-0.1-0.1-0.1-0.1c-0.1-0.2-0.2-0.4-0.3-0.7v0.1c-0.1-1,0-2,0.3-2.9c0.1-0.2-0.5-0.5-0.5-0.6
		c-0.5-0.3-1-0.6-1.6-0.9c-0.5-0.3-1.1-0.5-1.7-0.6c-0.1,0-0.7-0.2-0.8,0L69.7,234.3z"></path><path class="st0" d="M73.7,236.8c0,0-4.5-52.5-19.4-41.1s25.3,35.3,27.3-10.9"></path><path class="st1" d="M76.1,237.5c-0.6-6.7-1.6-13.3-2.9-19.9c-0.9-4.9-2.3-9.7-4.1-14.4c-1.5-3.5-3.5-7.2-7-9
		c-2-1.1-4.4-1.5-6.7-1.1c-1.7,0.5-3.3,1.4-4.5,2.8c-2,2-2.6,5-1.6,7.6c1.1,3,3.8,5.2,6.5,6.8c3.6,2,7.7,3,11.8,2.7
		c10.5-1,14.7-12.4,15.9-21.4c0.3-2,0.4-4.1,0.5-6.1c0.1-1.4-4.7-2.3-4.8-1.5c-0.4,9.2-2.4,22.5-12.4,26.3c-0.7,0.3-1.5,0.5-2.2,0.6
		c-0.7,0.1-1.4,0.2-2.1,0.1h-0.6c-0.3,0,0.4,0.1-0.2,0l-0.6-0.1h-0.3c-0.4-0.1,0.4,0.1,0.1,0s-1.3-0.4-0.5-0.1l-0.5-0.2l-0.3-0.1
		c-0.5-0.1,0.6,0.2,0.1,0c-0.2-0.1-1.3-0.6-0.6-0.2c-0.3-0.2-0.6-0.3-1-0.5s0.3,0.2-0.1-0.1l-0.4-0.3l-0.8-0.6
		c-1-0.8-1.8-1.7-2.4-2.8c-1.3-2.1-1.4-4.7-0.3-6.9c0.8-1.3,1.9-2.4,3.2-3.2c0.6-0.4,1.2-0.7,1.9-0.9l0.5-0.1c0.4-0.1-0.1,0,0.2,0
		s0.6,0.1,0.1,0c0.4,0.1-0.2-0.1-0.2-0.1c-0.3-0.1,0.2,0.1-0.3-0.1c0.5,0.2-0.5-0.2,0,0s-0.2-0.2,0,0s0.3,0.2,0.5,0.4
		c-0.3-0.2,0.1,0.1,0.2,0.2l0.4,0.4c0.3,0.3,0.5,0.6,0.8,0.9c1.1,1.5,2,3.1,2.8,4.8c1.8,4.3,3.1,8.7,4,13.2
		c1.5,6.9,2.6,13.9,3.2,20.9c0,0.1,0,0.2,0,0.4C71.4,237.4,76,238.1,76.1,237.5L76.1,237.5z"></path></g><g id="glass-1"><path class="st0" d="M360,209.9c0,0-0.5,173.1-2.6,180.8s-45.6,19.7-61.9,1.2c0,0-1-175.5-1-182.6S338,192.6,360,209.9z"></path><path class="st1" d="M357.5,209.6v7.4c0,6.5,0,12.9-0.1,19.4c0,9.2-0.1,18.4-0.2,27.6c-0.1,10.7-0.2,21.3-0.2,31.9
		c-0.1,10.8-0.2,21.6-0.3,32.4c-0.1,9.7-0.3,19.5-0.5,29.2c-0.1,7.3-0.3,14.6-0.6,21.9c-0.1,2.4-0.2,4.7-0.3,7.1
		c0,1.3-0.1,2.5-0.4,3.8c-0.5,2.2-3.3,3.7-5.3,4.7c-4.5,2.2-9.2,3.7-14.1,4.6c-2.8,0.6-5.7,0.9-8.6,1.2c-1.5,0.1-2.8,0.2-4.2,0.2
		s-3.2,0-4.2-0.1c-2.7-0.2-5.4-0.6-8.1-1.3c-2.6-0.7-5.2-1.8-7.5-3.2c-1.2-0.7-2.3-1.6-3.3-2.5c-0.5-0.4-0.9-0.9-1.3-1.3
		c-0.1-0.1-0.3-0.1-0.3-0.2c0-0.2,0-0.5,0-0.7v-4.1c0-5.7,0-11.5-0.1-17.2l-0.1-26.1c-0.1-10.4-0.1-20.8-0.2-31.2
		c-0.1-10.9-0.1-21.7-0.2-32.6c-0.1-10.1-0.1-20.2-0.2-30.2c0-8.1-0.1-16.1-0.1-24.2c0-4.7,0-9.5-0.1-14.2c0-1-0.1-2.4,0.3-3.1
		c1.8-2.6,5.7-3.7,8.6-4.6c11.5-3.4,23.7-3.9,35.5-1.3c6,1.3,11.6,3.8,16.5,7.5c1,0.6,2.2,0.9,3.4,0.7c0.5,0,1.9-0.4,1-1.1
		c-11-8.6-26.1-10.9-39.8-10.4c-6,0.1-12,1-17.9,2.4c-3.8,1-8.2,2.2-11.2,4.9c-1,1-1.5,2.3-1.3,3.7v5.1c0,6.4,0,12.7,0.1,19.1
		c0.1,9.3,0.1,18.5,0.2,27.8l0.2,32.4c0.1,11,0.1,21.9,0.2,32.9c0.1,9.9,0.1,19.8,0.2,29.7c0,7.5,0.1,14.9,0.1,22.4l0,11.3
		c0,0.2,0,0.4,0,0.6c0.2,0.9,1.6,1.9,2.3,2.5c1.1,0.9,2.2,1.8,3.4,2.5c5.5,3.2,11.6,5.1,17.9,5.6c6.4,0.6,12.9,0.4,19.3-0.6
		c5.4-0.8,10.7-2.3,15.8-4.4c2.7-1.2,6.8-2.9,8-5.8c0.3-1.1,0.5-2.2,0.5-3.4c0.4-5.3,0.5-10.7,0.7-16c0.2-8.6,0.4-17.2,0.5-25.8
		c0.2-10.5,0.3-21,0.4-31.5c0.1-11.1,0.2-22.2,0.3-33.3c0.1-10.3,0.1-20.6,0.2-30.8c0-8.2,0.1-16.4,0.1-24.5c0-4.7,0-9.4,0-14.1
		c0-0.6,0-1.2,0-1.8C362.5,208.8,357.5,208.5,357.5,209.6z"></path><path class="st0" d="M356.3,212.9c-2.1-0.6-36.7,19.7-58.2-1.8"></path><path class="st1" d="M358.1,212.5c-2.6-0.6-5.1,0.4-7.5,1.3c-3,1.2-6.1,2.4-9.1,3.4c-8.4,2.7-17.1,4.4-25.6,2.4
		c-5.8-1.4-11.1-4.4-15.3-8.6c-0.6-0.6-2.3-0.4-3.1-0.3c-0.2,0-2.2,0.2-1.7,0.6c14.9,14.7,38.1,11.1,55.9,4.3
		c1.4-0.6,2.9-1.1,4.3-1.7c0.5-0.2,0.9-0.4,1.4-0.5c0.2-0.1,0.4-0.1,0.6-0.2c-0.4,0.2-0.3,0.1-0.1,0c-1,0.1-2.1,0.1-3.1,0
		c1.2,0.3,2.4,0.3,3.5,0C358.9,213,359,212.7,358.1,212.5L358.1,212.5z"></path><path class="st2" d="M349.7,254.6c-1.6,0-26.1-11.3-45,0.6l-0.5,130.7c0,0,23.1,14.6,45-1.8L349.7,254.6z"></path><path class="st2" d="M348.6,252.4c-0.7-0.1-1.4-0.3-2.1-0.6c-1.4-0.5-2.8-0.9-4.3-1.4c-4.4-1.3-9-2.2-13.6-2.7
		c-5.5-0.6-11-0.1-16.3,1.3c-3.1,0.7-6,2-8.6,3.7c-0.3,0.2-0.5,0.6-0.5,0.9c-0.1,7.4-0.1,14.8-0.1,22.2l-0.2,43l-0.2,43.1l-0.1,14.8
		c0,2.3-0.1,4.7,0,7c0.2,1.9,1.4,3.6,3.1,4.5c2.7,1.5,5.5,2.6,8.4,3.5c10.5,3.3,21.9,2.7,31.5-2.7c1.5-0.8,2.9-1.7,4.3-2.7
		c0.4-0.3,0.5-0.3,0.5-0.8c0-0.2,0-0.4,0-0.6V382l0-12.6l0.2-40.9L351,284l0.1-26.4v-1.2c-0.2-1.2-0.7-2.2-1.5-3.1
		c-0.3-0.4-1.3-1.3-1.3-0.3l-0.1,12.9l-0.1,31l-0.1,37.4l-0.1,32.3l0,10.7c-0.1,1.7-0.1,3.3,0,5c0,0.1,0,0.2,0,0.2l0.1-0.5
		c-7.1,5.3-15.7,8.1-24.6,7.7c-5.9-0.3-11.7-1.8-17-4.3c-1-0.5-2-1-2.9-1.5l2.2,3.7l0-13l0.1-31.2l0.1-37.8L306,273v-10.8
		c0.1-1.7,0.1-3.4,0-5.1c0-0.1,0-0.2,0-0.2l-0.1,0.5c12.3-7.7,27.5-6.1,40.7-1.9c1.3,0.6,2.7,1,4.1,1.3c0.8,0,0-1.6-0.1-1.9
		C350.3,254.3,349.5,252.5,348.6,252.4z"></path><path class="st1" d="M356.3,185.4c0,0-6.3-3.6-9.4,0S321.2,349,322.2,351.9c0.5,1.7,1.9,2.9,3.7,3L356.3,185.4z"></path><path class="st0" d="M345.8,259.7c-1.4,1.8-3.9,1.9-6,2.2l-9.8,1.3c-3.2,0.4-6.6,1.2-9.8,1s-5.9-2-8.5-3.6c-1.5-1-5.5,2-3.8,3
		c3,1.8,6.1,3.7,9.7,4c3.9,0.4,8-0.6,11.9-1.1c3.7-0.5,7.4-0.9,11.1-1.5c3.3-0.5,6.6-1.8,8.7-4.4c0.5-0.7,1-1.7-0.1-2.1
		C347.9,258.3,346.7,258.8,345.8,259.7L345.8,259.7z"></path><path class="st0" d="M337,340.5c2.8,6.5,7.4,14.4,3.1,21.3c-2.5,3.8-6.2,6.6-10.6,7.9c-0.6,0.2-1.2,0.3-1.9,0.4
		c-0.9,0,0.4,0.1-0.3,0c0.1,0,0.4,0-0.1,0s-0.7-0.1-1.1-0.2c-1.8-0.5-3.6-1.1-5.2-2c-3.1-1.6-6.6-3.7-8.6-6.6
		c-0.7-1.2-0.9-2.6-0.5-3.9c0.3-2.1,0.8-4.2,1.4-6.2c0.3-1.2,0.7-2.4,1.1-3.5c0,0-0.1,0.1,0.1-0.1s0.5-0.6,0.7-1
		c1.9-2.5,4-4.9,6.2-7.1c1.2-1.2,2.6-2.3,4.2-3.1c-0.1,0,0.2-0.1,0.3-0.1s0.1,0-0.1,0c0.4-0.1,0.2-0.1-0.6,0s0,0,0.4,0.1
		c1,0.2,1.9,0.4,2.8,0.7c3.1,1,6.1,2.3,8.9,3.8c1.1,0.4,2.3,0.4,3.4,0.1c0.5-0.1,1.8-0.5,0.9-1c-2.8-1.5-5.8-2.7-8.8-3.7
		c-4-1.3-8.7-2.2-12.5,0.1c-3.2,1.9-5.8,4.9-8.1,7.8c-1.3,1.3-2.3,2.9-3.1,4.5c-0.6,1.9-1.2,3.8-1.7,5.8c-0.4,1.7-1.1,4-0.7,5.7
		c0.5,1.5,1.4,2.8,2.7,3.8c1.5,1.4,3.2,2.6,5,3.6c3.8,2.2,8.2,4,12.7,4c5.1-0.1,10-1.9,13.9-5.1c2.2-1.7,4-4,5.1-6.5
		c0.9-2.3,1.1-4.8,0.5-7.2c-0.8-4.4-2.8-8.2-4.6-12.3C341.5,339,336.8,340,337,340.5z"></path><path class="st0" d="M336.5,342.5c-1.2,3.4-3,7.3-5.6,9.9c-0.3,0.3-0.7,0.6-1.1,0.9c0.1-0.1,0-0.1,0.1-0.1c-0.2,0,0.8,0,0.1,0
		c-0.3,0-0.7,0-1.2-0.1s-1.4-0.2-2-0.4c-2.8-0.7-5.5-1.5-8.1-2.5c-1.7-0.6-3.4-1.3-5.1-2c-1.2-0.3-2.4-0.1-3.4,0.6
		c-0.6,0.4-1.4,1.4-0.4,1.9c4.7,2,9.6,3.7,14.5,4.8c3.1,0.7,6.1,0.7,8.9-1.1c2.4-1.8,4.2-4.2,5.5-6.8c1-1.9,1.9-3.8,2.6-5.8
		c0.4-1-1.6-1-2.1-0.9C338,340.9,337,341.6,336.5,342.5L336.5,342.5z"></path><path class="st0" d="M332,371.5c0-2.4,0-4.8,0-7.2c0-3.3,0-6.6-0.4-9.9c-0.1-1.2-1.8-2-2.9-1.9c-1,0-1.9,0.9-1.9,1.9
		c0,0.1,0,0.2,0,0.4c-0.1-0.9,0,0.1,0,0.3s0,0.6,0,0.9c0,0.8,0.1,1.5,0.1,2.3c0,1.9,0.1,3.7,0.1,5.5c0,2.3,0,4.7,0,7
		c0.1,1.3,1.1,2.3,2.3,2.5C330.5,373.3,332,372.7,332,371.5L332,371.5z"></path><path class="st0" d="M316.3,312.5c-0.4-0.1-0.9-0.3-1.3-0.5l0.4,0.2c-0.4-0.2-0.8-0.5-1.1-0.8l0.4,0.4c-0.3-0.2-0.5-0.5-0.7-0.8
		l0.4,0.5c-0.1-0.2-0.3-0.4-0.4-0.5c-0.2-0.3-0.4-0.5-0.6-0.6c-0.2-0.2-0.4-0.3-0.6-0.4c-0.3-0.2-0.8-0.1-1,0.2
		c-0.2,0.4-0.3,0.9-0.1,1.4c0.1,0.6,0.4,1.2,0.8,1.8c1.1,1.7,2.8,3,4.8,3.7c0.3,0.2,0.8,0.1,1-0.2c0.2-0.4,0.3-0.9,0.1-1.4
		c-0.1-0.6-0.4-1.2-0.8-1.8C317.2,313.2,316.8,312.8,316.3,312.5L316.3,312.5z"></path><path class="st0" d="M343,311.5v3.6c0,0.2,0.1,0.5,0.2,0.7c0.1,0.3,0.3,0.5,0.5,0.8c0.4,0.5,0.9,1,1.4,1.3l0.5,0.2
		c0.3,0.1,0.5,0.2,0.8,0.1l0.3-0.2c0.2-0.2,0.2-0.4,0.2-0.6v-3.6c0-0.2-0.1-0.5-0.2-0.7c-0.1-0.3-0.3-0.5-0.4-0.8
		c-0.4-0.5-0.9-1-1.4-1.3l-0.5-0.2c-0.3-0.1-0.5-0.1-0.8-0.1l-0.3,0.1C343,311,343,311.3,343,311.5L343,311.5z"></path><path class="st0" d="M319.5,288.1l-3-3.7c-0.4-0.5-1-0.8-1.6-0.8c-0.6-0.1-1.1,0.1-1.5,0.6c-0.4,0.4-0.5,1-0.5,1.6l0.1,0.6
		c0.1,0.4,0.4,0.8,0.7,1.2l3,3.6c0.4,0.5,0.9,0.8,1.5,0.8c0.6,0.1,1.1-0.1,1.5-0.6c0.4-0.4,0.5-1,0.5-1.6l-0.1-0.6
		C320,288.8,319.8,288.4,319.5,288.1L319.5,288.1z"></path></g></svg>