<svg transform="scale(1)" version="1.1" id="Layer_1" xmlns="http://www.w3.org/2000/svg" xmlns:xlink="http://www.w3.org/1999/xlink" x="0px" y="0px" viewBox="0 0 500 500" xml:space="preserve" class="show_show__wrapper__graphic__5Waiy "><title>React</title><style type="text/css">
	.st0{fill:#CB997E;}
	.st1{fill:#FFFFFF;}
	.st2{fill:#000005;}
</style><g id="bread-2"><path class="st0" d="M270.8,265.3c0,0-3.9-42.4-1.3-55.7s29.5-27,42.8-11.1c0,0,24.4-26.6,47.5-1.3c0,0,18.4-17.6,37.7-7.7
		s13.3,68.1,13.3,68.1S300.8,285.4,270.8,265.3z"></path><path class="st0" d="M272.5,267c-1.1-11.7-1.8-23.5-2.1-35.3c-0.1-3.8-0.1-7.6,0-11.4c0-3,0.3-5.9,0.8-8.8
		c1.5-7.2,8.5-12.6,14.8-15.4c4.2-2,8.9-2.9,13.5-2.8c2.4,0.1,4.7,0.6,6.9,1.5c1.8,0.6,3.5,1.7,4.9,3c0.2,0.2,2.5,2.8,2.8,2.6
		c2.7-2.8,5.7-5.2,9.1-7.1c6.5-3.9,14.3-6.1,21.9-4.5c5.5,1.3,10.4,4.1,14.2,8.2c0.1,0.1,2.1,2.4,2.4,2.1c2.1-1.9,4.3-3.6,6.8-5
		c5-3.2,10.6-5.1,16.5-5.6c3.6-0.3,7.2,0.2,10.7,1.3c1.5,0.5,3,1.2,4.4,1.9c0.3,0.2,0.7,0.4,1,0.6l0.3,0.2c0.2,0.2,0.3,0.3,0.3,0.3
		c-0.1-0.1-0.1-0.1-0.2-0.2c0.2,0.2-0.1-0.1-0.1-0.1c0.3,0.3,0,0,0,0c0.2,0.3,0.3,0.3,0.6,0.8c0.5,0.7,1,1.5,1.5,2.3
		c1,1.9,1.8,3.8,2.5,5.8c3.2,9.3,4,19.4,4.2,29.2c0.2,7.5,0,15-0.6,22.4c0,0.6,0.1,2.4-0.3,2.8c-0.3,0.1-0.7,0.2-1,0.2l-2.1,0.5
		c-5.8,1.4-11.6,2.7-17.4,3.9c-9.2,1.9-18.4,3.6-27.6,5.1c-10.7,1.7-21.4,3.2-32.2,4.1c-10.3,1-20.7,1.3-31,0.9
		c-8.1-0.4-16.7-1.4-24.2-4.7c-1.4-0.6-2.8-1.4-4.1-2.2c-0.8-0.5,0.2,0.8,0.4,0.9c0.7,0.9,1.5,1.7,2.4,2.4c6.4,4.3,14.4,5.8,22,6.7
		c10.1,1,20.3,1.1,30.5,0.3c11.1-0.7,22.2-2,33.2-3.7c9.9-1.5,19.8-3.2,29.6-5.2c6.7-1.3,13.4-2.8,20.1-4.4l4.4-1.1
		c0.8-0.2,0.6-0.5,0.6-1.4c0.6-6.9,0.8-13.8,0.8-20.7c-0.1-10-0.8-20.2-3.5-29.8c-2.6-9.2-8.1-18.1-17.5-21.4
		c-11.3-4-23.5,0.5-32.5,7.7c-0.6,0.5-1.2,1-1.8,1.5l2.4,2.1c-4.1-4.4-8.7-8.7-14.4-11c-4.1-1.7-8.5-2.3-12.9-1.8
		c-7.1,0.8-13.7,4.4-19.1,8.9c-1.2,1-2.4,2-3.4,3.2l2.8,2.6c-3.2-3.8-7.1-7.2-11.9-8.7c-4.1-1.2-8.4-1.2-12.6-0.2
		c-7.7,1.7-15.7,6.5-19.6,13.6c-1.5,2.7-1.8,5.6-2.1,8.7c-0.3,3.7-0.3,7.4-0.3,11c0.1,8.5,0.5,16.9,1,25.4c0.3,4.9,0.7,9.8,1.1,14.7
		c0.1,0.8,1.5,1.9,2,2.4C271.3,266.1,272.6,267.2,272.5,267z"></path><path class="st1" d="M313.6,226.7c0,0-5.6-12.4-24.4-3.9s-17.6,44.5-17.6,44.5s11.1,10.7,59.1,7.3s80.1-17.1,80.1-17.1
		s11.6-31.7-14.6-44.5s-37.7,9-37.7,9S330.8,196.7,313.6,226.7z"></path><path class="st0" d="M316,227.2c-1.3-2.5-3.4-4.5-6-5.6c-7-3.5-14.9-2.9-21.9,0.1c-11.9,5-16.1,18.4-17.9,30.1
		c-0.6,4.3-1,8.7-1,13.1c-0.1,0.7-0.1,1.4,0.1,2.1c0.2,0.2,0.5,0.4,0.7,0.6c1.8,1.2,3.7,2.2,5.7,2.9c4.2,1.6,8.6,2.9,13.1,3.6
		c17.2,3.2,35.1,2.4,52.4,0.7c17.7-1.7,35.3-5,52.4-9.9c4.9-1.4,9.8-2.9,14.6-4.7c1.2-0.5,2.5-0.9,3.7-1.4c0.4-0.1,1-0.3,1.3-0.6
		c0.3-0.6,0.5-1.3,0.6-2c0.5-1.6,0.8-3.3,1.1-4.9c1-5.1,1.1-10.3,0.3-15.4c-0.9-6.2-3.7-11.9-8.1-16.3c-6-6.1-14.8-9.6-23.1-10.9
		c-6.3-1.2-12.8-0.1-18.3,3.1c-3.4,2.1-6.3,4.8-8.6,8.1c-0.4,0.5-0.7,1.1-1,1.6l4.8,1.1c-3.4-3-7.2-5.5-11.4-7.3
		c-7.8-3.6-17.4-5.7-25.5-2c-5.7,2.6-9.8,7.6-12.9,12.9C311.1,226.3,315.5,228.2,316,227.2c4.7-7.9,12-14.8,21.7-14.4
		c0.8,0,1.6,0.1,2.3,0.2c0.7,0.1,1.3,0.2,2,0.4c0.7,0.2-0.3-0.1,0.1,0l0.5,0.2l0.6,0.2l0.3,0.1c0.9,0.3,1.4,0.6,2.2,0.9
		c2.5,1.2,4.9,2.6,7.1,4.2c1.1,0.8,2.2,1.6,3.3,2.5c0.8,0.5,1.6,0.9,2.6,1c0.4,0.1,2,0.6,2.2,0.1c3.5-6.2,9.4-10.6,16.3-12.3
		c6.8-1.6,13.6,0.3,19.5,3.9c5.6,3.4,9.9,8.5,12.1,14.7c3,8.4,2.4,18.1-0.1,26.6c-0.1,0.4-0.3,0.8-0.4,1.1c0,0.1-0.2,0.5,0,0.2
		c-0.4,0.3-0.9,0.4-1.4,0.6c-3.2,1.2-6.4,2.4-9.7,3.4c-13.9,4.5-28.1,7.8-42.6,10.1c-18.6,3-37.8,4.7-56.7,3.2c-3-0.2-6-0.6-9-1.1
		l-1.5-0.2l-1.9-0.4l-0.8-0.2c-0.6-0.1,0.3,0.1-0.3-0.1l-1.6-0.4l-0.7-0.2c-0.6-0.2,0.4,0.1-0.2-0.1l-1.3-0.4l-0.6-0.2l-0.3-0.1
		l0.2,0.1l-1.1-0.4c-0.3-0.1-0.6-0.2-1-0.4c0.5,0.2-0.2-0.1-0.5-0.2c-0.5-0.2-1-0.5-1.5-0.7s0.3,0.1,0,0l-0.3-0.1l-0.5-0.3
		c-0.3-0.1-0.5-0.3-0.8-0.5c-0.1-0.1-0.3-0.2-0.5-0.3c0.5,0.3,0,0.1,0,0c0,0.3,0,0,0-0.2c0-0.4,0-0.8,0-1.2c0-1.6,0.1-3.2,0.1-4.8
		c0.6-10.7,2.5-22.6,9.1-31.3c4.3-5.4,10.5-8.9,17.4-9.6c1.4-0.2,2.9-0.2,4.3,0c-0.5-0.1,0.8,0.2,0.1,0c0.5,0.1,0.1,0,0,0
		c0.1,0.1,0.3,0.1,0.4,0.1c-0.5-0.2,0.5,0.2,0.1,0.1c0.3,0.1,0.6,0.3,0.9,0.4c1.4,0.8,2.6,1.9,3.6,3.1c0.4,0.5,0.8,1.1,1.1,1.7
		c0.3,0.7,2.2,0.9,2.9,1.1C314.4,227.4,316.2,227.7,316,227.2z"></path><path class="st1" d="M312.4,214c-0.4-3.6-0.2-7.2,0.7-10.7c0.1-0.3-0.4-0.4-0.5-0.4c-0.5,0.1-1,0.2-1.5,0.5c-0.8,0.4-2,1.2-2.3,2.1
		c-0.9,3.5-1.1,7.1-0.7,10.7c0.1,0.9,1.6,0.1,2-0.1c0.6-0.3,1.1-0.7,1.6-1.1C311.9,214.8,312.4,214.4,312.4,214L312.4,214z"></path><path class="st1" d="M362,209.5c-0.2-3.3-0.1-6.6,0.2-9.9c0-0.1-0.9,0.3-0.7,0.2c-0.5,0.3-1,0.6-1.5,0.9c-0.5,0.3-1,0.6-1.4,1
		c-0.2,0.1-0.5,0.3-0.5,0.6c-0.4,3.3-0.4,6.6-0.2,9.9c0,0.1,0.8-0.3,0.7-0.2c0.5-0.3,1-0.6,1.5-0.9c0.5-0.3,1-0.6,1.4-1
		C361.6,210,362,209.7,362,209.5L362,209.5z"></path><path class="st1" d="M374.5,229.3c-0.5,0.3-0.9,0.8-0.8,1.4c0.8-0.2,1.4-1,1.2-1.9c0,0,0,0,0,0"></path><path class="st2" d="M372.6,227.6c-0.3,0.1-0.5,0.3-0.6,0.6c-0.1,0.2-0.2,0.4-0.2,0.6c0,0.2,0,0.3,0,0.5l0.1,0.3
		c0.1,0.2,0.2,0.4,0.4,0.6c0.3,0.4,0.6,0.8,1,1.1c0.3,0.3,0.6,0.5,1,0.8c0.2,0.1,0.4,0.3,0.6,0.3c0.1,0.1,0.3,0.1,0.5,0.1
		c0.3,0,0.5-0.1,0.8-0.3c0.2-0.1,0.3-0.3,0.4-0.5c0.1-0.2,0.2-0.5,0.3-0.8c0-0.3,0-0.6-0.1-0.9c-0.1-0.2-0.2-0.4-0.4-0.6
		c-0.2-0.2-0.3-0.5-0.5-0.7c-0.2-0.2-0.5-0.5-0.7-0.7c-0.2-0.2-0.5-0.4-0.7-0.6l-0.4-0.3c-0.2-0.1-0.4-0.2-0.7-0.2l-0.2,0.1
		c-0.1,0.2-0.1,0.3,0,0.5l0,0l-0.1-0.3c0.1,0.2,0.1,0.5,0,0.7l0.1-0.1c-0.1,0.5-0.5,0.8-0.9,1l0.2-0.1L372,229l3.5,3.3
		c0-0.2,0-0.3,0.1-0.5l-0.1,0.2c0.1-0.4,0.4-0.7,0.8-0.9c0.1-0.1,0.1-0.2,0-0.3c0-0.2-0.1-0.4-0.2-0.5c-0.1-0.2-0.3-0.5-0.5-0.6
		c-0.2-0.2-0.4-0.5-0.7-0.7l-0.5-0.4c-0.3-0.2-0.6-0.4-0.9-0.6l-0.4-0.2C373,227.5,372.8,227.5,372.6,227.6L372.6,227.6z"></path><path class="st2" d="M369.1,248.6c1.3,0.1,2.6-0.7,3-1.9c0.3-1-0.2-2.1-1.3-2.4c-0.1,0-0.3-0.1-0.4-0.1c-1.3-0.1-2.5,0.7-3,2
		c-0.3,1,0.2,2.1,1.3,2.4C368.9,248.7,369,248.7,369.1,248.6L369.1,248.6z"></path><path class="st1" d="M348.4,253.7L348,252"></path><path class="st2" d="M350.4,254.6l-0.4-1.7c-0.1-0.2-0.2-0.4-0.4-0.6c-0.2-0.2-0.4-0.4-0.6-0.6c-0.2-0.2-0.5-0.4-0.8-0.6
		c-0.3-0.2-0.5-0.3-0.8-0.5l-0.5-0.2c-0.2-0.1-0.5-0.1-0.8,0l-0.2,0.1c-0.1,0.2-0.1,0.4,0,0.6l0.4,1.7c0.1,0.2,0.2,0.4,0.4,0.6
		c0.2,0.2,0.4,0.5,0.6,0.6c0.2,0.2,0.5,0.4,0.8,0.6c0.3,0.2,0.5,0.3,0.8,0.5l0.5,0.2c0.2,0.1,0.5,0.1,0.8,0.1l0.2-0.1
		C350.5,255,350.5,254.8,350.4,254.6L350.4,254.6z"></path><path class="st2" d="M332.9,229.4c3,0,3.3-4.6,0.1-4.6C330,224.8,329.6,229.4,332.9,229.4z"></path><path class="st1" d="M309.4,254.1c0,0.6,0.3,1.2,0.8,1.5c0.3-0.8,0.1-1.7-0.3-2.4"></path><path class="st2" d="M308,252.4c0.1,1,0.3,2,0.9,2.9c0.3,0.5,0.6,1,1,1.4c0.3,0.4,0.6,0.7,1,1c0.2,0.1,0.6,0.2,0.7-0.1
		c0.2-0.6,0.3-1.3,0.1-2c-0.1-0.6-0.3-1.1-0.5-1.6c-0.1-0.3-0.3-0.6-0.4-0.9c-0.2-0.3-0.3-0.6-0.5-0.9c-0.2-0.2-0.3-0.5-0.5-0.7
		c-0.1-0.2-0.3-0.3-0.5-0.4c-0.1-0.1-0.3-0.1-0.4-0.1c-0.1,0-0.3,0.1-0.3,0.2l-0.1,0.3c0,0.3,0.1,0.6,0.2,0.9
		c0.2,0.6,0.5,1.2,0.8,1.7l0.1,0.1l-0.4-0.6c0,0.1,0.1,0.1,0.1,0.2l-0.3-0.6c0,0.1,0.1,0.2,0.1,0.2l-0.2-0.6l0.1,0.3l-0.1-0.5
		c0,0.1,0,0.3,0.1,0.4v-0.4c0,0.2,0,0.5,0,0.7l0.1-0.3c0,0.1-0.1,0.2-0.1,0.4l0.7-0.1l0,0l0.3,0.3c-0.1-0.1-0.2-0.1-0.2-0.2l0.4,0.4
		c-0.1-0.1-0.1-0.1-0.1-0.2l0.4,0.5l-0.1-0.1l0.3,0.6c0-0.1-0.1-0.1-0.1-0.2l0.3,0.6c0-0.1,0-0.1-0.1-0.2l0.2,0.6l-0.1-0.2l0.1,0.5
		c0-0.1,0-0.2,0-0.3v0.4v-0.1c0-0.5-0.2-1-0.4-1.5c-0.1-0.3-0.3-0.6-0.5-0.9c-0.2-0.3-0.3-0.5-0.5-0.8l-0.4-0.4
		c-0.2-0.2-0.4-0.3-0.6-0.4h-0.2C308.1,252.1,308.1,252.2,308,252.4L308,252.4z"></path><path class="st1" d="M292.2,240.1c0.5,0.7,1.7-0.2,1.5-1s-1.1-1.3-2-1.6"></path><path class="st2" d="M289.8,240.7c0.2,0.3,0.4,0.4,0.7,0.5c0.2,0,0.4,0.1,0.6,0.1c0.5,0,1.1,0,1.6-0.1c0.6-0.1,1.1-0.3,1.7-0.5
		c0.2-0.1,0.4-0.2,0.7-0.3c0.3-0.2,0.6-0.4,0.9-0.7c0.3-0.3,0.4-0.7,0.3-1.1c-0.1-0.4-0.4-0.8-0.8-1.1c-0.4-0.3-0.8-0.5-1.3-0.6
		c-0.2-0.1-0.3-0.1-0.5-0.1c-0.2,0-0.5,0-0.7,0c-0.6,0-1.3,0.1-1.9,0.3l-0.6,0.2c-0.3,0.1-0.6,0.2-0.8,0.4l-0.2,0.2
		c-0.1,0.1-0.1,0.2,0,0.3c0,0,0,0,0,0c0.6,0.2,1.2,0.5,1.7,1L291,239c0.3,0.3,0.4,0.6,0.3,1l0-0.2c-0.1,0.2-0.2,0.4-0.3,0.5l0.2-0.2
		c-0.1,0.1-0.2,0.1-0.2,0.2l0.4-0.2l-0.1,0.1l0.5-0.2h-0.1l0.6-0.2c0.2,0,0.4-0.1,0.6-0.1l0.6-0.1l0.6-0.1h0.4h0.4c0,0-0.1,0-0.1,0
		l0.3,0.1c-0.1,0-0.2-0.1-0.2-0.2l0.1,0.2c0,0,0,0,0-0.1c0-0.1-0.2-0.2-0.3-0.2c-0.2-0.1-0.4-0.1-0.5-0.1c-0.3,0-0.5,0-0.8,0
		c-0.3,0-0.6,0.1-1,0.2c-0.6,0.1-1.2,0.3-1.7,0.6l-0.4,0.2c-0.2,0.1-0.3,0.2-0.3,0.4L289.8,240.7z"></path><path class="st1" d="M328.5,242.6c-0.4-0.5-0.6-1.2-0.3-1.8"></path><path class="st2" d="M330.7,241.7c-0.1-0.1-0.2-0.2-0.2-0.4l0.2,0.5c-0.1-0.2-0.1-0.3-0.2-0.5l0.1,0.5c0-0.2,0-0.4,0-0.6l-0.1,0.5
		c0-0.1,0.1-0.2,0.1-0.3c0.1-0.2,0.1-0.5,0.1-0.8c0-0.3-0.1-0.5-0.3-0.7c-0.2-0.2-0.4-0.4-0.6-0.6c-0.2-0.2-0.5-0.3-0.8-0.4
		l-0.7-0.1c-0.4,0-0.9,0.1-1.3,0.2l-0.5,0.3c-0.3,0.2-0.5,0.5-0.7,0.9c0,0.1-0.1,0.2-0.1,0.2c0,0.2-0.1,0.4-0.1,0.6c0,0,0,0.1,0,0.1
		c0,0.3,0,0.7,0.1,1c0,0.2,0.1,0.3,0.1,0.5c0.1,0.3,0.3,0.6,0.5,0.9c0.2,0.2,0.4,0.4,0.6,0.6c0.2,0.2,0.5,0.3,0.8,0.4
		c0.3,0.1,0.7,0.1,1,0.1c0.3,0,0.6-0.1,0.9-0.2l0.5-0.3c0.3-0.2,0.5-0.5,0.7-0.9l0.1-0.5C331.1,242.3,331,242,330.7,241.7
		L330.7,241.7z"></path><path class="st2" d="M388.3,242c1.1,0-0.2-1-0.5-1.2c-1-0.6-2.1-1-3.3-1.1c-1.1,0,0.2,1,0.5,1.2C386,241.6,387.2,241.9,388.3,242z"></path></g><g id="egg"><ellipse class="st1" cx="316.7" cy="357.5" rx="91.9" ry="57"></ellipse><path class="st2" d="M406.2,356.9c0,12.8-7.1,23.9-16.5,32.1c-11.9,10.4-27.1,16.6-42.3,20.1c-18.2,4.1-37.1,4.6-55.5,1.5
		c-15.8-2.8-31.5-8.2-44.5-17.8c-10-7.4-18.4-17.8-20-30.5c-1.6-12.4,4.1-24.1,12.6-32.8c10.7-11,25.2-17.9,39.7-22
		c18-5,36.8-6.3,55.3-4c16.2,2,32.7,6.8,46.5,15.7c10.7,6.9,20.5,16.6,23.7,29.3C405.9,351.3,406.2,354.1,406.2,356.9
		c0.2,1.2,1.1,2.2,2.3,2.4c0.9,0.2,2.5,0,2.5-1.2c0-13.8-7.7-25.7-17.7-34.6c-12.4-10.9-28.4-17.5-44.3-21.2
		c-19.1-4.4-38.9-4.9-58.2-1.5c-16.6,2.9-33.1,8.7-46.7,18.9c-10.7,8-19.7,19.3-21.4,32.8c-1.6,13.2,4.3,25.8,13.4,35.1
		c11.3,11.7,26.7,19.1,42.1,23.5c18.7,5.2,38.2,6.6,57.4,4.2c17.2-2.1,34.6-7.2,49.2-16.7c11.4-7.4,21.7-17.9,25.1-31.4
		c0.8-2.9,1.1-6,1.1-9C411,355.9,406.2,354.4,406.2,356.9z"></path><path class="st1" d="M270,385.4c8-1.6,16,2.4,19.7,9.6c3.6,6.9,11.6,17.2,25.7,12c20.5-7.6,21.2-14,38.5-13s38.9-22,24.5-35.3
		s-18-24.5-19.8-37.4s-26.6-15.5-35.6-7.2s-25.6,6.1-33.8,1.4s-27,6.5-24.5,20.5s-14.4,11.5-15.5,27.7s9,24.1,20.5,21.6L270,385.4z"></path><path class="st2" d="M272.1,386.6c3.1-0.6,7.3-0.7,10,1.2c3,2.1,4.6,5.1,6.4,8.2c3.3,5.7,8.6,10.1,14.8,12.4
		c3.4,1.3,7.1,1.6,10.6,0.9c4.3-0.9,8.5-2.9,12.4-4.7c5.5-2.6,10.6-6.2,16.4-8c2.8-0.9,5.8-1.3,8.7-1.4c3.4-0.1,6.7,0.4,10-0.3
		c6.2-1.4,11.9-4.6,16.3-9.2c4.1-4.1,7.5-9.7,7.4-15.7c-0.1-2.7-0.9-5.4-2.5-7.6c-1.1-1.4-2.3-2.7-3.7-3.9c-1.8-1.8-3.6-3.6-5.3-5.5
		c-5.1-5.8-8.8-12.6-11-20c-0.9-3.4-1.6-6.9-2.1-10.4c-0.4-2.4-1.5-4.6-3.2-6.3c-2.2-2.2-4.9-3.9-7.7-5c-2.8-1.3-5.8-2.2-8.9-2.6
		c-5.5-0.8-11.4-0.4-16.4,2c-2.6,1.2-4.5,3.4-6.9,4.8c-3.2,1.8-6.7,2.8-10.4,3.1c-3.6,0.3-7.2,0.1-10.7-0.7
		c-1.6-0.3-3.1-0.7-4.6-1.3c-0.6-0.2-1-0.4-1.6-0.6c-0.3-0.1-0.2-0.1-0.6-0.3c0.3,0.2,0,0,0,0c-0.5-0.2-0.9-0.5-1.4-0.7
		c-5.2-2.4-10.7-1.3-15.5,1.5c-5.2,3-9.7,8.1-10.5,14.2c-0.4,3,0.7,5.9,0.2,8.8c-0.4,2.2-1.4,4.2-3,5.7c-3.4,3.5-7.8,5.7-10.4,10
		c-1.6,2.9-2.4,6.1-2.3,9.3c-0.1,3.6,0.5,7.2,1.8,10.5c2.5,6.1,8.5,10.2,14.8,11.8C266.2,387.4,269.2,387.4,272.1,386.6
		c0.5,0-1.3-1.1-1.4-1.2c-0.6-0.4-2-1.3-2.9-1.2c-2.8,0.7-5.6,0.7-8.4,0c-0.3-0.1-0.5-0.1-0.8-0.2l-0.3-0.1c0.1,0-0.3-0.2,0,0
		c-0.2-0.2-0.5-0.3-0.8-0.5c-1.1-0.8-2-1.8-2.8-2.9c-1.8-2.7-3-5.8-3.4-9c-0.6-3.6-0.4-7.2,0.6-10.7c1.5-5,5.4-8,9.3-11.1
		c1.7-1.2,3.2-2.8,4.4-4.5c1.2-2.1,1.6-4.5,1.2-6.9c-0.5-2.9-0.3-6,0.6-8.8c1.1-2.7,2.8-5.2,4.9-7.2c3.8-3.7,9.4-6.7,14.8-6.4
		c0.5,0,1,0.1,1.6,0.2c0.1,0,0.4,0.2,0.2,0.1c-0.3-0.2-0.5-0.3-0.8-0.4c0.3,0.2,0.6,0.3,0.9,0.5c1.5,0.8,3,1.5,4.5,2.1
		c3.1,1.2,6.4,2,9.8,2.4c6.6,0.8,13.9,0.1,19.6-3.7c1.2-0.8,2.2-1.8,3.3-2.6c1-0.7,2.1-1.3,3.3-1.8c2.5-1,5.1-1.6,7.8-1.8
		c2.8-0.2,5.7-0.1,8.4,0.4c1.3,0.2,2.6,0.6,3.9,1c0.4,0.1,0.8,0.3,1.2,0.5c-0.5-0.2,0.5,0.2,0.2,0.1s0.3,0.2,0.1,0l0.4,0.2
		c1.8,1.2,3.2,3,4.1,5c0.4,1.3,0.7,2.7,0.9,4.1c0.2,1.7,0.5,3.3,0.9,5c1.5,6.8,4.3,13.3,8.2,19.1c2.5,3.6,5.4,6.9,8.5,9.9
		c2.4,2.4,4.8,4.5,5.9,7.7c1.9,5.4-0.2,11.1-3.3,15.6c-3.6,5.1-8.6,9.1-14.4,11.5c-2.7,1.2-5.7,1.9-8.6,2c-3.3,0.1-6.6-0.3-9.9,0.1
		c-5.4,0.6-10,3-14.6,5.5c-3.1,1.7-6.2,3.3-9.4,4.7c-4,1.8-8.2,3.7-12.5,4c-1.7,0.1-3.3,0-5-0.4c-0.6-0.1-1.2-0.3-1.7-0.6l-0.2-0.1
		l-0.6-0.4c-2.3-1.7-4.2-3.8-5.7-6.2c-1.7-2.6-2.9-5.4-5-7.7c-2.9-3-6.4-5.3-10.3-6.7c-3.4-1.3-7.1-1.7-10.8-1
		c-0.5,0.1,1.2,1.2,1.3,1.2C269.9,385.8,271.3,386.8,272.1,386.6z"></path><ellipse class="st1" cx="314.7" cy="355.4" rx="18" ry="17.8"></ellipse><path class="st2" d="M330.2,355.8c0,6.9-4.2,13-10.5,15.6c-6.1,2.3-13-0.7-16.9-5.6c-4.3-5.5-4.8-13.1-1.3-19.2
		c3.2-5.5,9.5-9,15.8-7.4C324.9,341.1,330.2,347.9,330.2,355.8c0,1.4,5,0.9,5-0.7c-0.2-8.1-5.5-15.2-13.2-17.6
		c-8-2.6-17.7-0.2-23.2,6.2c-5.3,6.2-6,15.1-1.6,21.9c4.6,7.2,13.6,9.9,21.8,8.3c9.1-1.8,16.1-9.3,16.2-18.8
		C335.1,353.7,330.2,354.1,330.2,355.8z"></path><path class="st0" d="M359.6,378.6h2c0.3,0,0.6-0.1,0.8-0.2c0.3-0.1,0.5-0.3,0.7-0.5c0.2-0.2,0.3-0.5,0.4-0.8c0.1-0.3,0.1-0.6,0-0.9
		l-0.2-0.6c-0.2-0.4-0.5-0.7-0.8-1l-0.6-0.4c-0.4-0.2-0.8-0.3-1.2-0.3h-2c-0.3,0-0.6,0.1-0.8,0.2c-0.3,0.1-0.5,0.3-0.7,0.5
		c-0.2,0.2-0.3,0.5-0.4,0.8c-0.1,0.3-0.1,0.6,0,0.9l0.2,0.6c0.2,0.4,0.4,0.7,0.8,1l0.6,0.4C358.8,378.5,359.2,378.6,359.6,378.6
		L359.6,378.6z"></path><path class="st0" d="M367.5,368.5v-2c0-0.2,0-0.5-0.1-0.7c-0.1-0.3-0.2-0.6-0.3-0.8c-0.2-0.3-0.3-0.6-0.6-0.8
		c-0.2-0.3-0.4-0.5-0.7-0.7l-0.5-0.3c-0.3-0.1-0.5-0.2-0.8-0.2l-0.3,0.1c-0.2,0.2-0.3,0.4-0.3,0.6v2c0,0.2,0,0.5,0.1,0.7
		c0.1,0.3,0.2,0.6,0.3,0.8c0.1,0.3,0.3,0.6,0.6,0.8c0.2,0.3,0.4,0.5,0.7,0.7l0.5,0.3c0.3,0.1,0.5,0.2,0.8,0.2l0.3-0.1
		C367.4,369,367.5,368.8,367.5,368.5L367.5,368.5z"></path><path class="st0" d="M357.8,338.8v-2c0-0.3-0.1-0.6-0.3-0.8c-0.1-0.3-0.3-0.5-0.6-0.7c-0.3-0.2-0.6-0.3-0.9-0.3
		c-0.3-0.1-0.7-0.1-1-0.1l-0.6,0.1c-0.4,0.1-0.7,0.4-1,0.7l-0.3,0.5c-0.2,0.4-0.3,0.8-0.2,1.1v2c0,0.3,0.1,0.6,0.3,0.8
		c0.1,0.3,0.3,0.5,0.6,0.7c0.3,0.2,0.5,0.3,0.9,0.4c0.3,0.1,0.7,0.1,1,0.1l0.6-0.1c0.4-0.1,0.7-0.4,1-0.7l0.3-0.5
		C357.7,339.7,357.8,339.3,357.8,338.8L357.8,338.8z"></path><path class="st0" d="M301.3,354.3v-4.6c0-0.3,0-0.6-0.1-0.8c-0.1-0.3-0.2-0.6-0.4-0.8c-0.4-0.5-0.9-1-1.5-1.2
		c-0.5-0.2-1.1-0.2-1.6,0c-0.5,0.2-0.8,0.7-0.8,1.2v4.6c0,0.3,0,0.6,0.1,0.8c0.1,0.3,0.2,0.6,0.4,0.8c0.4,0.5,0.9,1,1.5,1.2
		c0.5,0.2,1.1,0.2,1.6,0C300.9,355.3,301.2,354.8,301.3,354.3L301.3,354.3z"></path><path class="st0" d="M301.9,335h0.6c0.2,0,0.2-0.1,0.3-0.2c0.1-0.1,0.1-0.3,0-0.4c-0.1-0.2-0.2-0.4-0.3-0.6
		c-0.1-0.3-0.3-0.5-0.5-0.7l-0.5-0.5c-0.3-0.3-0.6-0.6-1-0.8l-0.5-0.3c-0.2-0.1-0.5-0.2-0.7-0.2h-0.6c-0.1,0-0.3,0.1-0.3,0.2
		c-0.1,0.1-0.1,0.3,0,0.4c0.1,0.2,0.2,0.4,0.3,0.6c0.1,0.3,0.3,0.5,0.5,0.7l0.5,0.5c0.3,0.3,0.6,0.6,1,0.8l0.5,0.3
		C301.4,334.9,301.7,335,301.9,335L301.9,335z"></path><path class="st0" d="M271.1,369.6v0.6c0,0.1,0.1,0.2,0.2,0.2c0.2,0.1,0.3,0.2,0.5,0.2c0.3,0.1,0.5,0.1,0.8,0.1c0.3,0,0.6,0.1,1,0.1
		h0.7c0.4,0,0.7,0,1.1-0.1l0.4-0.1c0.1,0,0.3-0.1,0.4-0.2v-0.6c0-0.1-0.1-0.2-0.2-0.2c-0.2-0.1-0.3-0.2-0.5-0.2
		c-0.3-0.1-0.5-0.1-0.8-0.1c-0.3,0-0.6-0.1-1-0.1h-0.7c-0.4,0-0.7,0-1.1,0.1l-0.4,0.1C271.3,369.4,271.1,369.5,271.1,369.6z"></path><path class="st0" d="M317.6,389.3v0.7c0,0.2,0.1,0.5,0.1,0.7c0.1,0.3,0.2,0.6,0.4,0.8c0.2,0.3,0.4,0.6,0.6,0.8
		c0.2,0.2,0.4,0.5,0.7,0.7l0.4,0.3c0.2,0.1,0.5,0.2,0.8,0.2l0.3-0.1c0.2-0.2,0.3-0.4,0.2-0.6v-0.6c0-0.2-0.1-0.5-0.1-0.7
		c-0.1-0.3-0.2-0.5-0.4-0.8c-0.2-0.3-0.4-0.6-0.6-0.8c-0.2-0.2-0.4-0.5-0.7-0.7l-0.4-0.3c-0.2-0.1-0.5-0.2-0.8-0.2l-0.3,0.1
		C317.7,388.9,317.6,389.1,317.6,389.3L317.6,389.3z"></path><path class="st0" d="M335.9,385.4h0.7c0.1,0,0.2-0.1,0.3-0.2c0,0,0,0,0,0c0.1-0.1,0.1-0.3,0-0.4c-0.1-0.2-0.2-0.4-0.3-0.6
		c-0.1-0.3-0.3-0.5-0.5-0.7l-0.4-0.5c-0.3-0.3-0.6-0.6-1-0.8l-0.4-0.3c-0.2-0.1-0.5-0.2-0.7-0.2h-0.7c-0.1,0-0.2,0.1-0.3,0.2
		c-0.1,0.1-0.1,0.3,0,0.4c0.1,0.2,0.2,0.4,0.3,0.6c0.1,0.3,0.3,0.5,0.5,0.7l0.4,0.5c0.3,0.3,0.6,0.6,1,0.8l0.4,0.3
		C335.4,385.3,335.6,385.4,335.9,385.4L335.9,385.4z"></path><path class="st0" d="M337.5,332.4h1.3c0.3,0,0.6,0,0.9-0.1c0.2,0,0.5-0.1,0.7-0.2c0.2-0.1,0.3-0.2,0.4-0.4c0.1-0.1,0.1-0.3,0-0.4
		l-0.2-0.3c-0.2-0.2-0.5-0.4-0.8-0.5l-0.6-0.2c-0.4-0.1-0.9-0.2-1.3-0.2h-1.3c-0.3,0-0.6,0-0.9,0.1c-0.2,0-0.5,0.1-0.7,0.2
		c-0.2,0.1-0.3,0.2-0.3,0.4c-0.1,0.1-0.1,0.3,0,0.5l0.2,0.3c0.2,0.2,0.5,0.4,0.8,0.5l0.6,0.2C336.6,332.3,337.1,332.4,337.5,332.4
		L337.5,332.4z"></path></g><g id="avocado"><path class="st2" d="M451.7,278.7c0,0,20.3-4.5,10.7-25.8s-29.1-8.4-39.7-23.9s-38.1-11.9-46.2,1.9s3.9,30.7,3.9,30.7L451.7,278.7z
		"></path><path class="st2" d="M453.9,279.8c4.8-1.1,8.9-4,11.5-8.1c2.4-4,2.3-8.9,1-13.3c-1.7-6-5.1-11.7-10.2-15.3
		c-4.5-3.1-9.8-4.6-15.1-5.6c-2.2-0.4-4.5-0.8-6.7-1.3l-0.8-0.2l-0.5-0.1c-0.2-0.1-0.5-0.1-0.7-0.2c-0.1,0-0.9-0.3-0.6-0.2
		c-0.9-0.3-1.8-0.8-2.6-1.4c-2.1-1.5-3.5-3.5-5.1-5.5c-1.7-2.2-3.7-4-6-5.5c-4.9-3.1-10.6-5-16.5-5.3c-9.8-0.6-21.3,2.9-26.9,11.4
		c-6.1,9.4-2.8,21.7,2.7,30.6c0.8,1.5,2.2,2.5,3.9,2.9l0.9,0.2l5.9,1.4l22.5,5.4l25.6,6.1l15.6,3.8l0.8,0.2c0.6,0.1,1.6,0.4,1.2-0.5
		s-2.3-1.4-3-1.6l-24.1-5.8l-38.4-9.2l-8.8-2.1l3,1.6c-0.1-0.1-0.2-0.3,0,0c-0.1-0.2-0.3-0.4-0.4-0.6c-0.5-0.8-0.9-1.5-1.4-2.3
		c-1.3-2.4-2.4-5-3.3-7.7c-2.1-6.9-2.2-14.6,2-20.7c3.2-4.8,8.5-7.8,13.9-9.4c5.7-1.8,11.8-1.9,17.6-0.3c2.4,0.7,4.6,2,6.4,3.7
		c2.3,2.1,3.8,4.9,6.1,7c4.6,4.3,10.8,6.2,16.8,7.3c2.6,0.5,5.3,0.9,7.9,1.6c1,0.3,2,0.6,2.9,1c1.1,0.5,2.1,1.2,3,2
		c2.6,2.4,4.7,5.3,6.1,8.6c1.5,3.1,2.3,6.4,2.4,9.8c0.1,4.5-1.9,8.7-5.4,11.5c-2.2,1.6-4.6,2.9-7.2,3.7c-0.2,0-0.3,0.1-0.5,0.1
		c-0.8,0.2,1.2,1.4,1.3,1.5C451.7,279.5,452.8,279.8,453.9,279.8z"></path><path class="st0" d="M456.6,275.8c0,0-7.1-14.9-24.5-15.5s-22.3-16.1-45.5-14.5s-35.2,40.4-13.9,55.3s45.5-8.1,58.8-4.8
		S462,291.6,456.6,275.8z"></path><path class="st0" d="M458.6,275.5c-2.6-5-6.5-9.3-11.2-12.3c-4.3-2.8-9.1-4.5-14.2-4.9c-2.2-0.1-4.5-0.4-6.7-0.8
		c-2-0.5-3.9-1.2-5.7-2.1c-3.1-1.5-6.7-3.9-10-5.8c-3.9-2.3-8.2-4.1-12.6-5.2c-5.1-1.2-10.3-1.4-15.4-0.5c-3.9,0.8-7.6,2.6-10.7,5.1
		c-13,10.3-17,31.4-8.1,45.5c5.4,8.6,15.5,13.7,25.6,13.6s19.5-4.3,28.8-7.7c3.4-1.2,7.6-2.6,10.9-2.5c2,0.1,3.5,0.6,5.6,0.9
		c2.3,0.3,4.7,0.2,7-0.1c8.4-1,17.4-6.4,17.9-15.7C459.9,280.5,459.5,277.9,458.6,275.5c-0.8-2.4-5-2.5-4,0.6
		c1.4,3.7,1,7.8-1.1,11.1c-2.3,3.1-5.5,5.3-9.2,6.4c-4,1.2-8.3,1.4-12.4,0.6c-3.4-0.7-6.9-0.5-10.2,0.4c-8.8,2.3-16.9,6.7-25.9,8.5
		c-4.6,1-9.3,1.1-13.9,0.1c-4.4-1.1-8.4-3.3-11.6-6.5c-0.6-0.6-1.2-1.2-1.6-1.9c-0.6-0.8-1.2-1.6-1.7-2.4c-0.9-1.6-1.6-3.3-2.1-5
		c-1-3.6-1.4-7.3-1.1-10.9c0.5-7.6,3.5-14.9,8.6-20.6c2.4-2.7,5.3-4.8,8.5-6.2c3.9-1.7,8.3-1.9,12.5-1.5c4.3,0.3,8.5,1.5,12.4,3.3
		c3.4,1.6,6.6,3.8,9.9,5.7c3.3,2.1,6.9,3.6,10.7,4.6c4.6,1.1,9.4,0.7,14,2.3c3.6,1.3,6.9,3.4,9.6,6.2c0.3,0.3,0.5,0.5,0.8,0.8
		c0.1,0.1,0.8,0.9,0.4,0.5c0.5,0.6,1,1.2,1.5,1.8c0.6,0.8,1.2,1.7,1.7,2.5c0.3,0.5,0-0.1,0,0l0.2,0.3l0.1,0.3c0.5,1.2,1.7,1.9,3,1.9
		c0.9-0.2,1.5-1.1,1.3-1.9C458.8,275.8,458.7,275.6,458.6,275.5z"></path><ellipse class="st1" cx="398.9" cy="275.5" rx="18.6" ry="13.9"></ellipse><path class="st2" d="M378.9,275.9c0.1,7.5,8.7,11.5,14.9,13.2c7.2,1.9,15.6,1.2,21-4.5c2.9-3,4.4-7,5.9-10.8
		c0.6-1.6-3.5-4.3-4.3-2.3c-1.4,3.6-2.9,7.3-5.6,10.2c-2.7,2.7-6.3,4.4-10.1,4.7c-4.3,0.4-8.5-0.4-12.4-2.3
		c-2.4-1.1-5.1-2.9-5.2-5.8c-0.1-1.1-0.8-2.1-1.9-2.6C380.8,275.4,378.9,274.8,378.9,275.9L378.9,275.9z"></path></g><g id="bread-1"><path class="st0" d="M95.1,386.2c5.7-12.1,15.6-21.6,26.5-28.9c6.2-4.1,12.6-7.7,19.2-11c6.6-3.3,13.2-6.5,20-9.5
		c7.7-3.4,15.8-6,24.3-6.1c0.5,0-1-1.4-1.1-1.4c-0.6-0.5-1.8-1.7-2.6-1.7c-7.3,0.1-14.4,2.1-21.2,4.8c-7,2.8-13.7,6.1-20.4,9.5
		c-12.8,6.3-25.5,13.3-35.7,23.4c-5.3,5.2-9.7,11.3-13,18C90.8,383.9,95,386.4,95.1,386.2L95.1,386.2z"></path><path class="st1" d="M90.7,375c0,0-17.3,17.7-9.9,33s40.7,1.2,50.3-2.5s76.9-43.9,80.5-62.3s-6.7-22-19.1-21.6s-20,4.7-20,4.7
		s-5.7,2.4,6,4.6s26.8,22.2,14.1,16s-17.1-15-28.4-15.6s-34.3,9.5-26.3,11.8s26.4,6.6,24.7,16.6s-11.3-1-19.4-7.6
		s-18.7-2.9-23.3,0.1s-17.3,7.1-12,9.7s29.4,13.2,23.7,20.3S103.3,370.7,90.7,375z"></path><path class="st0" d="M89,373.2c-1.8,1.9-3.5,4-5,6.2c-3.2,4.5-5.5,9.5-6.8,14.9c-1.2,5.7-0.5,12.2,3,16.9c2.8,3.8,7.3,5.5,11.8,6
		c5.1,0.4,10.2-0.1,15.2-1.3c5.1-1.2,10.1-2.6,14.9-4.4c2-0.7,4-1.5,6-2.2l2.7-1.1l0.3-0.1l-0.2,0.1l0.4-0.2
		c0.4-0.1,0.8-0.3,1.1-0.5c2-0.8,3.9-1.8,5.8-2.9c7.1-3.8,14-8,20.8-12.3c8.7-5.5,17.3-11.3,25.5-17.5c7.4-5.6,14.9-11.4,21.2-18.3
		c2.4-2.5,4.5-5.3,6.2-8.3c2.1-3.9,2.6-8.6,2.4-12.9c-0.2-5.1-2.3-10-6.7-12.9c-3.9-2.6-8.9-3.3-13.6-3.3c-6.4-0.1-12.8,1-18.8,3.2
		c-1.8,0.7-4.1,1.4-5.5,2.7c-1.2,1.2-1.4,3-0.5,4.4c1.3,2.1,4.4,2.9,6.6,3.4c1.4,0.3,2.8,0.6,4.1,1c1,0.3,2,0.8,2.9,1.3
		c2.1,1.2,4.1,2.6,5.9,4.3c0.9,0.8,1.8,1.7,2.6,2.6c0.4,0.4,0.7,0.8,1.1,1.2l0.4,0.5l0.4,0.5c-0.2-0.2,0.2,0.3,0.3,0.4
		s0.2,0.3,0.3,0.5c0.2,0.4,0.4,0.7,0.6,1.1c0,0.1,0.3,0.7,0.1,0.2s0,0.1,0.1,0.2c0,0.1,0.1,0.2,0.1,0.4c-0.2-0.3,0-0.5,0-0.1
		c-0.1-0.3,0-0.7,0.3-0.9c-0.1,0.1,0.5-0.4,0.2-0.2c0,0,0.5-0.2,0.3-0.1s0,0,0,0s0.2,0-0.2,0s-0.3,0,0,0c-0.5-0.1-0.9-0.3-1.4-0.4
		c-3.1-1.4-6-3.1-8.8-5.1c-5-3.5-9.5-7.9-15.4-10c-5.3-1.9-10.9-1.4-16.3-0.1c-5.1,1.1-10,2.9-14.6,5.4c-2.8,1.5-7.7,4.9-4.5,8.4
		c1.2,1.4,3.2,1.7,4.9,2.2c2.4,0.7,4.7,1.4,7.1,2.1c2.4,0.8,4.7,1.7,6.9,2.8c2,1,3.8,2.3,5.4,4c0.4,0.5,0-0.1,0.2,0.3
		c0.1,0.2,0.2,0.4,0.4,0.6c0.1,0.1,0.4,0.7,0.3,0.5s0.2,0.4,0.2,0.6s0.1,0.6,0.1,0.4c0,0.2,0,0.4,0.1,0.6c0.1,0.5,0,0.9-0.1,1.3
		c-0.1,0.5-0.2,1-0.4,1.5c-0.2,0.4,0,0.1-0.2,0.3c-0.1,0.1-0.1,0.1-0.2,0.2c-0.2,0.2,0.4-0.2-0.1,0s0.3,0-0.1,0s0.3,0-0.2,0
		c-0.1,0-0.6-0.1-0.4,0s-0.5-0.2-0.7-0.2c-2.2-0.9-4.6-3-6.5-4.7c-2.7-2.3-5.2-4.8-8-6.9c-5.4-4-12.6-4.3-18.9-2.2
		c-2.4,0.9-4.6,1.9-6.7,3.2c-2.2,1.3-4.6,2.3-6.9,3.4c-1.9,1-4.2,2-5.6,3.7c-1.4,1.7-1.1,4.2,0.7,5.6c0.2,0.2,0.5,0.4,0.8,0.5
		c1.4,0.8,3,1.5,4.5,2.2c1.8,0.9,3.7,1.8,5.7,2.9c2.2,1.2,4.4,2.4,6.5,3.8c1,0.6,1.9,1.3,2.9,2c0.8,0.6,1.5,1.2,2.2,1.9
		c0.3,0.3,0.6,0.7,0.9,1l0.2,0.2c0.2,0.3-0.3-0.4-0.1-0.1l0.4,0.5l0.3,0.5c0.2,0.4,0-0.1,0,0s0.1,0.4,0.2,0.5s0-0.5,0,0.1
		c0,0.3,0,0.3,0,0l-0.1,0.5c0,0.1,0.2-0.3,0,0c0,0.1-0.4,0.6-0.2,0.4s-0.4,0.4-0.6,0.6c0.3-0.3,0.1-0.1-0.1,0l-0.5,0.2
		c0.5-0.3,0.1,0-0.1,0l-0.5,0.1l-0.5,0.1c0.5-0.1-0.1,0-0.3,0c-0.8,0-1.6-0.1-2.4-0.3c-2.1-0.5-4.2-1.2-6.2-2c-5-1.9-9.8-4.1-15-5.6
		c-4.4-1.3-9.4-2.4-13.9-0.9c-1.2,0.4-1.8,1.6-1.4,2.8c0,0,0,0,0,0.1c0.3,1,1.6,2.3,2.8,1.9c4.2-1.4,8.8-0.2,13,1.1
		c4.9,1.6,9.6,3.8,14.4,5.5c3.4,1.3,8,3.1,11.7,1.8c4-1.4,5.1-5.6,3.2-9.2c-2-3.9-6.2-6.6-9.8-8.8c-4-2.4-8.1-4.6-12.3-6.6l-2.2-1
		l-0.8-0.4c-0.4-0.2,0.2,0.1,0,0l-0.2-0.1c-0.4-0.3,0.2,0.2,0.1,0c0.3,0.5,0.4,1.1,0.3,1.6c0.1-0.3-0.3,0.2,0,0s0.3-0.3,0.5-0.5
		s-0.2,0.1,0.2-0.1s0.4-0.3,0.6-0.4c0.4-0.3,0.9-0.6,1.4-0.8c2.3-1.3,4.6-2.3,7-3.5c2-1,3.9-2.3,5.9-3.2c5.2-2.3,11.8-2.8,16.7,0.5
		c5.2,3.5,9.1,8.8,14.7,11.8c2.1,1.1,4.7,1.9,6.8,0.3s2.6-4.6,2.5-7c-0.3-5.1-4.5-8.7-8.6-11c-4.6-2.4-9.5-4.2-14.5-5.5l-2.9-0.8
		c-0.4-0.1-0.7-0.2-1.1-0.3s0.3,0.2,0,0s0.4,0.5,0.1,0.1c0.4,0.4,0.5,1,0.5,1.6c0.1-0.4-0.1,0.3-0.1,0.2c0-0.1,0.1-0.2,0.2-0.3
		c0,0-0.4,0.5,0,0c0.1-0.1,0.2-0.2,0.3-0.3l0.3-0.3c0.4-0.4-0.2,0.1,0.2-0.2c3.7-2.5,7.7-4.3,12-5.5c4.8-1.5,9.8-2.7,14.7-2
		c5.7,0.8,10.2,4.6,14.6,8c2.8,2.2,5.7,4.1,8.7,5.9c2,1.1,4.5,2.6,6.9,2.7c1.6,0.2,3.1-1,3.3-2.7c0-0.2,0-0.4,0-0.6
		c-0.2-1.6-0.8-3.1-1.8-4.4c-2.8-4-6.3-7.5-10.3-10.2c-2.1-1.5-4.3-2.6-6.7-3.5c-1.4-0.5-2.8-0.7-4.3-1c-0.7-0.2-1.3-0.3-2-0.6
		l-0.9-0.3l-0.3-0.1c-0.4-0.2,0.3,0.2,0,0c-0.2-0.1-0.3-0.2-0.5-0.3c-0.4-0.1,0.3,0.3,0.1,0.1s0.2,0.4,0.3,0.4
		c0.2,0.3,0.2,0.7,0.1,1.1c0.1-0.3-0.2,0.6-0.1,0.2c0.1-0.1-0.4,0.5-0.1,0.2c0-0.1,0.1-0.1,0.2-0.2c0.2-0.2-0.5,0.3-0.2,0.1
		s0.7-0.4,1-0.5c0.5-0.3,1-0.5,1.5-0.7l0.5-0.2l0.5-0.2c0.2-0.1,1-0.4,1.4-0.5c2.8-1,5.7-1.7,8.6-2.1c5.1-0.8,11.1-1,15.9,0.4
		c0.5,0.1,1,0.3,1.4,0.5c0.4,0.1,0.7,0.3,1.1,0.5c0.4,0.2,0.8,0.5,1.2,0.8l0.5,0.4c-0.4-0.3,0.2,0.2,0.3,0.3c0.4,0.3,0.7,0.7,1,1.1
		l-0.1-0.1c0.1,0.1,0.1,0.2,0.2,0.3c0.1,0.2,0.3,0.5,0.4,0.7s0.3,0.5,0.4,0.7s0,0,0-0.1c0.1,0.1,0.1,0.2,0.1,0.3
		c0.2,0.6,0.4,1.1,0.5,1.7c0.5,2.7,0.5,5.4,0.1,8.1c-0.1,1.1-0.4,2.1-0.6,3.1c-0.1,0.4,0.2-0.4,0-0.1c0,0.1-0.1,0.3-0.2,0.4
		c-0.1,0.3-0.2,0.6-0.4,0.9c-0.3,0.6-0.6,1.2-0.9,1.8c-0.2,0.3-0.4,0.6-0.6,0.9s0,0,0,0.1l-0.4,0.6c-1,1.4-2,2.7-3.1,3.9
		c-2.8,3.1-5.7,5.9-8.8,8.6c-7.4,6.4-15.2,12.3-23.3,17.8c-7.9,5.5-15.9,10.8-24.1,15.7c-5.2,3.3-10.6,6.3-16.2,8.9
		c-0.3,0.2-0.7,0.3-1,0.5s0.6-0.2,0.2-0.1l-0.5,0.2l-1.4,0.6l-1.1,0.4l-0.2,0.1l-0.8,0.3l-2.7,1c-4.6,1.8-9.3,3.3-14,4.5
		c-4.8,1.4-9.7,2.1-14.6,2.2c-2.1,0-4.2-0.2-6.2-0.8c-0.5-0.1-0.9-0.3-1.4-0.5l-0.6-0.3c-0.4-0.2-0.1-0.1,0,0l-0.4-0.2
		c-0.4-0.2-0.8-0.5-1.2-0.8c-0.1,0-0.5-0.4-0.3-0.2s-0.3-0.3-0.5-0.5s-0.3-0.3-0.4-0.5s-0.5-0.6-0.2-0.2c-0.3-0.4-0.6-0.9-0.8-1.3
		c-0.6-1.2-1-2.4-1.3-3.7c-0.5-2.5-0.5-5.1,0.1-7.6c1.1-4.9,3.3-9.5,6.2-13.6c1.4-2,2.9-3.9,4.5-5.6C94.3,374.9,91,371.1,89,373.2z"></path><path class="st1" d="M191.1,368.1c-9.4-7.2-21.4-9.8-32.9-12.3c-12-2.6-24.2-5.2-36.5-5.7s-24.9,1.2-35.9,6.8
		c0,0,14.9,36.5,39.9,36.5s60.2,1.7,60.2,1.7l14.8-9.6L191.1,368.1z"></path><path class="st0" d="M191.6,366.2c-11.3-8.5-25.7-11-39.2-13.9c-14.8-3.1-29.9-5.8-45.1-4.1c-8,0.8-15.8,3-23,6.6
		c-0.8,0.4-0.7,1.7-0.4,2.4c2.2,5.3,5,10.3,8.2,15.1c5.7,8.6,13.2,17,22.9,21.1c2.5,1.1,5.1,1.8,7.8,2.1c3.2,0.3,6.4,0.3,9.7,0.2
		c7.3,0.1,14.6,0.2,21.9,0.5c10.3,0.3,20.5,0.7,30.8,1.2c0.7,0.1,1.4,0.1,2-0.2c1.2-0.6,2.3-1.5,3.5-2.3l10.4-6.8l0.8-0.5
		c1-0.7,0.6-2.2,0.1-3l-9.5-17.4c-0.5-0.9-1.7-1.8-2.7-1.2s-0.5,2.2-0.1,3l9.5,17.4l0.1-3l-14.7,9.6l0.9-0.2
		c-16.7-0.8-33.5-1.4-50.2-1.6c-2.9,0-5.8-0.1-8.6-0.1c-2.2,0-4.4-0.1-6.5-0.5c-3.9-0.9-7.5-2.5-10.7-4.8
		c-6.5-4.5-11.4-10.7-15.5-17.2c-1-1.6-2-3.2-2.9-4.8c-0.4-0.7-0.8-1.4-1.1-2.1l-0.5-0.9c-0.1-0.1-0.3-0.7,0,0l-0.3-0.5
		c-0.6-1.2-1.2-2.4-1.7-3.6l-0.4,2.4c12.6-6.4,27-7.6,40.8-6.3c7.6,0.8,15.1,2,22.6,3.6c6.7,1.4,13.5,2.7,20.1,4.5
		c7.1,1.9,14.1,4.6,20,9c0.8,0.6,2,0.7,2.4-0.4C193.1,368.2,192.6,367,191.6,366.2z"></path><path class="st1" d="M89.8,347.8c0,0-24.5,3.5-28,20.1s31.5,25.8,41.4,28.8s87.7,12.2,101.8-0.1s8.1-21.5-1.9-28.8
		s-18.7-8.5-18.7-8.5s-5.9-1.6,1.9,7.4s7.6,34,1.4,21.2s-4.4-22.3-13-29.7s-32.9-13.5-28-6.8s16.9,21.3,9.4,28.2s-8.4-7.7-10.7-17.9
		s-13-13.7-18.5-14.2s-18-5-15.4,0.4s15.2,28.4,6.4,30.5S102.4,352.1,89.8,347.8z"></path><path class="st0" d="M89,345.5c-6.5,0.9-12.6,3.2-18.2,6.7c-8.1,5.1-14.8,15.2-9.6,24.7c2.2,4.1,6.1,7.2,10,9.7
		c4.4,2.7,9.1,5,14,6.8c4.2,1.6,8.6,3,13,4.3c2.3,0.7,4.6,1.4,7,1.9c7,1.5,14.1,2.3,21.2,3.1c10.2,1.1,20.4,1.9,30.6,2.3
		c10,0.5,20.1,0.3,30.1-0.6c3.8-0.3,7.7-1,11.4-2c2.9-0.7,5.7-2.1,8.1-4c4.9-4.2,9.6-10.3,8.7-17.1c-0.8-5.9-5-10.4-9.5-13.9
		c-5.3-4.3-11.4-7.5-18-9.5c-0.8-0.2-1.6-0.4-2.4-0.6c-0.2,0-2.2-0.4-0.8-0.1c-0.9-0.2-1.8-0.3-2.6-0.1c-2,0.5-2.4,2.7-1.9,4.5
		c0.9,2.9,3.3,5.1,5.1,7.4c-0.3-0.4,0.1,0.2,0.2,0.3l0.4,0.6c0.3,0.5,0.6,1.1,0.9,1.6c0.2,0.4,0.4,0.8,0.6,1.3
		c0.2,0.6,0.4,1.1,0.6,1.7c0.4,1.2,0.7,2.4,1,3.6c0.2,1,0.4,2,0.6,3.2s0.3,2.2,0.3,3.4c0,0.5,0,1,0,1.5s0-0.2,0,0.2
		c0,0.2,0,0.5,0,0.8s-0.1,0.8-0.1,1.2c0,0.2-0.1,0.3-0.1,0.5c-0.1,0.5,0.1-0.3,0,0c-0.1,0.1-0.1,0.2-0.1,0.4
		c-0.1,0.4-0.2,0.1,0.1-0.1c-0.1,0-0.1,0.2-0.2,0.2s0.5-0.3,0.2-0.2c0.2-0.1,0.5-0.2,0.7-0.2c-0.1,0,0.6,0.2,0.2,0
		c-0.1,0,0.5,0.3,0.3,0.2s0,0,0,0s0.2,0.3,0.1,0c-0.1-0.1-0.1-0.2-0.2-0.2c-0.1-0.1-0.4-0.5-0.1-0.1s-0.1-0.2-0.2-0.3
		c-0.3-0.5-0.6-1-0.8-1.5c-1.5-3.3-2.8-6.7-3.7-10.2c-1.7-6.1-3-12.4-7-17.5c-3.5-4.4-8.6-7-13.6-9.1c-4.7-2.1-9.7-3.4-14.8-4.1
		c-1.6-0.1-3.5-0.3-5,0.5c-1.5,0.9-2,2.8-1.3,4.4c0.8,2.1,2.7,3.9,4,5.8c1.8,2.4,3.4,4.8,4.9,7.4c1.3,2.2,2.3,4.6,3,7.1
		c0.4,2.2,0.4,4.1-0.9,5.7c-0.3,0.4-0.7,0.8-1.1,1.1c-0.2,0.2-0.5,0.3-0.7,0.5c-0.1,0.1-0.7,0.3-0.3,0.2c-0.2,0.1-0.4,0.1-0.6,0.1
		c-0.2,0,0.2-0.1,0.1,0c-0.1,0-0.2,0-0.2,0c0.4,0.4-0.1-0.3,0.1,0s0,0,0,0c-0.1-0.3,0.2,0.2,0,0s-0.2-0.2-0.4-0.4s0.3,0.4,0.1,0.1
		c-0.1-0.1-0.1-0.2-0.2-0.2c-0.1-0.2-0.3-0.4-0.4-0.7c-0.3-0.5,0,0.1-0.2-0.5c-0.5-1.2-0.9-2.4-1.2-3.7c-0.7-2.9-1.2-5.8-1.8-8.7
		c-0.6-3.2-1.3-6.4-3.1-9.2c-3.1-4.9-8.2-8.1-13.7-9.6c-2.1-0.5-4.3-0.9-6.5-1.1c-2.6-0.4-5.1-1.1-7.8-1.6c-2-0.4-4.6-0.9-6.6,0
		c-2.4,1.2-1.8,3.8-0.8,5.8c0.7,1.5,1.5,3,2.2,4.5c0.5,1,1,2,1.5,3.1c0.2,0.5,0.3,0.6,0.6,1.3s0.5,1.1,0.8,1.7
		c1,2.3,1.9,4.7,2.7,7.1c0.7,1.9,1.1,4,1.2,6c0,0.1,0,0.7,0,0.5s0,0.3,0,0.4s0,0.4-0.1,0.6s-0.2,0.6,0,0.2c-0.1,0.2-0.1,0.3-0.2,0.5
		s-0.3,0.5,0,0.1c-0.1,0.1-0.2,0.3-0.3,0.4s-0.4,0.3,0,0.1l-0.4,0.3c-0.4,0.3,0.2,0-0.1,0.1l-0.5,0.1h-0.2c-0.4,0.1,0.3,0,0.1,0
		s-1-0.2-0.5,0l-0.5-0.1l-0.2-0.1c-0.4-0.1,0.3,0.2,0.1,0s-0.6-0.4-0.9-0.5l-0.3-0.2c0,0,0.4,0.3,0.2,0.1s-0.4-0.3-0.5-0.5
		c-0.3-0.3-0.6-0.6-0.8-0.9l-0.5-0.5c-0.1-0.1-0.5-0.7-0.4-0.5s-0.3-0.4-0.3-0.4l-0.4-0.5c-0.3-0.5-0.7-1-1-1.5c-0.6-1-1.3-2-1.9-3
		c-2.6-4.4-5.1-8.9-8.1-13c-2.8-3.8-6.1-7.5-10.7-9c-1-0.4-2.1,0.2-2.4,1.2c0,0.1-0.1,0.2-0.1,0.4c-0.1,1.3,0.6,2.5,1.8,3
		c1.7,0.7,3.2,1.7,4.4,3c1.6,1.6,3,3.3,4.3,5.2c2.9,4.1,5.2,8.6,7.8,12.8c2,3.3,4.4,7.3,7.9,9.1s7.6,0.7,8.8-3.3
		c1.2-4.2-0.4-9-1.8-13c-1.7-4.6-3.7-9-5.9-13.3c-0.4-0.8-0.8-1.5-1.1-2.3c-0.2-0.3-0.3-0.6-0.5-0.9c-0.1-0.1-0.1-0.2-0.2-0.3
		s-0.1-0.3,0.1,0.1c0-0.1-0.1-0.2-0.1-0.3c0.1,0.3,0,0.7-0.2,1c0.1-0.2-0.2,0.2-0.2,0.2c0.1,0,0.1-0.1,0.2-0.1c0,0-0.4,0.1-0.2,0.1
		l0.4-0.1c0.2,0,0.5,0,0.1,0c0.2,0,0.5,0,0.7,0c0.5,0,1.1,0.1,1.6,0.1c2.5,0.3,5,1,7.5,1.5c2,0.4,4.3,0.6,6.1,0.9
		c4.4,0.9,9.4,3.3,11.9,7.1c1.6,2.4,2.2,5,2.7,7.8c0.6,3,1.1,6.1,1.9,9.1c0.9,3.8,3.3,11,8.6,9.3c2.5-0.9,4.4-2.8,5.4-5.2
		c0.9-2.5,1-5.3,0.3-7.9c-1.3-5.6-4.8-10.7-8.1-15.3c-1.3-1.8-2.6-3.8-4-5.5c-0.1-0.1,0.2,0.6,0.1,0.1s0.1,0.6,0.1,0.2
		c0,0.2,0,0.5-0.1,0.7c0.2-0.4-0.3,0.4-0.1,0.2s-0.4,0.4-0.1,0.1c0.2-0.1,0.5-0.1-0.1,0c0.3-0.1,0.6-0.1,0.9-0.2s0.4,0,0,0h0.6
		c0.4,0,0.9,0,1.3,0.1c1,0.1,2,0.2,3.1,0.4c2.3,0.5,4.6,1.1,6.9,1.9c2.4,0.8,4.8,1.8,7.1,3c1.1,0.6,2.2,1.2,3.3,1.9
		c0.5,0.3,0.9,0.6,1.4,0.9l0.6,0.4l0.4,0.3c-0.2-0.1-0.1-0.1,0,0c4.6,4,6.1,9.3,7.6,15.1c0.9,3.4,2,6.7,3.3,10c1,2.5,2.1,5.4,4,7.4
		c1.2,1.3,3.3,2.1,4.8,0.6c0.9-1.1,1.4-2.5,1.5-4c0.4-4.6-0.1-9.3-1.5-13.7c-0.7-2.4-1.6-4.8-2.9-7c-1.4-2.5-3.5-4.3-5-6.7
		c-0.1-0.2-0.2-0.4-0.4-0.6c-0.3-0.6,0.1,0.2-0.1-0.2c0-0.1,0-0.2-0.1-0.2c-0.1-0.2-0.2-0.1,0,0s0,0.3,0,0.1s0,0.3,0,0.3
		c-0.1,0.3-0.3,0.6-0.5,0.7c0.3-0.1-0.6,0.1,0,0c0.3,0-0.5,0-0.3,0c0.1,0,0.2,0,0.3,0c0.1,0,0.3,0,0.4,0c0.3,0-0.7-0.1-0.3-0.1
		l0.7,0.1l0.4,0.1c0.3,0-0.5-0.1-0.1,0l0.5,0.1c1,0.2,1.9,0.5,2.9,0.8c3,1,5.8,2.2,8.5,3.7c3,1.7,5.9,3.7,8.5,5.9
		c1.9,1.6,3.5,3.6,4.7,5.8c0.1,0.2,0.2,0.3,0.2,0.5c0.1,0.2,0.2,0.5,0.3,0.7c0.2,0.5,0.3,1,0.4,1.5c0.2,1.1,0.1,2.2-0.1,3.2
		c-0.6,2.9-2.5,5.5-4.5,7.6c-0.7,0.8-1.5,1.5-2.2,2.2l-0.5,0.5c0,0-0.6,0.5-0.2,0.2s-0.1,0.1-0.2,0.2c-0.5,0.4-1,0.7-1.5,1
		c-0.6,0.3-1.2,0.6-1.8,0.9c-0.4,0.2,0.3-0.1-0.1,0l-0.5,0.2l-1.2,0.4c-7.8,2.5-16.1,2.8-24.1,3c-10.3,0.2-20.6-0.2-30.8-1
		c-9.1-0.7-18.2-1.6-27.2-2.8c-3.1-0.4-6.1-0.9-9.2-1.4l-0.9-0.2h0.1l-0.4-0.1c-0.4-0.1-0.8-0.2-1.3-0.3c-1.1-0.3-2.2-0.6-3.3-1
		c-8.7-2.6-17.7-5.4-25.5-9.8c-2.1-1.1-4.1-2.4-5.9-3.9c-0.7-0.6-1.4-1.2-2.1-1.9c-0.4-0.4-0.7-0.8-1.1-1.2
		c-0.2-0.2-0.3-0.3-0.4-0.5s0.1,0.1,0.1,0.1c-0.1-0.1-0.2-0.3-0.3-0.4c-0.3-0.4-0.5-0.8-0.7-1.2l-0.3-0.6c-0.3-0.5,0,0.2-0.1-0.2
		c-0.2-0.4-0.3-0.9-0.5-1.3c-0.1-0.2-0.1-0.4-0.2-0.6c0.1,0.5,0-0.2,0-0.4c-0.1-0.4-0.1-0.9-0.1-1.3c0-0.3,0,0,0,0.1
		c0-0.1,0-0.3,0-0.4c0-0.3,0.1-0.6,0.1-0.8c0.2-1.1,0.5-2.1,0.9-3.1c3.3-8.2,12.4-12.6,20.4-14.8c1.8-0.5,3.6-0.9,5.4-1.2
		C93.3,349.8,91.6,345.1,89,345.5z"></path><path class="st2" d="M179.1,392.7v-2.2c0-0.1,0-0.2-0.1-0.3c-0.1-0.2-0.2-0.3-0.3-0.4c-0.4-0.4-0.9-0.8-1.4-1.1
		c-0.5-0.4-1-0.7-1.5-0.9c-0.1,0-0.8-0.3-0.8-0.2v2.2c0,0.1,0,0.2,0.1,0.3c0.1,0.2,0.2,0.3,0.3,0.4c0.4,0.4,0.9,0.8,1.4,1.1
		c0.5,0.4,1,0.7,1.5,0.9C178.4,392.5,179.1,392.9,179.1,392.7L179.1,392.7z"></path><path class="st2" d="M158,391.6c1.1,0-0.2-1-0.5-1.2c-1-0.6-2.1-0.9-3.3-1c-1.1,0,0.2,1,0.5,1.2C155.7,391.2,156.8,391.6,158,391.6
		L158,391.6z"></path><path class="st2" d="M138.6,367.4c0.3-0.6,0.1-1.2-0.4-1.6c-0.6-0.4-1.3-0.6-2.1-0.6c-0.8,0-1.6,0.2-2.4,0.5
		c-0.9,0.3-1.7,0.7-2.5,1.4c-0.7,0.7-1,1.6-0.9,2.5c0.1,1,0.4,2.1,0.9,3c0.1,0.3,0.6,0.3,0.9,0.3c0.6,0,1.2-0.1,1.8-0.4
		c0.6-0.2,1.1-0.4,1.6-0.8c0.2-0.1,0.6-0.5,0.5-0.8c-0.6-1.1-0.9-2.2-0.9-3.5v0.2c0-0.5,0.2-0.9,0.4-1.3l-0.2,0.2
		c0-0.1,0.1-0.1,0.2-0.2c0.1-0.2-0.2,0.2-0.2,0.2l0.1-0.1l-0.4,0.2c0.2-0.1,0,0-0.4,0.2l-0.2,0.1c-0.2,0.1-0.5,0.2-0.8,0.2h0.1
		l-0.5,0.1c0.3,0-0.6,0-0.2,0h0.1c0.2,0-0.5,0-0.2,0c0.2,0,0.3,0.1,0.5,0.1l-0.3-0.1c0.3,0.1,0.6,0.3,0.8,0.5l-0.1-0.2
		c0.2,0.2,0.3,0.5,0.3,0.7v-0.2c0,0.1-0.1,0.3-0.1,0.4c-0.1,0.3,0.2,0.4,0.4,0.5c0.5,0.1,1,0,1.5-0.1c0.6-0.1,1.2-0.4,1.8-0.7
		C138,368.1,138.3,367.8,138.6,367.4L138.6,367.4z"></path><path class="st2" d="M132.9,387.3c-0.2-0.1-0.3-0.1-0.5-0.1c-0.1,0-0.3,0-0.4,0.1c-0.5,0.1-1,0.3-1.6,0.5c-0.8,0.3-1.6,0.6-2.3,1
		c-0.2,0.1-0.3,0.2-0.5,0.3c-0.2,0.1-0.3,0.2-0.5,0.4c-0.2,0.2-0.3,0.5-0.2,0.9c0.1,0.3,0.3,0.5,0.5,0.6c0.2,0.1,0.3,0.2,0.5,0.2
		c0.1,0,0.2,0,0.2,0c0.3,0,0.6-0.1,0.8-0.2c0.6-0.2,1.1-0.4,1.7-0.6c0.5-0.2,1.1-0.5,1.6-0.8c0.1,0,0.7-0.4,0.6-0.5h-0.1
		c-0.2,0-0.4,0.1-0.6,0.1l0.3-0.1l0,0h0.2c-0.1,0-0.3,0-0.4,0h0.1c-0.5-0.1-0.9-0.6-0.8-1.2c0-0.1,0-0.2,0.1-0.3v0.1
		c0.1-0.1,0.2-0.2,0.3-0.3l-0.2,0.2l0.1-0.1l-0.3,0.2c0.3-0.2,0,0-0.9,0.4c-0.6,0.3-1.3,0.5-1.9,0.8c-0.2,0.1-0.4,0.1-0.6,0.2h0.1
		h-0.3c0.1,0,0.3,0,0.4,0h-0.1h0.1c0.1,0,0.2,0,0.2,0c0.2,0,0.3-0.1,0.5-0.1c1.1-0.4,2.2-0.8,3.3-1.4l0.3-0.2
		C132.9,387.5,133,387.4,132.9,387.3L132.9,387.3z"></path><path class="st2" d="M85.7,375.5c-0.1,0.1-0.1,0.2-0.1,0.4c0,0.1,0,0.1,0,0.2c0,0.1,0,0.2,0.1,0.3c0.1,0.2,0.2,0.3,0.3,0.5
		c0.1,0.2,0.3,0.3,0.5,0.4l0.4,0.2l0,0l0.5,0.1c0.5,0.1,0.9,0.1,1.4,0.1c0.5,0,0.9-0.1,1.4-0.2h0.1l0.5-0.2l0,0l0.4-0.2h0.1
		c0.1-0.1,0.2-0.2,0.3-0.3c0.1-0.1,0.1-0.2,0.2-0.2c0.1-0.1,0.1-0.3,0.1-0.4c0-0.1,0-0.1,0-0.2c0,0,0-0.1,0-0.1
		c0-0.1-0.1-0.3-0.2-0.4c-0.1-0.1-0.3-0.2-0.5-0.3c-0.2-0.1-0.5-0.2-0.7-0.2c-0.3-0.1-0.6-0.1-0.9,0c-0.3,0-0.7,0-1,0.1l-0.6,0.1
		c-0.3,0.1-0.6,0.2-0.9,0.4l-0.2,0.2c-0.1,0.1-0.1,0.4,0,0.5c0,0,0,0,0,0.1l-0.1-0.2c0,0.1,0,0.3,0,0.4L87,376
		c0,0.1-0.1,0.2-0.2,0.3l0.2-0.2l-0.2,0.1l0.4-0.2l-0.1,0l0.5-0.2h-0.1l0.6-0.1h-0.1l0.7-0.1h0.6l0.6,0.1h-0.1l0.5,0.1
		c0,0-0.1,0-0.1,0l0.4,0.2l-0.2-0.1l0.3,0.2c-0.1-0.1-0.2-0.2-0.2-0.3l0.1,0.2c0-0.1,0-0.3,0-0.5l-0.1,0.3c0,0,0-0.1,0-0.1
		c0.1-0.1,0.1-0.3,0-0.4c0-0.2-0.2-0.3-0.3-0.3c-0.2-0.1-0.4-0.2-0.7-0.2c-0.3-0.1-0.6-0.1-0.9-0.1h-0.7c-0.4,0-0.8,0.1-1.2,0.2
		l-0.5,0.2C86.1,375.2,85.9,375.3,85.7,375.5L85.7,375.5z"></path><path class="st2" d="M167.2,366.8v3.6l4.7-0.6v-2.8c0-0.6-0.2-1.1-0.6-1.4c-0.5-0.3-1.1-0.5-1.6-0.4c-0.7,0.1-1.3,0.4-1.7,0.9
		c-0.4,0.4-0.7,1-0.8,1.6v2.8c0,0.6,0.2,1.1,0.6,1.4c0.5,0.3,1,0.5,1.6,0.4c0.7-0.1,1.3-0.4,1.7-0.9c0.4-0.4,0.7-1,0.8-1.6v-3.6
		c0-0.6-0.2-1.1-0.6-1.4c-0.5-0.3-1.1-0.5-1.6-0.4c-0.7,0.1-1.3,0.4-1.7,0.9C167.6,365.7,167.3,366.2,167.2,366.8L167.2,366.8z"></path></g><g id="tea"><path class="st1" d="M123.4,97.7c0,0-17.2,50-29.9,67.8s-60.3,78.7-58.3,82.3s35.2,43,50.3,45s31.8-4.2,32.3-7.3
		s25.8-73.7,55.9-94.4s41.1-16.8,42.4-24.3s-24-42.8-32.3-54.5s-31.7-13.3-31.7-13.3L123.4,97.7z"></path><path class="st2" d="M120.9,97.8c-2,5.8-4.1,11.6-6.3,17.3c-4.3,11.4-8.9,22.7-14.2,33.7c-2.3,4.9-4.9,9.7-7.8,14.3
		c-2,3.1-4.3,6.1-6.5,9.1c-6.2,8.4-12.5,16.7-18.8,25c-6.9,9.2-13.8,18.4-20.5,27.7c-4.5,6.3-9.4,12.7-13.1,19.6
		c-0.6,1.1-1.7,2.7-0.9,3.9c1.5,2.2,3.2,4.4,5,6.4c6.8,8.2,14.2,16,22,23.2c4,3.7,8.2,7.2,12.7,10.3c3.4,2.3,7.1,4.5,11.2,5.2
		c8.2,1.4,17.1,0.3,25-1.9c2.9-0.7,5.8-1.8,8.5-3.3c1.2-0.7,2.5-1.5,3-2.9c1.5-5.1,3.5-10.1,5.5-15.1c4.1-10.2,8.6-20.2,13.6-29.9
		c5.5-11.1,12-21.8,19.5-31.7c3.4-4.5,7.2-8.7,11.3-12.6c5.2-4.7,11.3-8.4,17.3-11.9c5.4-3.1,11-5.8,16.8-8.1c3.3-1.3,6.7-2.4,9.9-4
		c1.9-1,3.7-2.2,4.3-4.4c0.8-2.7-0.8-5.9-1.9-8.3c-4.8-10.3-11.4-19.9-17.7-29.2c-3.1-4.5-6.2-9-9.4-13.5c-1.2-1.7-2.3-3.4-3.6-5
		c-1.8-2.2-3.9-4-6.3-5.4c-5-2.9-10.4-5-16.1-6.1c-3.4-0.8-6.9-1.3-10.4-1.6c-7-0.5-14.1-0.7-21.1-1L124,97c-0.7,0-2.6-0.2-3.1,0.6
		s1.5,0.9,1.8,0.9l22.3,1.1c2.2,0.1,4.4,0.2,6.6,0.3h0.4h0.3c0.4,0-0.6-0.1,0,0l2.2,0.3c2.1,0.3,4.2,0.7,6.2,1.1
		c5.4,1.2,10.9,3.1,15.5,6.2c4,2.7,6.4,6.6,9.1,10.5c6.7,9.5,13.3,19,19.4,28.9c2.7,4.3,5.2,8.7,7.3,13.3c1,2.3,2.4,5.3,1.4,7.8
		c-0.7,1.9-2.4,2.8-4.3,3.6l-0.5,0.2c-0.2,0.1-0.2,0.1-0.2,0.1l-1.1,0.4l-2.4,0.9c-2.1,0.8-4.1,1.6-6.2,2.4
		c-5.9,2.5-11.7,5.4-17.3,8.8c-5.8,3.5-11.6,7.1-16.6,11.7c-8.5,7.9-15.3,17.7-21.3,27.6c-6.2,10.3-11.7,21-16.6,32
		c-3.6,8-7,16-9.9,24.2c-0.6,1.8-1.3,3.5-1.8,5.3c-0.4,1-1.1,1.7-2,2.2c-2.5,1.4-5.2,2.5-8,3.1c-3.6,1-7.4,1.6-11.1,1.8
		c-2.1,0.1-4.1,0.1-6.2-0.1c-0.6,0-1.2-0.1-1.8-0.2s0.2,0-0.2,0l-0.7-0.2c-3.7-1.1-7.5-3.7-10.7-6.1c-8.9-6.7-16.8-14.7-24.3-22.9
		c-3-3.3-6-6.7-8.9-10.2c-0.9-1.1-1.8-2.2-2.7-3.4c-0.3-0.4-0.5-0.7-0.8-1.1c-0.1-0.1-0.2-0.2-0.2-0.4c-0.2-0.3,0,0.1,0-0.1
		c-0.1-1.5,1.1-3.1,1.9-4.4c1.8-3,3.8-6,5.7-8.9c5.9-8.6,12.1-17,18.3-25.4C70.2,200,77,191,83.8,181.9c2.7-3.6,5.5-7.3,8.2-10.9
		c2.2-3,4.5-6,6.4-9.2c6.1-9.9,10.7-20.8,15.1-31.5c3.8-9.3,7.4-18.6,10.8-28.1c0.5-1.5,1.1-3,1.6-4.5
		C126.1,97.1,121.3,96.4,120.9,97.8z"></path><path class="st2" d="M123,100.5c0.5,1.3,1.3,2.4,2.2,3.4c1.8,2.2,3.8,4.3,5.8,6.3c7,7.2,14.3,14,22,20.4
		c7.1,5.7,14.5,10.9,22.2,15.7c7.6,4.7,15.3,9.2,23.2,13.4c3.3,1.8,6.6,3.5,10,5.1c2,1,4.1,1.9,6.2,2.6c0.9,0.3,2.5,0.6,3.4,0.1
		s-0.3-0.9-0.8-1.1c-0.2,0-0.6-0.2,0,0l-0.5-0.2c-0.4-0.1-0.8-0.3-1.1-0.4c-1-0.4-2-0.9-3-1.4c-2.8-1.3-5.5-2.7-8.2-4.1
		c-7.5-4-14.9-8.2-22.2-12.6c-7.7-4.6-15.1-9.7-22.2-15.2c-7.8-6.3-15.2-13-22.1-20.1c-2.5-2.5-4.9-5-7.2-7.6
		c-0.7-0.8-1.3-1.6-1.9-2.4c-0.2-0.3-0.4-0.6-0.6-0.8s-0.3-0.7-0.3-0.5C127.5,99.7,122.8,100.1,123,100.5L123,100.5z"></path><path class="st2" d="M172.1,193.7l6.2-14l9.9-22.4l2.3-5.1c0.2-0.5-1.7,0.3-1.8,0.3c-0.7,0.3-2.3,0.9-2.6,1.6l-6.2,14l-9.9,22.4
		l-2.3,5.1c-0.2,0.5,1.7-0.3,1.8-0.3C170.2,195,171.8,194.5,172.1,193.7L172.1,193.7z"></path><path class="st2" d="M131.3,136.9c-6.6,10.4-12,21.6-16,33.2c-0.2,0.6,1.7-0.4,1.8-0.4c0.7-0.4,2.2-1.1,2.5-1.9
		c4-11.7,9.4-22.8,16-33.2c0.3-0.5-1.7,0.4-1.8,0.4C132.8,135.4,131.9,136.1,131.3,136.9L131.3,136.9z"></path><path class="st2" d="M159.7,162.7L135.8,193c-0.7,0.9,0.6,1.2,1.3,1.2c1.2,0,2.3-0.5,3.2-1.3l23.9-30.3c0.7-0.9-0.6-1.2-1.3-1.2
		C161.6,161.3,160.5,161.8,159.7,162.7L159.7,162.7z"></path><path class="st2" d="M85.2,210.7c-3.2,1.6-6,3.8-8.4,6.5c-2.9,3-5.8,6.1-8.6,9.1c-5.7,6.1-11.3,12.2-16.9,18.3
		c-3.2,3.6-6.5,7.1-9.7,10.7c-1.1,1.2,2.7,4.5,3.8,3.3c11-12.3,22.1-24.4,33.5-36.3c2.9-3,5.7-6.2,9.6-8
		C90.1,213.6,86.7,210,85.2,210.7L85.2,210.7z"></path><path class="st2" d="M103.3,236.6c-8.3,13.3-15.5,27.3-21.5,41.8c-0.4,1.1,1.4,1.9,2.1,2.1c1,0.4,2.2,0,2.8-1
		c5.9-14.2,13-27.9,21.1-41C109.1,236.5,104.4,234.9,103.3,236.6L103.3,236.6z"></path><path class="st2" d="M97.4,189.6c-0.4,7.7,4.8,14.5,11.4,18c2.8,1.5,5.9,2.6,8.7,4.2c1.2,0.6,2.3,1.5,3.1,2.6
		c1.1,1.5,1.8,3.3,3,4.7c2.7,3.4,6.6,4.9,10.6,6.2c1,0.3,0.7-0.9,0.4-1.4c-0.4-0.9-1.2-2.3-2.2-2.6c-1.9-0.6-3.8-1.3-5.7-2.2
		c-0.8-0.4-1.6-0.9-2.2-1.6c-0.5-0.7-0.9-1.4-1.3-2.1c-2-3.5-5-6.4-8.7-8.2c-3.2-1.7-6.8-2.8-9.8-4.9c-3.2-2.2-4.3-5.7-4.2-9.6
		c0-1-1-2.3-1.7-3C98.4,189.1,97.5,188.5,97.4,189.6L97.4,189.6z"></path><path class="st2" d="M91,172.5c2.1-7.8,3.1-15.8,2.9-23.8c-0.3-7.8-2.3-15.5-2.3-23.3c-0.1-13.3,4.6-27.5,16.1-35.1
		c5.6-3.7,12.2-5.7,18.8-3.9c1.1,0.3,2.3,0.2,3.4-0.1c0.3-0.1,1.9-0.7,0.8-1c-13.7-3.7-29,2.4-36.9,14.2c-3.9,6.1-6.3,13.1-6.9,20.3
		c-0.8,8.2,0.8,16.2,1.7,24.4c1.1,9.7-0.1,19.4-2.5,28.8C85.9,173.4,90.7,173.8,91,172.5L91,172.5z"></path><path class="st2" d="M128,100.1c0.5-3.1,0.9-6.3,1.6-9.4c0.6-2.7,4.3-2.6,6.5-2c2.3,0.9,4.5,2.2,6.2,4c2.3,2.2,4.6,4.3,7,6.5
		c0.6,0.6,2,1.7,3,1.2s0-1.8-0.5-2.3c-2.7-2.6-5.4-5.2-8.2-7.7c-2.6-2.5-5.7-4.3-9.1-5.3c-2.5-0.7-7.1-1-8.6,1.8
		c-0.8,1.5-0.8,3.4-1.1,5l-1,5.8C123.5,99.3,127.8,101.9,128,100.1L128,100.1z"></path><path class="st2" d="M170.3,103.3c0,0,5.1-6.9,5.5-9.2s-3.6-9.9,6.6-7.1s19.3,9.2,14.2,13.7s-6.8,2.7-7.9,5.9s-2.7,10.2-2.7,10.2
		S167.5,116.4,170.3,103.3z"></path><path class="st2" d="M172.7,103.4c1-1.3,1.9-2.6,2.8-4c1.1-1.6,2.6-3.7,2.9-5.7c0-1.3-0.2-2.5-0.4-3.8c-0.1-0.6-0.1-1.2,0.1-1.8
		c0.1-0.3,0.2-0.5,0.4-0.8c0.1-0.2,0.3-0.1,0.2-0.1c0.1,0-0.6-0.1-0.1,0c-0.3-0.1,0.2,0,0.4,0c0.6,0.1,1.3,0.2,1.9,0.4
		c1.9,0.5,3.7,1.1,5.5,1.9c2.9,1.2,5.9,2.8,8,5.2c1.4,1.6,2.1,3.7,0.4,5.3c-1.1,1.1-2.5,2-3.9,2.7c-0.8,0.4-1.7,0.7-2.5,1.2
		c-2,1.3-2.3,4.2-2.9,6.3s-1.1,4.3-1.7,6.5l3.1-1.1c-0.6,0-1.1-0.1-1.7-0.1h-0.4c-0.1,0,0.5,0.1,0,0s-0.7-0.1-1-0.2
		c-0.8-0.1-1.5-0.3-2.3-0.5l-0.2-0.1l-0.6-0.2c-0.4-0.1-0.8-0.3-1.2-0.4c-0.8-0.3-1.5-0.6-2.2-1c-3.7-1.9-5.5-6.2-4.3-10.1
		c0.2-1.1-4.7-1.4-5,0.2c-1,4.2,0.8,8.5,4.4,10.8c3.1,1.9,6.6,3,10.2,3.3c1,0.1,1.9,0.2,2.9,0.3c0.9,0,2.8,0,3.1-1.1
		c0.5-2,1-4,1.6-6c0.4-1.3,0.7-2.7,1.2-4c0.1-0.4,0.3-0.9,0.6-1.2c0.2-0.2,0.3-0.3,0.5-0.4c2.6-1.3,5.3-2.4,7.2-4.7
		c1.6-1.9,1-4.3-0.6-6.1c-2.2-2.7-5.5-4.4-8.6-5.8c-3.4-1.5-7.3-2.9-11-3c-2.1,0-5.3,0.3-6.2,2.6c-0.6,1.4-0.2,3,0,4.5
		c0.2,0.6,0.2,1.3,0.1,1.9c-0.4,1.2-1,2.4-1.7,3.4c-1.1,1.9-2.4,3.7-3.6,5.4c-0.6,0.8,1.4,1.1,1.8,1.2
		C170.6,104.3,172.1,104.2,172.7,103.4z"></path><path class="st2" d="M190.8,243.2l18.5-0.4l29.4-0.6l6.8-0.1l-2.1-1.6l-3.1,21.9l-4.9,34.9l-1.1,8l1.5-1.4l-0.6,0.2
		c0.8-0.3,0.2,0-0.2,0l-1,0.3c-2,0.5-4.1,0.9-6.2,1.3c-5.5,1.1-11.2,1.2-16.7,0.4c-3.2-0.5-6.2-1.7-8.8-3.5l0.5,0.8l-3.1-20.9
		l-4.9-33.4l-1.1-7.7c-0.3-2.2-5.2-1.3-4.9,0.9l1.7,11.9l3.6,24.7l3.1,21.1c0.2,1.4,0.3,2.9,0.6,4.3c0.2,0.6,0.6,1.1,1.2,1.3
		c1.1,0.8,2.3,1.4,3.5,1.9c2.6,1.1,5.2,1.8,8,2.1c8.8,1.2,18.1-0.2,26.6-2.6l0.5-0.1c0.6-0.2,1.4-0.8,1.5-1.4l3.1-21.9l4.9-34.9
		l1.1-7.9c0.2-1.2-1.1-1.7-2.1-1.6l-18.5,0.4l-29.4,0.6l-6.8,0.1c-1,0-2.6,0.5-2.8,1.7S189.9,243.2,190.8,243.2z"></path><path class="st0" d="M235.3,279.1c-6.3-6.8-11,2.1-18.1-2.9s-15,1.1-15,1.1l3.6,22.2c0,0,24.1,4.4,26,0S235.3,279.1,235.3,279.1z"></path><path class="st0" d="M237.5,278.4c-2-2.3-5-3.7-8.1-3.6c-1.3,0.1-2.5,0.3-3.8,0.6c-1,0.3-2,0.6-3.1,0.7c-0.9,0.1-1.7,0-2.5-0.4
		c-1.6-0.8-2.9-1.9-4.7-2.4c-3.2-1-6.6-0.9-9.8,0.2c-1.8,0.6-3.5,1.4-5.1,2.6c-0.6,0.3-0.9,0.9-0.7,1.6L203,297l0.4,2.8
		c0.1,0.7,1.1,1.1,1.7,1.2c6.2,1.2,12.5,1.9,18.9,2.1c2.9,0,7.5,0.1,9.6-2.2c1-1.1,1.3-3,1.6-4.5c0.5-2.2,0.9-4.5,1.2-6.8
		c0.5-3.5,1-6.9,1.3-10.4c0.2-2.2-4.8-2.5-5-0.2c-0.3,2.7-0.6,5.4-1,8.1c-0.5,3.8-0.9,7.8-2.2,11.4c-0.1,0.2-0.2,1-0.1,0.4
		c-0.1,0.2-0.6,0.5-0.1,0.1c-0.2,0.1-0.9,0.4-0.3,0.2l-0.9,0.3c-0.5,0.1,0.5-0.1,0,0l-0.5,0.1c-0.3,0-0.6,0.1-1,0.1
		s-0.8,0.1-1.2,0.1c0.6,0-0.1,0-0.2,0h-0.7c-3.9,0-7.8-0.3-11.6-0.9l-0.5,0c0.6,0.1-0.3,0-0.4-0.1l-1.4-0.2l-2.2-0.3
		c-0.7-0.1-1.3-0.2-2-0.3l1.7,1.2l-3.1-19.4l-0.4-2.8l-0.7,1.6c1.5-1.1,3.1-1.9,4.9-2.4c1.3-0.4,2.7-0.4,4.1-0.1
		c1.8,0.5,3.1,1.8,4.8,2.5c3.1,1.3,6.3,0.9,9.5,0c0.6-0.2,1.3-0.4,1.6-0.4s0.7-0.1,1-0.1c0.8-0.1-0.5,0,0.3,0h0.5
		c-0.2,0-0.2,0,0.1,0c0.2,0.1,0.5,0.1,0.7,0.3c0.7,0.4,1.3,0.9,1.8,1.4c0.9,0.9,2.2,1.2,3.4,0.7
		C237.4,280.3,238.4,279.3,237.5,278.4z"></path><path class="st0" d="M208.1,165.3c7.7,3.8,14.1,9.8,18.4,17.3c4.8,8.5,6.7,18.2,5.7,27.9c-0.5,5-1.6,10-3.4,14.7
		c-1.4,3.8-3.4,7.9-6.8,10.3c-1.3,0.9-3.4,2.1-4.8,0.9c-0.8-0.6-1.6-2.7-0.6-3.4c-0.3,0.2,0.1,0.1,0.4,0.1c0.3,0,0.7,0.1,1,0.2
		c0.8,0.3,1.5,0.7,2.2,1.3c1.3,1.2,2.3,2.6,3,4.2c1.9,4.3,2,9.2,1.5,13.8c-0.6,5.6-2.4,11.1-5.1,16.1c-1.2,2.3,3.6,2.4,4.5,0.7
		c2.9-5.2,4.8-11,5.5-16.9c0.5-4.8,0.5-9.8-1.4-14.4c-1.7-4.1-4.8-7.5-9.4-8.1c-2.6-0.3-5.9,0.3-7.1,2.8c-0.9,2-0.3,4.4,1.4,5.8
		c2.2,1.9,5.6,1.6,8.2,0.8c2.5-0.8,4.8-2.3,6.6-4.3c3.6-3.9,5.6-9,7.1-14c3.2-11.1,3.4-23.4-0.9-34.2c-4.3-10.7-12.5-19.4-22.9-24.4
		C209.5,161.7,205.5,164,208.1,165.3L208.1,165.3z"></path></g></svg>