<svg transform="scale(1)" version="1.1" id="Layer_1" xmlns="http://www.w3.org/2000/svg" xmlns:xlink="http://www.w3.org/1999/xlink" x="0px" y="0px" viewBox="0 0 500 500" xml:space="preserve" class="show_show__wrapper__graphic__5Waiy "><title>React</title><style type="text/css">
	.st0{fill:#FFFFFF;}
	.st1{fill:#000005;}
	.st2{fill:#CB997E;}
</style><g id="pudding"><path class="st0" d="M240.3,372.9c0,0-86.3,16.6-61.1,34.5s139.4,16,141.8-4.3S263.1,373.5,240.3,372.9z"></path><path class="st1" d="M240.9,371.4c-6.1,1.2-12.1,2.6-18.1,4.1c-11.2,2.8-22.5,6-33.1,10.8c-4.4,2-8.9,4.2-12.6,7.4
		c-2.5,2.2-5.3,5.3-4.7,8.9s4.2,6.2,7.2,7.9c4.3,2.2,8.8,3.9,13.4,5.1c12.6,3.4,25.8,4.7,38.8,5.4c14.6,0.8,29.2,0.6,43.8-0.6
		c11.6-1,23.7-2.5,34.7-6.7c3.7-1.4,7.6-3.3,10.3-6.2c2.5-2.6,3.3-6.5,2-9.9c-1.6-4.7-6.2-8-10.3-10.4c-6.1-3.3-12.5-5.9-19.2-7.6
		c-14.2-4-28.8-6.6-43.6-7.7c-2.8-0.2-5.5-0.4-8.3-0.5c-1.2,0.1-2.4,0.7-3.1,1.8c-0.6,0.9-0.1,1.5,0.9,1.5
		c13.2,0.5,26.4,2.3,39.4,5.2c7.1,1.5,14.1,3.5,20.8,6c5.4,2.1,11,4.6,15.3,8.7c1.6,1.4,2.8,3.1,3.6,5.1c0.4,0.9,0.6,1.8,0.6,2.8
		c0,0.5,0,0.9,0,1.4c0,0.2,0,0.4-0.1,0.6c0.1-0.4,0,0,0,0.1s-0.2,0.5-0.3,0.8c-0.1,0.1-0.1,0.3-0.2,0.4c0.3-0.5,0,0,0,0.1
		s-0.4,0.5-0.6,0.8s0.4-0.4,0,0c-0.1,0.1-0.3,0.3-0.4,0.5l-0.3,0.3c-0.4,0.4,0.4-0.3,0,0c-0.3,0.2-0.6,0.5-0.9,0.7
		c-0.2,0.1-0.3,0.2-0.5,0.4c0.4-0.3,0.4-0.2,0,0s-0.8,0.5-1.2,0.7l-1.2,0.6c0.5-0.2,0.2-0.1-0.1,0l-0.8,0.4c-1,0.4-1.9,0.8-2.9,1.1
		l-1.5,0.5c-0.6,0.2,0.5-0.1-0.1,0l-0.4,0.1l-1,0.3c-1.2,0.4-2.4,0.7-3.6,1c-5.5,1.3-11.1,2.3-16.7,3c-13.8,1.6-27.7,2.2-41.6,1.8
		c-13.4-0.2-26.7-1.5-39.9-3.9c-5.2-0.9-10.3-2.2-15.2-4c-3.6-1.4-7.6-3.2-10.3-5.8c-0.6-0.6-1.1-1.3-1.5-2
		c-0.2-0.3-0.3-0.6-0.4-0.9c-0.1-0.2-0.2-0.5-0.2-0.8c0-0.3-0.1-0.6-0.1-0.9c0-0.2,0.1-1.1,0-0.7c0.1-0.3,0.2-0.6,0.3-0.9
		c0.1-0.1,0.1-0.3,0.2-0.4c0.2-0.4-0.2,0.3,0.1-0.2c0.2-0.3,0.4-0.6,0.6-0.9c0.1-0.1,0.4-0.5,0.2-0.3s0.2-0.2,0.3-0.4
		c0.3-0.3,0.6-0.6,0.8-0.8l0.2-0.2c0.2-0.2-0.5,0.4-0.1,0.1l0.6-0.5c0.4-0.3,0.8-0.6,1.1-0.9l0.6-0.4l0.3-0.2c0.2-0.1-0.5,0.3,0,0
		c0.9-0.6,1.9-1.2,2.9-1.7c0.5-0.3,1-0.5,1.4-0.8l0.8-0.4l0.4-0.2c1.2-0.6,2.4-1.1,3.6-1.6c2.5-1.1,5-2,7.6-2.9
		c1.4-0.5,2.8-1,4.2-1.4l0.5-0.2l1.1-0.3l2.1-0.7c2.7-0.8,5.5-1.6,8.2-2.4c7.7-2.1,15.5-4,23.4-5.6l1.3-0.2c1.2-0.2,2.2-1,2.7-2.1
		C242.8,371.3,241.6,371.2,240.9,371.4z"></path><path class="st0" d="M273,389.6c0,0-15.4-25.9,3.7-32.7s61-15.4,85.1-41.3s25.1-42.6,25.1-42.6H113.1c0,0,1.4,44.4,39.7,57.4
		S257,344,223,386.5"></path><path class="st1" d="M275.2,389.3l-0.1-0.1c-0.3-0.5,0.1,0.1-0.1-0.2c-0.3-0.5-0.6-1.1-0.8-1.6c-0.9-1.8-1.7-3.7-2.4-5.6
		c-1.7-4.7-3-10.1-1.7-15.1c0.6-2.5,2-4.7,4-6.3c2.2-1.7,4.9-2.5,7.6-3.4c5.9-1.9,11.8-3.6,17.8-5.5c14.9-4.7,29.7-10.1,43.1-18.1
		c7.1-4.1,13.7-9.1,19.5-14.9c6.6-6.6,12.5-13.9,17.5-21.8c3.2-4.9,5.9-10.2,7.9-15.7c1-2.3,1.6-4.8,1.9-7.3c0-0.1,0-0.2,0-0.3
		c0.1-1.3-2-1.8-2.9-1.8H123.8c-3.5,0-7.1,0-10.7,0h-0.5c-0.5,0-2,0.1-2,1c0.4,7.1,1.8,14,4.2,20.7c4.8,13.7,13.5,25.8,26.1,33.3
		c6.8,4,14.5,6.3,22.2,8.3s15.1,3.6,22.7,5.4c7,1.6,14.1,3.3,21,5.6c5.6,1.8,11.1,3.9,15.8,7.3c3.7,2.7,6.6,6.2,7.2,11
		c0.7,5.9-2.3,11.8-5.4,16.5c-1.2,1.8-2.4,3.5-3.7,5.1s3.5,2.9,4.6,1.5c4.2-5.4,8.5-11.7,9.4-18.6c0.6-4.8-0.9-9.5-4.2-13.1
		c-3.8-4.2-9.1-7-14.3-9.2c-6.6-2.6-13.3-4.8-20.2-6.4c-7.6-1.9-15.2-3.5-22.8-5.4c-7.2-1.6-14.3-3.6-21.2-6
		c-14.2-5.3-24.7-16.8-30.5-30.6c-2.1-5.1-3.7-10.3-4.8-15.7c-0.4-1.9-0.7-3.8-0.9-5.7c-0.1-0.6-0.1-1.3-0.2-1.9c0-0.3,0,0.3,0-0.1
		v-0.3c0-0.2,0-0.4,0-0.6c0-0.1,0-0.3,0-0.4l-2,1h262.6c3.5,0,7.1,0.1,10.6,0h0.5l-2.9-1.8c-0.2,1.7-0.5,3.4-1.1,5
		c-1.5,4.8-3.6,9.5-6.2,13.9c-4.6,7.7-9.9,15-16,21.6c-5.7,6.2-12.1,11.7-19.2,16.2c-13.4,8.5-28.3,14.2-43.4,19.1
		c-6.1,2-12.2,3.8-18.3,5.7c-5.4,1.7-11.3,3.5-14,9c-2.4,4.9-1.7,10.5-0.3,15.6c1,3.7,2.5,7.2,4.4,10.5l0.5,0.9
		C271.6,391.3,276.5,391.3,275.2,389.3L275.2,389.3z"></path><ellipse class="st1" cx="250" cy="273" rx="136.9" ry="45.8"></ellipse><path class="st1" d="M384.5,272.9c0,0.6,0,1.2-0.1,1.8c0,0.4,0.1-0.5,0,0c0,0.1,0,0.3-0.1,0.4c-0.1,0.3-0.1,0.6-0.2,0.9
		c-0.1,0.6-0.3,1.2-0.5,1.8c-0.1,0.3-0.2,0.6-0.3,0.8c-0.1,0.1-0.5,1-0.2,0.6c-0.6,1.2-1.3,2.4-2.2,3.5c-0.8,1.1-1.7,2.1-2.6,3.1
		c-5.2,5.3-11.7,8.9-18.4,12c-9,4-18.4,7.2-28,9.6c-11.7,2.9-23.7,5.1-35.7,6.5c-27.6,3.3-55.5,3.7-83.1,1.1
		c-22.8-2.1-46-6.1-67.3-14.6c-3.9-1.6-7.8-3.4-11.5-5.4c-1.7-0.9-3.4-1.9-5-3c-1.4-0.9-2.8-1.9-4.1-3c-2.3-1.8-4.4-3.9-6.1-6.3
		c-0.4-0.5-0.7-1.1-1.1-1.6c-0.2-0.3-0.3-0.5-0.5-0.8l-0.2-0.3c-0.1-0.1-0.1-0.2-0.2-0.3l0,0c-0.5-1.1-0.9-2.3-1.2-3.5
		c0-0.1-0.2-1-0.1-0.5c0-0.3-0.1-0.6-0.1-0.9c-0.1-0.6-0.1-1.3-0.1-1.9c0-0.6,0-1.1,0.1-1.7c-0.1,0.5,0.1-0.3,0.1-0.5
		c0.1-0.3,0.1-0.7,0.2-1c0.2-0.6,0.3-1.1,0.5-1.7c0.1-0.3,0.2-0.6,0.3-0.8l0.2-0.4c0.2-0.5-0.1,0.1,0.1-0.2c0.6-1.2,1.3-2.3,2.1-3.4
		c1.8-2.4,3.9-4.5,6.3-6.3c2.8-2.2,5.9-4.2,9.1-5.9c8.2-4.3,16.8-7.8,25.8-10.2c11.2-3.2,22.5-5.7,34-7.3c27.4-4,55.1-5.1,82.7-3.1
		c23.8,1.6,48,5.1,70.6,12.9c8.2,2.7,16,6.3,23.2,10.9c2.7,1.8,5.3,3.8,7.5,6.1c1,0.9,1.8,1.9,2.6,3c0.4,0.5,0.7,1.1,1.1,1.6
		c0.2,0.3,0.3,0.5,0.5,0.8l0.3,0.5c0.3,0.5-0.2-0.4,0.1,0.1c0.5,1.1,0.9,2.2,1.2,3.4c0.1,0.3,0.1,0.6,0.2,0.9
		c-0.1-0.5,0,0.3,0.1,0.5C384.4,271.5,384.4,272.1,384.5,272.9c0,2.6,5,3.1,4.9,0.2c0-6-3.2-11.2-7.2-15.5
		c-5.2-5.5-12-9.5-18.8-12.7c-20.4-9.7-43.4-14.2-65.7-17c-28.5-3.5-57.2-3.8-85.8-1.1c-23.4,2.2-47.3,6.3-69.2,15.2
		c-7.6,3.1-15.2,6.9-21.6,12.2c-4.5,3.8-8.7,8.6-10,14.5c-3,13.5,9.7,23.5,20.1,29.3c8.5,4.6,17.5,8.3,26.8,11
		c11.4,3.3,23.1,5.9,34.9,7.6c28.2,4.2,56.7,5.3,85.1,3.3c24.5-1.7,49.4-5.3,72.6-13.5c8.5-2.8,16.5-6.7,24-11.6
		c5.3-3.6,10.4-8.2,13.1-14.2c1.1-2.4,1.6-4.9,1.6-7.5C389.4,270.5,384.5,270,384.5,272.9z"></path><path class="st0" d="M146,281c0,0,25.3-96.8,27.8-99.3s154.8-6.8,161,1.9s14.2,105.5,14.2,105.5S339,307,263.7,310
		S150.3,288.5,146,281z"></path><path class="st2" d="M148.4,281.3c1.3-4.9,2.6-9.8,3.9-14.7c2.9-10.9,5.8-21.8,8.7-32.7c3-11.2,6.1-22.5,9.3-33.7
		c1.1-4,2.3-8.1,3.6-12.1c0.6-2,1.4-3.9,2.1-5.9c-0.2,0.3-0.5,0.5-0.8,0.6c0.4-0.2-0.8,0.1,0,0c0.3-0.1,0.6-0.1,0.9-0.2
		c0.2,0,0.4,0,0.6-0.1c0,0.1-0.8,0.1-0.3,0h0.4c2.6-0.3,5.3-0.5,7.9-0.6c9-0.6,17.9-0.9,26.9-1.2c11.9-0.4,23.8-0.6,35.8-0.8
		c12.4-0.1,24.8-0.1,37.2,0c2.9,0,5.8,0.1,8.7,0.2l4,0.1h0.4c0,0,0.7,0,0.3,0h0.8l2,0.1c4.8,0.2,9.5,0.4,14.3,0.8
		c3.7,0.3,7.4,0.6,11,1.2c0.7,0.1,1.4,0.2,2.1,0.4l0.5,0.1c0.5,0.1-0.4-0.1-0.1,0l1,0.2c0.5,0.1,1,0.3,1.5,0.4l0.6,0.2
		c0.7,0.2-0.4-0.2,0.1,0.1c0.1,0.1,0.3,0.1,0.4,0.2c0.3,0.2,0.4,0.5,0.1,0c0.1,0.1,0.2,0.1,0.3,0.2c0.3,0.4-0.2-0.4,0,0
		c0.5,0.9,0.9,1.9,1.2,2.8c0.5,1.4,0.8,2.9,1.1,4.4c0.5,2.1,0.9,4.1,1.2,6.2c2,11.4,3.4,22.8,4.8,34.3c1.4,12.1,2.6,24.2,3.8,36.3
		c0.6,6.8,1.3,13.5,1.8,20.3c0,0.1,0,0.4,0,0.5s0.1-0.5,0-0.3c0.3-0.7,0.1-0.1-0.1,0.2c-0.3,0.4-0.6,0.7-1,1.1l-0.8,0.7
		c0.5-0.4,0.1-0.1-0.1,0.1l-0.5,0.4c-0.9,0.7-1.8,1.3-2.7,1.9c-0.6,0.4-1.2,0.7-1.8,1l-0.9,0.5l-0.2,0.1l-0.6,0.3
		c-3.8,1.8-7.6,3.4-11.6,4.6l-0.5,0.2c0.1,0,0.4-0.1,0,0l-0.8,0.2l-2.2,0.6c-1.4,0.4-2.8,0.8-4.2,1.1c-3.3,0.8-6.6,1.5-10,2.1
		c-8.5,1.6-17.2,2.6-25.8,3.4c-21,1.8-42.1,2.1-63-0.4c-15-1.7-29.8-5.1-44-10.3c-4.8-1.8-9.5-3.9-14.1-6.3c-1.8-1-3.6-2-5.3-3.1
		c-0.7-0.5-1.4-0.9-2.1-1.4c-0.4-0.3,0.3,0.2,0,0l-0.3-0.2c-0.1-0.1-0.3-0.2-0.4-0.3c-0.3-0.2-0.6-0.5-1-0.7
		c-0.9-0.7-1.8-1.5-2.7-2.4c-0.3-0.3-0.6-0.7-0.9-1s-0.1-0.1,0.1,0.1l-0.2-0.3l-0.3-0.4c-1-1.7-5.9-0.9-4.8,1
		c1.3,1.9,2.9,3.6,4.8,4.9c3.1,2.4,6.4,4.5,9.9,6.3c10.9,5.8,22.8,9.8,34.7,12.7c18.4,4.3,37.3,6.4,56.2,6.4
		c11.3,0.1,22.5-0.5,33.7-1.5c8.9-0.8,17.8-1.9,26.6-3.5c10.5-1.9,21.2-4.5,30.8-9.3c3.6-1.8,7.7-4,10.3-7.3
		c0.5-0.5,0.7-1.1,0.7-1.8c-0.1-2.2-0.4-4.4-0.6-6.6c-0.9-10.2-1.9-20.4-2.9-30.6c-1.3-12.7-2.7-25.4-4.4-38.1
		c-0.7-5.3-1.5-10.7-2.5-16c-0.6-3.8-1.5-7.6-2.6-11.2c-0.6-1.9-1.3-3.6-3.2-4.5c-2.4-1-4.8-1.7-7.4-2c-8.4-1.2-16.8-1.8-25.2-2
		c-12-0.5-23.9-0.6-35.9-0.6c-12.7,0-25.3,0.1-37.9,0.4c-10.9,0.2-21.8,0.6-32.7,1c-6.6,0.3-13.2,0.5-19.8,1.3
		c-1.5,0.2-3.8,0.2-4.8,1.5c-0.4,0.7-0.8,1.4-1,2.2c-0.4,1.2-0.8,2.4-1.2,3.6c-2.9,9.3-5.5,18.7-8.1,28c-3.3,11.9-6.5,23.8-9.7,35.7
		c-2.3,8.7-4.6,17.4-6.9,26.2c-0.3,1.3-0.7,2.6-1,3.8C142.9,283,147.9,283.2,148.4,281.3z"></path><path class="st2" d="M276.1,219.4c0,0,12.9,27.8,20.9,16.6s7.4-32.7,19.1-34.5s25.9-8,16.6-24s-106.1-19.1-133.2-14.2
		s-35.8,24-16.6,33.3s61.1,6.2,65.4,17.9s16,17.9,17.9,7.4S271.1,212.6,276.1,219.4z"></path><path class="st2" d="M273.9,217.9c3.6,7.7,10,20.3,19,22.6c6.9,1.8,9.7-8.4,11.4-13.1c2.4-7,3.6-17.4,10-22.1
		c3.1-2.3,7.8-2.2,11.4-3.5c3.3-1.1,6.8-2.7,9.2-5.3c5.1-5.5,3.2-13.6-0.9-19.2c-5.8-7.9-17.4-10.3-26.4-12.2
		c-30.5-6.4-63.2-7.4-94.2-5.6c-13.5,0.8-30.7,2.1-39.7,13.7c-9.6,12.3,4.6,23.6,15.6,27.4c9.3,3.2,19.3,4.2,28.9,5.5
		c5,0.7,10,1.3,15,2.3c3.6,0.7,8.1,1.3,11.3,3.3s4.4,7.3,6.9,10.2c2.4,2.8,5.4,5.6,8.9,6.9c3.1,1.1,6,0.5,7.5-2.6
		c1.1-2.4,0.9-5.2,2-7.5c1.5-3.2,2.8-2.2,4.6,0.3c0.9,1.2,5.5,4,3.2,1c-1.9-2.5-7.6-10.6-11.4-6.9c-2.5,2.4-1.5,7.1-3.4,9.9
		c-3.3,5.1-8.7,0.2-10.8-3.4c-2.8-4.8-4.1-8.5-9.3-11.3c-5.4-2.9-11.7-3.9-17.7-4.8c-8.1-1.3-16.2-2.1-24.3-3.5
		c-7.1-1.2-15.6-2.4-21.6-6.6c-6.5-4.5-4.6-12.5,0.2-17.5c5.9-6.1,14.6-9.1,22.7-10.5c11-1.9,22.5-2,33.6-2
		c14.8-0.1,29.6,0.5,44.4,1.8c13.1,1.1,26.5,2.6,39.2,6.3c3.5,1,8.7,2.1,11.3,4.8c5.2,5.4,3,14.3-2.4,18.2
		c-3.6,2.4-7.6,3.9-11.9,4.6c-3.3,0.7-5.9,1.2-8.2,3.8c-5.4,6-6.4,15.6-9.1,22.9c-2.4,6.3-6.9,15.3-13.3,7.5
		c-3-3.8-5.5-7.9-7.5-12.2c-0.6-1.3-1.6-2.3-2.8-3C275.1,217.7,273.3,216.7,273.9,217.9z"></path><path class="st0" d="M237.9,153c-7.1-0.9-14.3,0.2-20.9,3.1c-3.6,1.4-6.7,3.8-9.1,6.9c-2.2,3.2-3,7.5-1.3,11
		c2.4,4.9,8.6,6.4,14,7.2c10.9,1.5,21.8,2.2,32.8,1.9c9.1-0.2,18.4-1,27.1-3.8c4.7-1.6,9.4-3.8,12.7-7.6s4.9-9.2,3.1-13.9
		s-6.3-7.2-10.8-9.2c-21-8.8-45-6.4-63.8,6.4c-3.8,2.6-7.6,6.7-6.4,11.1c0.8,2.9,3.6,4.8,6.3,6.1c13.7,6.4,30.1,3.4,43.7-3.2
		c4-2,7.9-4.3,10.6-7.9s3.9-8.5,2-12.6c-1.5-3.1-4.5-5.1-7.5-6.8c-7.9-4.2-17.2-6.4-25.9-4.6s-16.8,8.2-19.2,16.9
		c-0.3,1-0.4,2-0.2,3c0.4,1.4,1.9,2.4,3.2,3c9.2,4.3,20,2.6,27.5-4.2c3.4-3.2,6-8.1,4.4-12.6c-1.5-4.1-6.1-6.3-10.5-6.3
		s-8.5,1.8-12.4,3.5c0.7-4.5,2.2-8.9,4.4-13"></path><path class="st2" d="M241.9,151.4c-5.1-0.5-10.2-0.3-15.2,0.7c-5.4,1-10.6,2.8-15.4,5.3c-3.6,1.9-7.2,4.5-9,8.3
		c-1.7,3.4-1.9,7.6,0.4,10.9c2,2.8,5.3,4.3,8.5,5.1c4.2,1,8.5,1.7,12.9,2c9.9,1,19.9,1.3,29.8,0.9c10.7-0.3,21.2-2.2,31.3-5.9
		c7.6-2.9,16-8.1,16.7-17c0.7-8.4-7.4-13-14.1-15.6c-7.5-2.9-15.5-4.3-23.6-4.4c-9.2,0-18.4,1.4-27.1,4.3c-4.3,1.4-8.4,3.1-12.4,5.2
		c-3.7,1.8-7.2,4.1-10.3,6.9c-2.6,2.5-5.1,6.3-3.5,10c1.5,3.5,5.6,5.3,9,6.6c8.5,3.1,17.8,3,26.5,1.4c9.7-1.7,19-5.2,27.5-10.2
		c3.5-2.2,6.8-5,8.5-8.8c1.6-3.6,1.9-7.9-0.4-11.3s-6.1-5.4-9.7-7c-13.3-6.2-28.8-5.2-41.1,2.7c-3.1,2-5.8,4.6-7.9,7.6
		c-1,1.6-1.8,3.2-2.4,5c-0.6,1.8-1.2,3.9,0.2,5.5c2.4,2.7,6.9,3.7,10.3,4.1c4.6,0.5,9.3,0.1,13.8-1.1c7.9-2,17.5-6.5,20-15
		c1.1-3.5-0.2-7.3-3.1-9.6c-3.1-2.4-7.3-2.9-11.1-2.5c-5.7,0.8-11.2,2.4-16.3,4.8l7.5-1.2c0.7-4.4,2.2-8.7,4.3-12.7
		c0.6-1.1-3.4-0.3-3.7-0.2c-1.3,0.3-2.5,0.6-3.7,1.1c-0.6,0.2-1.7,0.6-2.1,1.2c-2.2,4.2-3.7,8.7-4.5,13.3c-0.1,0.6,2.5,0.2,2.6,0.2
		c1.7-0.2,3.3-0.7,4.9-1.3l2.7-1.1l1.3-0.5c0.5-0.2,0,0-0.1,0c0.1,0,1.3-0.4,0.6-0.2s0.2,0,0.2-0.1s-0.8,0.1-0.2,0s0,0-0.1,0
		l0.4-0.1c0.7-0.1,1.4-0.1,2.1,0c3,0.2,5.7,1.7,7.6,4.1c4.2,6.1-1.5,13.4-6.7,16.6l-0.6,0.3l-0.7,0.3l-0.2,0.1l-0.2,0.1
		c-0.2,0.1-0.3,0.1-0.5,0.2c-0.5,0.2,0.2-0.1,0.3-0.1c-0.1,0.1-1.2,0.4-0.4,0.1c0.9-0.3-1.1,0.2-0.1,0s-1,0.2-0.2,0s-1.1,0.1-0.2,0
		c-0.4,0.1-0.9,0.1-1.3,0.1c-3.1,0.1-6.1-0.4-9-1.5c-1.4-0.6-3.2-1.2-4.1-2.5c-1.1-1.5-0.6-3.4-0.1-5c1.1-3,2.8-5.7,5-8
		c1.1-1.1,2.3-2.1,3.6-3c0.5-0.4,1.2-0.8,1.7-1c0.2-0.1,0.6-0.4,0.9-0.5l0.5-0.2c0.6-0.3-0.5,0.2,0.1,0c0.2-0.1,1.2-0.5,0.6-0.3
		s0.7-0.2,0.8-0.3c0,0-1,0.3-0.4,0.1s-0.4,0.1-0.4,0.1c0.2,0,1.6-0.3,0.8-0.2c0.7-0.1,1.3-0.2,2-0.2c0.9,0,1.8,0,2.6,0
		c3.8,0.2,7.5,0.9,11.1,2.2c3.5,1.2,6.9,2.9,9.9,5c2.9,2,4.7,5.3,4.8,8.8c-0.1,3.6-1.6,6.9-4.1,9.5c-2.4,2.4-5.3,4.3-8.4,5.7
		c-1.6,0.8-2.8,1.3-4.7,2.1c-0.2,0.1-1.2,0.4-0.5,0.2l-1.2,0.4l-1.4,0.5l0.2-0.1l-0.8,0.2c-0.4,0.1-0.8,0.2-1.2,0.3
		c-0.9,0.2-0.1,0,0,0l-0.6,0.1l-1.2,0.3l-0.6,0.1c0.6-0.1,0,0-0.3,0c-1.6,0.3-3.2,0.5-4.9,0.5c-3.5,0.2-7-0.1-10.5-0.9
		c-5.4-1.2-15.8-4.5-13.5-12c1-3.2,4-5.6,6.6-7.4c1.4-0.9,2.8-1.8,4.2-2.6c0.7-0.4,1.4-0.8,2.1-1.1c0.4-0.2,0.8-0.4,1.2-0.6l0.7-0.3
		c0.8-0.4,1.6-0.7,2.4-1l0.6-0.2l0.2-0.1c-0.5,0.2,0.1,0,0.2-0.1l0.9-0.3l1.1-0.4c0.2-0.1,0.4-0.1,0.6-0.2c0,0-0.9,0.3-0.3,0.1
		l1.3-0.4l0.6-0.1c0.1,0,1-0.2,0.3-0.1s0.5-0.1,0.7-0.1c0.4-0.1,0.9-0.2,1.4-0.3s1.2-0.2,0.4-0.1l1.6-0.3l1.2-0.2
		c0.1,0,1.1-0.1,0.6-0.1c0.9-0.1,1.8-0.2,2.8-0.3c6.8-0.5,13.6,0.1,20.2,1.8c3.4,0.9,6.7,2,9.9,3.4c3.1,1.2,5.9,3.1,8.1,5.6
		c4.7,5.7,2.6,13.5-2.5,18.1c-1.2,1.1-2.6,2-4,2.8l-1.1,0.6l-0.5,0.3c0.1,0,0.4-0.2,0,0s-0.9,0.4-1.3,0.5l-0.2,0.1l-0.4,0.1
		l-1.2,0.4c-0.8,0.2,0.7-0.2-0.1,0l-0.7,0.2l-1.4,0.4c0.1,0,0.7-0.2,0.1,0l-1.1,0.3l-1.4,0.3c0,0-0.8,0.1-0.3,0.1s-0.4,0.1-0.3,0
		c-1.1,0.2-2.2,0.4-3.3,0.5c-8.2,0.9-16.4,1.2-24.6,0.7c-4.3-0.2-8.7-0.5-13-0.9c-3.7-0.3-7.5-0.8-11.1-1.6c-2.9-0.7-6-1.8-8-3.9
		c-2.2-2.4-3.1-5.8-2.2-9c0.9-3.3,3.1-6.2,6-8.1c1.3-0.8,2.6-1.5,4-2.1c0.2-0.1,1.2-0.5,0.5-0.2c0.4-0.1,0.9-0.3,1.3-0.4
		c-0.9,0.3,0.3-0.1,0.6-0.2c0.6-0.1-0.1,0-0.2,0.1l0.9-0.2c0,0,0.8-0.1,0.3-0.1s0.3,0,0.3,0l1.3-0.2c0.6-0.1,1.8-0.1,2.6-0.2
		c1.8,0,3.6,0.1,5.4,0.3c2.1,0.3,4.8-0.6,6.7-1.5C241.2,152.9,243.9,151.6,241.9,151.4L241.9,151.4z"></path><path class="st2" d="M261.8,104.2c0,0-38.6-1.6-34.6,26.1s45.4,20.9,50.7,2.8S269,103.8,261.8,104.2z"></path><path class="st2" d="M262.3,102.7c-6.9-0.3-13.8,0.7-20.4,2.9c-5,1.7-9.8,4.3-13.2,8.4c-3.8,4.6-4.8,10.6-4,16.4
		c0.7,5.9,3.7,11.4,8.5,15c4.8,3.3,10.5,5.1,16.3,5.1c6,0.1,12-1.1,17.5-3.6c4.8-2.2,9.3-5.6,12-10.2c1.6-3,2.4-6.3,2.5-9.7
		c0.3-4-0.5-8-2.1-11.7c-2.5-5.6-7.6-10.6-13.6-12.2c-1.3-0.3-2.7-0.5-4-0.4c-0.9,0-2.4,0.6-2.4,1.7s1.8,1.4,2.6,1.3
		c0.3,0-0.5,0,0.1,0l0.8,0.1c0.3,0-0.4-0.1-0.1,0l0.4,0.1c0.3,0.1,0.5,0.1,0.8,0.2c0.1,0,0.8,0.3,0.4,0.1c0.3,0.1,0.6,0.2,0.9,0.4
		c0.6,0.3,1.1,0.6,1.7,0.9c2.4,1.5,4.4,3.5,5.9,5.8c4,6.1,4.8,13.7,2.3,20.6c-0.8,2-1.9,3.8-3.4,5.4c-0.7,0.8-1.5,1.5-2.4,2.1
		c-0.5,0.3-0.9,0.7-1.4,1l-0.7,0.5l-0.6,0.4c-1.1,0.6-2.2,1.2-3.4,1.7c-1.1,0.5-2.1,0.9-3.3,1.2c-1.3,0.4-2.5,0.6-3.8,0.9
		c-0.1,0-0.5,0.1,0,0l-0.5,0.1l-0.9,0.1c-0.7,0.1-1.4,0.1-2.1,0.2s-1.2,0.1-1.8,0.1h-0.5h-1.1c-0.6,0-1.2-0.1-1.8-0.2l-0.9-0.1
		l-0.4-0.1c0.4,0.1-0.2,0-0.3-0.1c-2.4-0.4-4.6-1.2-6.7-2.4c-4.4-2.5-7.6-6.8-8.8-11.7c-1.3-5.2-1.3-11.2,1.5-15.8
		c2.4-4,6.1-6.4,10.2-8.2c0.5-0.2,1-0.4,1.5-0.6l0.4-0.1c-0.1,0-0.4,0.2,0,0l1-0.3c1.1-0.3,2.2-0.6,3.3-0.9s2.1-0.4,3.2-0.6
		c-0.6,0.1,0,0,0.2,0l0.7-0.1c0.5-0.1,1-0.1,1.5-0.2c1.6-0.2,3.3-0.3,4.9-0.4c0.6,0,1.2,0,1.8,0c0.1,0,0.2,0,0.3,0
		c0.3,0-0.8,0-0.3,0h0.9c1,0,2.6-0.2,3-1.3S263.2,102.7,262.3,102.7z"></path><path class="st1" d="M262.6,88c-7.6,7.3-11.3,17.9-9.9,28.3c0,1.3,1,2.4,2.3,2.7c1.2,0.1,2.2-0.8,2.2-2c0-0.1,0-0.2,0-0.3
		c-1.3-9.3,2-18.6,8.8-25C268,89.7,264.8,86,262.6,88L262.6,88z"></path><path class="st0" d="M233,121c-0.9,6.5,2.6,12.8,8.6,15.5c1.1,0.3,2.3,0.2,3.4-0.2c0.5-0.2,1.7-0.8,0.7-1.3
		c-5.5-2.7-8.6-8.7-7.7-14.8C238.1,119.4,233.3,119.5,233,121L233,121z"></path><path class="st0" d="M253,139.7c1.1,0,0.5-1.1,0.1-1.6c-0.6-0.7-1.9-1.8-2.9-1.8s-0.5,1.1-0.1,1.6
		C250.7,138.6,251.9,139.7,253,139.7z"></path><path class="st2" d="M191.9,257.1v-0.7c0.1-0.1,0-0.3-0.1-0.3c0,0,0,0,0,0c-0.1-0.1-0.3-0.2-0.5-0.1c-0.3,0-0.5,0.1-0.8,0.1
		c-0.3,0.1-0.7,0.2-1,0.3c-0.7,0.3-1.4,0.7-2,1.1l-0.5,0.4c-0.2,0.2-0.4,0.4-0.5,0.7v0.7c-0.1,0.1,0,0.3,0.1,0.3c0,0,0,0,0,0
		c0.1,0.1,0.3,0.2,0.5,0.1c0.3,0,0.5-0.1,0.8-0.1c0.3-0.1,0.7-0.2,1-0.3c0.7-0.3,1.4-0.7,2-1.1l0.5-0.4
		C191.7,257.6,191.8,257.4,191.9,257.1z"></path><path class="st2" d="M234.5,266.3v3.7c0.7-0.3,1-1,0.7-1.7c-0.1-0.2-0.2-0.3-0.3-0.5c-0.7-0.2-1.4,0.1-1.8,0.6
		c-0.4,1.1,1.6,1.8,2,0.7"></path><path class="st2" d="M231.6,266.9v3.7c0,0.6,0.9,0.9,1.4,1c0.9,0.2,1.8,0.1,2.6-0.2c1.6-0.6,3.5-2.2,2.4-4c-0.6-1-2-1.1-3-1.1
		c-1.4,0-2.8,0.5-3.9,1.4c-0.7,0.4-1,1.3-0.8,2.1c0.3,0.7,1,1.3,1.8,1.5c2,0.7,5.2,0,6.1-2c0.2-0.4-0.2-0.9-0.5-1.1
		c-0.6-0.3-1.2-0.4-1.9-0.4c-1.2,0.1-2.9,0.5-3.4,1.8c0.5-1,1.6-1.5,2.6-1.2c1,0.2,1.3,0.2,0.9,0.1l0.3,0.1
		c-0.2-0.1-0.1-0.1,0.1,0.1c-0.1-0.3-0.1,0.3,0,0c-0.1,1.1-2.5,1.1-3,1l-0.9-0.5c0.1,0.1,0.2,0.4,0.1,0.1c0,0,0.1,0.4,0.1,0.2
		s-0.1,0.2-0.1,0.2l0.1-0.1c-0.4,0.5,0,0.3,1-0.6l4,0.8v-3.7c0-0.5-0.7-0.8-1.1-0.9c-0.7-0.2-1.5-0.2-2.2,0
		c-1.1,0.2-2.6,0.8-2.7,2.1L231.6,266.9z"></path><path class="st2" d="M212.6,229.2c-1,0.1-1.1,1.7-0.3,2.2c0.9,0.5,2,0.1,2.5-0.8c0.4-0.9,0.6-1.8,0.4-2.8c-0.2-1.3-1.7-2.9-2.5-1.9
		"></path><path class="st2" d="M210.2,227.6c-0.7,0.2-1.1,0.8-1.1,1.5c0.1,1,0.6,1.8,1.4,2.3c1.7,1.4,5.3,3,6.9,0.6c1.1-1.6,0.4-4-0.8-5.4
		s-4.9-3.9-6.6-2.1c-0.7,0.8,4,4.1,5.3,2.9c0.6-0.4,0.1-0.6-1.4-0.7c-0.6,0-1.2-0.3-1.6-0.8c-0.2-0.2-0.2-0.2,0,0.1l0.1,0.1
		c0.2,0.5,0.2,1.1,0.2,1.6c-0.1,1-0.6,2.2-1.8,2.1l1.1,0.2c1.9,2.2,2.8,2.7,2.6,1.5c0-0.1,0-0.2,0-0.4c0.1-0.2,0.3-0.4,0.5-0.4
		c1.1-0.3-1-2-1.2-2.1C212.7,228.1,211.4,227.3,210.2,227.6L210.2,227.6z"></path><path class="st2" d="M310.3,279.5c0.5,1,1.4,1.8,2.5,2c0.6-0.8,0.4-1.9-0.4-2.5c-0.8-0.6-1.9-0.4-2.5,0.4c-0.2,0.2-0.3,0.5-0.3,0.7
		c0.8,0.2,1.6,0.2,2.3-0.1c0.7-0.3,1-1.1,0.6-1.8c0-0.1-0.1-0.1-0.1-0.2c-0.5-0.6-1.8,0.1-1.4,0.8"></path><path class="st2" d="M307.8,279.9c1.1,1.9,2.9,3.2,4.9,3.7c1,0.4,2.1,0,2.8-0.9c1.4-2.2-0.7-4.8-2.6-5.7s-5.4-0.7-6.1,1.8
		c-0.4,1.6,1.3,3,2.7,3.3c1.6,0.3,3.5,0.5,4.9-0.6c1-0.8,1.3-2.2,0.8-3.4c-1-1.8-3-2.8-5-2.4c-1.4,0.3-2.6,1.5-2,3
		c0.6,1.4,2,2.2,3.5,2.3c1.1,0,2.6-0.7,2.1-2c0.2,0.4-0.1,0.6-0.3,0.9s-0.2,0.1,0,0c-0.4,0.1-0.9,0.2-1.3,0.1l-1.5-0.6
		c-0.5-0.3-0.8-0.8-0.9-1.4c0,0.2,0,0.2,0.1,0c0,0.1-0.1,0.2-0.1,0.3c0.1-0.2,0.1-0.2,0,0c0.3-0.1,0.2-0.1,0,0
		c0.1-0.1,0.2-0.1,0.4-0.1c-0.2,0-0.3,0-0.5,0c0.3,0,0.4,0,0,0l2.7,3.3c0-0.2,0.1-0.3,0.2-0.5c-0.2,0.4,0.1,0,0.2-0.1
		c-0.2,0.1-0.2,0.2,0,0l-0.2,0.1c0.5-0.1,0.2-0.1-0.7-0.1c-0.3-0.1-0.6-0.2-0.9-0.4c-0.3-0.1-0.5-0.3-0.6-0.6c0.1,0.2,0.1,0.2,0,0
		c-0.2-0.4,0,0.4,0,0.1s-0.1,0.5,0,0.1s-0.2,0.3-0.2,0.3l2.8-0.9c0.4,0.1,0.5,0.2,0.3,0.1s-0.1,0,0.2,0.2c0-0.1-0.7-0.6-0.1,0
		c-0.4-0.3,0.2,0.4-0.1-0.1c-0.1-0.2-0.2-0.4-0.3-0.5c-0.4-0.6-1-1.1-1.7-1.4c-0.7-0.3-1.4-0.4-2.2-0.3c-0.6,0.1-1.1,0.4-1.4,0.9
		c-0.2,0.6-0.1,1.2,0.2,1.6L307.8,279.9z"></path><path class="st2" d="M327.9,230.6c-0.3,0.7,0,1.5,0.7,1.8c0.1,0.1,0.3,0.1,0.5,0.1c0.9-0.4,1.4-1.4,1-2.3c-0.4-0.9-1.4-1.4-2.3-1
		c-0.9,0.4-1.4,1.4-1,2.3c0,0,0,0,0,0"></path><path class="st2" d="M325.7,228.8c-0.6,1.5-0.5,3.1,0.4,4.4c0.7,1.2,2.2,2.4,3.8,2.1c2.3-0.5,3.2-3.2,2.7-5.3s-2.7-4.4-5.1-3.8
		c-2.3,0.6-3.7,3-3.1,5.3c0,0.1,0,0.1,0.1,0.2c0.4,1.3,1.6,2.9,3.2,2.5c1.3-0.3,2.1-1.7,1.8-3c0-0.1,0-0.1-0.1-0.2
		c-0.1-0.4,0,0.4,0,0.5s0,0.3,0,0.1l-0.1,0.4l0.1-0.1c0.1-0.2,0.1-0.2,0,0s-0.1,0.2,0,0.1c0.1-0.1,0.1-0.1,0.2-0.2
		c0,0.1-0.5,0.3-0.1,0.1s-0.4,0.1-0.1,0s-0.5-0.1-0.1,0l-0.4-0.1c-0.4-0.3-0.5-0.3-0.3-0.2s0.1,0.1-0.1-0.1
		c-0.2-0.2-0.4-0.4-0.5-0.6c0.2,0.4-0.1-0.4-0.1-0.4s0.1,0.7,0,0c0-0.3,0-0.3,0-0.1v-0.4c0,0.1-0.2,0.5,0,0.1s-0.1,0-0.1,0
		s0.4-0.4,0.1-0.2c0.5-0.4,0.3-0.2,0.1-0.1l1.3-0.2c-0.3,0-0.2,0,0.2,0.1c0.3,0.1,0.5,0.3,0.6,0.5c0.5,0.6,0.6,1.4,0.3,2.2
		c0.6-1.4,0.2-3.1-1.1-4.1C328.2,227.4,326.3,227.2,325.7,228.8L325.7,228.8z"></path><path class="st2" d="M137.4,274.8c-0.6,5.4-1,10.9,2.1,15.6c3.7,5.8,11.5,7.1,17.8,7.8c6.1,0.7,17.5,2,22.7-2.8c3-2.8,3.6-7,0.6-10
		s-30.3-4.9-29.5-0.9c3.3,15.4,21.6,20,35,21.9c4.9,0.7,9.8,1,14.8,0.9c4.6-0.1,12.1,0,15.1-4.2c4.8-6.6-4.9-12-9.8-13.9
		c-5.2-2-11.3-2.5-16.8-2.5c-2.3,0-10.4-0.4-11.2,2.6c-3.9,14.8,22.9,16,31.1,16.1c3.6,0,7.3-0.2,10.9-0.6c2.1-0.2,1.9-0.1,0.1-0.4
		c5.3,0.7,10.5,3.4,14.9,6.2l18.7-3l-29.6-2.9c-3.8-0.5-7.7-0.6-11.6-0.4c-0.9,0.1-6.2,0.3-7,1.6c-2.2,3.4,8.8,4.5,10.2,4.7
		l46.1,6.1c8.6,1.1,17.2,2.5,25.9,1.9c7.1-0.5,11.8-2.3,14.8-8.8c2.2-4.8,3.8-7.3,9.1-8.5c7.6-1.6,15.3-2.7,22.9-4
		c10.3-1.8,26.7-2.1,33.9-10.8c4.3-5.1,3.1-10.2-3.3-12.2c-5-1.4-10.2-2.1-15.5-2c-4.4,0-9.8-0.1-13.6,2.4c-4.7,3-4,7.9-5.2,12.8
		c-1.6,6.8-10,7.2-15.7,8.6c-12.7,2.9-25.6,4.8-38.7,5.6c-11.6,0.7-23.2,0.5-34.8-0.8c-14.4-1.6-28.5-4.5-42.3-8.8
		c-14.4-4.4-30.1-9.6-42.1-19.1l-4,3l6.9-1.3c0.6-0.1,4.4-0.6,4.5-2.1s-3.6-2.4-4.2-2.6c-6.9-2-14.1-2.4-21.2-1.2l-6.9,1.3
		c-0.5,0.1-6.4,1.1-4,3c12.9,10.2,29.1,15.8,44.5,20.9c16.6,5.3,33.6,9.2,50.8,11.6c35.3,5.2,72,4.7,107-2.4c4.6-0.9,9.2-2,13.7-3.1
		c4-1,8.8-1.8,12.2-4.2c3.1-2.1,4.2-5.3,4.6-8.8c0.4-3.1,0.4-8,4.1-8.9l-9,1h1l-14.6-1.7l0.9,0.3l-3.8-1.7c4.4,3.5-2.1,9.4-5.3,10.9
		c-4.7,2.2-10.3,2.6-15.3,3.5l-21,3.7c-6,1.1-12.8,1.5-18.3,4.4c-4.6,2.4-5.7,6.5-8,10.7c-0.5,0.9-1.4,1.7-1.8,2.5
		c-1.4,2.9,14.5,1.2,7.6,0.1c-3.8-0.6-7.7-1-11.5-1.5l-42.3-5.6l-8.3,6l29.6,2.9c4.8,0.5,9.8,0.8,14.6,0c0.2,0,6.6-1.3,4-3
		c-10.9-7.1-23.2-10.8-36.1-12.1c-7.8-0.8-15.7-0.9-23.5-0.2c-0.6,0.1-1.2,0.1-1.8,0.2c-4.3,0.3-1.2,0.8,9.2,1.4
		c-0.6-0.7-1.6-1.2-2.3-1.9c-1.7-1.8-2.3-4.4-1.5-6.8h-28c3.2,1.3,7.3,3,7.1,7.1c0,0.4-0.8,2.3-0.7,2.4s8.2,0.2,9.2,0
		c1.2-0.2,0.7,0.3-0.4-0.1c1,0.4-0.5-0.1-1-0.4c-6.5-2.3-11.8-6.9-13.3-13.9l-29.5-0.8c1.1,1.1,1.5,2.7,0.9,4.1
		c-0.9,3.4-4.4,2.8,1.5,2.3l11.6,0.3c8,1,5.2,1.6,3.3-1.3c-0.9-1.4-1.5-3.1-1.7-4.7c-0.4-3.2-0.3-6.5,0.2-9.7
		C167.8,272.1,138,269.6,137.4,274.8L137.4,274.8z"></path><path class="st2" d="M280.2,216.7c7,13.7,8.3,29.1,8.5,44.3c0.1,7.2,0,14.4,0,21.6c0.1,5.4,0.3,11.3,3.7,15.7
		c2.1,2.7,6.9,6,10.2,3.5c4.1-3-1.9-10.7-3.1-13.8c-5.5-13.7-7.2-28.7-5.1-43.3c1.2-7.6,3.4-15,6.5-22.1c3.3-7.4,6.9-14.6,6-22.9
		c-0.2-2.5-5.6-4.9-5.3-1.7c0.9,8.5-3.4,15.8-6.6,23.4c-3,7.1-5,14.5-6,22.2c-2,14.9-0.1,30,5.4,44c0.6,1.5,1.2,3,1.9,4.4
		c0.5,1,0.9,2,1.4,3c1.3,1.5,1.1,1.9-0.6,1.2c-3.6-0.7-3.1-7.9-3.2-10.9c-0.1-8.1,0.1-16.2-0.1-24.2c-0.3-15.5-2.1-31-9.2-45
		C283.5,213.4,278.5,213.2,280.2,216.7L280.2,216.7z"></path><path class="st2" d="M193,129.8c-5.1-3.2-8.9-7.9-10.9-13.5c-1.1-2.9-6.2-2.7-4.8,1c2.7,7,7.7,13,14.2,16.9
		C194.8,136.1,195.9,131.6,193,129.8L193,129.8z"></path><path class="st2" d="M225.7,95.5V83.6c0-0.8-1.8-1.6-2.4-1.9c-0.2-0.1-2.9-1.3-2.9-1v11.9c0,0.8,1.8,1.6,2.4,1.9
		C223,94.6,225.7,95.8,225.7,95.5L225.7,95.5z"></path><path class="st2" d="M288.2,89c-0.5-2.8,0.7-5.7,3.1-7.3c0.8-0.6,1-1.7,0.4-2.5c-0.1-0.2-0.3-0.4-0.6-0.5c-1.3-0.8-3-0.7-4.2,0.2
		c-3.5,2.3-5.3,6.3-4.8,10.4C282.7,92.1,288.6,91.8,288.2,89L288.2,89z"></path><path class="st2" d="M310.6,139.5h26.6c2,0-1.9-4-3.4-4h-26.6C305.2,135.5,309.1,139.5,310.6,139.5L310.6,139.5z"></path></g></svg>