<svg transform="scale(1)" version="1.1" id="Layer_1" xmlns="http://www.w3.org/2000/svg" xmlns:xlink="http://www.w3.org/1999/xlink" x="0px" y="0px" viewBox="0 0 500 500" xml:space="preserve" class="show_show__wrapper__graphic__5Waiy "><title>React</title><style type="text/css">
	.st0{fill:#CB997E;}
	.st1{fill:#FFFFFF;}
	.st2{fill:#000005;}
</style><g id="napkin"><g id="napkin-2"><path class="st0" d="M165,52.8L80,354.5c0,0,266.6,99.5,287.5,92.3S420,94.7,420,94.7L165,52.8z"></path><path class="st0" d="M162.5,52.6l-2.3,8l-6.2,21.9l-9.2,32.6l-11.1,39.4L121.5,198l-12.3,43.8l-11.5,40.9L88,317.1l-7,24.8
			c-1.1,3.9-2.4,7.8-3.3,11.8c0,0.2-0.1,0.3-0.1,0.5c-0.1,1,0.5,2,1.4,2.3l8.8,3.3c7.9,2.9,15.8,5.8,23.7,8.7
			c11.5,4.2,23.1,8.4,34.6,12.6c13.9,5,27.8,9.9,41.6,14.8c15,5.3,30,10.5,45,15.6c14.6,5,29.3,9.9,44,14.7
			c13,4.2,26.1,8.4,39.2,12.2c10.3,3,20.6,5.9,31,8.3c6,1.4,12.5,3,18.8,2.6c4.4-0.3,6.5-3.5,8.2-7.3c2.9-6.3,4.6-13.1,6.2-19.8
			c2.5-10.1,4.5-20.3,6.3-30.6c2.3-12.9,4.4-25.7,6.3-38.6c2.2-14.6,4.2-29.3,6.1-43.9c2-15.5,3.9-31,5.8-46.5
			c1.8-15.3,3.6-30.5,5.3-45.8c1.6-14.1,3.1-28.2,4.6-42.3c1.3-12,2.5-24.1,3.7-36.2c0.9-8.9,1.8-17.8,2.6-26.8
			c0.5-4.9,0.9-9.8,1.4-14.7c0-0.6,0.1-1.3,0.2-1.9c0.1-1.2-0.8-2.3-2-2.5c0,0,0,0-0.1,0l-25.5-4.2l-60.9-10l-73.6-12.1l-63.6-10.4
			c-10.3-1.7-20.6-3.8-31-5.1l-0.4-0.1c-1.2-0.2-2.4,0.6-2.6,1.8c-0.2,1.2,0.6,2.4,1.8,2.6l25.5,4.2l60.9,10l73.6,12.1l63.6,10.4
			l21,3.4c3.3,0.5,6.7,1.4,10,1.6c0.2,0,0.3,0,0.5,0.1l-2.1-2.5c-0.2,2.6-0.5,5.1-0.7,7.7c-0.7,7-1.3,14.1-2,21.1
			c-1,10.6-2.1,21.1-3.2,31.6c-1.3,13.1-2.7,26.2-4.1,39.4c-1.6,14.8-3.2,29.5-4.9,44.2c-1.8,15.4-3.6,30.8-5.5,46.2
			c-1.9,15.1-3.9,30.2-6,45.4c-1.9,13.9-4,27.8-6.2,41.6c-1.9,11.7-3.9,23.4-6.3,35c-1.8,8.6-3.6,17.2-6.2,25.6
			c-0.2,0.8-0.5,1.6-0.8,2.4c-0.2,0.6,0-0.1-0.2,0.7c-0.1,0.4-0.2,0.7-0.4,1.1c-0.5,1.3-0.9,2.5-1.5,3.7c-0.4,1-0.9,2-1.5,2.9
			l-0.3,0.6c-0.3,0.4,0.4-0.4-0.1,0.1c-0.2,0.3-0.5,0.6-0.7,0.9c-0.5,0.6,0.4-0.1-0.3,0.3s0.6-0.2-0.2,0.1c-0.5,0.2,0,0,0.1,0
			c-0.2,0-0.4,0.1-0.5,0.1c-0.4,0-0.8,0.1-1.3,0.1c-0.8,0.1,0.4,0-0.1,0c-0.3,0-0.6,0-0.9,0c-0.6,0-1.2-0.1-1.8-0.1
			c-1.4-0.1-2.8-0.3-4.2-0.5c-8.4-1.4-16.8-3.4-25-5.8c-12-3.3-23.9-6.9-35.7-10.6c-14.1-4.4-28.1-9-42.1-13.7
			c-14.9-5-29.8-10.1-44.7-15.3c-14.5-5-29-10.1-43.4-15.3c-12.7-4.5-25.5-9.1-38.2-13.8c-9.7-3.6-19.4-7.2-29.2-10.7
			c-5.4-2-10.9-4-16.3-6l-2.1-0.8l1.4,2.3l2.3-8l6.2-21.9l9.2-32.6l11.1-39.4l12.3-43.6l12.3-43.8l11.5-40.8l9.7-34.5l7-24.8
			c1.1-3.9,2.4-7.8,3.3-11.8c0-0.2,0.1-0.3,0.1-0.5C168.2,50.3,163.3,49.9,162.5,52.6z"></path></g><path class="st1" d="M349.6,445.8c0.4-2.8,0.9-5.6,1.3-8.4c1.2-7.7,2.4-15.4,3.6-23.1c1.8-11.4,3.6-22.8,5.4-34.3
		c2.2-14.1,4.4-28.2,6.5-42.3c2.4-15.8,4.8-31.5,7.2-47.3c2.4-16.3,4.9-32.5,7.2-48.8c2.3-15.6,4.5-31.2,6.7-46.9
		c2-14,3.9-28,5.7-42c1.5-11.2,2.9-22.4,4.1-33.6c0.8-7.4,1.6-14.7,1.9-22.1c0-1.1,0.1-2.2,0.1-3.3c0-0.7-5-0.8-5,0
		c0,6.3-0.7,12.6-1.3,18.8c-1,10.4-2.3,20.8-3.6,31.2c-1.7,13.4-3.5,26.8-5.4,40.2c-2.1,15.3-4.3,30.7-6.5,46
		c-2.4,16.2-4.7,32.5-7.2,48.7c-2.4,16-4.8,32-7.2,48c-2.2,14.6-4.5,29.2-6.7,43.8c-1.9,12.2-3.8,24.4-5.7,36.7
		c-1.3,8.7-2.7,17.3-4.1,26c-0.4,2.7-0.9,5.4-1.3,8.1c-0.3,1.4-0.5,2.8-0.7,4.2c0,0.2,0,0.3-0.1,0.5c-0.1,0.5,4.9,1,5,0L349.6,445.8
		z"></path><path class="st1" d="M364.5,82.6l-1.5,8.5c-1.4,7.7-2.8,15.5-4.1,23.2c-2.1,11.5-4.1,23-6.2,34.6c-2.6,14.2-5.2,28.5-7.8,42.7
		c-2.9,15.7-5.9,31.4-8.8,47.1c-3.1,16.1-6.2,32.2-9.3,48.3c-3,15.5-6.1,30.9-9.3,46.3c-2.8,13.5-5.7,27.1-8.7,40.6
		c-2.4,10.6-4.8,21.1-7.6,31.6c-1.7,6.5-3.4,13.1-6,19.4c-0.3,0.8-0.7,1.6-1.1,2.4c-0.9,1.6,3.6,3.8,4.5,2.1
		c2.6-4.9,4-10.6,5.5-15.9c2.7-9.6,5-19.4,7.3-29.1c3-12.9,5.8-25.9,8.5-38.9c3.2-15,6.2-30.1,9.2-45.1c3.2-16.1,6.3-32.2,9.4-48.3
		c3-15.9,6-31.8,9-47.7c2.7-14.7,5.5-29.4,8.1-44.1c2.3-12.3,4.5-24.7,6.7-37c1.6-8.8,3.1-17.6,4.7-26.4c0.7-4.1,1.7-8.2,2.2-12.4
		c0-0.2,0.1-0.4,0.1-0.5C369.4,82.3,364.8,80.5,364.5,82.6L364.5,82.6z"></path><path class="st1" d="M251.5,415.1c1-4.1,2-8.2,3-12.2c2-8.2,4-16.4,6-24.6c2.8-11.3,5.5-22.7,8.3-34.1c3.3-13.6,6.6-27.1,9.8-40.7
		c3.6-14.8,7.1-29.6,10.6-44.4c3.6-15,7.2-30.1,10.7-45.2c3.4-14.4,6.7-28.7,10-43.1c2.9-12.7,5.8-25.4,8.6-38.1
		c2.2-10.1,4.4-20.1,6.5-30.2c1.3-6.5,2.6-12.9,3.6-19.5c0.1-1,0.3-2,0.4-3c0.1-1.4-3.2-4.8-3.5-2.8c0,0.4-0.1,0.9-0.1,1.3
		c-0.1,0.8-0.1,0.6-0.2,1.3c-0.2,1.3-0.4,2.5-0.6,3.8c-0.6,3.3-1.2,6.6-1.8,9.9c-1.8,9.3-3.8,18.6-5.9,27.9
		c-2.7,12.2-5.4,24.4-8.2,36.5c-3.2,14-6.5,28-9.7,42c-3.5,15-7.1,30-10.6,44.9c-3.6,15-7.1,29.9-10.7,44.8
		c-3.3,13.9-6.7,27.8-10.1,41.6c-2.9,11.9-5.8,23.9-8.7,35.8c-2.2,9.1-4.4,18.1-6.6,27.2c-1.3,5.2-2.5,10.3-3.8,15.5
		c-0.1,0.5-0.3,1.1-0.4,1.7c-0.2,1,0.6,2.2,1.3,2.9C249.7,414.8,251.2,416.2,251.5,415.1L251.5,415.1z"></path><path class="st1" d="M300.7,71l-2.4,8.7l-6.7,23.8l-9.9,35.1l-12,42.9l-13.2,47.1L243.3,276l-12.4,44.2l-10.5,37.3l-7.5,26.8
		c-1.2,4.2-2.6,8.4-3.6,12.7c0,0.2-0.1,0.4-0.2,0.5c-0.2,0.8,4.6,2.2,4.8,1.4l2.4-8.7l6.7-23.8l9.9-35.1l12-42.9l13.2-47.1
		l13.2-47.4l12.4-44.2l10.5-37.3l7.5-26.8c1.2-4.2,2.6-8.4,3.6-12.7c0-0.2,0.1-0.4,0.2-0.5C305.7,71.7,300.9,70.3,300.7,71z"></path><path class="st1" d="M176.8,385.4l2.6-8.5l7.1-23.2l10.5-34.5l12.8-42l14-45.9l14.1-46.4l13.2-43.2l11.1-36.6l8-26.2
		c1.2-4.1,2.7-8.2,3.8-12.4c0-0.2,0.1-0.3,0.2-0.5c0.6-2-3.8-4.3-4.5-2l-2.6,8.5l-7.1,23.2L249.4,130l-12.8,42l-14,46l-14.1,46.4
		l-13.2,43.2l-11.1,36.7l-8,26.2c-1.3,4.1-2.7,8.2-3.8,12.4c-0.1,0.2-0.1,0.4-0.2,0.5C171.7,385.5,176,387.8,176.8,385.4
		L176.8,385.4z"></path><path class="st1" d="M128.4,368.3l2.8-8.2l7.7-22.5l11.4-33.2L164,264l15.1-44.2l15.4-44.8l14.3-41.7L220.8,98l8.6-25.3
		c1.4-4,2.9-8,4.1-12c0.1-0.2,0.1-0.3,0.2-0.5c0.4-1.2-1.2-1.9-2.1-2c-1.2-0.1-2.4,0.6-2.8,1.8l-2.8,8.3l-7.7,22.5L207,124
		l-13.8,40.4L178,208.6l-15.3,44.8l-14.3,41.8l-12.1,35.3l-8.7,25.3c-1.4,4-2.9,8-4.1,12c-0.1,0.2-0.1,0.4-0.2,0.5
		c-0.4,1.2,1.2,1.9,2.1,1.9C126.8,370.2,127.9,369.4,128.4,368.3L128.4,368.3z"></path><path class="st1" d="M188.6,58.2l-2.5,7.9l-6.7,21.6l-9.8,31.9l-12,38.8l-13.2,42.7l-13.3,43.1l-12.4,40l-10.4,33.9l-7.5,24.4
		c-1.2,3.9-2.5,7.7-3.6,11.5l-0.2,0.5c-0.8,2.6,3.4,4.6,4.3,1.6l2.5-8l6.7-21.6l9.8-31.9l12-38.9l13.2-42.7l13.3-43.1l12.4-40.1
		l10.4-33.8l7.5-24.4c1.2-3.8,2.5-7.7,3.6-11.5l0.1-0.5C193.7,57.1,189.5,55.1,188.6,58.2L188.6,58.2z"></path><path class="st1" d="M87.2,335.3l7.8,2.5l21.1,6.6l31.4,9.9l38.2,12l41.8,13.1l42.2,13.3l39.3,12.4l33.2,10.5l23.9,7.5
		c3.8,1.2,7.5,2.5,11.3,3.6l0.5,0.1c1,0.3,2.6,0,2.9-1.2s-0.9-2.2-1.9-2.5l-7.8-2.5L350,414l-31.4-9.9l-38.2-12L238.7,379
		l-42.2-13.3l-39.3-12.4l-33.2-10.5l-23.9-7.5c-3.8-1.2-7.5-2.5-11.3-3.6l-0.5-0.1c-1.1-0.3-2.6,0-2.9,1.2S86.1,335,87.2,335.3
		L87.2,335.3z"></path><path class="st1" d="M150.2,86.7l6.9,1.3l18.8,3.4l27.8,5.1l33.9,6.2l37.2,6.8l37.5,6.9l35,6.4l29.5,5.4l21.2,3.9
		c3.3,0.6,6.7,1.3,10,1.8l0.4,0.1c1,0.2,2.6,0.1,3.4-0.7s-0.2-1.4-1-1.5l-6.9-1.3l-18.8-3.5l-27.8-5.1l-33.9-6.2l-37.1-6.8
		l-37.5-6.9l-35-6.4l-29.5-5.4L163,86.4c-3.4-0.6-6.7-1.3-10-1.8l-0.4-0.1c-1-0.2-2.6-0.1-3.4,0.7S149.4,86.6,150.2,86.7L150.2,86.7
		z"></path><path class="st1" d="M137.5,138.4l7.2,1.8l19.6,4.9l29.1,7.2l35.4,8.8l38.8,9.7l39.2,9.8l36.4,9.1l30.9,7.7l22.2,5.5
		c3.5,0.9,7,1.8,10.5,2.6l0.5,0.1c1.3,0.3,2.5-0.3,3.3-1.3c0.5-0.6,0.4-1.5-0.3-2c-0.2-0.1-0.4-0.2-0.6-0.3l-7.2-1.8l-19.6-4.9
		l-29-7.2l-35.5-8.8l-38.8-9.7l-39.2-9.8l-36.4-9.1L173,143l-22.2-5.5c-3.5-0.9-7-1.8-10.5-2.6l-0.4-0.1c-1.3-0.2-2.5,0.3-3.3,1.3
		c-0.5,0.6-0.4,1.5,0.3,2C137,138.2,137.3,138.3,137.5,138.4L137.5,138.4z"></path><path class="st1" d="M122.6,194.9l7.4,2l20,5.3l29.8,7.9l36.1,9.6l39.8,10.5l39.9,10.6l37.4,9.9l31.4,8.3l22.7,6
		c3.6,1,7.1,1.9,10.7,2.8l0.5,0.1c1.1,0.2,2.3,0.2,3.4,0c0.3,0,1.9-0.5,0.9-0.7l-7.4-2l-20-5.3l-29.8-7.9l-36.1-9.5l-39.8-10.5
		l-39.9-10.6l-37.4-9.9l-31.4-8.3l-22.7-6c-3.6-0.9-7.1-1.9-10.7-2.8l-0.5-0.1c-1.1-0.2-2.3-0.2-3.4,0
		C123.2,194.1,121.6,194.6,122.6,194.9L122.6,194.9z"></path><path class="st1" d="M101.8,258.3l7.8,2.6l21,7.1l31.3,10.5l37.9,12.7l41.8,14l41.9,14.1l39.3,13.2l33.1,11.1l23.8,8l11.3,3.8
		l0.5,0.2c1.1,0.2,2.2-0.1,3.1-0.7c0.2-0.2,2-1.6,1-1.9l-7.8-2.6l-21-7.1l-31.3-10.5L297.5,320l-41.8-14l-41.9-14l-39.3-13.2
		l-33.1-11.1l-23.8-8c-3.8-1.3-7.5-2.5-11.3-3.8l-0.5-0.2c-1.1-0.2-2.2,0.1-3.1,0.7C102.6,256.6,100.9,258,101.8,258.3L101.8,258.3z
		"></path></g><g id="lunch-box"><g id="lunch-box-2"><path class="st1" d="M60,113c0,0,377.9,0.8,384.3,8.9s12.9,238.4,0,255.4s-368.2,8.1-384.3,0S44.7,113,60,113z"></path><path class="st2" d="M60.8,113.9h6.6l18.5,0.1l28,0.1c11.8,0.1,23.7,0.1,35.5,0.2c13.6,0.1,26.6,0.2,40.2,0.3
			c14.7,0.1,29.3,0.3,43.9,0.4c14.9,0.2,29.9,0.4,44.8,0.6c14.5,0.2,29,0.5,43.6,0.8c13.3,0.3,26.6,0.6,39.9,0.9
			c11.5,0.3,23,0.7,34.5,1.1c8.9,0.3,17.7,0.8,26.6,1.3c1.7,0.1,3.5,0.2,5.2,0.4l2.4,0.2h0.5l1.1,0.1c2.3,0.2,4.6,0.5,6.9,0.8
			l0.6,0.1c0.7,0.1-0.7-0.2,0,0l1.1,0.2l0.4,0.1c0.6,0.1-0.5-0.2-0.1,0l0.6,0.2c-0.8-0.3,0-0.1,0,0c0-0.1-0.2-0.3,0,0.1
			c0.2,0.5,0.4,1.1,0.5,1.6c1.6,6.1,1.9,12.7,2.4,19c0.9,11.3,1.5,22.5,2.1,33.8c0.7,14.3,1.2,28.7,1.5,43
			c0.4,15.5,0.6,30.9,0.7,46.4c0.1,14.9,0,29.8-0.4,44.7c-0.3,12.4-0.7,24.8-1.7,37.2c-0.6,8-1.2,16.2-3.2,24
			c-0.5,1.8-1,3.9-2.1,5.2c-1,0.8-2.1,1.4-3.3,1.7c0.3-0.1-0.4,0.1-0.5,0.1l-0.8,0.2c-0.5,0.2-1.1,0.3-1.7,0.4s-1.2,0.3-1.9,0.4
			l-1,0.2l-0.9,0.2l-0.8,0.1l-1.2,0.2l-2.4,0.4c-1.8,0.3-3.6,0.5-5.4,0.7c-9.4,1.1-17.6,1.6-27.2,2.2c-12,0.7-24,1.1-35.9,1.4
			c-13.9,0.3-27.8,0.5-41.8,0.6c-15,0.1-30,0.1-45,0c-15.3-0.1-30.6-0.3-45.8-0.6c-15-0.3-29.9-0.6-44.9-1.1
			c-13.7-0.4-27.3-0.9-41-1.4c-11.7-0.5-23.4-1-35.1-1.7c-4.8-0.3-9.7-0.6-14.5-0.9l-6.4-0.5l-2.9-0.2l-1.4-0.1c-0.1,0,0.6,0-0.1,0
			l-0.7-0.1c-3.1-0.3-6.2-0.6-9.3-1c-1.2-0.1-2.3-0.3-3.5-0.5l-0.7-0.1c-0.8-0.1,0.5,0.1-0.1,0l-1.3-0.2l-1-0.2
			c-0.5-0.1,0.6,0.2,0.1,0l-0.4-0.1c-0.7-0.2,0,0-0.2-0.1c-0.5-0.3,0,0.1-0.4-0.3c-1.2-1.5-2-3.2-2.5-5c-2.3-7.2-3.2-14.9-4-22.4
			c-1.3-11.4-2.1-23-2.7-34.4c-0.7-14-1.2-28.1-1.4-42.1c-0.3-15-0.3-30-0.2-44.9c0.1-14.3,0.5-28.6,1.1-42.9
			c0.5-12.2,1.2-24.4,2.3-36.6c0.6-8.5,1.8-17,3.5-25.4c0.5-2.4,1.2-4.6,2.1-6.8c0.3-0.6,0.6-1.2,1.1-1.7c0.2-0.2,0.7-0.7,0.3-0.4
			c0.1-0.1,0.5-0.2,0.1-0.1C61.4,113.8,61.1,113.9,60.8,113.9c0.5,0,2.4-0.1,2.1-1s-2.9-0.8-3.6-0.8c-4.9,0.1-5.9,5.8-6.8,9.6
			c-2,8.2-2.8,16.8-3.6,25.2c-1.2,12.2-1.8,24.4-2.4,36.7c-0.6,14.5-1,28.9-1.1,43.4c-0.2,15.1-0.1,30.2,0.2,45.3
			c0.2,14.1,0.7,28.3,1.5,42.4c0.6,11.6,1.4,23.2,2.8,34.7c0.9,7.4,1.7,15.1,4.1,22.2c0.6,1.7,1.3,3.8,2.6,5.1
			c1.2,1,2.7,1.6,4.3,1.8c5.2,1.1,10.5,1.8,15.9,2.1c9,0.9,17.9,1.5,26.9,2c11.7,0.7,23.4,1.3,35.1,1.8c13.8,0.6,27.6,1.1,41.4,1.5
			c15.1,0.4,30.1,0.8,45.2,1.1c15.7,0.3,31.3,0.5,47,0.6c15.2,0.1,30.4,0.1,45.6,0c14-0.1,28.1-0.3,42.1-0.6
			c12.1-0.3,24.2-0.7,36.2-1.4c9.5-0.5,19-1.2,28.4-2.3c5.9-0.7,12-1.4,17.7-3.3c1.7-0.4,3.2-1.2,4.5-2.2c1.3-1.3,1.9-3.4,2.3-5
			c2.2-7.6,2.7-15.8,3.4-23.6c1-12.4,1.5-24.8,1.8-37.2c0.4-15,0.5-30,0.4-45c-0.1-15.7-0.3-31.3-0.7-47
			c-0.4-14.5-0.9-28.9-1.5-43.4c-0.5-11.4-1.1-22.7-2.1-34c-0.5-6.2-0.8-12.8-2.4-18.9c-0.3-1.3-0.6-2.2-1.9-2.8
			c-1.6-0.6-3.3-1.1-5-1.2c-5.5-0.9-11.2-1.3-16.8-1.7c-8.8-0.6-17.6-1-26.4-1.4c-11.5-0.5-23-0.8-34.5-1.2
			c-13.4-0.4-26.9-0.7-40.3-1c-14.6-0.3-29.2-0.5-43.9-0.8c-15.1-0.2-30.1-0.4-45.2-0.6c-14.8-0.2-29.5-0.3-44.3-0.4
			c-13.9-0.1-27.7-0.2-41.6-0.3c-11.9-0.1-23.9-0.2-35.8-0.2c-9.4-0.1-18.8-0.1-28.2-0.1l-18.4-0.1h-6.3c-0.5,0-2.5,0.1-2.1,1
			S60.1,113.9,60.8,113.9z"></path><path class="st2" d="M81.5,148.4c0,0,49.3-8,51.6,0s1.1,171.3,0,174.2s-47,4-51.6,0S81.5,148.4,81.5,148.4z"></path><path class="st2" d="M80.8,150.4c6.2-1,12.4-1.8,18.7-2.4c5.3-0.6,9.9-0.9,15.3-1c2.3-0.1,4.6-0.1,6.9,0.1c1,0.1,2,0.1,3,0.3
			c0.1,0,0.8,0.1,0.5,0.1s0.3,0.1,0.4,0.1c0.4,0.1,0.8,0.2,1.2,0.2c0.7,0.2,1.4,0.4,2.1,0.7c0.3,0.1-0.3-0.2,0,0
			c0.1,0.1,0.3,0.1,0.4,0.2s0.4,0.3,0.6,0.5s0.1,0.2,0,0c0.1,0.1,0.1,0.2,0.2,0.3c0.1,0.2,0.1,0.4,0.2,0.6c0-0.1-0.1-0.6-0.1-0.2
			c0,0.1,0,0.2,0.1,0.3c0.2,1.4,0.3,2.9,0.4,4.4c0.3,5.9,0.4,11.8,0.5,17.7c0.1,8.8,0.2,17.6,0.3,26.4c0.1,10.4,0.1,20.8,0,31.1
			c0,10.7-0.1,21.3-0.1,32c-0.1,9.6-0.2,19.2-0.3,28.9c-0.1,7.3-0.2,14.6-0.4,21.9c-0.1,3.6-0.1,7.2-0.4,10.8
			c-0.1,0.6,0.1-0.2,0-0.1c0.4-0.6,0.8-1.1,1.4-1.4c-0.5,0.3,0.9-0.3,0.2-0.1c-0.3,0.1-1.1,0.5-0.2,0.1c-0.6,0.2-1.3,0.4-2,0.4
			c-1.8,0.3-3.7,0.5-5.6,0.6c-1.4,0.1-1.6,0.1-3,0.2s-2.6,0.1-3.9,0.2c-5.4,0.2-10.8,0.3-16.2,0.2c-2.5-0.1-5-0.2-7.5-0.4
			c-1.1-0.1-2.2-0.2-3.3-0.3c-0.5,0-1-0.1-1.5-0.2l-0.4-0.1l-0.4-0.2c-0.8-0.1-1.5-0.3-2.3-0.5l-0.9-0.3c-0.2-0.1-1-0.5-0.4-0.1
			c-0.2-0.1-0.4-0.2-0.5-0.3c-0.3-0.1,0.1,0,0.1,0.1c0-0.1-0.2-0.3-0.2-0.4c-0.1-0.3-0.2-0.8-0.1-0.2l-0.2-0.9
			c-0.1-0.8-0.2-1.5-0.3-2.3c-0.6-5.5-0.7-11-0.8-16.4c-0.2-8.4-0.2-16.7-0.2-25.1c0-10,0.1-20,0.2-30.1c0.1-10.5,0.3-20.9,0.4-31.4
			c0.2-9.7,0.3-19.4,0.6-29.1c0.2-7.6,0.3-15.3,0.5-22.9c0.1-4.4,0.2-8.7,0.3-13.1c0-0.6,0-1.1,0-1.7c0.1-2.4-5.4-0.3-5.4,1.8
			c-0.1,2.4-0.1,4.8-0.2,7.2c-0.2,6.4-0.3,12.7-0.4,19c-0.2,9-0.4,18-0.6,27c-0.2,10.4-0.4,20.9-0.5,31.3
			c-0.1,10.5-0.2,21.1-0.3,31.6c0,9.3,0,18.6,0.1,27.9c0.1,6.9,0.2,13.7,0.6,20.6c0.1,2.1,0.3,4.2,0.5,6.4c0,1.2,0.3,2.4,0.8,3.5
			c0.6,0.8,1.5,1.3,2.5,1.5c1.7,0.5,3.4,0.8,5.1,1c4.8,0.6,9.7,0.9,14.6,0.9c5.5,0.1,10.9,0,16.4-0.3c4.2-0.1,8.4-0.5,12.5-1.3
			c2.4-0.5,5.6-1.4,6-4.3c0.1-1.2,0.2-2.4,0.2-3.6c0.2-5.6,0.3-11.2,0.4-16.9c0.1-8.7,0.3-17.4,0.3-26.1c0.1-10.4,0.2-20.8,0.2-31.3
			c0.1-10.8,0.1-21.7,0.1-32.5c0-9.9-0.1-19.7-0.2-29.6c-0.1-7.5-0.2-14.9-0.4-22.4c-0.1-3.7,0-7.6-0.7-11.2
			c-0.5-2.6-3.3-3.6-5.6-4.1c-4.4-0.8-8.9-1.1-13.3-0.8c-9.8,0.4-19.6,1.3-29.4,2.8c-1.8,0.3-3.6,0.5-5.4,0.8
			c-1.2,0.2-2.9,1.1-3.3,2.4S79.8,150.6,80.8,150.4z"></path><path class="st2" d="M156,220.1c0,0,114-2.3,115.2,2.3s2.3,100.9,0,102.9s-112.9,2-115.2-5.5S152,220.1,156,220.1z"></path><path class="st2" d="M154.4,221.5l9.3-0.2c7.7-0.1,15.3-0.2,23-0.3c9.8-0.1,19.5-0.1,29.3-0.1c9.4,0,18.7,0.1,28.1,0.4
			c6.6,0.2,13.4,0.3,20,1.1c1,0.1,1.9,0.2,2.9,0.4l0.5,0.1h0.2c0.3,0.1-0.3-0.1,0,0s0.5,0.2,0.7,0.3c0.1,0,0.1,0.1,0.2,0.1
			c0.2,0.1,0-0.1,0,0c0.1,0.1,0.1,0.3,0.1,0.4c0.1,0.6,0.1,1.2,0.2,1.8c0.4,6.1,0.5,12.3,0.6,18.5c0.2,9.7,0.3,19.4,0.4,29.1
			c0.1,9.9,0.1,19.7,0,29.6c-0.1,6.7-0.1,13.4-0.6,20c-0.1,0.8-0.1,1.6-0.3,2.4c0,0.2-0.1,0.5-0.2,0.7s0,0,0.1-0.1
			c0.6-0.6,1.3-1,2-1.3c0,0,1.7-0.5,0.9-0.3c-0.4,0.1-0.3,0.2,0.2,0c-0.1,0-0.3,0.1-0.5,0c-0.8,0.1-1.7,0.2-2.5,0.2
			c-6.4,0.4-12.8,0.5-19.3,0.5c-9.4,0.1-18.7,0-28.1-0.1c-10-0.2-19.9-0.5-29.8-1c-7.9-0.4-15.8-0.9-23.6-2.1
			c-1.4-0.2-2.7-0.4-4.1-0.7c-0.6-0.1-1.1-0.3-1.7-0.4c-0.1,0-0.4-0.1-0.2,0s-0.1,0-0.2-0.1l-0.7-0.2c-0.7-0.2-1.3-0.5-1.9-0.9
			l-0.3-0.2c0.2,0.1,0,0.1,0-0.1c-0.1-0.2-0.2-0.4-0.2-0.6c-0.4-1.9-0.6-3.8-0.7-5.8c-0.3-3.4-0.5-6.8-0.6-10.2
			c-0.4-9.5-0.7-19-0.8-28.4c-0.1-10-0.2-20.1,0-30.1c0.1-6.9,0.1-14,1.1-20.9c0.1-0.8,0.2-1.6,0.5-2.4c0.1-0.3,0.2-0.5,0.3-0.8
			c0,0-0.2,0.3,0,0.1c-1.1,1-2.4,1.6-3.8,1.8c1.4-0.1,2.7-0.7,3.8-1.6c0.8-0.7,0.6-1.4-0.6-1.3c-1.8,0.1-4,1.1-4.8,2.8
			c-0.3,0.6-0.4,1.3-0.5,1.9c-0.4,2.6-0.7,5.2-0.8,7.9c-0.5,8.8-0.6,17.7-0.6,26.5c0,10.4,0.1,20.8,0.4,31.2
			c0.2,8.3,0.5,16.6,1.1,24.9c0.1,2.2,0.3,4.3,0.7,6.4c0.3,1.3,1.3,1.9,2.5,2.3c2.3,0.8,4.6,1.4,7,1.7c3.5,0.6,7,0.9,10.5,1.3
			c9.3,0.9,18.7,1.3,28,1.6c10.3,0.4,20.6,0.6,30.8,0.6c8.5,0,17,0,25.4-0.2c2.8-0.1,5.5-0.2,8.2-0.4c1.7,0,3.4-0.3,5.1-0.7
			c1.3-0.4,2.9-1.1,3.4-2.5c0.2-0.6,0.3-1.2,0.3-1.8c0.3-2.5,0.4-5,0.5-7.5c0.3-8.5,0.4-17.1,0.4-25.7c0-10.4-0.1-20.7-0.2-31.1
			c-0.1-8.7-0.2-17.5-0.5-26.2c-0.1-2.7-0.2-5.4-0.4-8.1c-0.1-0.9,0.1-2.5-0.7-3.1c-1.1-0.8-3-0.9-4.4-1.1c-2.7-0.4-5.5-0.6-8.2-0.7
			c-8.4-0.5-16.8-0.6-25.1-0.8c-10.2-0.1-20.4-0.1-30.6-0.1c-9.2,0-18.5,0.1-27.8,0.2c-5.8,0.1-11.6,0.2-17.4,0.3h-2.4
			c-1.4,0.1-2.8,0.7-3.8,1.6C153,221,153.3,221.6,154.4,221.5z"></path><path class="st2" d="M156,145.2c0,0,114-1.3,115.1,1.3s2.3,57.4,0,58.6S158.3,206.2,156,202S152,145.2,156,145.2z"></path><path class="st2" d="M155.7,147.7c7.4-0.1,14.7-0.1,22.1-0.2c15.2-0.1,30.5-0.2,45.7-0.1c13.1,0,26.2,0,39.3,0.7
			c1.8,0.1,3.5,0.2,5.3,0.4l0.9,0.1c0.6,0.1-0.8-0.1-0.3,0c0.1,0,0.2,0,0.3,0.1l0.5,0.1c0.6,0.1-0.7-0.4-0.3-0.1
			c-0.5-0.3-0.8-0.7-1-1.2c0,0.2,0.1,0.5,0.1,0.7c0.1,0.8,0.2,1.7,0.2,2.5c0.2,2.8,0.3,5.6,0.4,8.4c0-0.6,0,0.5,0,0.6
			c0,0.4,0,0.9,0,1.3l0.1,3c0.1,2,0.1,3.9,0.1,5.9c0.1,4.1,0.1,8.2,0.1,12.3c0,6.5,0.1,13.1-0.6,19.5c-0.1,0.8-0.3,1.6-0.4,2.4
			c-0.1,0.5,0.3-0.7,0-0.2c0,0.1-0.1,0.2-0.1,0.2c0.2-0.4,1.2-1.5,1.9-1.4c-0.3,0-0.6,0-0.9,0.1c1.3-0.3,0.4,0,0,0l-0.9,0.1
			c-4.4,0.2-8.8,0.2-13.2,0.3c-14.9,0.2-29.8,0.1-44.7-0.1c-14.2-0.2-28.5-0.4-42.7-1.5c-2.2-0.2-4.4-0.4-6.6-0.6l-0.7-0.1
			c-0.4-0.1,0.9,0.1,0.1,0l-1.2-0.2c-0.6-0.1-1.1-0.3-1.6-0.4c-0.7-0.2,0.7,0.4,0.1,0s0.5,0.5,0.2,0.1c0.5,0.5,0.5,0.6,0.3,0.3
			s0.2,0.8,0.1,0.2c-0.1-0.4-0.2-0.7-0.3-1c-0.4-2.4-0.8-4.8-0.9-7.3c-0.7-7.9-0.9-15-1-22.8c-0.1-6.8-0.2-13.8,0.8-20.5
			c0.1-0.5,0.2-1,0.3-1.5c0.1-0.2,0.1-0.4,0.2-0.6c-0.2,0.9-0.1,0.3,0,0.1c0.2-0.5,0.6-1,0-0.3c0.4-0.5-0.4,0.3-0.3,0.2
			C157,147.5,156.3,147.7,155.7,147.7c1.3-0.1,2.9-0.8,3.1-2.4c0.1-1.4-1-2.5-2.4-2.6c-0.1,0-0.1,0-0.2,0c-3.1,0.2-4,2.6-4.6,5.2
			c-0.5,2.7-0.8,5.5-0.8,8.3c-0.4,8.2-0.2,16.4,0.1,24.6c0.2,6.5,0.4,13.2,1.6,19.6c0.3,1.6,0.7,3.2,2.2,4c1.3,0.6,2.6,0.9,4,1.1
			c5.1,0.7,10.2,1.2,15.4,1.4c7.2,0.4,14.5,0.6,21.8,0.8c16.1,0.4,32.3,0.6,48.4,0.5c6,0,12.1-0.1,18.1-0.2c2.9-0.1,6.1,0.1,9-0.5
			c2.4-0.5,2.9-2.6,3.2-4.6c0.3-2.6,0.5-5.1,0.5-7.7c0.3-7.9,0.2-15.8,0.1-23.7c-0.1-7.2-0.3-14.4-0.8-21.5c-0.1-1.4,0-3.4-0.7-4.8
			s-2.6-1.6-4-1.8c-4-0.4-8-0.7-12-0.7c-6.6-0.2-13.3-0.3-19.9-0.4c-16-0.1-32.1-0.1-48.1,0c-10.6,0.1-21.2,0.1-31.8,0.2h-1.6
			c-1.4,0-3,0.8-3.2,2.4c0,1.4,1,2.5,2.4,2.6C155.6,147.7,155.6,147.7,155.7,147.7z"></path><path class="st2" d="M288.1,145.9c0,0,133.7-3.9,135,3.9s2.7,170.8,0,174.2s-132.4,3.4-135-9.2S283.4,146,288.1,145.9z"></path><path class="st2" d="M288.8,148.7c5.1-0.1,10.3-0.3,15.4-0.4l3.6-0.1h1h0.9h0.6h1.2l8.7-0.1c6.6-0.1,13.2-0.2,19.8-0.2
			c14-0.1,27.9-0.1,41.9,0.2c10.8,0.2,21.6,0.4,32.3,1.8c1.6,0.2,3.2,0.4,4.9,0.8c0.2,0,0.7,0.1,0.9,0.2c-0.4-0.3-0.6-0.2-0.2,0
			l0.5,0.1c0.4,0.1,0.9,0.3,1.3,0.5s-0.7-0.5-0.1-0.1s-0.6-0.6-0.2-0.2c-0.2-0.3-0.4-0.6-0.5-1c0.1,0.4,0,0.1,0-0.4
			c0,0.7,0.1,1.5,0.2,2.2c0.4,7.7,0.5,15.4,0.7,23.1c0.2,12.7,0.4,25.5,0.5,38.2c0.1,14.5,0.2,29,0.2,43.5c0,12.9,0,25.8-0.2,38.7
			c-0.1,8.2-0.1,16.4-0.8,24.5c0,0.3,0,0.5-0.1,0.8v0.4c0,0.6-0.1,0,0-0.3c-0.1,0.4-0.1,0.8-0.2,1.2c-0.1,0.2-0.1,0.5-0.2,0.7
			c0,0,0.4-0.8,0.1-0.4c0.4-0.7,0.5-0.6,0.3-0.5s0.7-0.5,0.4-0.3c-0.1,0-0.2,0.1-0.3,0.1c1-0.4,0.4-0.1,0.1-0.1s-0.9,0.2-1.3,0.2
			c-1.3,0.2-2.7,0.3-4,0.4c-4.3,0.3-8.6,0.5-12.9,0.6l-1.9,0h-1h-0.7l-4.3,0.1c-3.2,0-6.3,0-9.5,0c-14,0-28-0.3-42-1
			c-12.6-0.5-25.2-1.6-37.7-3.4c-2.4-0.4-4.7-0.8-7-1.3l-1.4-0.3l-0.7-0.2c-0.5-0.1,0.6,0.2,0.1,0l-0.4-0.1
			c-0.8-0.2-1.7-0.5-2.5-0.8s-1.4-0.5-2.1-0.8l-0.9-0.5c0,0,0.8,0.5,0.2,0.1l-0.4-0.2c-0.2-0.1-0.4-0.3-0.6-0.4
			c-0.4-0.3,0.5,0.6,0.2,0.2c-0.1-0.1-0.2-0.2-0.2-0.3c-0.5-0.6,0.4,0.7,0.1,0.1s0.1,0.9,0.1,0.2c0-0.4-0.1-0.7-0.2-1.1s0.1,1,0,0
			l-0.1-0.8c-0.1-1.4-0.3-2.8-0.4-4.2c-0.3-4.2-0.5-8.4-0.6-12.5c-0.5-12.3-0.8-24.6-1-36.9c-0.3-14.5-0.4-29.1-0.4-43.6
			c0-13.2,0-26.5,0.3-39.8c0.1-5,0.3-10.1,0.5-15.1c0.1-1.9,0.2-3.9,0.4-5.8c0.1-0.8,0.1-1.6,0.2-2.4c0-0.3,0-0.9,0,0.1
			c0-0.2,0-0.3,0.1-0.5c0-0.3,0.1-0.6,0.1-1c0.1-0.9,0.3-1.8,0.5-2.7c0.1-0.3,0.4-0.9-0.1,0.2c0-0.1,0.1-0.2,0.1-0.3
			c0.3-0.4-0.5,0.6-0.2,0.3C289.6,148.5,289.2,148.7,288.8,148.7c1.6,0,2.2-1.9,1.9-3.2c-0.3-1.5-1.7-2.5-3.2-2.4
			c-2.3,0.1-2.7,3.5-2.9,5.2c-0.5,3.5-0.7,7.1-0.9,10.6c-0.6,11.4-0.8,22.8-0.9,34.1c-0.1,14.5-0.1,29.1,0.1,43.6
			c0.1,14,0.4,28,0.8,42.1c0.3,9.8,0.5,19.6,1.2,29.4c0,2.4,0.3,4.8,0.8,7.2c0.9,3.1,4.2,4.8,7,5.8c4.2,1.4,8.5,2.4,12.8,3
			c5.8,1,11.6,1.6,17.5,2.1c14.1,1.3,28.2,1.9,42.4,2.2c13.1,0.3,26.2,0.4,39.4,0c4.3-0.1,8.7-0.3,13-0.6c2.1-0.2,4.8-0.1,6.7-1.1
			s1.8-3.8,2-5.6c0.3-3.2,0.4-6.4,0.5-9.6c0.4-11,0.4-22,0.5-33c0.1-14.3,0.1-28.6,0-42.9c-0.1-14.2-0.2-28.4-0.4-42.6
			c-0.1-10.7-0.3-21.3-0.6-32c-0.1-2.9-0.2-5.9-0.3-8.8c0-0.9-0.1-1.8-0.3-2.8c-0.4-1.5-1.4-2.7-2.8-3.3c-2.5-1.3-5.6-1.6-8.3-2
			c-4.7-0.6-9.4-0.9-14-1.2c-13.1-0.7-26.3-0.9-39.5-0.9c-13.8-0.1-27.6,0.1-41.4,0.3c-9.4,0.1-18.9,0.3-28.3,0.6l-4,0.1
			c-1.5,0.1-2.1,2-1.8,3.2C286,147.7,287.3,148.7,288.8,148.7z"></path></g><path class="st1" d="M52.5,346.1c0,0,296.4,22.3,392.2-2.2"></path><path class="st2" d="M54.2,347.6l8,0.6c7.4,0.5,14.8,1,22.3,1.5c11.2,0.7,22.4,1.4,33.6,2c14.1,0.8,28.3,1.5,42.4,2.1
		c16,0.7,32,1.3,48,1.8c17,0.5,34.1,0.9,51.1,1.2c17.2,0.2,34.4,0.3,51.6,0.1c16.3-0.2,32.6-0.6,48.9-1.3
		c14.6-0.7,29.2-1.6,43.8-3.1c12-1.1,24-2.9,35.9-5.3c2.4-0.5,4.8-1.1,7.1-1.7c1.2-0.3,0.2-1.4-0.4-1.9c-1.1-0.9-2.5-1.3-3.9-1.1
		c-11,2.7-22.1,4.6-33.3,5.9c-13.9,1.7-27.9,2.8-41.9,3.6c-16,0.9-32,1.4-47.9,1.7c-17,0.3-34,0.3-51.1,0.2s-34.3-0.5-51.4-0.9
		c-16.3-0.5-32.7-1-49-1.7c-14.6-0.6-29.2-1.3-43.8-2c-12-0.6-24-1.3-35.9-2c-8.4-0.5-16.8-1.1-25.2-1.6c-3.9-0.3-7.8-0.7-11.7-0.8
		h-0.5c-1.2-0.1-1.3,0.8-0.6,1.5c1.1,1,2.4,1.5,3.8,1.6L54.2,347.6z"></path></g><g id="meal"><g id="egg"><path class="st1" d="M203.3,228.4c0,0-13.5-6.5-22.2,0s-12.5,19.3-7.5,28.5c5,9.2-13.6,22.6,3.2,35s10.9,18.3,28.8,24.4
			s33.9,0.6,39.8-12.2s20.9-12.4,23.6-24.6s-4.5-22.2-12.5-26.9s0.7-21.3-13.8-28.1S214.8,232.2,203.3,228.4z"></path><path class="st0" d="M203.5,227c-3.3-1.5-6.9-2.6-10.5-3c-2.8-0.4-5.8-0.3-8.6,0.4c-3,0.8-5.7,2.5-7.8,4.7
			c-4.3,4.3-6.9,10-7.4,16.1c-0.2,3,0.2,6.1,1.2,9c0.8,2.1,1.9,3.6,1.9,5.9c-0.2,4.5-2.7,8.7-3.9,13c-1.5,5.1-1.1,10.2,2,14.6
			c2.2,3.1,5.3,5.1,8.2,7.5c2.2,1.8,4.2,3.8,6.1,5.9c2.7,3.2,4.8,6.9,7.9,9.7c4.3,4,10,6.4,15.6,8c6.4,2,13.2,2.4,19.8,1.3
			c5.6-1,10.9-3.7,14.9-7.7c1.9-2,3.5-4.2,4.6-6.7c1.2-2.6,3-5,5.1-6.9c3.8-3.4,8.5-5.5,12.5-8.7c1.9-1.5,3.5-3.3,4.7-5.4
			c1.3-2.7,2-5.8,2-8.8c0-6.5-2.3-12.9-6.7-17.8c-2-2.4-4.4-4.4-7-6.1c-0.5-0.3-0.9-0.6-1.4-0.9c0.4,0.3,0.1,0.1-0.1-0.1
			c0,0-0.2-0.3-0.1,0s-0.1-0.2-0.2-0.2c-0.4-0.5-0.6-1.1-0.9-1.7c-1.3-4-0.9-8.4-1.8-12.5c-1.1-5.3-4.4-9.9-9.1-12.6
			c-5.6-3.3-12-3.7-18.2-2.2c-5.6,1.4-10.8,4.1-16.5,5.2c-2.3,0.5-4.7,0.5-6.9-0.1c-0.9-0.3-2-0.1-1.8,1s1.5,2.1,2.5,2.4
			c5.2,1.6,10.4,0.2,15.3-1.5c5.2-1.8,10.5-4.1,16.2-4.2c2.8-0.1,5.5,0.6,8,1.8c1.9,0.9,3.4,2.3,4.4,4.1c2.2,3.6,2.3,8,2.7,12.1
			s1.2,8,4.6,10.7c1.9,1.5,4,2.6,5.8,4.4c2,2,3.6,4.3,4.7,6.8c2.4,5.2,3,12.2,0.2,17.4c-2.2,4.2-6.4,6.5-10.2,9
			c-4.4,2.8-8.6,5.8-11.3,10.4c-1.2,2.4-2.6,4.7-4.2,6.9c-1.7,2-3.7,3.7-5.9,5c-10.3,6.2-23.8,4.6-34.2-0.5
			c-0.9-0.4-1.8-0.9-2.7-1.5c-0.4-0.3-0.8-0.6-1.2-0.9c-0.6-0.5,0.4,0.3-0.2-0.2l-0.7-0.6c-0.3-0.3-0.6-0.6-0.9-0.9
			c-0.4-0.5-0.5-0.6-0.2-0.2l-0.4-0.5c-0.6-0.7-1.2-1.5-1.7-2.2c-2.8-4-6.1-7.7-9.7-11c-2.5-2.2-5.6-4-7.7-6.6
			c-1.5-1.8-2.4-4.1-2.6-6.5c-0.3-4.5,1.8-8.9,3.3-13c0.8-1.9,1.3-3.9,1.5-5.9c0.1-2.1-0.3-4.2-1.3-6c-2.5-5-2.1-11.1-0.1-16.2
			s6.1-10.5,11.6-12.2c4.6-1.4,9.7-0.6,14.1,1l1.1,0.4l0.4,0.2h-0.1l0.7,0.3c0.7,0.4,2.1,0.7,2.4-0.4S204.3,227.3,203.5,227z"></path><path class="st0" d="M207.6,253.4c0,0-15.7,6.9-8.5,20.8s35.2,12.4,36.6-1.8S221.6,247.5,207.6,253.4z"></path><path class="st0" d="M205.6,252c-4.5,2-8.8,6-10.2,10.8c-2.5,9,4.8,17,12.5,20.2c7,3,16,3.5,22.9-0.1c3-1.4,5.4-4,6.6-7.1
			c1.3-4.2,0.4-9.1-1.7-12.9C230.2,252.6,216.5,247.6,205.6,252c-0.9,0.4,0.7,1.6,1,1.8c0.7,0.5,2.1,1.3,3,0.9
			c7.9-3.3,17.2-1.3,21.6,6.3c2.1,3.5,2.8,7.7,2,11.7c-0.8,2.8-2.6,5.2-5.2,6.7c-5.5,3.4-13,3.8-19.1,1.8c-0.7-0.2-1.4-0.5-2-0.8
			c-0.5-0.2-0.2-0.1-0.1,0l-0.7-0.4l-0.4-0.2c-0.1-0.1-0.3-0.1-0.4-0.2c-1.2-0.8-2.3-1.8-3.1-3c-2.3-3.1-3.2-7-2.6-10.8
			c1.1-4.9,5.4-9,9.9-11c0.9-0.4-0.7-1.6-1-1.8C207.9,252.5,206.5,251.6,205.6,252z"></path></g><g id="fork"><path class="st0" d="M102.6,209.9c0,0-7.5,105.7-2.8,110.4s16.9,1.2,16.9-2.4s-7.1-105.3-5.5-108s10.3-17.8,10.3-22.9
			s-1.9-26.4-3.2-26.4s-2.6,22.6-4.3,24.7s-3.7,2.6-4.2,1.3s-0.5-25.6-2.2-26S106.9,188,105,188s-4-0.4-5.1-9.2s-1.7-19.6-2.8-16.2
			s-4.3,24.1-2.1,31.1S102.6,209.9,102.6,209.9z"></path><path class="st0" d="M101.5,209.4c-0.2,3.1-0.4,6.2-0.6,9.3c-0.5,7.6-1,15.2-1.4,22.7c-0.6,9.6-1,19.2-1.5,28.8
			c-0.4,9.1-0.7,18.2-0.8,27.4c-0.2,6.2-0.1,12.4,0.5,18.6c0.2,1.3,0.3,2.9,1.2,3.9c3.4,3.9,10,3.7,14.4,2.2c1.5-0.5,4-1.5,4.5-3.3
			c0.1-0.5,0.1-1,0-1.4c-0.1-1.8-0.2-3.6-0.3-5.4c-0.4-7.1-0.9-14.2-1.3-21.2c-0.6-9.6-1.2-19.1-1.8-28.7c-0.6-9.3-1.1-18.7-1.6-28
			c-0.3-6.5-0.7-13-0.7-19.5c-0.1-1.3-0.1-2.7,0.2-4c0.5-1,1-2,1.7-3c1.3-2.3,2.5-4.5,3.7-6.9c1.3-2.5,2.5-5.1,3.6-7.8
			c0.8-1.8,1.3-3.7,1.5-5.7c-0.1-4.5-0.4-8.9-0.9-13.4c-0.3-2.5-0.5-5.1-0.9-7.6c-0.2-1.6-0.5-3.2-1-4.8c-0.3-0.8-1.9-2.4-2.7-1.6
			c-0.7,0.6-0.7,2.6-0.8,3.5c-0.7,4.7-1.1,9.4-1.8,14.1c-0.2,1.9-0.6,3.8-1,5.6c-0.1,0.5-0.3,0.9-0.5,1.4c-0.5,0.7-1.2,1.3-1.9,1.7
			c-0.2,0.1-0.4,0.1-0.5,0.2h-0.2c-0.5,0-0.3,0.2,0.7,0.6c0,0-0.1-0.2-0.1-0.2c0-0.4,0-0.8-0.1-1.3c0-0.8-0.1-1.5-0.1-2.3
			c-0.1-2.2-0.2-4.4-0.2-6.5c-0.1-4.4-0.3-8.9-0.9-13.3c-0.2-1.1-0.3-2.3-1.2-3s-1.9-1-2.2,0.3c-0.3,1.4-0.4,2.9-0.5,4.3
			c-0.1,2.2-0.2,4.4-0.3,6.6c-0.2,4.3-0.2,8.7-0.7,13c-0.1,0.6-0.2,2.4-0.7,2.7c0,0-0.8-0.1-0.8-0.1c0.4,0.2,0,0-0.1-0.2
			c-0.3-0.4-0.6-0.9-0.8-1.4c-1.4-3.3-1.5-7.1-1.9-10.6s-0.6-6.8-1.2-10.2c-0.1-0.8-0.3-1.6-0.6-2.4c-0.3-0.6-1.6-1.5-2.3-1.2
			s-1,2.9-1.1,3.6c-1,5.2-1.6,10.5-2,15.8c-0.2,2.8-0.3,5.5-0.1,8.3c0.2,2.5,0.8,5,1.8,7.3c1.8,4.6,4.1,9,6.7,13.2
			c0.4,0.5,0.9,0.8,1.4,0.9c0.2,0.1,1,0.2,0.7-0.3c-2.8-4.4-5.1-9.1-6.9-13.9c-1.8-4.8-1.5-10-1.2-15.1c0.4-5.2,1-10.4,2-15.5
			c0.1-0.7,0.3-1.4,0.5-2.1c0.1-0.2,0.2-0.5,0.2-0.7c0-0.5,1.3,0.4-0.8-0.6c-1.6-0.8-0.8-0.6-0.8-0.1c0.1,1.1,0.4,2.2,0.6,3.2
			c0.2,1.6,0.4,3.3,0.6,4.9c0.3,3.9,0.8,7.8,1.4,11.6c0.4,2,1.1,4.2,2.7,5.5c0.8,0.7,2.8,1.8,4,1.3c0.7-0.3,0.7-1.6,0.8-2.2
			c1.2-7.8,0.2-15.9,1.4-23.7c0.1-0.4,0.2-0.9,0.3-1.3c0-0.1,0.1-0.2,0.1-0.2c0-0.2-1.8-0.6-1.7-0.9c0,0,0.1,0.1,0.1,0.2
			c0,0.5,0.3,1.1,0.4,1.7c0.1,0.8,0.2,1.6,0.3,2.5c0.4,4.6,0.6,9.2,0.7,13.8c0.1,1.8,0.1,3.7,0.2,5.5c0.1,1.2,0,2.2,1,3
			c1.7,1.3,4.1,1,5.3-0.7c0.2-0.3,0.4-0.5,0.5-0.8c0.5-1.4,0.9-2.9,1-4.4c0.7-4.6,1.2-9.3,1.8-14c0.2-1.7,0.4-3.4,0.8-5
			c0.1-0.2,0.3-0.8,0.3-0.9c0,0.3-1.7-1.4-1.7-0.8c0,0.1,0.1,0.1,0.1,0.2c0.1,0.3,0.2,0.5,0.2,0.8c0.9,4.4,1.5,8.9,1.8,13.4
			c0.2,2.5,0.4,5,0.6,7.4c0.2,1.7,0.2,3.3,0.1,5c-0.4,2.2-1.1,4.4-2.1,6.4c-1.1,2.6-2.4,5.1-3.7,7.7c-1.1,2.1-2.2,4.1-3.4,6.2
			c-0.4,0.6-0.8,1.3-1.1,2c-0.2,1.4-0.3,2.9-0.1,4.3c0,2.7,0.1,5.4,0.2,8.1c0.3,8.1,0.7,16.2,1.2,24.3c0.5,9.6,1.1,19.2,1.7,28.8
			c0.5,8.6,1.1,17.2,1.6,25.8c0.3,5.1,0.7,10.1,0.9,15.2c0,0.4,0.1,0.9,0.1,1.3c-0.1,1.6-1.9,2.5-3.2,3.1c-2.4,1.1-5.1,1.6-7.8,1.4
			c-1.2,0-2.4-0.4-3.5-1c-0.2-0.1-0.3-0.2-0.5-0.4c-0.1-0.1,0.1,0.2,0,0c-0.1-0.1-0.1-0.2-0.2-0.3c-0.5-1.4-0.7-2.9-0.8-4.5
			c-0.2-2.7-0.3-5.5-0.4-8.2c-0.1-8.1,0.1-16.2,0.3-24.2c0.3-9.5,0.8-19.1,1.2-28.6c0.5-8.7,0.9-17.3,1.5-25.9
			c0.3-5.4,0.7-10.8,1.1-16.2l0.2-2.2C103.8,209.8,101.6,208.8,101.5,209.4z"></path></g><path class="st1" d="M351.2,178c0,0,3-10.7,13.3-6.9s46.9,52.7,45.7,87.6s-1.4,39.7-9.5,37.7S351.2,178,351.2,178z"></path><path class="st0" d="M354,178.4c0.1-0.3,0.2-0.6,0.4-1c-0.2,0.4,0.2-0.5,0.3-0.7c0.2-0.4,0.5-0.9,0.8-1.3c0.5-0.9,1.2-1.6,2-2.3
		l0.7-0.5c0.1-0.1,0.3-0.2,0.5-0.3c0.3-0.1,0.6-0.2,0.9-0.3c0.7-0.2-0.2,0,0.2-0.1l0.6-0.1h0.6c0.6,0,0.2,0,0.1,0l0.6,0.1
		c0.3,0,0.6,0.1,0.8,0.2c0.2,0.1,0.5,0.1,0.7,0.2c1,0.3-0.1,0,0,0c0.2,0.1,0.5,0.3,0.7,0.4c0.1,0.1,0.3,0.2,0.4,0.2
		c0.3,0.2-0.2-0.1-0.2-0.1c0.1,0.1,0.2,0.1,0.3,0.2c1.5,1,2.9,2.2,4.2,3.5l0.3,0.3l0.6,0.6c0.5,0.4,0.9,0.9,1.3,1.4
		c0.9,0.9,1.8,1.9,2.6,2.9c2,2.3,3.8,4.6,5.6,7c4.2,5.6,8.1,11.5,11.6,17.6c7.4,12.7,13.7,26.7,16.1,41.3c1.3,8,0.6,16.1,0.3,24.1
		c-0.2,5.9-0.3,12-1.4,17.9c-0.2,0.9-0.3,1.7-0.6,2.5c-0.1,0.4-0.2,0.7-0.3,1s0.1-0.2,0,0.1c-0.1,0.1-0.1,0.3-0.2,0.4
		c-0.2,0.5-0.5,0.9-0.9,1.3c0.4-0.5,0,0-0.2,0.1c-0.5,0.4,0.4-0.2-0.2,0.1s0.5-0.1-0.1,0c-0.9,0.2,0.5,0.1-0.1,0c-0.1,0-0.2,0-0.4,0
		c-0.6,0,0.7,0.1,0.3,0s-0.6-0.1-0.9-0.1l-0.4-0.1c-0.6-0.1,0.6,0.2,0.2,0s0.8,0.4,0.3,0.1c0.1,0.1,0.6,0.5,0.2,0.1s-0.4-0.4,0,0
		c-1.4-1.7-2.6-3.5-3.6-5.4c-0.1-0.2-0.2-0.3-0.2-0.5s0.1,0.2-0.1-0.2l-0.6-1.1c-0.4-0.8-0.8-1.5-1.2-2.3c-0.9-1.8-1.7-3.5-2.5-5.3
		c-4.2-9.1-8-18.4-11.8-27.7c-4.3-10.6-8.4-21.2-12.4-31.9c-3.5-9.1-6.9-18.3-10.2-27.5c-1.8-4.9-3.6-9.8-5.3-14.7L354,178
		c-0.7-2-6.4-2.2-5.6,0c1.3,3.7,2.6,7.3,4,11c3.2,8.9,6.5,17.8,9.8,26.6c4.1,10.9,8.3,21.9,12.6,32.7c4,9.9,8,19.9,12.4,29.6
		c1.6,3.6,3.3,7.3,5.2,10.8c1.2,2.4,2.5,4.7,4.2,6.8c1.8,2.2,4.4,2.9,7.2,3c2.9,0.3,5.6-1.5,6.6-4.2c1.6-4.1,1.7-9,2-13.3
		c0.2-4,0.4-8,0.5-12c0.2-4.5,0.5-9,0.3-13.5c-0.6-15.2-6.5-29.9-13.5-43.2c-6.4-12.1-14-24-23.4-34.1c-2.7-2.9-5.8-6.2-9.4-7.9
		c-5.9-2.8-13.2-1.9-16.8,3.9c-0.7,1.1-1.2,2.2-1.6,3.5C347.8,179.6,353.4,180.6,354,178.4z"></path><path class="st1" d="M323.7,176.7c0,0-2.4-10.7,5.5-16.1s16.7-1.2,28.4,18.8s52,109.1,43.1,127.9s-24.9,11.4-32.5-3.7
		S323.7,176.7,323.7,176.7z"></path><path class="st0" d="M326.3,176.3c0-0.1,0-0.3-0.1-0.5s-0.1-0.9,0,0c0-0.3-0.1-0.5-0.1-0.8c-0.1-0.7-0.1-1.3-0.1-2
		c0-0.4,0-0.8,0-1.1c0-0.2,0.1-1.2,0.1-0.8c0.2-1.8,0.7-3.5,1.6-5c0.5-0.8,1-1.6,1.7-2.2c0.4-0.4,0.8-0.8,1.3-1.1l0.5-0.3
		c-0.5,0.4,0,0,0.1-0.1c0.6-0.3,1.1-0.6,1.7-0.9c0.3-0.1,0.6-0.2,0.9-0.3c-0.6,0.2,0.2,0,0.4-0.1s0.6-0.1,0.9-0.1s1.2,0,0.4,0
		c0.6,0,1.2,0.1,1.8,0.2s-0.5-0.2,0.1,0c0.1,0.1,0.2,0.1,0.4,0.1c0.3,0.1,0.7,0.2,1,0.3c0.3,0.1,0.6,0.3,1,0.4
		c0.1,0.1,0.5,0.3-0.1,0c0.2,0.1,0.4,0.2,0.6,0.3c0.7,0.4,1.4,0.9,2,1.4l0.9,0.8c0.4,0.3-0.5-0.5,0.1,0.1l0.6,0.6
		c5.5,5.3,9.6,12.1,13.2,18.8c2.5,4.6,4.8,9.4,7.1,14.1c6.3,13.2,12.2,26.7,17.7,40.4c1.4,3.5,2.7,6.9,4.1,10.7
		c1.3,3.6,2.6,7.3,3.9,10.9c2.3,6.7,4.4,13.5,6.2,20.4c0.8,3,1.4,5.9,2,8.9c0.1,0.6,0.2,1.2,0.3,1.9c0.1,0.3,0.1,0.7,0.2,1
		s0.2,1.5,0.1,0.7c0.1,1.2,0.3,2.5,0.4,3.7s0.1,2.2,0.1,3.3c0,0.5,0,0.9,0,1.4l-0.1,0.7v0.4c0,0.6,0.1-0.6,0-0.1
		c-0.1,0.8-0.3,1.7-0.5,2.5c-0.1,0.4-0.5,1.2-0.1,0.4c-0.5,1-1,2.1-1.6,3.1c-1,1.8-2.4,3.5-4,4.8c-0.5,0.5-1.1,0.9-1.7,1.2
		c-0.4,0.2-0.8,0.4-1.2,0.6c-0.2,0.1-0.4,0.2-0.6,0.2c-0.5,0.2,0,0-0.4,0.1c-0.7,0.2-1.5,0.3-2.2,0.3c-0.8,0,0.5,0-0.3,0H386
		c-0.5,0-1-0.1-1.5-0.2l-0.5-0.1c0.5,0.1,0,0-0.2,0l-1.1-0.4c-0.4-0.2-0.8-0.3-1.2-0.5c0,0-0.7-0.4-0.4-0.2l-0.6-0.4
		c-1.5-0.9-2.9-2-4.2-3.3c-0.6-0.7-1.3-1.4-1.9-2.1c-0.7-0.8-1.3-1.6-1.9-2.5c-1.1-1.8-2.2-3.7-3-5.7c-0.7-1.5-1.3-3.1-1.9-4.6
		c-0.2-0.4-0.3-0.9-0.5-1.3l-0.1-0.4c-0.1-0.4,0.3,0.7,0.1,0.2c-0.1-0.3-0.2-0.5-0.3-0.8c-0.4-1.1-0.8-2.1-1.2-3.2
		c-2-5.2-3.9-10.5-5.8-15.7c-4.6-13-9.1-26-13.5-39c-4.2-12.4-8.4-24.8-12.5-37.3c-2.3-7-4.6-14-7-20.9l-0.3-1
		c-0.4-1.5-1.9-2.5-3.4-2.3c-1.3,0.2-2.2,1.5-2,2.8c0,0.1,0,0.2,0.1,0.3c1.7,5.2,3.4,10.4,5.2,15.6c4,12,8,24.1,12.1,36.1
		c4.6,13.7,9.3,27.3,14.1,40.9c3.6,10.2,7.2,20.5,11.3,30.5c1.9,5,4.8,9.7,8.4,13.6c5.5,5.6,14,9.9,21.6,5.7c6-3.5,10-9.7,10.7-16.7
		c0.5-5.1-0.4-10.4-1.3-15.4c-2.8-14.3-7.7-28.2-12.8-41.8c-5.6-14.8-11.8-29.4-18.5-43.7c-5.4-11.6-10.9-23.5-18.6-33.8
		c-4.4-5.9-10.6-12.8-18.6-12.6c-3.1,0.2-6,1.4-8.4,3.4c-3.5,2.9-5.2,7.1-5.7,11.6c-0.2,2.2-0.1,4.4,0.4,6.5
		C321.8,180.4,327.1,180,326.3,176.3z"></path><path class="st1" d="M328,182.5c0.8-3.1,1.8-6.6,4.6-8c2.2-0.9,4.6-0.8,6.7,0.3c6.4,2.9,9,12,5.2,17.9c-0.8,1.3-2.1,2.5-3.6,2.5
		s-2.9-1.9-2-3.1c0.7-0.6,1.6-0.9,2.6-0.7c3.2,0.2,6.1,1.7,8.1,4.2c1.9,2.6,2.2,6.1,0.6,8.9c-0.5,0.9-1.3,1.6-2.3,1.9
		c-1,0.3-2.1-0.3-2.5-1.2c-0.4-1.2,0.9-2.4,2.1-2.5c1.3,0.1,2.5,0.6,3.3,1.5c3.8,3.5,5.2,8.8,3.8,13.8c-1.7,4.9-6.2,8.2-11.4,8.3"></path><path class="st0" d="M330.8,182.1c0.3-1.4,0.7-2.8,1.3-4.1c0.3-0.6,0.6-1.2,1.1-1.7c0.2-0.2,0.4-0.4,0.6-0.6
		c0.3-0.3,0.6-0.2,0.1-0.1c2.5-0.3,5,1.4,6.6,3.2c3.2,3.7,4.2,9.8,1.5,14c-0.2,0.3-0.4,0.6-0.6,0.8l-0.3,0.3
		c-0.5,0.4-0.1,0.3,1.3-0.2c-0.2-0.4-0.6-0.6-0.8-1.1l0-0.2c0.2-0.8-0.3-0.7-1.7,0.5c-2,1.7,0.9,0.1,0.8,0c0.8,0.1,1.6,0.3,2.4,0.6
		c2.9,1.1,4.9,3.6,5.4,6.6c0.2,1.5,0,3-0.8,4.3c-0.1,0.2-0.5,0.6-0.6,0.8l1.7-0.4l-0.2-0.1c-0.1-0.2-0.2-0.2-0.3-0.4
		c-0.1-0.2-0.1-0.4,0-0.6c0.3-0.5-0.2-0.3-1.6,0.5c0.3,0.1,0.5,0.3,0.8,0.4c0.3,0.2,0.6,0.5,0.9,0.7c0.5,0.5,1,1,1.5,1.6
		c1,1.3,1.7,2.7,2.1,4.2c1,3.1,0.6,6.6-1.1,9.4c-1.5,2.4-3.9,4.1-6.5,4.1c-1.2,0-3,0.5-3.6,1.6s0.6,1.5,1.5,1.5
		c5.3,0,10.3-2.5,13.4-6.7c2.6-3.8,3.2-8.6,1.4-12.9c-0.9-2.2-2.3-4.1-4.1-5.6c-2.5-1.9-5.8-1.9-8.4-0.1c-2,1.3-2.9,4.2-0.2,5.3
		s6.2-0.4,8-2.6c3.2-3.9,1.6-9.9-2.3-12.7c-2-1.5-4.4-2.3-6.9-2.5c-2.4-0.2-6.8,0.4-7.3,3.4c-0.5,2.5,2.4,3.6,4.4,3.5
		c3-0.2,5.7-2,7.2-4.6c1.9-3.5,2.2-7.7,0.7-11.5c-1.7-4.7-6-7.9-11-8.3c-3.3-0.2-6.5,1.1-8.8,3.5c-1.7,2-2.5,4.6-3.1,7.1
		C324.8,184.9,330.3,184,330.8,182.1L330.8,182.1z"></path><path class="st1" d="M349.1,238.3c1.5-3.8,4.1-7.5,8-8.7s9,1.4,8.9,5.4c0,3.2-2.9,5.6-5.5,7.4c5.5-2,11.6-1.3,16.6,1.9
		c1.5,0.9,2.7,2.2,3.3,3.9c0.8,2.7-1,5.5-3.4,6.9c-2.4,1.4-5.3,1.6-8.1,1.8c2.5,0.3,4.9,1.1,7,2.3c2.2,1.3,3.5,3.6,3.7,6.1
		c0,2.5-2,4.9-4.5,4.9c6.1,0.8,10.3,6.4,9.5,12.5c-0.6,4.1-3.4,7.6-7.4,9c-4.1,1.4-9.7-0.7-10.3-5"></path><path class="st0" d="M351.5,239.8c1.5-3.8,5.2-9.3,10-7.9c0.4,0.1,0.7,0.2,1,0.4c0.1,0.1,0.6,0.4,0.2,0.1c0.6,0.5-0.2-0.3,0.3,0.3
		c0.1,0.2,0.3,0.3,0.3,0.6c0.1,0.4,0.2,0.9,0.1,1.3c-0.4,2.5-2.8,4.3-4.7,5.7c-2.4,1.7,1.4,5.2,3.6,4.4c2.7-1,5.6-1.2,8.4-0.7
		c2.5,0.3,4.8,1.3,6.6,2.9c1.7,1.7,0.2,4.2-1.4,5.5c-2.3,1.9-5.6,2-8.3,2.1c-1.2,0.1-1.4,1.4-1,2.3c0.5,1.3,1.7,2.1,3,2.4
		c2.5,0.4,5.8,1,7,3.3c0.9,1.7,0.3,3.9-1.4,4.9c-0.4,0.2-0.9,0.4-1.4,0.4c-1.2,0-1.4,1.4-1,2.3c0.5,1.3,1.7,2.1,3,2.4
		c2.6,0.3,4.8,2,5.7,4.5c1.1,2.8,0.7,5.9-1,8.4c-1.6,2.4-4.2,4.4-7.2,4.4c-1.1,0-2.1-0.3-3-0.8c-0.6-0.3,0.1,0.1-0.3-0.2
		c-0.3-0.2-0.3-0.3-0.1-0.1c-0.1-0.1-0.3-0.3-0.4-0.5c0.3,0.4-0.1-0.3,0-0.1c-0.1-0.4-0.2-0.8-0.3-1.1c-0.4-2.4-5.4-4.1-4.8-0.7
		c1.2,7,10.5,10,16.3,6.7c6.1-3.6,8.1-11.5,4.5-17.6c-0.1-0.2-0.2-0.3-0.3-0.5c-2.4-3.8-6.2-6.3-10.6-7.1l2,4.7
		c2.2-0.2,4.1-1.5,5-3.4c1-2.2,0.9-4.7-0.3-6.7c-2.4-5-7.8-6.9-12.9-7.8l2,4.7c3.8-0.2,7.9-0.7,10.7-3.6c2.8-2.9,2.8-7.4,0.1-10.4
		c-5.3-6.1-14.9-7.7-22.3-5l3.6,4.4c2.9-2.1,6-4.6,6.2-8.4s-2.6-6.8-5.8-8.3c-3-1.6-6.7-1.4-9.6,0.4c-3.1,1.9-5.1,5.1-6.5,8.5
		C345.7,239.1,350.4,242.3,351.5,239.8L351.5,239.8z"></path><path class="st1" d="M324.5,174.5c0,0-9.9-13-19.6,23.7s39.8,110.4,52.3,113.6s16.1-0.9,17.7-10.6S328.2,176.4,324.5,174.5z"></path><path class="st0" d="M326.6,173.1c-1.2-1.6-2.8-2.7-4.7-3.3c-3.9-1.1-7.4,1.2-9.7,4c-2,2.7-3.7,5.6-4.9,8.7c-2,4.9-3.7,10-4.9,15.2
		c-1.6,6.2-1.5,12.8-0.6,19.2c2,15.3,7.9,30.2,14.8,43.9c6.5,13.4,14.4,26.2,23.5,38c3.1,4.2,6.6,8.1,10.5,11.7
		c1.3,1.2,2.8,2.3,4.4,3.2c2.9,1.3,6,2,9.2,2c3.5,0.1,7-0.8,9.5-3.4s3.3-6.4,3.9-9.7c0.5-2.7-0.3-5.4-1-8c-2.5-9.4-6-18.5-9.4-27.5
		c-4.7-12.6-9.8-25.1-14.9-37.6c-4.8-11.7-9.8-23.4-14.9-34.9c-1.9-4.2-3.8-8.4-5.8-12.5c-1.2-2.7-2.5-5.3-4-7.8
		c-0.5-0.9-1.2-1.6-2-2.1c-3.3-1.8-5,3.2-2,4.8c0.3,0.2-0.8-0.6-0.4-0.3s-0.6-0.8-0.2-0.3c0.2,0.3,0.4,0.6,0.6,0.9
		c0.6,0.9,1.1,1.9,1.6,2.9l0.5,0.9c0.3,0.6-0.3-0.6-0.1-0.2l0.3,0.7c0.4,0.8,0.8,1.5,1.1,2.3c0.9,1.9,1.8,3.7,2.6,5.6
		c4.8,10.4,9.2,20.8,13.7,31.3c5.1,12.2,10.1,24.5,14.9,36.9c4,10.3,8,20.6,11.4,31.1c0.6,1.8,1.2,3.7,1.7,5.5
		c0.2,0.8,0.4,1.5,0.6,2.3l0.1,0.5c0.2,0.6-0.2-0.7,0-0.1c0.1,0.3,0.1,0.6,0.2,1c0.1,0.5,0.2,1,0.3,1.5c0,0.2,0,0.4,0.1,0.6
		s0,0.2,0,0.3c0.1,0.5,0.1-0.3,0-0.4c0,0.1,0,0.3,0,0.4c-0.1,0.8-0.3,1.7-0.5,2.5c-0.1,0.7-0.3,1.3-0.6,2c-0.3,0.7-0.6,1.4-0.9,2.1
		c-0.2,0.4,0,0.1,0,0l-0.3,0.4c-0.2,0.3-0.4,0.5-0.6,0.7c-0.1,0.1-0.2,0.2-0.3,0.4c-0.3,0.3,0.5-0.4,0,0c-0.3,0.2-0.5,0.4-0.8,0.6
		c-0.1,0.1-1.1,0.5-0.5,0.3c-0.3,0.1-0.6,0.2-0.9,0.3s-0.7,0.2-1,0.2s-0.2,0-0.1,0c-0.3,0-0.6,0.1-0.9,0.1c-1.9,0.1-3.9-0.1-5.8-0.6
		c-0.6-0.1-1.3-0.3-1.9-0.5s0.3,0,0.2,0.1L357,309c-0.6-0.3-1.2-0.6-1.7-1c-0.6-0.4,0.2,0.2,0,0s-0.3-0.2-0.5-0.4
		c-0.4-0.3-0.7-0.6-1-0.9c-1.6-1.4-3.1-2.9-4.5-4.5c-0.9-1-1.7-1.9-2.6-2.9c-0.3-0.3,0.5,0.6,0,0l-0.3-0.3l-0.7-0.8
		c-0.5-0.6-0.9-1.2-1.4-1.8c-1.9-2.4-3.7-4.9-5.5-7.4c-4.1-5.9-8-12-11.6-18.3c-1.9-3.3-3.7-6.7-5.5-10.2c-0.3-0.6-0.1-0.3-0.5-0.9
		l-0.5-1.1l-1.3-2.7c-0.8-1.8-1.6-3.7-2.4-5.6c-3.1-6.9-5.6-14-7.7-21.3c-0.9-3.2-1.6-6.5-2.1-9.8c-0.5-3.2-0.8-6.4-0.9-9.6
		c0-0.2,0-1.3,0-0.7c0-0.3,0-0.6,0-0.9c0-0.8,0.1-1.5,0.1-2.3c0.1-1.4,0.3-2.9,0.6-4.3c1-4.5,2.3-8.9,4-13.2
		c0.7-1.9,1.5-3.7,2.4-5.6c0.6-1.3,1.3-2.4,2.1-3.6c0.6-0.9,1.4-1.7,2.1-2.5c-0.6,0.6,0.3-0.3,0.6-0.4s0.7-0.4,1-0.6s-0.6,0.2,0,0
		l0.4-0.1l0.4-0.1c0.6-0.2-0.4,0-0.1,0s0.5,0,0.8,0c0.5,0-0.1,0-0.2,0c0.1,0,0.3,0.1,0.4,0.1c0.1,0,0.6,0.2,0.6,0.2
		c-0.2,0.1-0.7-0.4-0.3-0.1l0.3,0.2c0.2,0.1,0.3,0.2,0.5,0.3c-0.2-0.1-0.6-0.5-0.1,0l0.6,0.6c0.5,0.5-0.5-0.6-0.3-0.3
		c0.8,1.1,2.4,1.9,3.7,1C327.3,176,327.5,174.3,326.6,173.1z"></path><path class="st0" d="M360.3,224.8c0.2-0.2,0.5-0.4,0.8-0.6l0.4-0.3c-0.2,0.2-0.2,0.2,0.1,0c0.5-0.4,1.1-0.7,1.7-1.1
		c1.1-0.6,2.3-1.2,3.5-1.6l0.8-0.3c-0.5,0.2,0.5-0.1,0.5-0.1c0.6-0.2,1.3-0.3,1.9-0.5c1.3-0.2,2.6-0.4,3.9-0.4
		c1.5-0.1,2.2-2,1.9-3.2c-0.3-1.5-1.7-2.5-3.1-2.4c-5.9,0.2-11.5,2.4-16,6.1c-1.1,0.9-0.9,3,0,4c0.8,1.1,2.4,1.3,3.6,0.5
		C360.2,224.9,360.2,224.9,360.3,224.8L360.3,224.8z"></path><path class="st0" d="M352.2,195.3l7.9-1.2c0.7-0.1,1.4-0.4,2.1-0.6c0.6-0.2,1.1-0.5,1.6-0.8c0.1-0.1,0.5-0.4,0.1-0.6
		c-0.5-0.1-0.9-0.1-1.4,0.1l-7.9,1.2c-0.7,0.1-1.5,0.3-2.1,0.6c-0.6,0.2-1.1,0.5-1.6,0.8c-0.1,0.1-0.5,0.4-0.1,0.6
		C351.2,195.5,351.7,195.4,352.2,195.3L352.2,195.3z"></path><path class="st0" d="M384.1,267.9h8.5c0.7,0,1.4-0.2,2-0.5c0.4-0.2,0.9-0.7,0.8-1.2c-0.2-1.3-2-1.5-3-1.5h-8.5
		c-0.7,0-1.4,0.2-2,0.5c-0.4,0.2-0.9,0.7-0.8,1.2C381.2,267.7,383.1,267.9,384.1,267.9z"></path><path class="st0" d="M386.9,293.4h10.2c0.8,0,1.5-0.2,2.2-0.6c0.4-0.2,1-0.7,1.1-1.2c0.2-1.3-1.4-1.5-2.3-1.5h-10.2
		c-0.8,0-1.5,0.2-2.2,0.6c-0.4,0.2-1,0.7-1.1,1.2C384.3,293.2,386,293.4,386.9,293.4L386.9,293.4z"></path><path class="st0" d="M373.7,241.6c3.4,0.3,6.8,0.2,10.2-0.2c1.3-0.2,1.2-1.9,0.9-2.9s-1.5-2.6-2.9-2.4c-1.6,0.2-3.1,0.4-4.7,0.4
		c-0.8,0-1.5,0-2.3,0h-1.1h-0.4l0,0l-0.7-0.1c-0.5-0.1-1,0.1-1.3,0.4c-0.3,0.5-0.4,1.1-0.2,1.7c0.2,0.7,0.5,1.4,1,2
		C372.5,241.1,373.1,241.5,373.7,241.6L373.7,241.6z"></path><path class="st0" d="M320.1,233.4v-4.5c0-0.6-0.2-1.2-0.5-1.7c-0.3-0.7-0.8-1.3-1.4-1.8l-0.5-0.4c-0.2-0.2-0.5-0.3-0.8-0.3
		l-0.3,0.1c-0.2,0.2-0.3,0.4-0.2,0.6v4.6c0,0.6,0.2,1.2,0.5,1.7c0.4,0.7,0.8,1.3,1.4,1.8l0.5,0.4c0.2,0.2,0.5,0.3,0.8,0.3l0.3-0.1
		C320.1,234,320.2,233.7,320.1,233.4L320.1,233.4z"></path><path class="st0" d="M323,215.3v-2.8c0-0.2-0.1-0.4-0.2-0.6c-0.2-0.2-0.3-0.5-0.6-0.6c-0.3-0.2-0.5-0.5-0.9-0.7
		c-0.3-0.2-0.6-0.4-1-0.6l-0.6-0.3c-0.3-0.1-0.7-0.2-1.1-0.2l-0.4,0.1c-0.2,0.1-0.3,0.3-0.3,0.5v2.8c0,0.2,0.1,0.4,0.2,0.6
		c0.1,0.3,0.3,0.5,0.6,0.7c0.3,0.2,0.5,0.5,0.9,0.7c0.3,0.2,0.6,0.4,1,0.6l0.6,0.3c0.3,0.1,0.7,0.2,1.1,0.2l0.4-0.1
		C323,215.8,323.1,215.5,323,215.3z"></path><path class="st0" d="M331.7,234.3v-1.7c0-0.3-0.1-0.5-0.1-0.8c-0.1-0.3-0.2-0.6-0.3-0.9c-0.2-0.3-0.3-0.7-0.5-1
		c-0.2-0.3-0.4-0.6-0.6-0.9l-0.4-0.4c-0.2-0.2-0.4-0.4-0.7-0.5h-0.2c-0.2,0.1-0.2,0.3-0.2,0.6v1.7c0,0.3,0,0.5,0.1,0.8
		c0.1,0.3,0.2,0.6,0.3,0.9c0.1,0.3,0.3,0.7,0.5,1c0.2,0.3,0.4,0.6,0.6,0.9l0.4,0.4c0.2,0.2,0.4,0.4,0.7,0.5h0.2
		C331.7,234.7,331.8,234.5,331.7,234.3L331.7,234.3z"></path><path class="st0" d="M333.4,250l2.3-3.4c0.1-0.1,0.1-0.2,0-0.3c-0.1-0.2-0.2-0.4-0.3-0.5c-0.4-0.5-0.9-1-1.4-1.5
		c-0.5-0.5-1.1-0.9-1.7-1.3l-0.4-0.2c-0.2-0.1-0.3-0.1-0.5,0l-2.3,3.4c-0.1,0.1-0.1,0.2,0,0.3c0.1,0.2,0.2,0.4,0.3,0.5
		c0.4,0.5,0.9,1,1.4,1.5c0.5,0.5,1.1,0.9,1.6,1.2l0.4,0.2C333,250,333.2,250,333.4,250L333.4,250z"></path><path class="st0" d="M343.4,272.6c0-0.3,0-0.7,0-1v0.2c0.2-1.5,0.8-2.9,1.7-4.1c0.2-0.3-0.3-0.8-0.4-1c-0.5-0.5-1-0.9-1.6-1.2
		c-0.6-0.4-1.2-0.6-1.9-0.8c-0.3-0.1-0.8-0.2-1,0.1c-1.2,1.5-1.8,3.4-1.8,5.3c0.1,0.2,0.2,0.4,0.3,0.5c0.2,0.2,0.4,0.4,0.6,0.6
		c0.6,0.5,1.2,0.9,1.9,1.2c0.5,0.3,1.1,0.5,1.7,0.5C343.2,273,343.5,273,343.4,272.6L343.4,272.6z"></path><path class="st0" d="M349.2,284.5l1.7-4c0.1-0.5,0.1-1-0.1-1.4c-0.2-0.7-0.5-1.4-0.9-2l-0.4-0.6c-0.2-0.3-0.5-0.6-0.8-0.8
		c-0.2-0.1-0.6-0.3-0.8,0l-1.7,4c-0.1,0.5-0.1,1,0.1,1.4c0.2,0.7,0.5,1.4,0.9,2l0.4,0.6c0.2,0.3,0.5,0.6,0.8,0.8
		C348.7,284.7,349.1,284.9,349.2,284.5z"></path><path class="st1" d="M217.2,259.3l0.4-0.1c-0.7,0.2-0.4,0.1-0.1,0h0.4c0.5-0.1-0.6,0-0.1,0h0.8c0.4,0-0.4-0.1-0.1,0l0.4,0.1
		c0.3,0,0.5,0.1,0.8,0.2s0.1,0,0,0c0.1,0,0.3,0.1,0.4,0.1c0.5,0.2,0.9,0.4,1.4,0.7c0.1,0,0.4,0.3,0.1,0l0.3,0.2
		c0.2,0.1,0.4,0.3,0.5,0.5c0.4,0.3,0.7,0.7,1,1.1l0.2,0.3c0.2,0.3-0.1-0.2,0.1,0.1c0.1,0.2,0.2,0.5,0.3,0.7c0.2,0.5,0.3,1,0.4,1.5
		c0.1,0.4,0.7,0.6,1,0.7c0.6,0.1,1.2,0.1,1.8-0.1c0.9-0.3,2.2-1,2-2c-0.5-2.4-2.1-4.5-4.2-5.7c-2.5-1.4-5.5-1.8-8.3-0.9
		c-0.8,0.2-2.3,1-2,2S216.5,259.5,217.2,259.3L217.2,259.3z"></path><path class="st0" d="M192.9,149.2c0,0,15,22.2-4.5,37.7c-15.4,12.3-30.2,0.8-30.2,0.8L192.9,149.2z"></path><path class="st0" d="M190.6,150.2c4,6,5.9,13.2,5.4,20.4c-0.7,6.6-4.1,12.6-9.3,16.6c-2.7,2.4-6.2,3.9-9.8,4.2
		c-3,0.2-6.1-0.1-9-1.1c-2.1-0.6-4.1-1.5-5.9-2.7c-0.4-0.3-0.9-0.6-1.3-0.8c-0.2-0.2-0.2,0-0.2-0.1c0.1-0.4,1-1.1,1.3-1.4l2.6-2.9
		L182,163l8.4-9.3l2.9-3.2c0.6-0.6,1.1-1.2,1.6-1.8c0.1-0.1,0.1-0.2,0.2-0.2c0.4-0.4-1.7,0.2-1.8,0.2c-1,0.3-1.9,0.8-2.7,1.5
		l-11.8,13.1l-18.7,20.7l-4.3,4.8v0.1c2.8,2,5.9,3.5,9.3,4.3c7.6,1.8,15.3-0.3,21.9-4.3c6.1-3.7,11.2-9.5,13-16.5
		c1.1-5.2,0.8-10.7-1-15.7c-0.9-2.9-2.2-5.6-3.8-8.2C194.7,147.5,190.4,149.9,190.6,150.2z"></path><path class="st1" d="M158.2,187.8l34.7-38.5c3.2,8.7,2.3,18.3-2.4,26.3C182.5,188.7,168.6,190.6,158.2,187.8z"></path><path class="st0" d="M159.5,189.8l11.8-13.1l18.7-20.8l4.3-4.8l-2.2-1.6c-0.5-1.2-0.2-0.4-0.1-0.1c0.1,0.1,0.1,0.3,0.2,0.4
		s0.3,1.1,0.2,0.5c0.4,1.4,0.7,2.8,0.9,4.3c0.6,5,0,10-1.9,14.7c-3.5,8.9-11.5,15.2-20.9,16.8c-4.3,0.6-8.8,0.4-13-0.8
		c-1-0.3-0.5,1.8-0.3,2.1c0.3,0.9,1,2.2,2,2.5c8.3,2.2,17.6,1.2,24.8-3.8c9-6.3,13.4-17.6,12.3-28.3c-0.3-3.1-1-6.2-2.2-9.1
		c-0.2-0.5-1.4-2.5-2.2-1.6l-11.8,13.1L161.2,181l-4.3,4.8C156,186.7,158.4,191,159.5,189.8z"></path><path class="st1" d="M173.8,170.8c-2.4,5.9-4.3,12.1-5.5,18.4"></path><path class="st0" d="M172.7,168.6c-2.4,5.9-4.3,12.1-5.5,18.4c0,0.4,0.1,0.8,0.3,1.1c0.2,0.6,0.5,1.2,0.8,1.8
		c0.1,0.2,1.1,1.8,1.2,1.4c1.2-6.3,3.1-12.4,5.5-18.4c0.1-0.2-0.2-1-0.3-1.1c-0.2-0.6-0.5-1.2-0.8-1.8
		C173.8,169.8,172.9,168.2,172.7,168.6L172.7,168.6z"></path><path class="st1" d="M174.4,170.1l11.2,11.3"></path><path class="st0" d="M173.4,171.1l11.2,11.3c0.6,0.6,1.9,1.6,2.7,0.9s-0.2-2.2-0.8-2.7l-11.2-11.3c-0.6-0.6-1.9-1.6-2.7-0.9
		S172.9,170.6,173.4,171.1z"></path><path class="st1" d="M175.4,170c5.9-1.4,11.7-3.4,17.2-5.9"></path><path class="st0" d="M177.4,170.7c6-1.5,11.8-3.4,17.5-5.9c0.6-0.3-1.5-0.9-1.6-0.9c-0.8-0.2-2.2-0.6-3.1-0.2
		c-5.5,2.4-11.1,4.4-16.9,5.8c-1,0.2,0.5,0.7,0.8,0.8C175.1,170.6,176.3,170.8,177.4,170.7L177.4,170.7z"></path><path class="st0" d="M229.7,154.9c0,0,15,22.2-4.5,37.7c-15.4,12.3-30.2,0.8-30.2,0.8L229.7,154.9z"></path><path class="st0" d="M227.4,154.2c4,6.1,5.9,13.4,5.3,20.6c-1.5,13.8-16.1,25.2-29.9,22.1c-0.5-0.1-1-0.3-1.4-0.4
		c0.3,0.1-0.1,0-0.1,0s0.4,0.1-0.1,0c-0.2-0.1-0.4-0.1-0.6-0.2c-0.5-0.2-1.4-0.7-2-1.1c-0.4-0.2-0.8-0.5-1.2-0.8
		c-0.2-0.3-0.1,0.1-0.1-0.1c0.2-0.5,0.9-1,1.2-1.4l2.6-2.9l17.6-19.6l8.4-9.3l2.9-3.2c0.6-0.5,1.1-1.1,1.6-1.8
		c0.1-0.1,0.1-0.2,0.2-0.2c-0.7-0.5-1.5-0.8-2.3-1.1C229.4,154.6,227.7,153.8,227.4,154.2l-11.8,13.1L196.9,188l-4.3,4.8l0.1,0.1
		c3.3,2.3,7.1,4.1,11,5.1c6.8,2.1,13.8,1.8,20.1-1.7s11.6-9.6,13.2-16.7c1.1-5.2,0.7-10.6-1.1-15.6c-0.9-2.8-2.2-5.6-3.8-8.1
		c-0.4-0.7-2.1-1-2.8-1.2C228.9,154.4,227.2,154,227.4,154.2z"></path><path class="st1" d="M194.9,193.5l34.7-38.5c3.2,8.7,2.3,18.3-2.4,26.3C219.3,194.4,205.4,196.3,194.9,193.5z"></path><path class="st0" d="M196.9,195l11.8-13.1l18.7-20.7l4.3-4.8l-4.2-0.8c0.1,0.1,0.1,0.3,0.2,0.4s0.1,0.3,0.1,0.4s0.2,0.6,0,0
		c0.1,0.2,0.1,0.3,0.1,0.5c0.4,1.4,0.7,2.9,0.9,4.4c0.7,4.6,0.2,9.4-1.4,13.8c-3.2,8.6-10.4,15.3-19.6,16.8
		c-4.2,0.7-8.5,0.4-12.6-0.7c-1.2-0.3-2.4,0.4-2.7,1.6c0,0,0,0,0,0.1c0,1.3,0.9,2.4,2.2,2.6c8.6,2.3,18.2,1.3,25.7-3.7
		c9.5-6.3,14.4-17.8,13.5-29c-0.2-3-0.9-6-2-8.8c-0.6-1.3-2.2-1.9-3.5-1.3c-0.3,0.1-0.5,0.3-0.7,0.5l-11.7,13.1l-18.7,20.7L193,192
		C191,194.2,195,197.1,196.9,195z"></path><path class="st1" d="M210.6,176.5c-2.4,5.9-4.3,12.1-5.5,18.3"></path><path class="st0" d="M208.3,175.5c-2.5,6.1-4.4,12.4-5.6,18.8c-0.2,1.2,1.4,2.1,2.3,2.4c1.1,0.2,2.2-0.1,2.5-1.3
		c1.2-6.1,3-12.1,5.4-17.9C213.8,175.3,209.2,173.3,208.3,175.5L208.3,175.5z"></path><path class="st1" d="M211.1,175.8l11.2,11.3"></path><path class="st0" d="M209.7,177.2l11.2,11.3c0.8,0.8,2.2,1.4,3.1,0.5c0.8-1,0.7-2.3-0.3-3.2l-11.2-11.3c-0.7-0.7-2.2-1.4-3.1-0.5
		C208.7,175,208.8,176.4,209.7,177.2z"></path><path class="st1" d="M212.1,175.7c5.9-1.4,11.7-3.4,17.2-5.9"></path><path class="st0" d="M212.5,177.2c6.1-1.5,12.1-3.5,17.8-6.1c0.8-0.3,1.9-1.4,1.2-2.3s-2.4-0.6-3.2-0.2c-5.4,2.4-10.9,4.3-16.6,5.6
		c-0.9,0.2-2.3,1.1-2,2.1S211.7,177.4,212.5,177.2L212.5,177.2z"></path><path class="st0" d="M254.9,150.7c0,0,23.7,12.4,13.9,35.3c-7.8,18.2-26.2,15.1-26.2,15.1L254.9,150.7z"></path><path class="st0" d="M253,152.1c6.5,3.7,11.6,9.5,14.5,16.4c2.3,6.6,1.2,13.8-2.1,19.9c-1.5,2.9-3.6,5.5-6.2,7.5
		c-2,1.5-4.3,2.6-6.8,3.2c-0.4,0.1,0.4-0.1,0,0l-0.5,0.1c-0.3,0.1-0.7,0.1-1,0.2c-0.6,0.1-1.2,0.2-1.9,0.3c-0.3,0,0.4,0,0.1,0h-0.4
		l-0.9,0.1c-0.5,0-0.9,0-1.4,0c-0.5,0-0.9,0-1.2,0c-0.6,0,0.2,0,0,0h-0.4c-0.2,0-0.5-0.1-0.8-0.1l1,1l4.2-17.1l6.6-27.1l1.5-6.2
		c0.3-1.1-1.6-1.1-2.2-1c-1,0.2-2.4,0.8-2.6,1.9l-4.2,17.1l-6.6,27.1l-1.5,6.2c-0.1,0.6,0.6,1,1,1c3.2,0.4,6.4,0.3,9.6-0.3
		c6.6-1.2,12.5-4.7,16.6-10c4.7-6.1,7.1-14.4,5.7-22c-1.2-5.7-4.2-10.8-8.4-14.8c-2.4-2.4-5.1-4.4-8-6
		C255.2,148.6,250.9,150.9,253,152.1z"></path><path class="st1" d="M242.6,201.1l12.3-50.4c6.9,6.1,10.7,15,10.4,24.3C264.4,190.4,253.1,198.6,242.6,201.1z"></path><path class="st0" d="M245,200.7l4.2-17.1l6.6-27.1l1.5-6.2l-4.6,1.4c4.5,3.6,7.6,9.1,9.1,14.6c2.7,9.7,0.3,20.8-7.4,27.7
		c-3.4,3.1-7.6,5.2-12.1,6.3c-0.5,0.1-2.4,0.8-2.1,1.6s2.2,0.3,2.7,0.2c9.5-2.3,18.5-8.3,22.5-17.5c4.2-9.6,2.6-21-3.4-29.4
		c-1.3-2-3-3.8-4.8-5.3c-0.9-0.8-4.3,0.1-4.6,1.4l-4.2,17.1l-6.6,27.1l-1.5,6.2C239.9,202.9,244.6,202.1,245,200.7z"></path><path class="st1" d="M248.3,178.7c0.7,6.4,1.9,12.6,3.9,18.8"></path><path class="st0" d="M245.9,179.3c0.7,6.4,2,12.6,3.9,18.8c0.5,1.1,1.7,1.7,2.9,1.4c1-0.2,2.4-1.3,2-2.5
		c-1.9-6.1-3.2-12.4-3.9-18.8c-0.1-1.3-1.9-1.6-2.9-1.4C246.6,177,245.8,178.1,245.9,179.3z"></path><path class="st1" d="M248.5,177.9l15.2,4.6"></path><path class="st0" d="M246.7,178.5l15.3,4.6c1.2,0.3,2.4,0.3,3.5,0c0.2-0.1,0.7-0.2,0.7-0.6s-0.5-0.5-0.7-0.5l-15.2-4.6
		c-1.2-0.3-2.4-0.3-3.5,0c-0.2,0.1-0.7,0.2-0.7,0.6S246.5,178.4,246.7,178.5L246.7,178.5z"></path><path class="st1" d="M249.3,177.4c4.5-4.1,8.7-8.6,12.4-13.4"></path><path class="st0" d="M250.6,179.5c4.6-4.1,8.8-8.7,12.6-13.6c0.2-0.3,0-1.1-0.1-1.3c-0.2-0.6-0.6-1.2-1-1.7c-0.4-0.5-1.4-1.6-2-0.8
		c-3.7,4.7-7.7,9.1-12.2,13.1c-0.7,0.6,0.1,2.1,0.5,2.7C248.7,178.3,250,180.1,250.6,179.5L250.6,179.5z"></path></g></svg>