<svg transform="scale(1)" version="1.1" id="Layer_1" xmlns="http://www.w3.org/2000/svg" xmlns:xlink="http://www.w3.org/1999/xlink" x="0px" y="0px" viewBox="0 0 500 500" xml:space="preserve" class="show_show__wrapper__graphic__5Waiy "><title>React</title><style type="text/css">
	.st0{fill:#FFFFFF;}
	.st1{fill:#000005;}
	.st2{fill:#CB997E;}
</style><g id="plate"><path class="st0" d="M218.5,71c-4.2,0.9-191.3,35.3-185.4,217.1s227,186,355.1,76.8C521.6,251.1,498.9,14.3,218.5,71z"></path><path class="st1" d="M218.7,68.9c-5.6,1.1-11.1,2.5-16.6,4c-13,3.6-25.7,8.2-38,13.6c-16.7,7.2-32.6,16.1-47.4,26.5
		c-17.1,12-32.4,26.5-45.4,42.9c-14.5,18.6-25.4,39.8-32.1,62.5c-7.9,27-10.2,55.7-7.5,83.7c2.3,24.1,9,47.9,21.7,68.6
		c11.3,18.3,26.9,33.6,45.3,44.6c18.9,11.4,40.2,18.3,62,21.7c23.4,3.7,47.3,3.3,70.8,0.1c25.2-3.5,49.9-10.2,73.4-19.9
		c24.4-9.9,47.5-22.9,68.7-38.5c18.3-13.4,34.7-29.2,48.8-46.9c12.5-15.8,22.8-33.2,30.8-51.7c7.6-17.6,12.6-36.1,15-55.1
		c2.2-17.9,1.5-36-2.1-53.7c-3.5-17-10.4-33.1-20.1-47.5c-10.4-15-23.8-27.7-39.5-37.2c-18.2-11.2-38.8-18.2-59.8-22.2
		c-26.6-5-53.9-5.1-80.8-2.6C250,63.4,234.2,65.7,218.7,68.9c-1.3,0.2-2.3,1.2-2.5,2.4c0,0.9,0.7,1.7,1.6,1.7c0.2,0,0.4,0,0.6-0.1
		c29.8-6,60.2-9.6,90.6-8.4c23.3,0.9,46.6,4.7,68.5,13c17.8,6.8,34.4,16.7,48.1,29.9c12.4,11.9,22.1,26.3,28.6,42.1
		c6.5,16,10,32.9,10.5,50.1c0.5,18.2-1.8,36.4-6.7,53.9c-5.2,18.5-12.9,36.3-22.8,52.8c-10.4,17.4-23.1,33.3-37.7,47.4
		c-17.9,17.2-38.5,31.8-60.2,43.8c-22.2,12.3-45.8,21.8-70.2,28.3c-23.3,6.3-47.4,9.5-71.6,9.5c-22.4-0.1-44.9-3.4-66.1-10.9
		c-19.7-7-38.1-17.9-53-32.7c-15.6-15.5-26.7-35-33.2-55.9c-8-26-9.5-53.9-6.7-80.9c2.5-24.9,9.5-49.3,21.3-71.4
		c10.3-19,23.7-36.1,39.7-50.6c14.2-12.8,29.9-23.8,46.7-32.9c13.6-7.3,27.8-13.5,42.4-18.6c2.9-1,5.9-2,8.8-2.9
		c1.3-0.4,2.6-0.8,4-1.2l1.8-0.5l0.4-0.1c0.3-0.1-0.6,0.2-0.1,0l1.1-0.3c3.7-1,7.4-2,11.2-2.8c1.5-0.3,3-0.6,4.5-1
		c1.3-0.2,2.3-1.2,2.5-2.4c0-0.9-0.8-1.6-1.7-1.6C218.9,68.9,218.8,68.9,218.7,68.9z"></path><path class="st1" d="M109,341.2c0.6,2.9,1.5,5.7,2.7,8.3c3,7,7.2,13.4,12.4,19c7.6,8.1,16.9,14.4,27.2,18.5
		c15.2,6.2,31.7,8.5,48.1,8.6c24.3,0.1,48.8-4.2,72.1-10.7c21.9-6,43-14.9,62.5-26.6c16-9.6,30.8-21.1,44-34.3
		c10.6-10.7,20.1-22.4,28.4-35.1c5.9-9.1,11.1-18.6,15.5-28.5c2.2-4.7,4-9.6,5.6-14.6c0.1-0.2,0.1-0.4,0.2-0.7c0.8-3-4-3.6-4.7-0.9
		c-1,3.4-2.2,6.7-3.5,9.9c-3.4,8.6-7.6,16.9-12.3,24.8c-7,11.8-15,22.9-24.1,33.1c-11.5,13-24.5,24.6-38.8,34.5
		c-17.4,12-36.2,21.6-56.1,28.6c-23.4,8.4-47.9,13.6-72.7,15.5c-17.6,1.3-35.6,0.6-52.6-4.4c-11.2-3.1-21.6-8.7-30.4-16.3
		c-1.7-1.5-3.4-3.2-5-4.9l-0.6-0.6c0.4,0.4-0.2-0.2-0.2-0.3c-0.4-0.4-0.7-0.9-1.1-1.3c-0.7-0.8-1.3-1.6-1.9-2.4
		c-2.2-2.9-4.1-5.9-5.7-9.1c-0.3-0.7-0.7-1.3-1-2c-0.2-0.5,0,0.1,0-0.1l-0.2-0.4l-0.4-1c-0.5-1.1-0.9-2.2-1.3-3.3
		c-0.5-1.4-0.8-2.8-1.2-4.2c0-0.2-0.1-0.4-0.1-0.5C113.3,337.1,108.5,338.4,109,341.2L109,341.2z"></path><path class="st1" d="M392,146.5c-1.9-2.7-4-5.3-6.3-7.7c-5.9-6.3-12.4-12-19.4-17c-10.2-7.2-21.3-13-33.1-17.1
		c-15.4-5.3-31.5-8.2-47.8-8.4c-21.4-0.4-42.8,3.2-63.3,9.4c-2.9,0.9-5.8,1.8-8.7,2.8c-0.7,0.2-1.6,0.8-0.8,1.5s2.6,0.5,3.4,0.2
		c20.2-6.8,41.3-11.3,62.7-11.7c16-0.4,31.9,1.8,47.1,6.6c11.9,3.8,23.2,9.2,33.5,16.2c7.3,4.9,14,10.6,20.1,16.9
		c1.9,2,3.7,4,5.3,6.1c0.8,1,1.5,2,2.2,2.9c0,0,0.1,0.1,0.1,0.1C388,148.5,392.8,147.7,392,146.5L392,146.5z"></path></g><g id="sauce"><path class="st1" d="M125.2,377.8c0,0-30-18.9-13.1-54.7s55.2-28,55.2-28s19.9-12.1,26.6-4.8s0.5,29.5,0.5,29.5s15,15.5,2.9,42.6
		s-45.5,31.5-63.4,22.3c0,0-4.9,20.8-15.5,18.9s-10.7-8.2-10.7-8.2L125.2,377.8z"></path><path class="st1" d="M127.2,376.5c-4.5-3-8.3-6.9-11.2-11.5c-2.9-4.2-4.9-9-6-14c-1.3-6.5-1-13.2,0.9-19.6
		c2-7.4,5.6-14.4,10.5-20.4c3.6-4.4,8.2-8,13.3-10.6l0.1,0l0.5-0.2l0.9-0.4c0.6-0.3,1.2-0.5,1.9-0.8l0.6-0.2l0.8-0.3
		c0.6-0.2,1.3-0.4,2-0.6c2.2-0.7,4.5-1.2,6.7-1.5c3.8-0.6,7.6-0.8,11.4-0.6c1.3,0.1,2.6,0.2,3.8,0.3l0.7,0.1l0.5,0.1l0.6,0.1
		c0.3,0.1,0.7,0.1,1,0c0.8-0.2,1.6-0.5,2.3-1c0,0-0.7,0.4-0.1,0.1s1.2-0.7,1.8-1l1.2-0.6l0.6-0.3l0.4-0.2c0.6-0.3-0.3,0.1,0.1,0
		c4.4-2.1,9.4-4.4,14.6-4c2.2,0.1,4.3,1.2,5.6,3c1.4,2.2,2.1,4.7,2.3,7.3c0.5,5.6-0.4,11.3-1.5,16.8c-0.2,0.9-0.4,1.8-0.6,2.7
		c-0.2,0.5-0.3,0.9-0.4,1.4c0,0.5,0.3,0.7,0.6,1.1c6.2,7.6,7.9,18.2,6.5,27.6c-1.1,7.9-4.2,15.5-8.9,22c-3.7,4.9-8.5,8.9-14,11.7
		c-10.5,4.9-22.3,6-33.5,3c-2.4-0.7-4.8-1.6-7-2.7c-1.1-0.5-4,1.2-4.2,2.3c-1,4.3-2.6,8.3-4.8,12.1c-0.7,1.2-1.6,2.4-2.6,3.4
		c-0.2,0.2-0.3,0.3-0.5,0.5c0,0-0.6,0.5-0.2,0.2l-0.3,0.2c-0.6,0.4,0.3-0.1-0.1,0s0.6-0.2-0.1,0l-0.3,0.1c-1.7,0.4-3.7-0.2-5.3-0.7
		c-1.8-0.5-3.5-1.4-5-2.7c-0.9-0.8-1.7-1.9-2.1-3.1c-0.1-0.3-0.2-0.7-0.3-1.1c-0.1-0.4,0,0,0-0.3l-0.4,0.6l15.2-15.2l2.2-2.2
		c0.7-0.7,0.3-1.1-0.5-1c-1.2,0.2-2.3,0.8-3.1,1.7l-8.7,8.7l-6,6c-0.9,0.9-1.9,1.8-2.7,2.7s0,2.7,0.6,3.7c1.6,2.7,4.6,4.2,7.5,5
		c3.4,1.1,7,0.7,10.1-1.1c2.8-1.6,5.1-3.9,6.8-6.7c2.4-4,4.2-8.3,5.2-12.8l-4.2,2.3c11.8,6,26.6,5.6,38.8,1.2
		c7.4-2.6,14.1-6.7,19.6-12.2c6.1-6.3,10.4-14,12.5-22.5c2.9-11,2-24.3-5.6-33.4c-0.2-0.2-0.3-0.4-0.5-0.6c0,0.1,0,0.3,0,0.1
		s0.1-0.5,0.2-0.7c0.6-2.1,1-4.3,1.4-6.5c0.6-3.3,0.9-6.6,1-10c0.1-3.1-0.3-6.2-1.3-9.2c-0.9-2.5-2.9-4.4-5.4-5.1
		c-3-0.6-6.1-0.5-9,0.4c-5.6,1.5-10.9,3.7-15.8,6.6c-0.5,0.3-0.9,0.5-1.4,0.8l3-1c-4.4-0.8-8.9-1-13.4-0.6c-10,0.6-19.7,3.9-28,9.4
		c-11.2,7.8-19.1,19.5-22.1,32.8c-2.6,10.7-0.8,22,5.1,31.3c2,3.2,4.5,6,7.2,8.6c1.4,1.4,3,2.7,4.7,3.8c0.1,0.1,0.2,0.1,0.2,0.2
		C124.2,379.8,128.1,377,127.2,376.5z"></path><path class="st2" d="M154.1,308.1c-23.2,1-37.7,25.5-28.3,46.8c1.7,3.8,3.9,7.2,6.6,10.3c16.5,18.9,50.9,9.7,55.7-11.6
		s-4.4-31.5-4.4-31.5s-1.3-15.9-4.2-15.6c-9.7,0.8-14.6,2.7-14.6,2.7C161.4,308.3,157.8,307.9,154.1,308.1z"></path><path class="st2" d="M151.9,307.3c-8.3,0.4-16.2,3.9-22,9.9c-5.6,5.8-8.9,13.4-9.3,21.5c-0.5,9.6,3.3,18.7,9.5,25.9
		c5.4,6.2,13.4,9.6,21.4,11.1c13.8,2.5,30.6-2.9,37.2-16.1c2-3.9,2.7-8.4,3.1-12.7c0.4-4.3,0.2-8.6-0.6-12.8c-0.6-2.8-1.5-5.5-2.8-8
		c-0.4-0.7-0.8-1.5-1.3-2.1c-0.3-0.3-0.5-0.7-0.8-1.1c-0.1-0.2,0,0.1,0,0c0-0.2-0.1-0.5-0.1-0.7c-0.1-1.1-0.2-2.2-0.4-3.4
		c-0.3-3-0.9-6-1.8-8.8c-0.2-1-0.8-1.9-1.5-2.6c-1.8-1.2-4-1.8-6.2-1.5c-4.1,0.3-8.2,1-12.2,2.1c-0.5,0.1-1,0.3-1.5,0.5l2.4,0.5
		C160.7,307.6,156.3,307.1,151.9,307.3c-0.4,0,1.4,0.9,1.5,0.9c0.9,0.4,2,0.7,3,0.7c2.6-0.1,5.1,0,7.6,0.5l0.8,0.1
		c0.2,0,1.1,0.3,0.3,0.1c0.1,0,0.6,0.2,0,0c-1-0.3,0.9,0.2,0.9,0.2c0.4,0.1,0.8,0.2,1.1,0.1c0.5-0.1,1-0.3,1.5-0.5
		c1.4-0.4,2.9-0.8,4.4-1c2.5-0.5,5-0.8,7.6-1.1c0.4,0,0.8,0,1.2-0.1l-3.9-1.2l0,0c0.1,0.1,0.3,0.3,0.4,0.4c0.3,0.4,0.5,0.9,0.7,1.4
		c0.9,2.8,1.6,5.8,1.8,8.8c0.2,1.2,0.3,2.4,0.4,3.6c0,0.4,0,0.8,0.2,1.1c0.2,0.3,0.4,0.5,0.6,0.7c0.4,0.6,0.9,1.3,1.2,2
		c3.4,6,4.2,13.2,3.8,20c-0.3,4.4-1,9.1-2.8,13.2c-1.5,3.1-3.6,5.9-6.1,8.3c-5.5,4.8-12.3,7.9-19.5,8.7c-3.6,0.5-7.2,0.4-10.8-0.3
		c-1.2-0.2-2.5-0.6-3.6-1.1c-1.7-0.8-3.3-1.7-4.8-2.8c-7.5-5.8-12.5-14.3-13.8-23.7c-2.2-16.3,8.4-32.7,24.6-36.6
		c2.1-0.5,4.2-0.8,6.3-0.9c0.4,0-1.4-0.9-1.5-0.9C153.9,307.6,152.9,307.3,151.9,307.3z"></path><path class="st0" d="M151.3,327.9c-5.5,1.3-11.3,4.1-14.3,9.2c-3.2,5.4-1.5,12.2,2.9,16.5s10.8,6.4,16.9,6.3c3.1,0,6.1-0.7,8.9-2.1
		c2.9-1.5,5.3-3.8,7-6.6c3.3-5.3,6.6-14.2,0-18.5c-1.1-0.6-2.4-0.5-3.5,0.2c-0.8,0.5-1.4,1.7-0.4,2.3c4.7,3,2.6,9.4,0.5,13.4
		c-1.1,2.4-2.8,4.4-4.8,6c-1.8,1.1-3.8,1.8-5.9,1.9c-4.8,0.3-9.5-1.2-13.3-4.2c-3.8-3.1-6.2-8.5-4.4-13.2c1.7-4.6,6.6-7.1,11.2-8.2
		c0.9-0.2,2.3-1,2.1-2.1S152.2,327.7,151.3,327.9L151.3,327.9z"></path><path class="st0" d="M159.5,339.7l0.6-0.6c0.1-0.1,0.2-0.3,0.2-0.4c0.1-0.2,0-0.3-0.1-0.4c-0.1-0.1-0.3-0.3-0.5-0.3
		c-0.2-0.1-0.5-0.2-0.7-0.2h-0.6c-0.4,0-0.9,0.1-1.3,0.2l-0.6,0.2c-0.3,0.1-0.6,0.3-0.9,0.5l-0.6,0.6c-0.1,0.1-0.2,0.3-0.2,0.4
		c-0.1,0.1,0,0.3,0.1,0.4c0.1,0.2,0.3,0.3,0.5,0.3c0.2,0.1,0.5,0.2,0.7,0.2h0.6c0.4,0,0.9-0.1,1.3-0.2l0.6-0.2
		C159,340.1,159.3,339.9,159.5,339.7L159.5,339.7z"></path><path class="st0" d="M143,323.9l3.4-0.6c0.4-0.1,0.8-0.4,0.8-0.9c0-0.5-0.2-1-0.5-1.4c-0.4-0.5-0.9-0.9-1.6-1.1l-0.6-0.2
		c-0.3-0.1-0.7-0.1-1,0l-3.4,0.6c-0.4,0.1-0.8,0.4-0.8,0.9c0,0.5,0.2,1,0.5,1.4c0.4,0.5,0.9,0.9,1.6,1.1l0.6,0.2
		C142.3,323.9,142.7,323.9,143,323.9z"></path><path class="st0" d="M169.5,325.2h1.1c0.2,0,0.3,0,0.5-0.2c0.1-0.1,0.2-0.2,0.2-0.4c0-0.2-0.1-0.4-0.2-0.5
		c-0.1-0.2-0.3-0.4-0.5-0.6l-0.5-0.4c-0.3-0.3-0.7-0.5-1.1-0.7l-0.6-0.2c-0.3-0.1-0.7-0.2-1-0.1h-1.1c-0.2,0-0.3,0-0.4,0.2
		c-0.1,0.1-0.2,0.2-0.2,0.4c0,0.2,0.1,0.4,0.2,0.5c0.1,0.2,0.3,0.4,0.5,0.6l0.5,0.4c0.3,0.3,0.7,0.5,1.1,0.7l0.6,0.2
		C168.9,325.2,169.2,325.2,169.5,325.2L169.5,325.2z"></path></g><g id="meat"><path class="st2" d="M150.8,172.1c0,0,8.1,31.4,20.3,37s45.1-13,72.8,0s28.8,55.5,84.8,69.6s93.8-34.3,91.1-79.1L150.8,172.1z"></path><path class="st2" d="M148.5,172.1c2.1,8.1,5,16,8.8,23.5c2.5,4.9,5.6,10.1,10,13.5c4.1,3.2,9,3.6,14.1,3.1
		c6.7-0.7,13.2-2.2,19.8-3.4c7.6-1.5,15.3-2.2,23-2.1c7.4,0.2,14.7,2.1,21.3,5.6c0.5,0.3,0.9,0.5,1.4,0.8l0.7,0.4
		c0.4,0.3,0.1,0.1,0,0l0.5,0.3c0.9,0.6,1.8,1.3,2.6,2s1.7,1.5,2.6,2.2l1.1,1.1l0.6,0.7l0.3,0.4c6.7,7.2,11.9,15.6,17.8,23.4
		c7.2,9.5,15.5,18.1,25.5,24.6c13.1,8.4,28,13.6,43.5,15c14.1,1.3,28.2-1.7,40.6-8.6c11.5-6.6,21-16.1,27.7-27.5
		c6.8-11.4,10.8-24.2,11.7-37.4c0.2-3.2,0.2-6.3,0-9.5c0-1.5-1.2-2.8-2.8-2.8l-7.2-0.7l-19.5-2l-29-3l-35.3-3.6l-38.6-4l-39.1-4
		l-36.3-3.7l-30.8-3.2l-22.1-2.2c-3.5-0.4-7-0.8-10.5-1.1l-0.4-0.1c-1,0-1.8,0.7-1.9,1.8C148.5,171.8,148.5,171.9,148.5,172.1
		c0.3,1.3,1.4,2.2,2.7,2.2l7.2,0.7l19.6,2l29,3l35.3,3.6l38.6,3.9l39.1,4l36.3,3.7l30.8,3.2l22.1,2.3c3.5,0.4,7,0.8,10.5,1.1h0.5
		l-2.8-2.8c0.7,12.7-1.7,25.4-6.9,37c-5.1,11.7-13.1,21.8-23.2,29.6c-10.6,8-23.4,12.6-36.7,13.2c-14.9,0.6-30.2-3.5-43.4-10.4
		c-10.4-5.6-19.6-13.2-27-22.4c-6.3-7.7-11.6-16.2-17.9-23.9c-2.9-3.6-6.1-6.9-9.6-9.8c-4.6-3.6-9.9-6.3-15.5-7.9
		c-15.1-4.4-30.8-1.4-45.8,1.5c-5.4,1.1-11.1,2.4-16.6,2c-0.9-0.1-1.7-0.3-2.5-0.5l-0.4-0.1c0.1,0,0.4,0.2,0.1,0l-0.6-0.3l-0.8-0.4
		c0,0-0.4-0.2-0.1,0s-0.3-0.2-0.3-0.2c-1.9-1.4-3.5-3.1-4.8-5c-3.2-4.6-5.7-9.7-7.7-14.9c-1.6-4-3-8.1-4.2-12.2
		c-0.2-0.6-0.4-1.3-0.5-2c-0.3-1.3-1.4-2.2-2.7-2.3c-1,0-1.8,0.7-1.9,1.8C148.5,171.8,148.5,172,148.5,172.1z"></path><path class="st0" d="M239.7,81.3c0,0,72.1-13.3,124.9,19.4s68.8,69.5,49.4,116.2s-88.8,44.7-114.2,28.7s-42.7-64.1-70.8-58.1
		s-84.8,16-79.5-32.7S203.7,91.3,239.7,81.3z"></path><path class="st2" d="M241.8,82.8c4.5-0.8,9-1.3,13.5-1.7c11.2-1,22.5-1.2,33.7-0.7c14.7,0.6,29.2,3,43.4,6.9
		c7.7,2.2,15.2,5,22.4,8.5c7.5,3.7,14.7,8.1,21.5,13c11.9,8.5,23.1,18.5,31.2,30.8c7,10.3,11.3,22.3,12.3,34.8
		c0.9,13.3-2,26.6-6.9,39c-4.3,11.2-11.9,20.8-21.8,27.6c-9.6,6.5-20.8,10.3-32.2,12.2c-11.2,1.8-22.6,1.8-33.8,0.1
		c-8.8-1.3-18.5-3.8-25.9-8.4c-0.9-0.6-1.7-1.1-2.5-1.8c-1-0.8-2.1-1.7-3.1-2.6c-2.3-2.1-4.4-4.3-6.5-6.6
		c-4.4-4.9-8.5-10.2-12.6-15.4c-7.9-10-15.8-20.3-26.6-27.4c-4.4-2.9-9.3-5.2-14.7-5.6c-4.6-0.3-9.2,1.1-13.7,2
		c-9.9,2.1-20,3.3-30.1,3.6c-9.2,0.2-19.5-0.6-27.7-5.2c-0.2-0.1-0.2-0.1-0.5-0.3l-0.3-0.2l0,0c-0.1-0.1-0.7-0.5-0.3-0.2
		c-0.1-0.1-0.2-0.1-0.3-0.2c-0.2-0.2,0.3,0.2-0.1-0.1c-0.1-0.1-0.2-0.1-0.3-0.2c-0.1,0-0.5-0.4-0.4-0.3c-0.4-0.3-0.8-0.7-1.1-1.1
		c-1.5-1.5-2.8-3.3-3.8-5.2c-2.4-4.6-3.6-9.8-3.6-15c-0.2-13.4,3.8-26.5,11.4-37.5c7.1-10.2,17-18,27.8-24
		c11-6.1,22.8-10.5,34.8-14.3C230.8,85.9,236.3,84.3,241.8,82.8c-0.5-0.6-1.1-1.1-1.8-1.6c-0.5-0.3-1.6-1.4-2.2-1.2
		c-11.9,3.3-23.9,6.8-35.4,11.5c-11.8,4.8-23.3,10.9-32.8,19.4c-9.8,8.6-16.8,19.9-20.1,32.4c-2.8,10.9-4,24.3,2.5,34.3
		c5.4,8.2,15.1,13.3,24.6,15.2c10.1,2.1,20.7,1.6,30.9,0.4c5-0.6,9.9-1.4,14.8-2.3c4.6-0.9,9.3-2.4,14-2.3c2.6,0.1,5.1,0.5,7.5,1.4
		c2.2,0.8,4.2,1.9,6.1,3.2c-0.2-0.1,0.4,0.3,0.5,0.4l0.5,0.4c0.6,0.4,1.1,0.9,1.6,1.3c1.1,1,2.2,2,3.2,3c2.3,2.3,4.4,4.6,6.5,7.1
		c8.6,10.2,16.2,21.3,25.7,30.8c4.5,4.5,9.5,8.5,15,11.6c3.9,2.2,8.1,3.9,12.4,5.2c10.4,3.1,21.2,4.6,32,4.4
		c11.7,0,23.4-2.2,34.4-6.4c10.9-4.3,20.8-11.1,27.9-20.6c3.8-5.4,6.8-11.3,8.9-17.6c2.4-6.5,4.1-13.3,5.1-20.2
		c1.7-12.4,0.2-25.1-4.5-36.7c-5.2-12.8-14.1-23.7-24.1-33c-6.2-5.7-12.8-11-19.7-15.8c-7.2-5.2-14.9-9.8-22.8-13.8
		c-14.3-6.8-29.6-11.4-45.3-13.7c-21.8-3.2-43.9-3.3-65.7-0.3c-1.1,0.2-2.3,0.3-3.4,0.6c0,0,1.7,1.6,1.9,1.7
		C240.1,81.9,241.1,82.9,241.8,82.8z"></path><path class="st2" d="M241,93.8c0,0,30.5,5.9,47.7,33.2s-6.2,42.7-34.8,52c0,0-18.2-9.1-45,0s-58.2,0.5-41.9-37.5
		S233.6,91.7,241,93.8z"></path><path class="st2" d="M240.2,95.9c1,0.2,2,0.5,3,0.8s2.2,0.7,3.4,1l2,0.7l0.6,0.2c-0.1,0-0.4-0.2,0,0l1.4,0.6
		c8.1,3.2,15.6,7.7,22.2,13.2c4.1,3.5,7.9,7.5,11.1,11.9c3.3,4.5,6.2,9.4,7.5,14.9c1,4,0.8,8.1-0.5,12c-1.4,3.7-3.8,7.1-6.7,9.7
		c-8.5,7.9-20,12.4-30.8,16l1.9,0.2c-3.8-1.7-7.8-2.9-11.9-3.5c-10.1-1.6-20.5-0.9-30.3,1.8c-4.4,1.2-8.6,2.8-13.1,3.7
		c-3.5,0.7-7.1,1.1-10.7,1c-3.2,0-6.5-0.4-9.6-1.3c-1.4-0.4-2.8-0.9-4.1-1.5c-0.6-0.3-1.2-0.6-1.9-1l-0.9-0.6
		c-0.1-0.1-0.5-0.3-0.1-0.1l-0.5-0.4c-2.3-1.7-4.2-3.9-5.3-6.5c-0.3-0.6-0.5-1.2-0.7-1.8c-0.2-0.8-0.4-1.5-0.6-2.3
		c-0.4-1.7-0.5-3.4-0.4-5.1c0.1-8.8,3.7-17.7,8.2-25.1c8.4-13.8,21.7-23.7,36.2-30.5c1.6-0.7,3.2-1.5,4.9-2.1
		c0.8-0.3,1.6-0.6,2.4-0.9l0.3-0.1l0.5-0.2l1.4-0.5c2.9-1,5.8-1.9,8.7-2.7c2.4-0.6,4.8-1.1,7.2-1.5l0.8-0.1c0.3,0-0.6,0.1,0.2,0
		c0.5,0,0.9-0.1,1.4-0.1c0.7,0,1.5,0,2.2,0h0.4c0.5,0-0.6-0.2-0.1,0C239.8,95.9,240,95.9,240.2,95.9c2.9,0.8,4.7-3.4,1.6-4.3
		c-2.6-0.7-5.7-0.2-8.3,0.2c-4.3,0.7-8.5,1.7-12.6,3c-11.7,3.7-22.8,9.3-32.6,16.7c-11.4,8.7-20.5,20.1-25.3,33.6
		c-4,11.1-5,25.3,5.5,33.3c9.3,7,22.2,7,33.1,4.8c3.3-0.8,6.6-1.7,9.8-2.8c4.6-1.5,9.2-2.5,14-3c6.8-0.8,13.7-0.4,20.4,1.1
		c1.1,0.3,2.2,0.6,3.2,0.9c0.4,0.1,0.8,0.3,1.2,0.4l0.6,0.2c0.6,0.2-0.2-0.1,0.1,0c0.9,0.5,2,0.8,3,1c1.1-0.1,2.2-0.5,3.2-0.9
		c1.1-0.4,2.1-0.7,3.2-1.1c1.9-0.7,3.9-1.4,5.8-2.2c3.6-1.5,7-3.1,10.4-5c6-3.4,11.8-7.5,15.9-13.2c3.7-5.1,5.4-11.4,4.6-17.7
		c-0.9-7.8-5.2-15-10-21.1c-4.8-6.1-10.5-11.4-16.9-15.8c-8.1-5.6-17.1-9.7-26.7-12.1c-0.5-0.1-1-0.2-1.5-0.3
		c-1.3-0.3-2.6,0.4-3.1,1.6c-0.3,1.1,0.3,2.3,1.4,2.6C240.1,95.9,240.1,95.9,240.2,95.9z"></path><path class="st2" d="M285.6,91.1c0,0,38.1-1.9,79.2,21.4s40.7,51.4,40.7,51.4s-28.3-11.8-60,13.9s-22,63.8-22,63.8
		s-39.1-16.6-49.3-39.7c0,0,41.8-20.9,37.5-61.6S285.6,91.1,285.6,91.1z"></path><path class="st2" d="M287.2,92c1.4-0.1,2.8,0,4.2,0c1.9,0,2.8,0.1,4.6,0.2c2.2,0.2,4.4,0.4,6.6,0.6c12.9,1.5,25.6,4.6,37.7,9.2
		c15.2,5.7,30.1,13.5,42.1,24.5c7.5,6.8,13.9,15,17.7,24.4c1.1,2.7,1.9,5.5,2.5,8.3c0.2,1.3,0.3,2.7,0.5,4c0,0.1,0,0.1,0,0.2
		l3.8,0.4c-5.1-1.9-10.4-3-15.8-3.2c-11.8-0.6-23.5,2-33.9,7.5c-12.5,6.5-23.5,16.3-30.1,28.8c-4.6,9-7.1,18.9-7.2,29.1
		c-0.1,3.4,0.1,6.7,0.5,10.1c0.1,1.7,0.4,3.4,0.9,5.1c0,0.1,0,0.1,0,0.2l3.8,0.2c-4.6-2-9-4.2-13.4-6.8
		c-8.9-5.1-17.6-10.9-24.9-18.2c-4.2-4-7.6-8.8-10.1-14.1l-0.1,0.4c4.2-2.2,8.1-4.8,11.8-7.8c8.1-6.2,14.8-14,19.7-22.9
		c2.9-5.3,4.9-11.1,5.8-17.1c1.1-7.3,0.5-14.6-0.8-21.8c-2.1-11.7-6.2-23.5-14-32.7c-3.3-3.8-7.2-7.5-11.9-9.5l-0.2-0.1
		c-0.9-0.4-2.4-1-3.4-0.6s0.2,0.9,0.6,1.1c0.3,0.1,1,0.5,0.3,0.1c0.7,0.4,1.4,0.8,2,1.2c0.1,0.1,0.7,0.5,0.4,0.2l0.8,0.5
		c0.5,0.4,1.1,0.8,1.6,1.3c1.3,1.1,2.5,2.2,3.6,3.4c7.5,8,11.9,18.7,14.3,29.2c1.7,7.3,2.8,15.1,2.2,22.6
		c-0.5,6.1-2.1,12.1-4.6,17.6c-4.3,9.4-11.1,17.6-19,24.2c-2.8,2.4-5.8,4.6-8.9,6.6c-1,0.6-2,1.3-3.1,1.9c-0.6,0.3-1.1,0.6-1.7,0.9
		c-0.1,0-0.1,0.1-0.2,0.1c-0.1,0.1-0.2,0.2-0.1,0.3c0,0,0,0,0,0c4.4,9.8,12.8,17.4,21.3,23.7c7.5,5.5,15.5,10.3,23.9,14.3
		c1.7,0.8,3.4,1.6,5.1,2.4c0.5,0.2,4,1.3,3.8,0.2c-0.9-3.9-1.3-7.8-1.3-11.8c-0.3-9.2,1.4-18.4,4.8-26.9c5-12.3,13.9-22.1,24.8-29.4
		c10.4-7,22.4-11.5,35-11.8c2-0.1,4.1,0,6.1,0.2c0.4,0,0.9,0.1,1.3,0.1l0.6,0.1c0.5,0.1,0.1,0,0,0l0.4,0.1c0.8,0.1,1.6,0.3,2.4,0.4
		c0.2,0.1,1.2,0.3,0.5,0.1l1,0.2c0.5,0.1,1.1,0.3,1.6,0.4s-0.6-0.2-0.2-0.1l0.3,0.1l0.6,0.2l0.7,0.3c0.3,0.1-0.7-0.3-0.3-0.1
		s3.8,1.2,3.8,0.4c-0.1-3.7-0.9-7.3-2.2-10.7c-3.3-9.3-9.2-17.5-16.2-24.4c-11.8-11.7-26.7-20-41.9-26.2
		c-13.6-5.6-27.9-9.5-42.5-11.6c-6.9-1.1-13.9-1.6-20.8-1.5H284c-0.9,0-1,0.5-0.2,0.9C284.8,91.7,286,92,287.2,92z"></path><path class="st2" d="M355.1,244.9c0,0,58.4-10.7,50.4-70.7c0,0-36.4-6.4-54.7,15.5S355.1,244.9,355.1,244.9z"></path><path class="st2" d="M356.3,245.8c7.1-1.4,13.8-3.9,20.1-7.4c12.8-6.8,23.3-17.4,28.5-31.1c4-10.5,4.5-21.9,3-32.9
		c-0.1-0.7-1.2-0.9-1.8-1c-4.6-0.8-9.3-1.1-14-1c-9.2,0.1-18.6,1.4-27.2,5c-9.7,4-18.5,11.5-22,21.7c-3.2,9.5-1.6,19.8,1.6,29.1
		c2,5.9,4.7,11.6,8.1,16.8c0.5,0.8,2.2,0.9,3,0.8c0.4,0,2.3-0.2,1.8-1c-2.7-4.1-4.9-8.4-6.7-13c-3.5-8.6-5.7-18.2-4.1-27.5
		c1.8-10.4,8.9-18.6,18-23.6c7.9-4.3,17.1-6.1,25.7-6.5c3.5-0.2,7-0.1,10.4,0.2l1.8,0.2c0.8,0.1-0.5-0.1,0.2,0l0.6,0.1l1.2,0.2
		L403,174c1.3,9.9,1,20.1-2,29.8c-2.3,7.4-6.2,14.2-11.4,20c-4.4,4.9-9.6,9-15.3,12.2c-2.5,1.4-5,2.7-7.6,3.8c-2.3,1-4,1.6-6.2,2.4
		c-1.7,0.6-3.4,1.1-5.1,1.5l-1.4,0.3c-0.1,0-0.3,0-0.4,0.1c-0.1,0,0.7-0.1,0.4-0.1c-0.6,0.1-1.8,0.4-1,1.1S355.5,245.9,356.3,245.8z
		"></path><path class="st1" d="M229.7,161.4c7.1-10.2,15.2-19.8,24-28.5c0.4-0.4-3.5-3.2-4.4-2.3c-8.8,8.8-16.9,18.3-24,28.5
		C224.9,159.7,229.1,162.4,229.7,161.4L229.7,161.4z"></path><path class="st1" d="M206.7,127.7l45.1,30.2c0.8,0.6,2.5,0.9,3.3,0.1s-0.2-1.9-1-2.4L209,125.3c-0.8-0.6-2.5-0.9-3.3,0
		S206,127.3,206.7,127.7L206.7,127.7z"></path><path class="st1" d="M356.1,209.1l19.3-22.8c0.8-0.9-3.2-3.9-4.1-2.8L352,206.3C351.2,207.2,355.2,210.2,356.1,209.1L356.1,209.1z"></path><path class="st1" d="M363.7,223.9c6.1-11.9,14-22.8,23.3-32.4c1.5-1.5-1.8-5.3-3.2-3.9c-9.5,9.8-17.6,20.9-23.8,33.1
		C359.1,222.4,362.6,225.9,363.7,223.9L363.7,223.9z"></path><path class="st1" d="M352.3,191.1c10.6,6.7,20.8,14.1,30.5,21.9c0.6,0.5,1.6,0.9,1.8-0.1s-0.8-2.5-1.6-3.1
		c-10-8.1-20.5-15.7-31.4-22.6c-0.9-0.6-1.5,0-1.4,0.9C350.5,189.3,351.2,190.4,352.3,191.1L352.3,191.1z"></path><path class="st1" d="M229.9,116.5c8.7,7.9,17.8,15.1,27.4,21.8c0.8,0.6,2.5,0.9,3.3,0.1s-0.2-1.9-0.9-2.4
		c-9.3-6.4-18.1-13.5-26.4-21.1c-0.9-0.9-2.2-1.1-3.4-0.7C228.8,114.7,229.2,115.8,229.9,116.5L229.9,116.5z"></path><path class="st1" d="M206.3,149.5c12.5-9.9,24.5-20.5,36-31.6c3.3-3.2,6.5-6.4,9.6-9.6c0.6-0.6-2.9-4.2-3.4-3.7
		c-11.2,11.4-22.9,22.3-35.1,32.6c-3.5,2.9-7,5.8-10.5,8.6C202.4,146.2,205.6,150,206.3,149.5L206.3,149.5z"></path></g><g id="vegetable"><path class="st0" d="M62.8,286l20.6-12.8c0,0,10,9.7,10,12.8s-20.6,12.1-20.6,12.1L62.8,286z"></path><path class="st2" d="M65,286.3l18-11.1l2.6-1.6l-4.6-0.1c1.7,1.7,3.4,3.4,5,5.2c1.2,1.3,2.4,2.8,3.4,4.2c0.6,0.8,1.6,2.1,1.5,3.1
		c-0.1,0.6-1,1.3-1.5,1.7c-1.1,0.8-2.3,1.6-3.5,2.3c-3,1.8-6.2,3.4-9.4,4.9c-1.9,0.9-3.9,1.9-5.8,2.7l4.6,0.1l-10-12.1
		c-0.6-0.7-2.3-0.6-3.1-0.5c-0.3,0-2.3,0.3-1.7,1l9.9,12.1c0.8,1,3.5,0.6,4.6,0.1c5-2.2,9.9-4.6,14.6-7.3c1.3-0.7,2.6-1.6,3.8-2.4
		c0.9-0.5,1.7-1.3,2.3-2.2c0.5-0.9-0.1-1.9-0.6-2.8c-0.9-1.5-1.9-2.9-3-4.2c-2-2.3-4.1-4.6-6.3-6.7c-0.9-0.9-3.6-0.8-4.6-0.1
		l-18,11.1l-2.6,1.6c-0.9,0.6,0.4,1,0.9,1C62.7,286.9,63.9,286.8,65,286.3z"></path><ellipse class="st2" cx="74.4" cy="260.8" rx="12.9" ry="11.2"></ellipse><path class="st2" d="M85.1,259.8c-0.2,4.4-2.9,8.3-7,10c-2.3,1-4.8,1.4-7.3,1.1c-0.6-0.1-1.1-0.2-1.7-0.3c-0.1,0-0.6-0.3-0.4-0.1
		c0,0,0.7,0.5,0.3,0.1c-1-0.7-1.9-1.4-2.7-2.3c-2.8-3.3-3.3-8-1.1-11.7c2.4-4.1,7.2-6.2,11.8-6c0.8,0,1.5,0.1,2.3,0.2
		c0.2,0,0.4,0.1,0.7,0.1c0.8,0.1-0.2,0.1-0.2-0.1c0.5,0.4,1,0.7,1.5,1c0.4,0.3,0.8,0.7,1.1,1.1C84,254.9,85,257.3,85.1,259.8
		c0,0.5,1.8,1.1,2.2,1.3c0.8,0.3,1.6,0.6,2.4,0.7c-0.1-6.2-5.3-9.8-10.6-11.8c-5.5-2.1-12-2-16.4,2.2c-4,3.6-4.5,9.7-1.2,13.9
		c1.9,2.2,4.3,4,7,5c2.9,1.4,6.1,2,9.4,1.9c6-0.4,11.8-4.8,11.9-11.2c0-0.5-1.8-1.1-2.2-1.3C86.7,260.2,85.9,259.9,85.1,259.8z"></path><ellipse class="st2" cx="99.6" cy="293.9" rx="9.6" ry="8.5"></ellipse><path class="st2" d="M91.4,295.8c0.1-7.5,9.9-10.6,15.4-6.5c0.3,0.2,0.5,0.5,0.8,0.7s0.1,0.1,0-0.2s0,0.1,0.1,0.2
		c0.1,0.4,0.2,0.8,0.2,1.1c0.1,1.6-0.3,3.2-1.1,4.6c-3.2,4.6-9.6,5.7-14.2,2.5c0,0,0,0,0,0c-0.3-0.2-0.5-0.5-0.8-0.7
		s-0.1,0.1,0.1,0.3c-0.1-0.2-0.2-0.4-0.2-0.7C91.5,296.8,91.4,296.3,91.4,295.8c-0.1-1-0.6-2-1.3-2.8c-0.1-0.2-1.5-1.7-1.4-1.1
		c0.2,2.6,1.1,5.1,2.6,7.1c1.2,1.9,3,3.4,5,4.5c3.9,1.8,8.6,1.1,11.8-1.9c1.4-1.4,2.3-3.1,2.5-5.1c0.1-2.2-0.5-4.5-1.7-6.4
		c-2.4-4.2-6.2-7.2-11.2-7c-4.7,0.2-9,3.7-9.1,8.6c0.2,1,0.6,2,1.3,2.8C90.1,294.8,91.4,296.4,91.4,295.8z"></path><ellipse class="st2" cx="106.6" cy="267.5" rx="8.6" ry="7"></ellipse><path class="st2" d="M113,268.4c0,1.2-0.4,2.4-1.2,3.3c0.2-0.2-0.5,0.5-0.3,0.3s-0.3,0.2-0.3,0.2s0.4-0.2,0,0
		c-0.1,0.1-0.3,0.2-0.4,0.2c0.4-0.2,0,0,0,0c-0.7,0.3,0.2,0-0.2,0.1c-0.2,0.1-0.5,0.1-0.7,0.2c-2.8,0.6-5.8-0.3-7.8-2.4
		c-1.8-1.8-2.2-4.6-0.8-6.7c0.1-0.2,0.3-0.4,0.5-0.6c0.1-0.1,0.2-0.2,0.3-0.3h0.1c0.5-0.5-0.2,0.1,0.1-0.1c0.2-0.1,0.3-0.2,0.5-0.3
		c-0.1,0-0.4,0.2,0,0c0.7-0.3-0.4,0.1,0.3-0.1c1.4-0.4,2.9-0.4,4.3-0.1C110.2,262.9,113,265.2,113,268.4c0,1.5,4.5-0.4,4.5-1.8
		c-0.1-3.8-3.2-6.4-6.7-7.2c-4.5-0.9-9.2,0.4-12.5,3.7c-2.6,2.6-3.6,6.5-1.2,9.5c2.6,3.2,7,4,10.8,3.2c4.3-0.9,9.4-4.2,9.5-9.1
		C117.5,265.1,113,266.9,113,268.4z"></path><ellipse class="st2" cx="106.6" cy="237.7" rx="8.6" ry="7"></ellipse><path class="st2" d="M112.8,237.2c-0.1,2.6-1.9,4.9-4.5,5.6c-1.2,0.4-2.4,0.4-3.6,0.2l-0.6-0.1c0.1,0,0.4,0.1-0.1,0l-0.4-0.2
		c-0.7-0.2,0.2,0.1-0.2-0.1c-0.6-0.2-1.1-0.6-1.5-1c-1.7-1.7-2-4.5-0.5-6.5c1.2-1.5,2.9-2.5,4.8-2.7c0.2,0,0.5-0.1,0.7-0.1h0.7h0.4
		c-0.2,0-0.2,0,0,0l0.6,0.1c0.1,0,0.8,0.2,0.3,0.1l0.5,0.2c0,0,0.7,0.3,0.3,0.1c1.9,0.9,3.1,2.7,3.1,4.8c0,0.4,0.6,0.9,0.9,1.1
		c0.6,0.3,1.2,0.5,1.9,0.5c1,0,2.1-0.3,2.1-1.5c-0.1-4.2-4-7.1-7.8-8.1c-4-1.1-8.8-0.5-11.9,2.3c-2.8,2.5-3.3,6.7-1,9.7
		c2.7,3.5,7.5,4.9,11.9,4.4c4.1-0.5,8.7-3.3,8.8-7.9c0-1.1-1.2-1.8-2.2-2C114.8,236.1,112.8,236.1,112.8,237.2z"></path><ellipse class="st2" cx="68.8" cy="303" rx="8.6" ry="8.5"></ellipse><path class="st2" d="M75.4,301.5c0,4.5-3.7,8.1-8.2,8.1c-0.4,0-0.8,0-1.2-0.1c-0.3,0-0.6-0.1-0.9-0.2c-0.2-0.1-0.4-0.1-0.6-0.2
		c0,0-0.3-0.2-0.2-0.1c-0.2-0.1-0.3-0.2-0.5-0.3c-0.2-0.1,0.2,0.3-0.1-0.1c0.3,0.4,0,0-0.1-0.1s-0.1-0.1,0.1,0.1l-0.3-0.3
		c0.3,0.4-0.4-0.6-0.2-0.4c-0.2-0.3-0.3-0.5-0.4-0.8c-0.3-0.7-0.5-1.5-0.5-2.2c-0.1-1.6,0.2-3.1,1-4.5c1.6-2.7,4.5-4.4,7.7-4.2
		c0.9,0.1,1.7,0.3,2.5,0.6c-0.2-0.1,0.1,0.1,0.1,0.1l0.4,0.2c-0.2-0.1-0.2-0.1,0,0.1c-0.2-0.3-0.2,0,0,0c0.2,0.2,0.2,0.2,0,0
		l0.2,0.2c0.5,0.5-0.2-0.3,0.2,0.2c0,0,0.3,0.5,0.2,0.3c0.2,0.3,0.4,0.7,0.5,1C75.2,299.7,75.4,300.6,75.4,301.5
		c0,0.9,1.1,1.9,1.9,2.4c0.2,0.2,2.1,1.3,2,0.3c-0.1-8.7-12.3-15.9-18.9-8.8s2.4,18.4,10.9,17.6c4.5-0.5,8-4.2,8.1-8.8
		c0-1-1.2-2-1.9-2.5C77.2,301.7,75.4,300.6,75.4,301.5z"></path><path class="st0" d="M115.8,271.2l15.6,17.7c0,0-9.8,9.9-13.1,10.1s-14.9-17.8-14.9-17.8L115.8,271.2z"></path><path class="st2" d="M113.4,272l13.6,15.4l2,2.2l0.2-0.5c-1.6,1.6-3.2,3.1-4.9,4.6c-1.3,1.1-2.6,2.2-3.9,3.2
		c-0.3,0.2-0.6,0.4-0.9,0.6c-0.1,0.1-0.8,0.5-0.7,0.4l-0.3,0.2c-0.5,0.3,0.4-0.1-0.1,0c0.3-0.1,1.6-0.5,1.6-0.3
		c-0.3-0.1-0.6-0.2-0.8-0.4c-0.4-0.3-0.8-0.6-1.2-1c-1-1-2-2.1-2.9-3.2c-2.1-2.5-4-5.2-5.9-7.9c-1.2-1.7-2.3-3.3-3.4-5l-0.2,0.5
		l12.4-10.1c0.9-0.7-0.8-0.7-1.2-0.6c-1.2,0.2-2.2,0.6-3.2,1.3l-12.4,10.1c-0.2,0.1-0.2,0.3-0.2,0.4c2.9,4.7,6.2,9.2,9.7,13.5
		c1.4,1.6,3.4,4.5,5.8,4.5c3.8,0.2,7.6-3,10.3-5.3c2.3-2,4.6-4,6.8-6.2c0.2-0.1,0.2-0.3,0.2-0.4l-13.6-15.5l-2-2.2
		C117.2,269.3,113.1,271.6,113.4,272z"></path><path class="st0" d="M86.2,258.9L79.6,237c0,0,13.2-5.5,16.4-4.5s6,21.7,6,21.7L86.2,258.9z"></path><path class="st2" d="M88.1,259.6l-5.8-19.2l-0.8-2.7L81,239c2-0.8,4.1-1.6,6.1-2.3c1.7-0.6,3.4-1.1,5.1-1.6c1.3-0.4,2.6-0.6,4-0.7
		h0.3c0.3,0,0.2,0.1,0.2,0c0,0.1-0.8-0.5-0.7-0.4c-0.1-0.1-0.8-0.8-0.4-0.4c0.2,0.2-0.1-0.1-0.1-0.2l0.2,0.5
		c0.5,1.1,0.9,2.3,1.2,3.4c0.9,3.2,1.6,6.4,2.1,9.6c0.4,2,0.7,4,1,6.1l0.5-0.8L84.8,257c-1.8,0.5,1.2,4.5,2.8,4l15.8-4.7
		c0.4-0.1,0.6-0.5,0.5-0.8c-0.7-5.6-1.8-11.1-3.2-16.6c-0.8-2.8-1.9-6.4-4.6-7.9c-1.3-0.6-2.8-0.7-4.2-0.3c-1.8,0.3-3.5,0.8-5.2,1.4
		c-2.8,0.9-5.7,2-8.4,3.1c-0.6,0.2-0.6,0.8-0.4,1.3l5.8,19.2l0.8,2.7c0.4,1.2,1.3,2.1,2.4,2.6C87.7,261.2,88.4,260.6,88.1,259.6z"></path><path class="st0" d="M128.9,271.9l20.6-12.7c0,0,9.9,9.7,9.9,12.7S138.9,284,138.9,284L128.9,271.9z"></path><path class="st2" d="M131.1,272.9l18-11.1l2.6-1.6l-4.1-0.7c1.7,1.6,3.3,3.3,4.8,5.1c1.2,1.3,2.3,2.8,3.4,4.2
		c0.4,0.5,0.7,1,0.9,1.6c0.1,0.2,0.2,0.5,0.3,0.7c0,0.1,0,0.2,0,0.2c0,0.3,0-0.2,0,0.1s-1,1.2-1.6,1.7c-1.1,0.8-2.2,1.6-3.4,2.3
		c-3,1.8-6.1,3.3-9.3,4.9c-1.9,0.9-3.8,1.8-5.7,2.7l4.1,1.2l-10-12.1c-0.8-0.9-2-1.4-3.2-1.4c-0.6,0-2.1,0.4-1.3,1.3l10,12.1
		c0.8,1,2.9,1.8,4.1,1.2c5-2.2,10-4.6,14.7-7.3c1.4-0.8,2.7-1.6,4-2.6c0.9-0.6,1.7-1.3,2.2-2.3c0.4-1-0.3-2.2-0.8-3.1
		c-0.9-1.5-2-3-3.2-4.3c-2-2.4-4.1-4.6-6.3-6.8c-1.1-1-2.7-1.3-4.1-0.7l-18,11.1l-2.6,1.6c-0.9,0.6,0.9,1.7,1.3,1.9
		C128.9,273.4,130.1,273.4,131.1,272.9z"></path><ellipse class="st2" cx="88.5" cy="211.8" rx="12.9" ry="11.2"></ellipse><path class="st2" d="M98.9,211.7c-0.2,9.2-13.1,11.8-18.7,5.8c-2.6-2.8-2.9-7-0.8-10.1c2.5-3.4,6.8-5.2,11-4.4
		C94.9,203.5,98.9,206.9,98.9,211.7c0,2.8,5,3.2,5,0.2c-0.2-13.4-19.1-17.7-27.4-8.7c-4,4.2-4.5,10.7-1.1,15.5
		c3.7,5.1,10.3,7.3,16.4,6.2c6.5-1.1,12-6.3,12.2-13.1C103.9,209.1,99,208.7,98.9,211.7z"></path><ellipse class="st2" cx="125.4" cy="257.6" rx="9.6" ry="8.5"></ellipse><path class="st2" d="M118.2,258.2c0.2-3.2,2.3-6,5.3-7.1c1.5-0.6,3.1-0.7,4.6-0.5c0.1,0,1,0.3,0.6,0.2c0.2,0.1,0.5,0.2,0.7,0.3
		c-0.1,0-0.4-0.2,0.1,0.1c0.5,0.3,1,0.7,1.4,1.1c2.1,2.4,2.3,5.8,0.5,8.4c-1.8,2.7-5,4.2-8.3,3.8c-0.3,0-0.7-0.1-1-0.2
		c-0.8-0.2,0.3,0.2-0.4-0.1c-0.1,0-0.7-0.3-0.3-0.1c-0.6-0.3-1.2-0.7-1.7-1.3C118.8,261.6,118.1,259.9,118.2,258.2
		c0-1.6-4.7-3.1-4.7-1.3c0.1,4.9,4.3,8.4,8.6,9.9s9.5,0.9,12.8-2.5c2.9-3,3.3-7.6,0.9-11c-3-4-8-6.2-13-5.6c-4.8,0.6-9.2,4-9.3,9.2
		C113.5,258.4,118.1,260,118.2,258.2z"></path><ellipse class="st2" cx="120.7" cy="218.4" rx="8.6" ry="7"></ellipse><path class="st2" d="M127.1,217.8c0,0.3,0,0.7-0.1,1c0.1-0.4-0.1,0.3-0.2,0.4c-0.1,0.2-0.1,0.3-0.2,0.5c-0.2,0.3,0.3-0.4-0.1,0.2
		c-0.2,0.3-0.4,0.6-0.6,0.9c-0.1,0.2-0.3,0.3-0.5,0.5c-0.3,0.2-0.5,0.4-0.8,0.6c-0.5,0.4-1.1,0.6-1.8,0.8c-1.3,0.4-2.7,0.5-4.1,0.3
		c-0.4-0.1-0.8-0.2-1.2-0.3c-0.1,0-0.8-0.3-0.6-0.2c-0.3-0.2-0.7-0.3-1-0.6l-0.4-0.3c0.4,0.3-0.2-0.1-0.2-0.2s-0.2-0.2-0.3-0.3
		c-0.5-0.4,0.2,0.3-0.1-0.1s-0.4-0.5-0.5-0.8c0.3,0.4-0.1-0.3-0.2-0.4s-0.1-0.6,0-0.1c0-0.2-0.1-0.4-0.1-0.6s0-0.4,0,0
		c0-0.1,0-0.3,0-0.4s0-0.3,0-0.4c0.1-0.6-0.1,0.2,0-0.2c0.1-0.3,0.2-0.6,0.3-0.9c0.2-0.4,0.1-0.2,0-0.1c0.1-0.2,0.2-0.4,0.3-0.5
		c1.8-2.1,4.6-3.2,7.3-2.7c0.7,0.1,1.4,0.3,2.1,0.6c-0.3-0.1,0.1,0,0.1,0.1l0.6,0.3l0.5,0.3h-0.1l0.3,0.2c0.1,0.1,0.3,0.3,0.4,0.4
		c0.4,0.4-0.2-0.3,0.1,0.1l0.2,0.4c0.1,0.1,0.4,0.7,0.1,0.1c0.2,0.3,0.3,0.7,0.4,1c-0.1-0.5,0,0,0,0.1S127.1,218.3,127.1,217.8
		c-0.1,1.4,0.7,2.5,1.9,3c0.9,0.3,2-0.2,2.3-1.1c0.1-0.2,0.1-0.3,0.1-0.5c-0.2-9.4-12.9-13.1-19.2-6.9c-2.8,2.9-3.2,7.5-0.8,10.8
		c2.7,3.5,7,5.3,11.4,4.6c4.3-0.6,8.5-3.9,8.6-8.5c0-1.3-0.8-2.5-2-2.9c-0.9-0.3-1.9,0.2-2.2,1.2
		C127.1,217.5,127.1,217.6,127.1,217.8z"></path><ellipse class="st2" cx="120.7" cy="188.7" rx="8.6" ry="7"></ellipse><path class="st2" d="M127.8,187.5c-0.1,2.6-2.4,4.6-4.8,5.4c-2.8,1-6,0.6-8.4-1.2c-0.2-0.1-0.4-0.3-0.5-0.5
		c-0.1-0.1-0.4-0.4-0.1-0.1l-0.2-0.4c-0.3-0.4,0,0,0,0c-0.1-0.6,0.1,0.3,0-0.1c0-0.1-0.2-0.6-0.1-0.1c0-0.1-0.1-0.6-0.1-0.3
		c-0.1-1.1,0.3-2.3,1-3.1c1.8-2.4,5-3.4,7.9-3.1c1.5,0.1,3,0.7,4.2,1.6c0.2,0.1,0.3,0.2,0.4,0.4c-0.2-0.2,0.2,0.2,0.2,0.2
		s0.3,0.4,0,0c0.1,0.2,0.2,0.3,0.3,0.5c-0.3-0.5-0.1-0.1,0,0c-0.1-0.3-0.1-0.3,0,0l0.1,0.2c-0.1-0.4,0,0,0,0.1s0,0.1,0,0
		C127.8,187.2,127.8,187.3,127.8,187.5c0.1,1.3,0.6,2.4,1.6,3.2c0.8,0.6,1.5,0.3,1.5-0.7c-0.2-4.4-3-8.3-7.1-9.8
		c-3.8-1.4-8-0.6-11,2.1c-3,3-2.6,7.6-0.4,10.9c2.3,3.5,6.3,5.3,10.4,4.9c4.2-0.5,8-3.4,8.1-8c0-1.2-0.6-2.4-1.5-3.2
		C128.5,186.1,127.8,186.5,127.8,187.5z"></path><ellipse class="st2" cx="82.8" cy="253.9" rx="8.6" ry="8.5"></ellipse><path class="st2" d="M90.2,252.2c-0.1,6.8-8.9,10.7-13.9,5.9c-0.1-0.1-0.5-0.5-0.4-0.5c-0.3-0.3-0.1-0.1,0-0.1
		c-0.3-0.4,0,0.1,0.1,0.2c0-0.1-0.2-0.4,0-0.1c-0.2-0.6,0,0.2-0.1-0.4c-0.1-0.4-0.1-0.7-0.2-1.1c-0.1-1.6,0.3-3.1,1.1-4.4
		c1.7-2.8,4.7-4.4,7.9-4.1c1.7,0.1,3.4,0.8,4.7,1.9c0.1,0.1,0.2,0.2,0.3,0.3l0.2,0.3c0.4,0.5-0.2-0.3,0.2,0.2
		c-0.1-0.1-0.3-0.7-0.1-0.2c-0.2-0.5,0.1,0.2,0,0.1c0,0.1,0.1,0.5,0.2,0.6C90.2,251.4,90.2,251.8,90.2,252.2
		c0.2,1.2,0.7,2.2,1.5,3.1c0.2,0.3,1.2,1.4,1.2,0.4c-0.1-2.5-0.9-5-2.3-7.1c-1.1-1.9-2.7-3.4-4.7-4.4c-3.6-1.8-8-1-10.7,2.1
		c-3,3.5-2.5,8.1-0.5,12s5.6,6.8,10.2,6.4c4.5-0.5,8-4.3,7.9-8.9c-0.1-1.2-0.6-2.2-1.4-3.1C91.1,252.2,90.2,251.1,90.2,252.2z"></path><path class="st0" d="M129.8,222.2l15.6,17.7c0,0-9.8,9.9-13.1,10.1s-14.9-17.8-14.9-17.8L129.8,222.2z"></path><path class="st2" d="M127.7,223.2l13.6,15.5l2,2.2l0.4-2.4c-1.6,1.6-3.2,3.1-4.9,4.6c-1.4,1.2-2.8,2.4-4.2,3.5
		c-0.5,0.4-1,0.7-1.5,1c-0.3,0.1-0.6,0.3-0.8,0.4l-0.3,0.1c0.8-0.3-0.4,0,0.2-0.1c0.1,0,0.9,0.1,0.4,0c1,0.2,0.1,0.1,0-0.1
		c0.1,0.2,0.4,0.3,0.1,0.1l-0.3-0.2c-0.2-0.2-0.5-0.4-0.7-0.6c-0.9-0.9-1.8-1.8-2.6-2.8c-2.2-2.6-4.2-5.4-6.1-8.1
		c-1.2-1.7-2.3-3.3-3.4-5l-0.4,2.4l12.4-10.1c0.8-0.6,0.9-1.7,0.3-2.5c-0.1-0.1-0.2-0.2-0.3-0.3c-1-0.8-2.5-0.8-3.5,0l-12.4,10.1
		c-0.8,0.6-0.9,1.7-0.4,2.4c2.9,4.6,6.1,9,9.6,13.3c1.7,2,3.8,4.9,6.6,5.4c3.3,0.6,6.8-2.6,9.1-4.5s4.5-4,6.6-6.1
		c0.8-0.6,0.9-1.7,0.4-2.4L134,223.4l-2-2.2c-0.9-1-2.3-1.3-3.4-0.7C127.6,220.9,126.8,222.2,127.7,223.2z"></path><path class="st0" d="M100.3,209.9L93.7,188c0,0,13.2-5.5,16.4-4.5s6,21.7,6,21.7L100.3,209.9z"></path><path class="st2" d="M102.4,211.2l-4.5-14.9l-1.3-4.2c-0.2-0.9-0.4-1.7-0.8-2.5c-0.2-0.4,0.1-0.2-0.3-0.1l0.8-0.3
		c1.3-0.5,2.6-1,3.9-1.5c3.2-1.2,6.8-2.6,10.3-2.8c0.3,0,0.5,0,0.8,0c-0.1,0,0.2,0,0.2,0c-0.7,0-1.8-1.2-2.5-1.7
		c0.3,0.2,0-0.1,0.2,0.3c0.2,0.3,0.3,0.5,0.4,0.8c0.6,1.3,1.1,2.7,1.4,4.2c0.9,3.4,1.6,6.9,2.2,10.3c0.2,1.3,0.4,2.6,0.6,3.9
		c0,0.3,0.1,0.7,0.2,1c0.2,0.4-0.2,0.1,0.2,0.1c-2.8,0.7-5.5,1.6-8.2,2.5l-7.5,2.3c-0.7,0.2,0.8,1.5,1,1.6c0.5,0.4,2,1.6,2.8,1.4
		l15.8-4.7c0.2,0,0.2-0.1,0.2-0.3c-0.7-5.5-1.8-11-3.2-16.3c-0.9-3.2-2.1-5.9-5.2-7.6c-2.9-1.6-6.7,0-9.5,0.9s-5.7,1.9-8.4,3.1
		c-0.2,0-0.2,0.1-0.2,0.3l5.8,19.2l0.8,2.7c0.3,0.9,1.5,1.6,2.3,2.1C100.7,210.9,102.6,211.8,102.4,211.2z"></path></g><g id="potato"><path class="st0" d="M310.3,292.1c0,0,64.5,33.3,65.9,35.7S361.6,351,330,347S298.9,298.5,310.3,292.1z"></path><path class="st2" d="M309.1,293.7c8.8,4.5,17.5,9.1,26.2,13.7c11.8,6.2,24.3,12.5,35.9,19.5c0.7,0.4,1.4,0.8,2.1,1.3
		c0.2,0.1,0.4,0.3,0.6,0.4c0.1,0.1,0.2,0.1,0.2,0.2c0.3,0.2-0.4-0.5-0.2-0.1c-0.1-0.2-0.1-0.3-0.2-0.5c0,0.1,0,0.2,0,0.3
		c-0.1-0.5,0.1-0.4,0,0s-0.3,0.6-0.4,1c-0.2,0.5,0-0.1-0.1,0.1s-0.3,0.5-0.5,0.7c-3.6,5.3-9.3,9-15.1,11.6
		c-4.4,1.9-9.1,3.2-13.9,3.7c-5.5,0.7-11.1,0.4-16.5-0.8c-3.7-0.9-7.1-2.5-10-4.9c-2.8-2.3-5.1-5.1-6.8-8.2
		c-3.4-6.4-5-13.6-4.8-20.8c0-3.1,0.5-6.2,1.3-9.2c0.4-1.3,0.9-2.7,1.5-3.9c0.1-0.3,0.3-0.6,0.4-0.9c0.3-0.5-0.1,0.1,0.2-0.4
		c0.3-0.5,0.7-1,1.1-1.5c0.1-0.2,0.3-0.3,0.5-0.5c0.5-0.5-0.1,0,0.3-0.3c0.4-0.3,0.8-0.6,1.2-0.9c0.7-0.4,0.9-1.3,0.5-2
		c-0.1-0.2-0.3-0.4-0.5-0.5c-1.1-0.7-2.5-0.7-3.5,0c-4.9,2.8-6.6,9.5-7.4,14.7c-1.1,7.5-0.3,15.1,2.3,22.1c2.7,7.7,8.1,14,15.3,17.9
		c4.6,2.4,9.7,3.2,14.9,3.6c6,0.4,11.9,0,17.8-1.4c8.6-1.9,16.4-6.2,22.7-12.3c1.7-1.6,3.2-3.5,4.2-5.7c0.8-1.3,0.4-2.9-0.9-3.7
		c-1.4-1-2.8-1.9-4.3-2.7c-2.5-1.5-5-2.8-7.5-4.2c-6.9-3.8-13.8-7.5-20.7-11.2c-10.9-5.8-21.9-11.5-32.8-17.2l-0.6-0.3
		C309.4,289.4,306.2,292.2,309.1,293.7z"></path><path class="st2" d="M308.4,295.7c-2.9,11.2,2.9,22.6,11.6,29.5c4.6,3.6,9.8,6.3,15.3,8.2c5.6,2.1,11.5,3.4,17.5,4
		c6.7,0.7,13.6-0.5,19.7-3.4c0.9-0.4,2.4-1,2.9-1.8s-0.7-0.2-1,0c-10.5,5.1-23.5,2.6-34-1.1c-10.4-3.6-20.4-9.8-25.4-20
		c-2.8-5.5-3.6-11.7-2.2-17.7c0.1-0.5-1.6,0.4-1.8,0.5C310.4,294.2,308.6,294.9,308.4,295.7L308.4,295.7z"></path><path class="st0" d="M264.8,358.4c0,0,64.8-32.8,67.5-32.5s10.3,25.4-11.5,48.7S263.3,371.4,264.8,358.4z"></path><path class="st2" d="M266.8,359.4c7.5-3.8,15-7.6,22.6-11.3c12-6,24-12,36.2-17.6c1.9-0.9,3.8-1.8,5.8-2.6c0.6-0.2,1.2-0.5,1.8-0.7
		l0.6-0.2c0.3-0.1-0.5,0.1-0.1,0c0.2,0,0.5,0-0.3,0c-0.9,0-1.8-0.2-2.6-0.7c-0.1,0-0.2-0.3-0.1,0c0.1,0.1,0.2,0.2,0.2,0.3
		c0.2,0.2-0.2-0.3,0,0l0.1,0.3c0.4,0.9,0.8,1.8,1.1,2.8c0.8,2.9,1.2,6,1.2,9.1c-0.1,9.8-3.1,19.4-8.7,27.5
		c-5.5,8.2-13,15.5-23.3,16.5c-1.8,0.2-3.6,0.2-5.5-0.1c-1.8-0.2-3.6-0.6-5.4-1.1c-3.7-1.1-7.2-2.8-10.4-4.9
		c-5.1-3.4-10.8-8.3-12.6-14.5c-0.3-1-0.4-2.1-0.3-3.1c0.2-1.5-4.8-2.4-4.9-1.1c-0.1,2.7,0.7,5.4,2.2,7.6c1.9,3,4.2,5.7,7,8
		c6.8,5.8,15.1,9.6,23.9,11c9.3,1.4,18.7-0.9,25.7-7.2c4.7-4.3,8.5-9.5,11.4-15.1c2.4-4.6,4.2-9.6,5-14.8c0.7-4,0.8-8.1,0.4-12.1
		c-0.2-2.6-0.8-5.2-1.9-7.6c-1-2.1-3.3-3.3-5.6-2.9c-1.3,0.3-2.5,0.7-3.7,1.3c-11.8,5-23.2,10.9-34.7,16.6
		c-9.7,4.8-19.3,9.6-28.9,14.5l-0.5,0.2c-1,0.5,0,1.2,0.6,1.5C264.3,359.4,265.9,359.9,266.8,359.4z"></path><path class="st2" d="M264.7,359.5c7.8,9.4,21.1,12.2,32.7,9.6c6.2-1.5,12-4.1,17.2-7.8c5.1-3.3,9.8-7.3,13.9-11.9
		c4.4-5,7.8-10.9,9-17.5c0.3-1.6-4.5-3-4.7-1.6c-2,11-10,19.6-18.7,26.2s-19.7,12.2-30.9,10.6c-5.4-0.7-10.3-3.3-13.9-7.4
		c-0.8-0.9-1.9-1.4-3.1-1.5C265.5,358.3,264,358.6,264.7,359.5L264.7,359.5z"></path><path class="st0" d="M298.1,294.4c0,0-11.6,71.7-13.4,73.7s-26.6-6.7-32.7-38S288.5,285.6,298.1,294.4z"></path><path class="st2" d="M295.7,294.6c-1.6,9.7-3.2,19.4-4.8,29.1c-1.3,7.8-2.7,15.5-4.1,23.3c-0.6,3.4-1.2,6.5-1.8,9.5
		c-0.5,2.5-1,5-1.5,7.4c-0.2,0.8-0.4,1.5-0.6,2.3c-0.1,0.3-0.2,0.5-0.2,0.8s-0.4,0.7,0,0c-0.1,0.3-0.2,0.2,0.3-0.3
		c0.2-0.3,0.5-0.4,0.9-0.5c-0.5,0.2,0.3-0.2,0.3,0h-0.4c-0.6,0,0.6,0.1,0.1,0c-0.1,0-0.3,0-0.4,0c-0.5-0.1-0.9-0.2-1.3-0.3
		c-0.2,0-0.9-0.3-0.1,0l-0.8-0.3c-0.6-0.2-1.1-0.4-1.7-0.7c-1.3-0.6-2.6-1.3-3.8-2c-0.9-0.5-0.9-0.5-1.6-1s-1.6-1.1-2.3-1.7
		c-1.5-1.2-2.8-2.4-4.1-3.8c-7-7.1-11.3-16.6-13.3-26.5c-0.9-4.1-0.8-8.4,0.2-12.4c0.5-1.7,1.1-3.4,1.9-5c0.5-0.9,0.9-1.7,1.5-2.5
		c0.2-0.3,0.5-0.7,0.7-1l0.4-0.6c0-0.1,0.6-0.8,0.4-0.5c1.2-1.5,2.6-2.9,4-4.2c1.3-1.2,2.7-2.2,4.2-3.1c1.6-1,3.2-1.9,4.9-2.7
		l0.6-0.3c0.7-0.3-0.5,0.2,0.2-0.1l1.3-0.5c0.9-0.3,1.7-0.7,2.6-1c3-1.1,6.2-1.7,9.4-1.9c0.8,0,1.5-0.1,2.3,0c0.1,0,1.1,0,0.5,0
		c0.4,0,0.8,0.1,1.2,0.1c0.6,0.1,1.2,0.2,1.8,0.3c0.3,0.1,0.6,0.1,0.9,0.2c0.1,0,0.6,0.2,0,0l0.5,0.2c0.5,0.2,0.9,0.4,1.4,0.6
		c0.6,0.4-0.1-0.2,0.3,0.2c0.2,0.2,0.4,0.3,0.6,0.5c2.1,1.9,5.8-1.5,3.5-3.5c-4.5-4.1-12-3.6-17.6-2.5c-7.9,1.5-15.3,5-21.4,10.2
		c-6.6,5.5-11.1,13.2-11.8,21.9c-0.4,5.4,0.8,10.9,2.4,16.1c1.6,5.2,4,10.1,7,14.6c4.4,6.7,10.5,12.1,17.6,15.7
		c3.1,1.5,9.3,4.1,11-0.6c0.5-1.6,0.9-3.2,1.2-4.8c0.6-2.8,1.1-5.6,1.7-8.4c1.5-7.8,2.9-15.6,4.2-23.5c2.1-12.1,4.1-24.3,6.1-36.5
		c0-0.2,0.1-0.4,0.1-0.6c0.2-1.3-1.2-2.2-2.3-2.1C296.9,292.3,295.9,293.3,295.7,294.6z"></path><path class="st2" d="M293.8,294.2c-11.3,0.7-20.2,9.5-24.2,19.6c-2.2,6-3.3,12.3-3.3,18.6c-0.2,5.8,0.4,11.7,1.7,17.4
		c1.4,6.2,4.4,12,8.7,16.7c0.8,0.8,1.8,1.4,3,1.8c0.3,0.1,1.9,0.5,1.2-0.3c-8-8.3-10.1-20.6-10.1-31.7c0-11.6,2.6-23.9,11.2-32.2
		c4.3-4.3,10-6.9,16-7.4c0.7,0-1.1-1.4-1.2-1.4C295.9,294.6,294.9,294.3,293.8,294.2L293.8,294.2z"></path><path class="st0" d="M191.9,390.7c0,0,44.5-57.4,47.1-58.3s20.2,18.6,10.5,49S196.1,403,191.9,390.7z"></path><path class="st2" d="M194.2,391.5c5.8-7.5,11.6-14.9,17.4-22.3c8.5-10.8,16.9-21.6,25.8-32c1-1.2,2.1-2.4,3.2-3.5
		c0.1-0.1,0.3-0.3,0.3-0.3c0.2-0.2,0.2,0,0.1-0.1s-1.2-0.2-1.6-0.4c-0.3-0.1-0.6-0.3-0.8-0.4c0.3,0.1-0.5-0.2-0.2-0.1
		c0.1,0,0.2,0.1,0.2,0.1c-0.3-0.3-0.1-0.1,0,0s0.4,0.3,0.6,0.5c1.9,1.8,3.6,3.9,4.8,6.2c2,3.5,3.5,7.2,4.5,11.1
		c1.3,5.1,1.7,10.3,1.4,15.5c-0.3,5.9-1.6,11.8-3.8,17.3c-3,7.2-9,12.9-16.3,15.5c-6.7,2.4-14,2.9-21,1.6c-1.5-0.3-3-0.6-4.5-1.1
		c-0.7-0.2,0.5,0.2-0.2-0.1l-0.6-0.2l-1-0.4c0.6,0.2-0.5-0.2-0.7-0.3l-0.5-0.2l-0.1-0.1c-1.1-0.5-2.1-1.1-3-1.8
		c-0.9-0.7-1.8-1.4-2.5-2.3c-0.6-0.8-1.2-1.6-1.5-2.6c-0.3-0.8-2.1-1.2-2.8-1.4c-0.3-0.1-2.1-0.6-1.9,0c0.9,2.2,2.5,4.1,4.5,5.4
		c2.9,2,6,3.6,9.3,4.7c7.4,2.7,15.4,3.5,23.2,2.5c7.7-1.1,15.1-4.5,20-10.5c3-3.8,5.1-8.3,6.2-13c1.6-6,2.2-12.3,1.8-18.5
		c-0.6-8.3-3.2-16.8-8.4-23.5c-1.4-2.1-3.4-3.7-5.6-4.8c-1-0.4-2.8-1.2-3.9-0.8c-0.4,0.2-0.7,0.5-1,0.8c-3.3,3.5-6.4,7.1-9.4,10.9
		c-4.9,6-9.6,12-14.4,18c-7.4,9.3-14.7,18.7-22,28.1l-0.4,0.5C189.3,390.1,193.5,392.5,194.2,391.5z"></path><path class="st2" d="M192.5,391.6c11.1,5.1,24.5,2.3,33.8-5.2c4.5-3.7,8.3-8.1,11.3-13.1c3.2-5.2,5.8-10.7,7.7-16.5
		c2.1-6.8,2.8-14,0.9-20.9c-0.4-1.4-5.3-1.3-4.8,0.4c3.1,11.3-1.2,23.2-6.6,33.1c-5.1,9.1-12.3,17.8-22.5,21.3
		c-5.2,1.9-10.9,1.8-16-0.4c-1.1-0.5-2.4-0.6-3.5-0.1C191.8,390.4,191.6,391.2,192.5,391.6L192.5,391.6z"></path><path class="st0" d="M274.3,255.6c0,0-11.6,71.7-13.4,73.7s-26.6-6.7-32.7-38S264.7,246.7,274.3,255.6z"></path><path class="st2" d="M272.3,254.6c-1.6,9.8-3.2,19.5-4.9,29.3c-2.3,13.5-4.4,27.2-7.4,40.6c-0.2,0.8-0.4,1.5-0.6,2.3
		c0,0.1,0.2-0.5,0,0c0,0.1-0.1,0.2-0.1,0.4s-0.2,0.4-0.2,0.5s0.3-0.5,0.2-0.3s0.5-0.3,0.2-0.2s0.5,0,0.1,0c-0.1,0-0.3,0-0.4,0
		c-0.4,0-0.3,0,0,0l-0.5,0c-0.5-0.1-0.9-0.2-1.3-0.3s-0.9-0.3-1.3-0.4s0.4,0.2,0,0l-0.4-0.2c-0.3-0.1-0.6-0.2-0.8-0.4
		c-1.3-0.6-2.6-1.3-3.8-2c-0.3-0.2-0.7-0.4-1-0.6c0,0-0.6-0.4-0.2-0.1l-0.4-0.3c-0.8-0.5-1.5-1.1-2.2-1.6c-1.5-1.2-3-2.5-4.3-3.9
		c-1.3-1.4-2.6-3-3.8-4.5c-1.4-1.8-2.6-3.8-3.7-5.8c-2.6-5-4.5-10.3-5.5-15.8c-1.5-7.8,0.7-15.8,5.7-21.8
		c4.9-5.7,11.4-9.9,18.6-12.1c3.1-1,6.3-1.7,9.5-1.9c0.8,0,1.5-0.1,2.3,0c0.6,0,1.2,0,1.8,0.1c0.6,0.1,1.2,0.2,1.8,0.3
		c0.3,0.1,0.6,0.1,0.9,0.2l0.4,0.1c0.6,0.2-0.1-0.1,0.2,0.1s0.9,0.4,1.4,0.7c0.6,0.3-0.1-0.2,0.3,0.2c0.2,0.2,0.4,0.3,0.6,0.5
		c0.6,0.7,1.6,0.7,2.3,0.1c0.1-0.1,0.2-0.3,0.3-0.4c0.4-1.2,0-2.5-1-3.3c-4.4-4-11.6-3.6-17-2.6c-7.8,1.5-15,4.9-21.1,10
		c-6.4,5.4-10.8,13.1-11.3,21.5c-0.2,5.5,0.7,11,2.5,16.2c1.7,5.3,4.1,10.4,7.3,15c4.4,6.7,10.5,12.2,17.7,15.9
		c2.2,1.1,8.4,4.2,9.7,0.5c0.5-1.7,1-3.4,1.3-5.1c0.6-2.8,1.2-5.7,1.7-8.5c1.5-7.6,2.8-15.2,4.1-22.9c2.1-12.2,4.1-24.3,6.1-36.5
		c0-0.2,0.1-0.4,0.1-0.6c0.2-1.3-0.5-2.5-1.6-3.1c-0.7-0.4-1.7-0.1-2,0.6C272.4,254.2,272.4,254.4,272.3,254.6z"></path><path class="st2" d="M269.7,255.8c-11.3,0.7-20.2,9.5-24.1,19.6c-2.2,5.9-3.3,12.1-3.3,18.4c-0.2,5.8,0.4,11.7,1.7,17.4
		c1.4,6.2,4.3,11.9,8.6,16.6c0.6,0.6,2.1,0.9,2.9,1.1c0.3,0.1,1.9,0.4,1.8,0.2c-8-8.3-10.2-20.4-10.2-31.6
		c-0.1-11.7,2.5-24.2,11.2-32.6c4.3-4.3,10-6.9,16-7.4c0.3,0-1.4-0.8-1.6-0.8C271.8,256.1,270.7,255.8,269.7,255.8L269.7,255.8z"></path></g></svg>